<REAPER_PROJECT 0.1 "6.64/win64" 1658442643
  RIPPLE 0
  GROUPOVERRIDE 0 0 0
  AUTOXFADE 129
  ENVATTACH 3
  POOLEDENVATTACH 0
  MIXERUIFLAGS 11 48
  PEAKGAIN 1
  FEEDBACK 0
  PANLAW 1
  PROJOFFS 0 0 0
  MAXPROJLEN 0 600
  GRID 3199 8 1 8 1 0 0 0
  TIMEMODE 1 5 -1 30 0 0 -1
  CURSOR 0
  ZOOM 100 0 0
  VZOOMEX 0 0
  USE_REC_CFG 0
  RECMODE 1
  SMPTESYNC 0 30 100 40 1000 300 0 0 1 0 0
  LOOP 0
  LOOPGRAN 0 4
  RECORD_PATH "" ""
  <RECORD_CFG
    ZXZhdxgAAA==
  >
  <APPLYFX_CFG
  >
  RENDER_FILE ""
  RENDER_PATTERN ""
  RENDER_FMT 0 2 0
  RENDER_1X 0
  RENDER_RANGE 1 0 0 18 1000
  RENDER_RESAMPLE 3 0 1
  RENDER_ADDTOPROJ 0
  RENDER_STEMS 0
  RENDER_DITHER 0
  TIMELOCKMODE 1
  TEMPOENVLOCKMODE 1
  ITEMMIX 1
  DEFPITCHMODE 589824 0
  TAKELANE 1
  SAMPLERATE 44100 0 0
  <RENDER_CFG
    ZXZhdxgAAA==
  >
  LOCK 1
  <METRONOME 6 2
    VOL 0.25 0.125
    FREQ 800 1600 1
    BEATLEN 4
    SAMPLES "" ""
    PATTERN 2863311530 2863311529
    MULT 1
  >
  GLOBAL_AUTO -1
  TEMPO 120 4 4
  PLAYRATE 1 0 0.25 4
  SELECTION 0 0
  SELECTION2 0 0
  MASTERAUTOMODE 0
  MASTERTRACKHEIGHT 0 0
  MASTERPEAKCOL 16576
  MASTERMUTESOLO 0
  MASTERTRACKVIEW 0 0.6667 0.5 0.5 0 -1 0 0 0 0 -1 -1 0
  MASTERHWOUT 0 0 1 0 0 0 0 -1
  MASTER_NCH 2 2
  MASTER_VOLUME 1 0 -1 -1 1
  MASTER_FX 1
  MASTER_SEL 0
  <MASTERPLAYSPEEDENV
    EGUID {DA552012-00BA-4F03-B8D1-3219087E806F}
    ACT 0 -1
    VIS 0 1 1
    LANEHEIGHT 0 0
    ARM 0
    DEFSHAPE 0 -1 -1
  >
  <TEMPOENVEX
    EGUID {AA99C0E2-9030-4D76-8F4E-E666C4194552}
    ACT 1 -1
    VIS 1 0 1
    LANEHEIGHT 0 0
    ARM 0
    DEFSHAPE 1 -1 -1
    PT 0.000000000000 88.0001525336 1 262148 0 1
    PT 2.727268000000 88.1448160565 1
    PT 5.450060000000 84.5424071760 1
    PT 8.288872000000 86.2712281141 1
    PT 13.852720000000 87.5241603151 1
    PT 16.594820000000 85.9198797122 1
    PT 19.388120000000 87.1625538047 1
    PT 22.141596000000 87.5241603151 1
    PT 24.883696000000 86.4479820880 1
    PT 27.659932000000 88.2567093486 1
    PT 30.379272000000 88.4415710761 1
    PT 33.092928000000 87.3429827920 1
    PT 38.588504000000 86.0951954576 1
    PT 41.376116000000 85.7452765071 1
    PT 46.974092000000 88.6273397618 1
    PT 49.682060000000 88.2567093486 1
    PT 52.401400000000 87.5241603151 1
    PT 55.143500000000 86.8039229586 1
    PT 57.908352000000 89.9501676071 1
    PT 60.576496000000 87.8887796789 1
    PT 63.307220000000 87.5241603151 1
    PT 66.049320000000 88.0724895304 1
    PT 68.774348000000 88.8141534235 1
    PT 71.476620000000 88.2567093486 1
    PT 74.195960000000 87.8887796789 1
    PT 76.926684000000 89.1896230847 1
    PT 79.617580000000 88.4415710761 1
    PT 82.331236000000 88.2567093486 1
    PT 85.050576000000 88.6273397618 1
    PT 87.758544000000 87.3429827920 1
    PT 90.506332000000 81.2845120491 1
    PT 93.458924000000 88.6273397618 1
    PT 96.166892000000 85.9198797122 1
    PT 98.960192000000 87.3429827920 1
    PT 101.707980000000 88.4415710761 1
    PT 107.135292000000 89.0014922584 1
    PT 109.831876000000 86.6257119551 1
    PT 112.602416000000 89.0014922584 1
    PT 115.299000000000 76.9829854772 1
    PT 118.416572000000 59.6000834401 1
    PT 122.449703937500 86.3000162532 1
    PT 125.226354631250 86.0951954576 1
    PT 128.013966631250 88.6273397618 1
    PT 133.429902631250 90.7240687930 1
    PT 136.075286631250 88.8141534235 1
    PT 138.777558631250 89.1896230847 1
    PT 141.468454631250 89.5682808861 1
    PT 144.147974631250 88.4415710761 1
    PT 146.861630631250 90.9195604342 1
  >
  <PROJBAY
  >
  <TRACK {2D89799C-0FF8-4A14-9444-7CD20A3221E2}
    NAME PAUL
    PEAKCOL 16576
    BEAT -1
    AUTOMODE 0
    VOLPAN 1 0 -1 -1 1
    MUTESOLO 0 0 0
    IPHASE 0
    PLAYOFFS 0 1
    ISBUS 0 0
    BUSCOMP 0 0 0 0 0
    SHOWINMIX 1 0.6667 0.5 1 0.5 -1 -1 -1
    SEL 0
    REC 0 0 1 0 0 0 0 0
    TRACKHEIGHT 0 0 0 0 0 0
    INQ 0 0 0 0.5 100 0 0 100
    NCHAN 2
    FX 0
    TRACKID {2D89799C-0FF8-4A14-9444-7CD20A3221E2}
    PERF 0
    MIDIOUT -1
    MAINSEND 1 0
    <FXCHAIN
      SHOW 0
      LASTSEL 0
      DOCKED 0
    >
    <ITEM
      POSITION 0
      SNAPOFFS 0
      LENGTH 165.05873578958332
      LOOP 0
      ALLTAKES 0
      FADEIN 1 0 0 1 0 0 0
      FADEOUT 1 0 0 1 0 0 0
      MUTE 0 0
      SEL 0
      IGUID {5FE04696-3184-4E38-AC29-EDC11D3BFBB9}
      IID 1
      NAME PAUL
      VOLPAN 1 0 1 -1
      SOFFS 0 0
      PLAYRATE 1 1 0 -1 0 0.0025
      CHANMODE 0
      GUID {5667AE25-7E02-46D7-A175-E2EAE631EA31}
      <SOURCE MIDI
        HASDATA 1 480 QN
        CCINTERP 32
        POOLEDEVTS {58A81B28-782C-48EC-8ACA-E8562779B579}
        <X 0 0 0 0 3 PAUL
          /wNQQVVM
        >
        E 3840 90 3c 60
        E 0 90 3e 60
        E 0 90 41 60
        E 360 80 3c 60
        E 0 80 3e 60
        E 0 80 41 60
        E 120 90 3c 60
        E 0 90 3e 60
        E 0 90 41 60
        E 360 80 3c 60
        E 0 80 3e 60
        E 0 80 41 60
        E 120 90 3c 60
        E 0 90 3e 60
        E 0 90 41 60
        E 360 80 3c 60
        E 0 80 3e 60
        E 0 80 41 60
        E 120 90 3c 60
        E 0 90 3e 60
        E 0 90 41 60
        E 360 80 3c 60
        E 0 80 3e 60
        E 0 80 41 60
        E 120 90 3c 60
        E 0 90 3e 60
        E 0 90 41 60
        E 360 80 3c 60
        E 0 80 3e 60
        E 0 80 41 60
        E 120 90 3c 60
        E 0 90 3e 60
        E 0 90 41 60
        E 360 80 3c 60
        E 0 80 3e 60
        E 0 80 41 60
        E 120 90 3c 60
        E 0 90 3e 60
        E 0 90 41 60
        E 360 80 3c 60
        E 0 80 3e 60
        E 0 80 41 60
        E 120 90 3c 60
        E 0 90 3e 60
        E 0 90 41 60
        E 360 80 3c 60
        E 0 80 3e 60
        E 0 80 41 60
        E 120 90 3c 60
        E 0 90 3e 60
        E 0 90 41 60
        E 360 80 3c 60
        E 0 80 3e 60
        E 0 80 41 60
        E 120 90 3c 60
        E 0 90 3e 60
        E 0 90 41 60
        E 360 80 3c 60
        E 0 80 3e 60
        E 0 80 41 60
        E 120 90 3c 60
        E 0 90 3e 60
        E 0 90 41 60
        E 360 80 3c 60
        E 0 80 3e 60
        E 0 80 41 60
        E 120 90 3c 60
        E 0 90 3e 60
        E 0 90 41 60
        E 360 80 3c 60
        E 0 80 3e 60
        E 0 80 41 60
        E 120 90 3c 60
        E 0 90 3e 60
        E 0 90 41 60
        E 360 80 3c 60
        E 0 80 3e 60
        E 0 80 41 60
        E 120 90 3c 60
        E 0 90 3e 60
        E 0 90 41 60
        E 360 80 3c 60
        E 0 80 3e 60
        E 0 80 41 60
        E 120 90 3c 60
        E 0 90 3e 60
        E 0 90 41 60
        E 360 80 3c 60
        E 0 80 3e 60
        E 0 80 41 60
        E 120 90 3c 60
        E 0 90 3e 60
        E 0 90 41 60
        E 360 80 3c 60
        E 0 80 3e 60
        E 0 80 41 60
        E 120 90 3e 60
        E 0 90 41 60
        E 0 90 43 60
        E 360 80 3e 60
        E 0 80 41 60
        E 0 80 43 60
        E 120 90 3e 60
        E 0 90 41 60
        E 0 90 43 60
        E 360 80 3e 60
        E 0 80 41 60
        E 0 80 43 60
        E 120 90 3e 60
        E 0 90 41 60
        E 0 90 43 60
        E 360 80 3e 60
        E 0 80 41 60
        E 0 80 43 60
        E 120 90 3e 60
        E 0 90 41 60
        E 0 90 43 60
        E 360 80 3e 60
        E 0 80 41 60
        E 0 80 43 60
        E 120 90 3e 60
        E 0 90 40 60
        E 0 90 43 60
        E 360 80 3e 60
        E 0 80 40 60
        E 0 80 43 60
        E 120 90 3e 60
        E 0 90 40 60
        E 0 90 43 60
        E 360 80 3e 60
        E 0 80 40 60
        E 0 80 43 60
        E 120 90 3e 60
        E 0 90 40 60
        E 0 90 43 60
        E 360 80 3e 60
        E 0 80 40 60
        E 0 80 43 60
        E 120 90 3e 60
        E 0 90 40 60
        E 0 90 43 60
        E 360 80 3e 60
        E 0 80 40 60
        E 0 80 43 60
        E 120 90 3c 60
        E 0 90 3e 60
        E 0 90 41 60
        E 360 80 3c 60
        E 0 80 3e 60
        E 0 80 41 60
        E 120 90 3c 60
        E 0 90 3e 60
        E 0 90 41 60
        E 360 80 3c 60
        E 0 80 3e 60
        E 0 80 41 60
        E 120 90 3c 60
        E 0 90 3e 60
        E 0 90 41 60
        E 360 80 3c 60
        E 0 80 3e 60
        E 0 80 41 60
        E 120 90 3c 60
        E 0 90 3e 60
        E 0 90 41 60
        E 360 80 3c 60
        E 0 80 3e 60
        E 0 80 41 60
        E 120 90 3c 60
        E 0 90 3e 60
        E 0 90 41 60
        E 360 80 3c 60
        E 0 80 3e 60
        E 0 80 41 60
        E 120 90 3c 60
        E 0 90 3e 60
        E 0 90 41 60
        E 360 80 3c 60
        E 0 80 3e 60
        E 0 80 41 60
        E 120 90 3c 60
        E 0 90 3e 60
        E 0 90 41 60
        E 360 80 3c 60
        E 0 80 3e 60
        E 0 80 41 60
        E 120 90 3c 60
        E 0 90 3e 60
        E 0 90 41 60
        E 360 80 3c 60
        E 0 80 3e 60
        E 0 80 41 60
        E 120 90 3e 60
        E 0 90 41 60
        E 0 90 43 60
        E 360 80 3e 60
        E 0 80 41 60
        E 0 80 43 60
        E 120 90 3e 60
        E 0 90 41 60
        E 0 90 43 60
        E 360 80 3e 60
        E 0 80 41 60
        E 0 80 43 60
        E 120 90 3e 60
        E 0 90 41 60
        E 0 90 43 60
        E 360 80 3e 60
        E 0 80 41 60
        E 0 80 43 60
        E 120 90 3e 60
        E 0 90 41 60
        E 0 90 43 60
        E 360 80 3e 60
        E 0 80 41 60
        E 0 80 43 60
        E 120 90 3e 60
        E 0 90 40 60
        E 0 90 43 60
        E 360 80 3e 60
        E 0 80 40 60
        E 0 80 43 60
        E 120 90 3e 60
        E 0 90 40 60
        E 0 90 43 60
        E 360 80 3e 60
        E 0 80 40 60
        E 0 80 43 60
        E 120 90 3e 60
        E 0 90 40 60
        E 0 90 43 60
        E 360 80 3e 60
        E 0 80 40 60
        E 0 80 43 60
        E 120 90 3e 60
        E 0 90 40 60
        E 0 90 43 60
        E 360 80 3e 60
        E 0 80 40 60
        E 0 80 43 60
        E 120 90 3c 60
        E 0 90 40 60
        E 0 90 41 60
        E 360 80 3c 60
        E 0 80 40 60
        E 0 80 41 60
        E 120 90 3c 60
        E 0 90 40 60
        E 0 90 41 60
        E 360 80 3c 60
        E 0 80 40 60
        E 0 80 41 60
        E 120 90 3c 60
        E 0 90 40 60
        E 0 90 41 60
        E 360 80 3c 60
        E 0 80 40 60
        E 0 80 41 60
        E 120 90 3c 60
        E 0 90 40 60
        E 0 90 41 60
        E 360 80 3c 60
        E 0 80 40 60
        E 0 80 41 60
        E 120 90 3c 60
        E 0 90 3e 60
        E 0 90 41 60
        E 360 80 3c 60
        E 0 80 3e 60
        E 0 80 41 60
        E 120 90 3c 60
        E 0 90 3e 60
        E 0 90 41 60
        E 360 80 3c 60
        E 0 80 3e 60
        E 0 80 41 60
        E 120 90 3c 60
        E 0 90 3e 60
        E 0 90 41 60
        E 360 80 3c 60
        E 0 80 3e 60
        E 0 80 41 60
        E 120 90 3c 60
        E 0 90 3e 60
        E 0 90 41 60
        E 360 80 3c 60
        E 0 80 3e 60
        E 0 80 41 60
        E 120 90 3c 60
        E 0 90 3e 60
        E 0 90 40 60
        E 360 80 3c 60
        E 0 80 3e 60
        E 0 80 40 60
        E 120 90 3c 60
        E 0 90 3e 60
        E 0 90 40 60
        E 360 80 3c 60
        E 0 80 3e 60
        E 0 80 40 60
        E 120 90 3c 60
        E 0 90 3e 60
        E 0 90 40 60
        E 360 80 3c 60
        E 0 80 3e 60
        E 0 80 40 60
        E 120 90 3c 60
        E 0 90 3e 60
        E 0 90 40 60
        E 360 80 3c 60
        E 0 80 3e 60
        E 0 80 40 60
        E 120 90 3c 60
        E 0 90 3e 60
        E 0 90 41 60
        E 600 80 3c 60
        E 0 80 3e 60
        E 0 80 41 60
        E 120 90 3e 60
        E 0 90 40 60
        E 0 90 41 60
        E 1080 80 3e 60
        E 0 80 40 60
        E 0 80 41 60
        E 120 90 3e 60
        E 0 90 40 60
        E 0 90 41 60
        E 60 80 3e 60
        E 0 80 40 60
        E 0 80 41 60
        E 180 90 3e 60
        E 0 90 40 60
        E 0 90 41 60
        E 60 80 3e 60
        E 0 80 40 60
        E 0 80 41 60
        E 180 90 3e 60
        E 0 90 40 60
        E 0 90 41 60
        E 60 80 3e 60
        E 0 80 40 60
        E 0 80 41 60
        E 180 90 3e 60
        E 0 90 40 60
        E 0 90 41 60
        E 60 80 3e 60
        E 0 80 40 60
        E 0 80 41 60
        E 180 90 3e 60
        E 0 90 40 60
        E 0 90 41 60
        E 60 80 3e 60
        E 0 80 40 60
        E 0 80 41 60
        E 180 90 3e 60
        E 0 90 40 60
        E 0 90 41 60
        E 60 80 3e 60
        E 0 80 40 60
        E 0 80 41 60
        E 180 90 3e 60
        E 0 90 40 60
        E 0 90 41 60
        E 60 80 3e 60
        E 0 80 40 60
        E 0 80 41 60
        E 180 90 3e 60
        E 0 90 40 60
        E 0 90 41 60
        E 60 80 3e 60
        E 0 80 40 60
        E 0 80 41 60
        E 180 90 3c 60
        E 0 90 3e 60
        E 0 90 41 60
        E 360 80 3c 60
        E 0 80 3e 60
        E 0 80 41 60
        E 120 90 3c 60
        E 0 90 3e 60
        E 0 90 41 60
        E 360 80 3c 60
        E 0 80 3e 60
        E 0 80 41 60
        E 120 90 3c 60
        E 0 90 3e 60
        E 0 90 41 60
        E 360 80 3c 60
        E 0 80 3e 60
        E 0 80 41 60
        E 120 90 3c 60
        E 0 90 3e 60
        E 0 90 41 60
        E 360 80 3c 60
        E 0 80 3e 60
        E 0 80 41 60
        E 120 90 3c 60
        E 0 90 3e 60
        E 0 90 41 60
        E 360 80 3c 60
        E 0 80 3e 60
        E 0 80 41 60
        E 120 90 3c 60
        E 0 90 3e 60
        E 0 90 41 60
        E 360 80 3c 60
        E 0 80 3e 60
        E 0 80 41 60
        E 120 90 3c 60
        E 0 90 3e 60
        E 0 90 41 60
        E 360 80 3c 60
        E 0 80 3e 60
        E 0 80 41 60
        E 120 90 3c 60
        E 0 90 3e 60
        E 0 90 41 60
        E 360 80 3c 60
        E 0 80 3e 60
        E 0 80 41 60
        E 120 90 3e 60
        E 0 90 40 60
        E 0 90 43 60
        E 360 80 3e 60
        E 0 80 40 60
        E 0 80 43 60
        E 120 90 3e 60
        E 0 90 40 60
        E 0 90 43 60
        E 360 80 3e 60
        E 0 80 40 60
        E 0 80 43 60
        E 120 90 3e 60
        E 0 90 40 60
        E 0 90 41 60
        E 360 80 3e 60
        E 0 80 40 60
        E 0 80 41 60
        E 120 90 3e 60
        E 0 90 40 60
        E 0 90 41 60
        E 360 80 3e 60
        E 0 80 40 60
        E 0 80 41 60
        E 120 90 3c 60
        E 0 90 3e 60
        E 0 90 41 60
        E 360 80 3c 60
        E 0 80 3e 60
        E 0 80 41 60
        E 120 90 3c 60
        E 0 90 3e 60
        E 0 90 41 60
        E 360 80 3c 60
        E 0 80 3e 60
        E 0 80 41 60
        E 120 90 3c 60
        E 0 90 3e 60
        E 0 90 41 60
        E 360 80 3c 60
        E 0 80 3e 60
        E 0 80 41 60
        E 120 90 3c 60
        E 0 90 3e 60
        E 0 90 41 60
        E 360 80 3c 60
        E 0 80 3e 60
        E 0 80 41 60
        E 360 90 3e 60
        E 0 90 40 60
        E 0 90 43 60
        E 120 80 3e 60
        E 0 80 40 60
        E 0 80 43 60
        E 120 90 3e 60
        E 0 90 40 60
        E 0 90 43 60
        E 120 80 3e 60
        E 0 80 40 60
        E 0 80 43 60
        E 120 90 3e 60
        E 0 90 40 60
        E 0 90 43 60
        E 120 80 3e 60
        E 0 80 40 60
        E 0 80 43 60
        E 120 90 3e 60
        E 0 90 40 60
        E 0 90 43 60
        E 120 80 3e 60
        E 0 80 40 60
        E 0 80 43 60
        E 120 90 3e 60
        E 0 90 40 60
        E 0 90 43 60
        E 120 80 3e 60
        E 0 80 40 60
        E 0 80 43 60
        E 120 90 3e 60
        E 0 90 40 60
        E 0 90 43 60
        E 120 80 3e 60
        E 0 80 40 60
        E 0 80 43 60
        E 120 90 3e 60
        E 0 90 40 60
        E 0 90 43 60
        E 120 80 3e 60
        E 0 80 40 60
        E 0 80 43 60
        E 120 90 3c 60
        E 0 90 3e 60
        E 0 90 41 60
        E 360 80 3c 60
        E 0 80 3e 60
        E 0 80 41 60
        E 120 90 3c 60
        E 0 90 3e 60
        E 0 90 41 60
        E 360 80 3c 60
        E 0 80 3e 60
        E 0 80 41 60
        E 120 90 3c 60
        E 0 90 3e 60
        E 0 90 41 60
        E 360 80 3c 60
        E 0 80 3e 60
        E 0 80 41 60
        E 120 90 3c 60
        E 0 90 3e 60
        E 0 90 41 60
        E 360 80 3c 60
        E 0 80 3e 60
        E 0 80 41 60
        E 120 90 3c 60
        E 0 90 3e 60
        E 0 90 41 60
        E 360 80 3c 60
        E 0 80 3e 60
        E 0 80 41 60
        E 120 90 3c 60
        E 0 90 3e 60
        E 0 90 41 60
        E 360 80 3c 60
        E 0 80 3e 60
        E 0 80 41 60
        E 120 90 3c 60
        E 0 90 3e 60
        E 0 90 41 60
        E 360 80 3c 60
        E 0 80 3e 60
        E 0 80 41 60
        E 120 90 3c 60
        E 0 90 3e 60
        E 0 90 41 60
        E 360 80 3c 60
        E 0 80 3e 60
        E 0 80 41 60
        E 120 90 3e 60
        E 0 90 41 60
        E 0 90 43 60
        E 360 80 3e 60
        E 0 80 41 60
        E 0 80 43 60
        E 120 90 3e 60
        E 0 90 41 60
        E 0 90 43 60
        E 360 80 3e 60
        E 0 80 41 60
        E 0 80 43 60
        E 120 90 3e 60
        E 0 90 41 60
        E 0 90 43 60
        E 360 80 3e 60
        E 0 80 41 60
        E 0 80 43 60
        E 120 90 3e 60
        E 0 90 41 60
        E 0 90 43 60
        E 360 80 3e 60
        E 0 80 41 60
        E 0 80 43 60
        E 120 90 3e 60
        E 0 90 40 60
        E 0 90 43 60
        E 360 80 3e 60
        E 0 80 40 60
        E 0 80 43 60
        E 120 90 3e 60
        E 0 90 40 60
        E 0 90 43 60
        E 360 80 3e 60
        E 0 80 40 60
        E 0 80 43 60
        E 120 90 3e 60
        E 0 90 40 60
        E 0 90 43 60
        E 360 80 3e 60
        E 0 80 40 60
        E 0 80 43 60
        E 120 90 3e 60
        E 0 90 40 60
        E 0 90 43 60
        E 360 80 3e 60
        E 0 80 40 60
        E 0 80 43 60
        E 120 90 3c 60
        E 0 90 3e 60
        E 0 90 41 60
        E 360 80 3c 60
        E 0 80 3e 60
        E 0 80 41 60
        E 120 90 3c 60
        E 0 90 3e 60
        E 0 90 41 60
        E 360 80 3c 60
        E 0 80 3e 60
        E 0 80 41 60
        E 120 90 3c 60
        E 0 90 3e 60
        E 0 90 41 60
        E 360 80 3c 60
        E 0 80 3e 60
        E 0 80 41 60
        E 120 90 3c 60
        E 0 90 3e 60
        E 0 90 41 60
        E 360 80 3c 60
        E 0 80 3e 60
        E 0 80 41 60
        E 120 90 3c 60
        E 0 90 3e 60
        E 0 90 41 60
        E 360 80 3c 60
        E 0 80 3e 60
        E 0 80 41 60
        E 120 90 3c 60
        E 0 90 3e 60
        E 0 90 41 60
        E 360 80 3c 60
        E 0 80 3e 60
        E 0 80 41 60
        E 120 90 3c 60
        E 0 90 3e 60
        E 0 90 41 60
        E 360 80 3c 60
        E 0 80 3e 60
        E 0 80 41 60
        E 120 90 3c 60
        E 0 90 3e 60
        E 0 90 41 60
        E 360 80 3c 60
        E 0 80 3e 60
        E 0 80 41 60
        E 120 90 3e 60
        E 0 90 41 60
        E 0 90 43 60
        E 360 80 3e 60
        E 0 80 41 60
        E 0 80 43 60
        E 120 90 3e 60
        E 0 90 41 60
        E 0 90 43 60
        E 360 80 3e 60
        E 0 80 41 60
        E 0 80 43 60
        E 120 90 3e 60
        E 0 90 41 60
        E 0 90 43 60
        E 360 80 3e 60
        E 0 80 41 60
        E 0 80 43 60
        E 120 90 3e 60
        E 0 90 41 60
        E 0 90 43 60
        E 360 80 3e 60
        E 0 80 41 60
        E 0 80 43 60
        E 120 90 3e 60
        E 0 90 40 60
        E 0 90 43 60
        E 360 80 3e 60
        E 0 80 40 60
        E 0 80 43 60
        E 120 90 3e 60
        E 0 90 40 60
        E 0 90 43 60
        E 360 80 3e 60
        E 0 80 40 60
        E 0 80 43 60
        E 120 90 3e 60
        E 0 90 40 60
        E 0 90 43 60
        E 360 80 3e 60
        E 0 80 40 60
        E 0 80 43 60
        E 120 90 3e 60
        E 0 90 40 60
        E 0 90 43 60
        E 360 80 3e 60
        E 0 80 40 60
        E 0 80 43 60
        E 120 90 3c 60
        E 0 90 40 60
        E 0 90 41 60
        E 360 80 3c 60
        E 0 80 40 60
        E 0 80 41 60
        E 120 90 3c 60
        E 0 90 40 60
        E 0 90 41 60
        E 360 80 3c 60
        E 0 80 40 60
        E 0 80 41 60
        E 120 90 3c 60
        E 0 90 40 60
        E 0 90 41 60
        E 360 80 3c 60
        E 0 80 40 60
        E 0 80 41 60
        E 120 90 3c 60
        E 0 90 40 60
        E 0 90 41 60
        E 360 80 3c 60
        E 0 80 40 60
        E 0 80 41 60
        E 120 90 3c 60
        E 0 90 3e 60
        E 0 90 41 60
        E 360 80 3c 60
        E 0 80 3e 60
        E 0 80 41 60
        E 120 90 3c 60
        E 0 90 3e 60
        E 0 90 41 60
        E 360 80 3c 60
        E 0 80 3e 60
        E 0 80 41 60
        E 120 90 3c 60
        E 0 90 3e 60
        E 0 90 41 60
        E 360 80 3c 60
        E 0 80 3e 60
        E 0 80 41 60
        E 120 90 3c 60
        E 0 90 3e 60
        E 0 90 41 60
        E 360 80 3c 60
        E 0 80 3e 60
        E 0 80 41 60
        E 120 90 3c 60
        E 0 90 3e 60
        E 0 90 40 60
        E 360 80 3c 60
        E 0 80 3e 60
        E 0 80 40 60
        E 120 90 3c 60
        E 0 90 3e 60
        E 0 90 40 60
        E 360 80 3c 60
        E 0 80 3e 60
        E 0 80 40 60
        E 120 90 3c 60
        E 0 90 3e 60
        E 0 90 40 60
        E 360 80 3c 60
        E 0 80 3e 60
        E 0 80 40 60
        E 120 90 3c 60
        E 0 90 3e 60
        E 0 90 40 60
        E 360 80 3c 60
        E 0 80 3e 60
        E 0 80 40 60
        E 120 90 3c 60
        E 0 90 3e 60
        E 0 90 41 60
        E 600 80 3c 60
        E 0 80 3e 60
        E 0 80 41 60
        E 120 90 3e 60
        E 0 90 40 60
        E 0 90 41 60
        E 2040 80 3e 60
        E 0 80 40 60
        E 0 80 41 60
        E 1080 90 3c 60
        E 0 90 3e 60
        E 0 90 41 60
        E 360 80 3c 60
        E 0 80 3e 60
        E 0 80 41 60
        E 120 90 3c 60
        E 0 90 3e 60
        E 0 90 41 60
        E 360 80 3c 60
        E 0 80 3e 60
        E 0 80 41 60
        E 120 90 3c 60
        E 0 90 3e 60
        E 0 90 41 60
        E 360 80 3c 60
        E 0 80 3e 60
        E 0 80 41 60
        E 120 90 3c 60
        E 0 90 3e 60
        E 0 90 41 60
        E 360 80 3c 60
        E 0 80 3e 60
        E 0 80 41 60
        E 120 90 3c 60
        E 0 90 3e 60
        E 0 90 41 60
        E 360 80 3c 60
        E 0 80 3e 60
        E 0 80 41 60
        E 120 90 3c 60
        E 0 90 3e 60
        E 0 90 41 60
        E 360 80 3c 60
        E 0 80 3e 60
        E 0 80 41 60
        E 120 90 3c 60
        E 0 90 3e 60
        E 0 90 41 60
        E 360 80 3c 60
        E 0 80 3e 60
        E 0 80 41 60
        E 120 90 3c 60
        E 0 90 3e 60
        E 0 90 41 60
        E 360 80 3c 60
        E 0 80 3e 60
        E 0 80 41 60
        E 120 90 3e 60
        E 0 90 40 60
        E 0 90 43 60
        E 360 80 3e 60
        E 0 80 40 60
        E 0 80 43 60
        E 120 90 3e 60
        E 0 90 40 60
        E 0 90 43 60
        E 360 80 3e 60
        E 0 80 40 60
        E 0 80 43 60
        E 120 90 3e 60
        E 0 90 40 60
        E 0 90 41 60
        E 360 80 3e 60
        E 0 80 40 60
        E 0 80 41 60
        E 120 90 3e 60
        E 0 90 40 60
        E 0 90 41 60
        E 360 80 3e 60
        E 0 80 40 60
        E 0 80 41 60
        E 120 90 3c 60
        E 0 90 3e 60
        E 0 90 41 60
        E 360 80 3c 60
        E 0 80 3e 60
        E 0 80 41 60
        E 120 90 3c 60
        E 0 90 3e 60
        E 0 90 41 60
        E 360 80 3c 60
        E 0 80 3e 60
        E 0 80 41 60
        E 120 90 3c 60
        E 0 90 3e 60
        E 0 90 41 60
        E 360 80 3c 60
        E 0 80 3e 60
        E 0 80 41 60
        E 120 90 3c 60
        E 0 90 3e 60
        E 0 90 41 60
        E 360 80 3c 60
        E 0 80 3e 60
        E 0 80 41 60
        E 120 90 3e 60
        E 0 90 40 60
        E 0 90 43 60
        E 360 80 3e 60
        E 0 80 40 60
        E 0 80 43 60
        E 120 90 3e 60
        E 0 90 40 60
        E 0 90 43 60
        E 360 80 3e 60
        E 0 80 40 60
        E 0 80 43 60
        E 120 90 3e 60
        E 0 90 40 60
        E 0 90 41 60
        E 360 80 3e 60
        E 0 80 40 60
        E 0 80 41 60
        E 120 90 3e 60
        E 0 90 40 60
        E 0 90 41 60
        E 360 80 3e 60
        E 0 80 40 60
        E 0 80 41 60
        E 120 90 3c 60
        E 0 90 40 60
        E 0 90 41 60
        E 360 80 3c 60
        E 0 80 40 60
        E 0 80 41 60
        E 120 90 3c 60
        E 0 90 40 60
        E 0 90 41 60
        E 360 80 3c 60
        E 0 80 40 60
        E 0 80 41 60
        E 120 90 3c 60
        E 0 90 40 60
        E 0 90 41 60
        E 360 80 3c 60
        E 0 80 40 60
        E 0 80 41 60
        E 120 90 3c 60
        E 0 90 40 60
        E 0 90 41 60
        E 360 80 3c 60
        E 0 80 40 60
        E 0 80 41 60
        E 120 90 3c 60
        E 0 90 3e 60
        E 0 90 41 60
        E 360 80 3c 60
        E 0 80 3e 60
        E 0 80 41 60
        E 120 90 3c 60
        E 0 90 3e 60
        E 0 90 41 60
        E 360 80 3c 60
        E 0 80 3e 60
        E 0 80 41 60
        E 120 90 3c 60
        E 0 90 3e 60
        E 0 90 41 60
        E 360 80 3c 60
        E 0 80 3e 60
        E 0 80 41 60
        E 120 90 3c 60
        E 0 90 3e 60
        E 0 90 41 60
        E 360 80 3c 60
        E 0 80 3e 60
        E 0 80 41 60
        E 120 90 3c 60
        E 0 90 3e 60
        E 0 90 40 60
        E 360 80 3c 60
        E 0 80 3e 60
        E 0 80 40 60
        E 120 90 3c 60
        E 0 90 3e 60
        E 0 90 40 60
        E 360 80 3c 60
        E 0 80 3e 60
        E 0 80 40 60
        E 120 90 3c 60
        E 0 90 3e 60
        E 0 90 40 60
        E 360 80 3c 60
        E 0 80 3e 60
        E 0 80 40 60
        E 120 90 3c 60
        E 0 90 3e 60
        E 0 90 40 60
        E 360 80 3c 60
        E 0 80 3e 60
        E 0 80 40 60
        E 120 90 3c 60
        E 0 90 3e 60
        E 0 90 41 60
        E 420 80 3c 60
        E 0 80 3e 60
        E 0 80 41 60
        E 60 90 3c 60
        E 0 90 3e 60
        E 0 90 41 60
        E 420 80 3c 60
        E 0 80 3e 60
        E 0 80 41 60
        E 60 90 3e 60
        E 0 90 40 60
        E 0 90 41 60
        E 2400 80 3e 60
        E 0 80 40 60
        E 0 80 41 60
        E 480 90 3c 60
        E 0 90 3e 60
        E 0 90 41 60
        E 360 80 3c 60
        E 0 80 3e 60
        E 0 80 41 60
        E 120 90 3c 60
        E 0 90 3e 60
        E 0 90 41 60
        E 360 80 3c 60
        E 0 80 3e 60
        E 0 80 41 60
        E 120 90 3c 60
        E 0 90 3e 60
        E 0 90 41 60
        E 360 80 3c 60
        E 0 80 3e 60
        E 0 80 41 60
        E 120 90 3c 60
        E 0 90 3e 60
        E 0 90 41 60
        E 360 80 3c 60
        E 0 80 3e 60
        E 0 80 41 60
        E 120 90 3c 60
        E 0 90 3e 60
        E 0 90 41 60
        E 360 80 3c 60
        E 0 80 3e 60
        E 0 80 41 60
        E 120 90 3c 60
        E 0 90 3e 60
        E 0 90 41 60
        E 360 80 3c 60
        E 0 80 3e 60
        E 0 80 41 60
        E 120 90 3c 60
        E 0 90 3e 60
        E 0 90 41 60
        E 360 80 3c 60
        E 0 80 3e 60
        E 0 80 41 60
        E 120 90 3c 60
        E 0 90 3e 60
        E 0 90 41 60
        E 360 80 3c 60
        E 0 80 3e 60
        E 0 80 41 60
        E 120 90 3e 60
        E 0 90 40 60
        E 0 90 43 60
        E 360 80 3e 60
        E 0 80 40 60
        E 0 80 43 60
        E 120 90 3e 60
        E 0 90 40 60
        E 0 90 43 60
        E 360 80 3e 60
        E 0 80 40 60
        E 0 80 43 60
        E 120 90 3e 60
        E 0 90 40 60
        E 0 90 41 60
        E 360 80 3e 60
        E 0 80 40 60
        E 0 80 41 60
        E 120 90 3e 60
        E 0 90 40 60
        E 0 90 41 60
        E 360 80 3e 60
        E 0 80 40 60
        E 0 80 41 60
        E 360 90 3c 60
        E 0 90 3e 60
        E 0 90 41 60
        E 120 80 3c 60
        E 0 80 3e 60
        E 0 80 41 60
        E 120 90 3c 60
        E 0 90 3e 60
        E 0 90 41 60
        E 120 80 3c 60
        E 0 80 3e 60
        E 0 80 41 60
        E 120 90 3c 60
        E 0 90 3e 60
        E 0 90 41 60
        E 120 80 3c 60
        E 0 80 3e 60
        E 0 80 41 60
        E 120 90 3c 60
        E 0 90 3e 60
        E 0 90 41 60
        E 120 80 3c 60
        E 0 80 3e 60
        E 0 80 41 60
        E 120 90 3c 60
        E 0 90 3e 60
        E 0 90 41 60
        E 120 80 3c 60
        E 0 80 3e 60
        E 0 80 41 60
        E 120 90 3c 60
        E 0 90 3e 60
        E 0 90 41 60
        E 120 80 3c 60
        E 0 80 3e 60
        E 0 80 41 60
        E 360 90 3e 60
        E 0 90 40 60
        E 0 90 43 60
        E 360 80 3e 60
        E 0 80 40 60
        E 0 80 43 60
        E 120 90 3e 60
        E 0 90 40 60
        E 0 90 43 60
        E 360 80 3e 60
        E 0 80 40 60
        E 0 80 43 60
        E 120 90 3e 60
        E 0 90 40 60
        E 0 90 41 60
        E 360 80 3e 60
        E 0 80 40 60
        E 0 80 41 60
        E 120 90 3e 60
        E 0 90 40 60
        E 0 90 41 60
        E 360 80 3e 60
        E 0 80 40 60
        E 0 80 41 60
        E 120 90 3c 60
        E 0 90 3e 60
        E 0 90 41 60
        E 360 80 3c 60
        E 0 80 3e 60
        E 0 80 41 60
        E 120 90 3c 60
        E 0 90 3e 60
        E 0 90 41 60
        E 360 80 3c 60
        E 0 80 3e 60
        E 0 80 41 60
        E 120 90 3c 60
        E 0 90 3e 60
        E 0 90 41 60
        E 360 80 3c 60
        E 0 80 3e 60
        E 0 80 41 60
        E 120 90 3c 60
        E 0 90 3e 60
        E 0 90 41 60
        E 360 80 3c 60
        E 0 80 3e 60
        E 0 80 41 60
        E 120 90 3e 60
        E 0 90 40 60
        E 0 90 43 60
        E 360 80 3e 60
        E 0 80 40 60
        E 0 80 43 60
        E 120 90 3e 60
        E 0 90 40 60
        E 0 90 43 60
        E 360 80 3e 60
        E 0 80 40 60
        E 0 80 43 60
        E 120 90 3e 60
        E 0 90 40 60
        E 0 90 41 60
        E 360 80 3e 60
        E 0 80 40 60
        E 0 80 41 60
        E 120 90 3e 60
        E 0 90 40 60
        E 0 90 41 60
        E 360 80 3e 60
        E 0 80 40 60
        E 0 80 41 60
        E 120 90 3c 60
        E 0 90 40 60
        E 0 90 41 60
        E 600 80 3c 60
        E 0 80 40 60
        E 0 80 41 60
        E 120 90 3c 60
        E 0 90 40 60
        E 0 90 41 60
        E 600 80 3c 60
        E 0 80 40 60
        E 0 80 41 60
        E 120 90 3c 60
        E 0 90 40 60
        E 0 90 41 60
        E 360 80 3c 60
        E 0 80 40 60
        E 0 80 41 60
        E 120 90 3c 60
        E 0 90 40 60
        E 0 90 41 60
        E 600 80 3c 60
        E 0 80 40 60
        E 0 80 41 60
        E 120 90 3c 60
        E 0 90 40 60
        E 0 90 41 60
        E 600 80 3c 60
        E 0 80 40 60
        E 0 80 41 60
        E 120 90 3c 60
        E 0 90 40 60
        E 0 90 41 60
        E 360 80 3c 60
        E 0 80 40 60
        E 0 80 41 60
        E 120 90 3c 60
        E 0 90 3e 60
        E 0 90 41 60
        E 2879 80 3c 60
        E 0 80 3e 60
        E 0 80 41 60
        E 8436 b0 7b 00
        CCINTERP 32
        GUID {5FF58661-E242-4A3A-B21D-95B51EA11F87}
        IGNTEMPO 0 120 4 4
        SRCCOLOR 50
        VELLANE 132 128 60
        CFGEDITVIEW 0 0 -1 12 0 0 0 0 0 0.5
        KEYSNAP 0
        TRACKSEL 0
        EVTFILTER 0 -1 -1 -1 -1 0 0 0 0 -1 -1 -1 -1 0 -1 0 -1 -1
        CFGEDIT 1 1 0 0 0 1 1 1 1 1 1 0.25 100 100 1200 800 0 0 2 2 0 0 0 0 0 0.5 1 0 1 64
      >
    >
  >
  <TRACK {73CAA27F-6D53-4B67-BFD5-F2449438D963}
    NAME JOHN
    PEAKCOL 16576
    BEAT -1
    AUTOMODE 0
    VOLPAN 1 0 -1 -1 1
    MUTESOLO 0 0 0
    IPHASE 0
    PLAYOFFS 0 1
    ISBUS 0 0
    BUSCOMP 0 0 0 0 0
    SHOWINMIX 1 0.6667 0.5 1 0.5 -1 -1 -1
    SEL 0
    REC 0 0 1 0 0 0 0 0
    TRACKHEIGHT 0 0 0 0 0 0
    INQ 0 0 0 0.5 100 0 0 100
    NCHAN 2
    FX 0
    TRACKID {73CAA27F-6D53-4B67-BFD5-F2449438D963}
    PERF 0
    MIDIOUT -1
    MAINSEND 1 0
    <FXCHAIN
      SHOW 0
      LASTSEL 0
      DOCKED 0
    >
    <ITEM
      POSITION 0
      SNAPOFFS 0
      LENGTH 165.05873578958332
      LOOP 0
      ALLTAKES 0
      FADEIN 1 0 0 1 0 0 0
      FADEOUT 1 0 0 1 0 0 0
      MUTE 0 0
      SEL 0
      IGUID {0E35479B-26F7-4B2E-BB24-5E1717868D13}
      IID 2
      NAME JOHN
      VOLPAN 1 0 1 -1
      SOFFS 0 0
      PLAYRATE 1 1 0 -1 0 0.0025
      CHANMODE 0
      GUID {2E1C5D3A-29C0-4FC4-AADA-2DF8DAAA72CA}
      <SOURCE MIDI
        HASDATA 1 480 QN
        CCINTERP 32
        POOLEDEVTS {69E60D41-9052-4A36-B056-6A7F95EE0D42}
        <X 0 0 0 0 3 JOHN
          /wNKT0hO
        >
        <X 4327 0 0 0 1 [play]
          /wFbcGxheV0=
        >
        E 1193 90 2a 60
        E 0 90 63 60
        E 0 90 6c 60
        E 120 80 63 60
        E 0 80 6c 60
        E 120 90 60 60
        E 0 90 6c 60
        E 120 80 60 60
        E 0 80 6c 60
        E 120 90 60 60
        E 0 90 6c 60
        E 120 80 60 60
        E 0 80 6c 60
        E 120 80 2a 60
        E 0 90 2f 60
        E 0 90 60 60
        E 0 90 6c 60
        E 120 80 60 60
        E 0 80 6c 60
        E 120 90 60 60
        E 0 90 6c 60
        E 120 80 60 60
        E 0 80 6c 60
        E 120 90 60 60
        E 0 90 6c 60
        E 120 80 60 60
        E 0 80 6c 60
        E 120 90 60 60
        E 0 90 6c 60
        E 120 80 60 60
        E 0 80 6c 60
        E 120 90 60 60
        E 0 90 6c 60
        E 120 80 60 60
        E 0 80 6c 60
        E 120 90 60 60
        E 0 90 6c 60
        E 120 80 60 60
        E 0 80 6c 60
        E 120 90 60 60
        E 0 90 6c 60
        E 120 80 60 60
        E 0 80 6c 60
        E 120 90 60 60
        E 0 90 6c 60
        E 120 80 60 60
        E 0 80 6c 60
        E 119 90 6c 60
        E 1 90 60 60
        E 120 80 6c 60
        E 0 80 60 60
        E 120 90 60 60
        E 0 90 6c 60
        E 120 80 60 60
        E 0 80 6c 60
        E 120 90 60 60
        E 0 90 6c 60
        E 120 80 60 60
        E 0 80 6c 60
        E 120 90 60 60
        E 0 90 6c 60
        E 120 80 60 60
        E 0 80 6c 60
        E 120 90 60 60
        E 0 90 6c 60
        E 120 80 60 60
        E 0 80 6c 60
        E 120 90 60 60
        E 0 90 6c 60
        E 120 80 60 60
        E 0 80 6c 60
        E 120 90 60 60
        E 0 90 6c 60
        E 120 80 60 60
        E 0 80 6c 60
        E 120 90 60 60
        E 0 90 6c 60
        E 120 80 60 60
        E 0 80 6c 60
        E 119 90 6c 60
        E 1 90 60 60
        E 120 80 6c 60
        E 0 80 60 60
        E 120 90 60 60
        E 0 90 6c 60
        E 120 80 60 60
        E 0 80 6c 60
        E 120 90 60 60
        E 0 90 6c 60
        E 120 80 60 60
        E 0 80 6c 60
        E 120 90 60 60
        E 0 90 6c 60
        E 120 80 60 60
        E 0 80 6c 60
        E 120 90 60 60
        E 0 90 6c 60
        E 120 80 60 60
        E 0 80 6c 60
        E 120 90 60 60
        E 0 90 6c 60
        E 120 80 60 60
        E 0 80 6c 60
        E 120 80 2f 60
        E 0 90 31 60
        E 0 90 62 60
        E 0 90 6c 60
        E 120 80 62 60
        E 0 80 6c 60
        E 120 90 62 60
        E 0 90 6c 60
        E 120 80 62 60
        E 0 80 6c 60
        E 119 90 6c 60
        E 1 90 62 60
        E 120 80 6c 60
        E 0 80 62 60
        E 120 90 62 60
        E 0 90 6c 60
        E 120 80 62 60
        E 0 80 6c 60
        E 120 90 62 60
        E 0 90 6c 60
        E 120 80 62 60
        E 0 80 6c 60
        E 120 90 62 60
        E 0 90 6c 60
        E 120 80 62 60
        E 0 80 6c 60
        E 120 90 62 60
        E 0 90 6c 60
        E 120 80 62 60
        E 0 80 6c 60
        E 120 90 62 60
        E 0 90 6c 60
        E 120 80 62 60
        E 0 80 6c 60
        E 120 80 31 60
        E 0 90 32 60
        E 0 90 63 60
        E 0 90 6c 60
        E 120 80 63 60
        E 0 80 6c 60
        E 120 90 63 60
        E 0 90 6c 60
        E 120 80 63 60
        E 0 80 6c 60
        E 119 90 6c 60
        E 1 90 63 60
        E 120 80 6c 60
        E 0 80 63 60
        E 120 90 63 60
        E 0 90 6c 60
        E 120 80 63 60
        E 0 80 6c 60
        E 120 90 63 60
        E 0 90 6c 60
        E 120 80 63 60
        E 0 80 6c 60
        E 120 90 63 60
        E 0 90 6c 60
        E 120 80 63 60
        E 0 80 6c 60
        E 120 90 63 60
        E 0 90 6c 60
        E 120 80 63 60
        E 0 80 6c 60
        E 120 90 63 60
        E 0 90 6c 60
        E 120 80 63 60
        E 0 80 6c 60
        E 120 80 32 60
        E 0 90 2f 60
        E 0 90 60 60
        E 0 90 6c 60
        E 120 80 60 60
        E 0 80 6c 60
        E 120 90 60 60
        E 0 90 6c 60
        E 120 80 60 60
        E 0 80 6c 60
        E 119 90 6c 60
        E 1 90 60 60
        E 120 80 6c 60
        E 0 80 60 60
        E 120 90 60 60
        E 0 90 6c 60
        E 120 80 60 60
        E 0 80 6c 60
        E 120 90 60 60
        E 0 90 6c 60
        E 120 80 60 60
        E 0 80 6c 60
        E 120 90 60 60
        E 0 90 6c 60
        E 120 80 60 60
        E 0 80 6c 60
        E 120 90 60 60
        E 0 90 6c 60
        E 120 80 60 60
        E 0 80 6c 60
        E 120 90 63 60
        E 0 90 6c 60
        E 120 80 63 60
        E 0 80 6c 60
        E 120 90 60 60
        E 0 90 6c 60
        E 120 80 60 60
        E 0 80 6c 60
        E 120 90 60 60
        E 0 90 6c 60
        E 120 80 60 60
        E 0 80 6c 60
        E 119 90 6c 60
        E 1 90 60 60
        E 120 80 6c 60
        E 0 80 60 60
        E 120 90 60 60
        E 0 90 6c 60
        E 120 80 60 60
        E 0 80 6c 60
        E 120 90 60 60
        E 0 90 6c 60
        E 120 80 60 60
        E 0 80 6c 60
        E 120 90 60 60
        E 0 90 6c 60
        E 120 80 60 60
        E 0 80 6c 60
        E 120 90 60 60
        E 0 90 6c 60
        E 120 80 60 60
        E 0 80 6c 60
        E 120 90 60 60
        E 0 90 6c 60
        E 120 80 60 60
        E 0 80 6c 60
        E 120 80 2f 60
        E 0 90 31 60
        E 0 90 62 60
        E 0 90 6c 60
        E 120 80 62 60
        E 0 80 6c 60
        E 120 90 62 60
        E 0 90 6c 60
        E 120 80 62 60
        E 0 80 6c 60
        E 119 90 6c 60
        E 1 90 62 60
        E 120 80 6c 60
        E 0 80 62 60
        E 120 90 62 60
        E 0 90 6c 60
        E 120 80 62 60
        E 0 80 6c 60
        E 120 90 62 60
        E 0 90 6c 60
        E 120 80 62 60
        E 0 80 6c 60
        E 120 90 62 60
        E 0 90 6c 60
        E 120 80 62 60
        E 0 80 6c 60
        E 120 90 62 60
        E 0 90 6c 60
        E 120 80 62 60
        E 0 80 6c 60
        E 120 90 62 60
        E 0 90 6c 60
        E 120 80 62 60
        E 0 80 6c 60
        E 120 80 31 60
        E 0 90 32 60
        E 0 90 63 60
        E 0 90 6c 60
        E 120 80 63 60
        E 0 80 6c 60
        E 120 90 63 60
        E 0 90 6c 60
        E 120 80 63 60
        E 0 80 6c 60
        E 119 90 6c 60
        E 1 90 63 60
        E 120 80 6c 60
        E 0 80 63 60
        E 120 90 63 60
        E 0 90 6c 60
        E 120 80 63 60
        E 0 80 6c 60
        E 120 90 63 60
        E 0 90 6c 60
        E 120 80 63 60
        E 0 80 6c 60
        E 120 90 63 60
        E 0 90 6c 60
        E 120 80 63 60
        E 0 80 6c 60
        E 120 90 63 60
        E 0 90 6c 60
        E 120 80 63 60
        E 0 80 6c 60
        E 120 90 63 60
        E 120 80 63 60
        E 120 90 64 60
        E 0 90 6c 60
        E 120 80 64 60
        E 0 80 6c 60
        E 120 90 64 60
        E 0 90 6c 60
        E 120 80 64 60
        E 0 80 6c 60
        E 119 90 6c 60
        E 1 90 64 60
        E 120 80 6c 60
        E 0 80 64 60
        E 120 90 64 60
        E 0 90 6c 60
        E 120 80 64 60
        E 0 80 6c 60
        E 120 90 64 60
        E 0 90 6c 60
        E 120 80 64 60
        E 0 80 6c 60
        E 120 90 64 60
        E 0 90 6c 60
        E 120 80 64 60
        E 0 80 6c 60
        E 120 90 64 60
        E 0 90 6c 60
        E 120 80 64 60
        E 0 80 6c 60
        E 120 90 64 60
        E 0 90 6c 60
        E 120 80 64 60
        E 0 80 6c 60
        E 120 80 32 60
        E 0 90 2f 60
        E 0 90 60 60
        E 0 90 6c 60
        E 120 80 60 60
        E 0 80 6c 60
        E 120 90 60 60
        E 0 90 6c 60
        E 120 80 60 60
        E 0 80 6c 60
        E 119 90 6c 60
        E 1 90 60 60
        E 120 80 6c 60
        E 0 80 60 60
        E 120 90 60 60
        E 0 90 6c 60
        E 120 80 60 60
        E 0 80 6c 60
        E 120 90 60 60
        E 0 90 6c 60
        E 120 80 60 60
        E 0 80 6c 60
        E 120 90 60 60
        E 0 90 6c 60
        E 120 80 60 60
        E 0 80 6c 60
        E 120 90 60 60
        E 0 90 6c 60
        E 120 80 60 60
        E 0 80 6c 60
        E 120 90 60 60
        E 0 90 6c 60
        E 120 80 60 60
        E 0 80 6c 60
        E 120 80 2f 60
        E 0 90 30 60
        E 0 90 61 60
        E 0 90 6c 60
        E 120 80 61 60
        E 0 80 6c 60
        E 120 90 61 60
        E 0 90 6c 60
        E 120 80 61 60
        E 0 80 6c 60
        E 119 90 6c 60
        E 1 90 61 60
        E 120 80 6c 60
        E 0 80 61 60
        E 120 90 61 60
        E 0 90 6c 60
        E 120 80 61 60
        E 0 80 6c 60
        E 120 90 61 60
        E 0 90 6c 60
        E 120 80 61 60
        E 0 80 6c 60
        E 120 90 61 60
        E 0 90 6c 60
        E 120 80 61 60
        E 0 80 6c 60
        E 120 90 61 60
        E 0 90 6c 60
        E 120 80 61 60
        E 0 80 6c 60
        E 120 90 61 60
        E 0 90 6c 60
        E 120 80 61 60
        E 0 80 6c 60
        E 120 80 30 60
        E 0 90 2f 60
        E 0 90 60 60
        E 0 90 6c 60
        E 120 80 2f 60
        E 0 80 60 60
        E 0 80 6c 60
        E 120 90 2c 60
        E 0 90 61 60
        E 0 90 6c 60
        E 120 80 2c 60
        E 0 80 61 60
        E 0 80 6c 60
        E 119 90 6c 60
        E 1 90 2d 60
        E 0 90 62 60
        E 120 80 6c 60
        E 0 80 2d 60
        E 0 80 62 60
        E 120 90 2f 60
        E 0 90 63 60
        E 0 90 6c 60
        E 120 80 2f 60
        E 0 80 6c 60
        E 2520 80 63 60
        E 240 90 2f 60
        E 0 90 63 60
        E 0 90 6c 60
        E 120 80 63 60
        E 0 80 6c 60
        E 120 90 60 60
        E 0 90 6c 60
        E 120 80 60 60
        E 0 80 6c 60
        E 120 90 60 60
        E 0 90 6c 60
        E 120 80 60 60
        E 0 80 6c 60
        E 119 90 6c 60
        E 1 90 60 60
        E 120 80 6c 60
        E 0 80 60 60
        E 120 90 60 60
        E 0 90 6c 60
        E 120 80 60 60
        E 0 80 6c 60
        E 120 90 60 60
        E 0 90 6c 60
        E 120 80 60 60
        E 0 80 6c 60
        E 120 90 60 60
        E 0 90 6c 60
        E 120 80 60 60
        E 0 80 6c 60
        E 120 90 60 60
        E 0 90 6c 60
        E 120 80 60 60
        E 0 80 6c 60
        E 120 90 60 60
        E 0 90 6c 60
        E 120 80 60 60
        E 0 80 6c 60
        E 120 90 60 60
        E 0 90 6c 60
        E 120 80 60 60
        E 0 80 6c 60
        E 120 90 60 60
        E 0 90 6c 60
        E 120 80 60 60
        E 0 80 6c 60
        E 119 90 6c 60
        E 1 90 60 60
        E 120 80 6c 60
        E 0 80 60 60
        E 120 90 60 60
        E 0 90 6c 60
        E 120 80 60 60
        E 0 80 6c 60
        E 120 90 60 60
        E 0 90 6c 60
        E 120 80 60 60
        E 0 80 6c 60
        E 120 90 60 60
        E 0 90 6c 60
        E 120 80 60 60
        E 0 80 6c 60
        E 120 90 60 60
        E 0 90 6c 60
        E 120 80 60 60
        E 0 80 6c 60
        E 120 90 63 60
        E 0 90 6c 60
        E 120 80 63 60
        E 0 80 6c 60
        E 120 80 2f 60
        E 0 90 31 60
        E 0 90 62 60
        E 0 90 6c 60
        E 120 80 62 60
        E 0 80 6c 60
        E 120 90 62 60
        E 0 90 6c 60
        E 120 80 62 60
        E 0 80 6c 60
        E 119 90 6c 60
        E 1 90 62 60
        E 120 80 6c 60
        E 0 80 62 60
        E 120 90 62 60
        E 0 90 6c 60
        E 120 80 62 60
        E 0 80 6c 60
        E 120 80 31 60
        E 0 90 32 60
        E 0 90 63 60
        E 0 90 6c 60
        E 120 80 63 60
        E 0 80 6c 60
        E 120 90 63 60
        E 0 90 6c 60
        E 120 80 63 60
        E 0 80 6c 60
        E 120 90 63 60
        E 0 90 6c 60
        E 120 80 63 60
        E 0 80 6c 60
        E 120 90 63 60
        E 0 90 6c 60
        E 120 80 63 60
        E 0 80 6c 60
        E 120 80 32 60
        E 0 90 2f 60
        E 0 90 60 60
        E 0 90 6c 60
        E 120 80 60 60
        E 0 80 6c 60
        E 120 90 60 60
        E 0 90 6c 60
        E 120 80 60 60
        E 0 80 6c 60
        E 119 90 6c 60
        E 1 90 60 60
        E 120 80 6c 60
        E 0 80 60 60
        E 120 90 60 60
        E 0 90 6c 60
        E 120 80 60 60
        E 0 80 6c 60
        E 120 90 60 60
        E 0 90 6c 60
        E 120 80 60 60
        E 0 80 6c 60
        E 120 90 60 60
        E 0 90 6c 60
        E 120 80 60 60
        E 0 80 6c 60
        E 120 90 60 60
        E 0 90 6c 60
        E 120 80 60 60
        E 0 80 6c 60
        E 120 90 60 60
        E 0 90 6c 60
        E 120 80 60 60
        E 0 80 6c 60
        E 120 90 60 60
        E 0 90 6c 60
        E 120 80 60 60
        E 0 80 6c 60
        E 120 90 63 60
        E 0 90 6c 60
        E 120 80 63 60
        E 0 80 6c 60
        E 119 90 6c 60
        E 1 90 63 60
        E 120 80 6c 60
        E 0 80 63 60
        E 120 90 63 60
        E 0 90 6c 60
        E 120 80 63 60
        E 0 80 6c 60
        E 120 90 63 60
        E 0 90 6c 60
        E 120 80 63 60
        E 0 80 6c 60
        E 120 90 63 60
        E 0 90 6c 60
        E 120 80 63 60
        E 0 80 6c 60
        E 120 90 63 60
        E 0 90 6c 60
        E 120 80 63 60
        E 0 80 6c 60
        E 120 90 63 60
        E 0 90 6c 60
        E 120 80 63 60
        E 0 80 6c 60
        E 120 90 60 60
        E 0 90 6c 60
        E 120 80 60 60
        E 0 80 6c 60
        E 120 90 60 60
        E 0 90 6c 60
        E 120 80 60 60
        E 0 80 6c 60
        E 119 90 6c 60
        E 1 90 60 60
        E 120 80 6c 60
        E 0 80 60 60
        E 120 90 60 60
        E 0 90 6c 60
        E 120 80 60 60
        E 0 80 6c 60
        E 120 90 60 60
        E 0 90 6c 60
        E 120 80 60 60
        E 0 80 6c 60
        E 120 90 60 60
        E 0 90 6c 60
        E 120 80 60 60
        E 0 80 6c 60
        E 120 90 60 60
        E 0 90 6c 60
        E 120 80 60 60
        E 0 80 6c 60
        E 120 90 63 60
        E 0 90 6c 60
        E 120 80 63 60
        E 0 80 6c 60
        E 120 90 60 60
        E 0 90 6c 60
        E 120 80 60 60
        E 0 80 6c 60
        E 120 90 60 60
        E 0 90 6c 60
        E 120 80 60 60
        E 0 80 6c 60
        E 119 90 6c 60
        E 1 90 60 60
        E 120 80 6c 60
        E 0 80 60 60
        E 120 90 60 60
        E 0 90 6c 60
        E 120 80 60 60
        E 0 80 6c 60
        E 120 90 60 60
        E 0 90 6c 60
        E 120 80 60 60
        E 0 80 6c 60
        E 120 90 60 60
        E 0 90 6c 60
        E 120 80 60 60
        E 0 80 6c 60
        E 120 90 60 60
        E 0 90 6c 60
        E 120 80 60 60
        E 0 80 6c 60
        E 120 90 60 60
        E 0 90 6c 60
        E 120 80 60 60
        E 0 80 6c 60
        E 120 80 2f 60
        E 0 90 31 60
        E 0 90 62 60
        E 0 90 6c 60
        E 120 80 62 60
        E 0 80 6c 60
        E 120 90 62 60
        E 0 90 6c 60
        E 120 80 62 60
        E 0 80 6c 60
        E 119 90 6c 60
        E 1 90 62 60
        E 120 80 6c 60
        E 0 80 62 60
        E 120 90 62 60
        E 0 90 6c 60
        E 120 80 62 60
        E 0 80 6c 60
        E 120 90 62 60
        E 0 90 6c 60
        E 120 80 62 60
        E 0 80 6c 60
        E 120 90 62 60
        E 0 90 6c 60
        E 120 80 62 60
        E 0 80 6c 60
        E 120 90 62 60
        E 0 90 6c 60
        E 120 80 62 60
        E 0 80 6c 60
        E 120 90 62 60
        E 0 90 6c 60
        E 120 80 62 60
        E 0 80 6c 60
        E 120 80 31 60
        E 0 90 32 60
        E 0 90 63 60
        E 0 90 6c 60
        E 120 80 63 60
        E 0 80 6c 60
        E 120 90 63 60
        E 0 90 6c 60
        E 120 80 63 60
        E 0 80 6c 60
        E 119 90 6c 60
        E 1 90 63 60
        E 120 80 6c 60
        E 0 80 63 60
        E 120 90 63 60
        E 0 90 6c 60
        E 120 80 63 60
        E 0 80 6c 60
        E 120 90 63 60
        E 0 90 6c 60
        E 120 80 63 60
        E 0 80 6c 60
        E 120 90 63 60
        E 0 90 6c 60
        E 120 80 63 60
        E 0 80 6c 60
        E 120 90 63 60
        E 0 90 6c 60
        E 120 80 63 60
        E 0 80 6c 60
        E 120 90 63 60
        E 0 90 6c 60
        E 120 80 63 60
        E 0 80 6c 60
        E 120 80 32 60
        E 0 90 2f 60
        E 0 90 60 60
        E 0 90 6c 60
        E 120 80 60 60
        E 0 80 6c 60
        E 120 90 60 60
        E 0 90 6c 60
        E 120 80 60 60
        E 0 80 6c 60
        E 119 90 6c 60
        E 1 90 60 60
        E 120 80 6c 60
        E 0 80 60 60
        E 120 90 60 60
        E 0 90 6c 60
        E 120 80 60 60
        E 0 80 6c 60
        E 120 90 60 60
        E 0 90 6c 60
        E 120 80 60 60
        E 0 80 6c 60
        E 120 90 60 60
        E 0 90 6c 60
        E 120 80 60 60
        E 0 80 6c 60
        E 120 90 60 60
        E 0 90 6c 60
        E 120 80 60 60
        E 0 80 6c 60
        E 120 90 63 60
        E 0 90 6c 60
        E 120 80 63 60
        E 0 80 6c 60
        E 120 90 60 60
        E 0 90 6c 60
        E 120 80 60 60
        E 0 80 6c 60
        E 120 90 60 60
        E 0 90 6c 60
        E 120 80 60 60
        E 0 80 6c 60
        E 119 90 6c 60
        E 1 90 60 60
        E 120 80 6c 60
        E 0 80 60 60
        E 120 90 60 60
        E 0 90 6c 60
        E 120 80 60 60
        E 0 80 6c 60
        E 120 90 60 60
        E 0 90 6c 60
        E 120 80 60 60
        E 0 80 6c 60
        E 120 90 60 60
        E 0 90 6c 60
        E 120 80 60 60
        E 0 80 6c 60
        E 120 90 60 60
        E 0 90 6c 60
        E 120 80 6c 60
        E 120 90 6c 60
        E 120 80 60 60
        E 0 80 6c 60
        E 120 80 2f 60
        E 0 90 31 60
        E 0 90 62 60
        E 0 90 6c 60
        E 120 80 62 60
        E 0 80 6c 60
        E 120 90 62 60
        E 0 90 6c 60
        E 120 80 62 60
        E 0 80 6c 60
        E 119 90 6c 60
        E 1 90 62 60
        E 120 80 6c 60
        E 0 80 62 60
        E 120 90 62 60
        E 0 90 6c 60
        E 120 80 62 60
        E 0 80 6c 60
        E 120 90 62 60
        E 0 90 6c 60
        E 120 80 62 60
        E 0 80 6c 60
        E 120 90 62 60
        E 0 90 6c 60
        E 120 80 62 60
        E 0 80 6c 60
        E 120 90 62 60
        E 0 90 6c 60
        E 120 80 62 60
        E 0 80 6c 60
        E 120 90 62 60
        E 0 90 6c 60
        E 120 80 62 60
        E 0 80 6c 60
        E 120 80 31 60
        E 0 90 32 60
        E 0 90 63 60
        E 0 90 6c 60
        E 120 80 63 60
        E 0 80 6c 60
        E 120 90 63 60
        E 0 90 6c 60
        E 120 80 63 60
        E 0 80 6c 60
        E 119 90 6c 60
        E 1 90 63 60
        E 120 80 6c 60
        E 0 80 63 60
        E 120 90 63 60
        E 0 90 6c 60
        E 120 80 63 60
        E 0 80 6c 60
        E 120 90 63 60
        E 0 90 6c 60
        E 120 80 63 60
        E 0 80 6c 60
        E 120 90 63 60
        E 0 90 6c 60
        E 120 80 63 60
        E 0 80 6c 60
        E 120 90 63 60
        E 0 90 6c 60
        E 120 80 63 60
        E 0 80 6c 60
        E 120 90 63 60
        E 0 90 6c 60
        E 120 80 63 60
        E 0 80 6c 60
        E 120 80 32 60
        E 0 90 2f 60
        E 0 90 64 60
        E 0 90 6c 60
        E 120 80 64 60
        E 0 80 6c 60
        E 120 90 64 60
        E 0 90 6c 60
        E 120 80 64 60
        E 0 80 6c 60
        E 119 90 6c 60
        E 1 90 64 60
        E 120 80 6c 60
        E 0 80 64 60
        E 120 90 64 60
        E 0 90 6c 60
        E 120 80 64 60
        E 0 80 6c 60
        E 120 90 64 60
        E 0 90 6c 60
        E 120 80 64 60
        E 0 80 6c 60
        E 120 90 64 60
        E 0 90 6c 60
        E 120 80 64 60
        E 0 80 6c 60
        E 120 90 64 60
        E 0 90 6c 60
        E 120 80 64 60
        E 0 80 6c 60
        E 120 90 64 60
        E 0 90 6c 60
        E 120 80 64 60
        E 0 80 6c 60
        E 120 80 2f 60
        E 0 90 30 60
        E 0 90 60 60
        E 0 90 6c 60
        E 120 80 60 60
        E 0 80 6c 60
        E 120 90 60 60
        E 0 90 6c 60
        E 120 80 60 60
        E 0 80 6c 60
        E 119 90 6c 60
        E 1 90 60 60
        E 120 80 6c 60
        E 0 80 60 60
        E 120 90 60 60
        E 0 90 6c 60
        E 120 80 60 60
        E 0 80 6c 60
        E 120 90 60 60
        E 0 90 6c 60
        E 120 80 60 60
        E 0 80 6c 60
        E 120 90 60 60
        E 0 90 6c 60
        E 120 80 60 60
        E 0 80 6c 60
        E 120 90 62 60
        E 0 90 6c 60
        E 120 80 62 60
        E 0 80 6c 60
        E 120 90 60 60
        E 0 90 6c 60
        E 120 80 60 60
        E 0 80 6c 60
        E 120 80 30 60
        E 0 90 31 60
        E 0 90 61 60
        E 0 90 6c 60
        E 120 80 61 60
        E 0 80 6c 60
        E 120 90 61 60
        E 0 90 6c 60
        E 120 80 61 60
        E 0 80 6c 60
        E 119 90 6c 60
        E 1 90 61 60
        E 120 80 6c 60
        E 0 80 61 60
        E 120 90 61 60
        E 0 90 6c 60
        E 120 80 61 60
        E 0 80 6c 60
        E 120 90 61 60
        E 0 90 6c 60
        E 120 80 61 60
        E 0 80 6c 60
        E 120 90 61 60
        E 0 90 6c 60
        E 120 80 61 60
        E 0 80 6c 60
        E 120 90 61 60
        E 0 90 6c 60
        E 120 80 61 60
        E 0 80 6c 60
        E 120 90 61 60
        E 0 90 6c 60
        E 120 80 61 60
        E 0 80 6c 60
        E 120 80 31 60
        E 0 90 2f 60
        E 0 90 60 60
        E 0 90 6c 60
        E 120 80 2f 60
        E 0 80 60 60
        E 0 80 6c 60
        E 120 90 2c 60
        E 0 90 61 60
        E 0 90 6c 60
        E 120 80 2c 60
        E 0 80 61 60
        E 0 80 6c 60
        E 119 90 6c 60
        E 1 90 2d 60
        E 0 90 62 60
        E 120 80 6c 60
        E 0 80 2d 60
        E 0 80 62 60
        E 120 90 2f 60
        E 0 90 63 60
        E 0 90 6c 60
        E 120 80 2f 60
        E 0 80 6c 60
        E 2040 80 63 60
        E 720 90 2f 60
        E 0 90 63 60
        E 0 90 6c 60
        E 120 80 63 60
        E 0 80 6c 60
        E 120 90 60 60
        E 0 90 6c 60
        E 120 80 60 60
        E 0 80 6c 60
        E 120 90 60 60
        E 0 90 6c 60
        E 120 80 60 60
        E 0 80 6c 60
        E 119 90 6c 60
        E 1 90 60 60
        E 120 80 6c 60
        E 0 80 60 60
        E 120 90 60 60
        E 0 90 6c 60
        E 120 80 60 60
        E 0 80 6c 60
        E 120 90 60 60
        E 0 90 6c 60
        E 120 80 60 60
        E 0 80 6c 60
        E 120 90 60 60
        E 0 90 6c 60
        E 120 80 60 60
        E 0 80 6c 60
        E 120 90 60 60
        E 0 90 6c 60
        E 120 80 60 60
        E 0 80 6c 60
        E 120 90 63 60
        E 0 90 6c 60
        E 120 80 63 60
        E 0 80 6c 60
        E 120 90 60 60
        E 0 90 6c 60
        E 120 80 60 60
        E 0 80 6c 60
        E 120 90 60 60
        E 0 90 6c 60
        E 120 80 60 60
        E 0 80 6c 60
        E 119 90 6c 60
        E 1 90 60 60
        E 120 80 6c 60
        E 0 80 60 60
        E 120 90 60 60
        E 0 90 6c 60
        E 120 80 60 60
        E 0 80 6c 60
        E 120 90 60 60
        E 0 90 6c 60
        E 120 80 60 60
        E 0 80 6c 60
        E 120 90 60 60
        E 0 90 6c 60
        E 120 80 60 60
        E 0 80 6c 60
        E 120 90 60 60
        E 0 90 6c 60
        E 120 80 60 60
        E 0 80 6c 60
        E 120 90 63 60
        E 0 90 6c 60
        E 120 80 63 60
        E 0 80 6c 60
        E 120 80 2f 60
        E 0 90 31 60
        E 0 90 62 60
        E 0 90 6c 60
        E 120 80 62 60
        E 0 80 6c 60
        E 120 90 62 60
        E 0 90 6c 60
        E 120 80 62 60
        E 0 80 6c 60
        E 119 90 6c 60
        E 1 90 62 60
        E 120 80 6c 60
        E 0 80 62 60
        E 120 90 62 60
        E 0 90 6c 60
        E 120 80 62 60
        E 0 80 6c 60
        E 120 80 31 60
        E 0 90 32 60
        E 0 90 63 60
        E 0 90 6c 60
        E 120 80 63 60
        E 0 80 6c 60
        E 120 90 63 60
        E 0 90 6c 60
        E 120 80 63 60
        E 0 80 6c 60
        E 120 90 63 60
        E 0 90 6c 60
        E 120 80 63 60
        E 0 80 6c 60
        E 120 90 63 60
        E 0 90 6c 60
        E 120 80 63 60
        E 0 80 6c 60
        E 120 80 32 60
        E 0 90 2f 60
        E 0 90 60 60
        E 0 90 6c 60
        E 120 80 60 60
        E 0 80 6c 60
        E 120 90 60 60
        E 0 90 6c 60
        E 120 80 60 60
        E 0 80 6c 60
        E 119 90 6c 60
        E 1 90 60 60
        E 120 80 6c 60
        E 0 80 60 60
        E 120 90 60 60
        E 0 90 6c 60
        E 120 80 60 60
        E 0 80 6c 60
        E 120 90 60 60
        E 0 90 6c 60
        E 120 80 60 60
        E 0 80 6c 60
        E 120 90 60 60
        E 0 90 6c 60
        E 120 80 60 60
        E 0 80 6c 60
        E 120 90 60 60
        E 0 90 6c 60
        E 120 80 60 60
        E 0 80 6c 60
        E 120 90 60 60
        E 0 90 6c 60
        E 120 80 60 60
        E 0 80 6c 60
        E 120 80 2f 60
        E 0 90 31 60
        E 0 90 62 60
        E 0 90 6c 60
        E 120 80 62 60
        E 0 80 6c 60
        E 120 90 62 60
        E 0 90 6c 60
        E 120 80 62 60
        E 0 80 6c 60
        E 119 90 6c 60
        E 1 90 62 60
        E 120 80 6c 60
        E 0 80 62 60
        E 120 90 62 60
        E 0 90 6c 60
        E 120 80 62 60
        E 0 80 6c 60
        E 120 80 31 60
        E 0 90 32 60
        E 0 90 63 60
        E 0 90 6c 60
        E 120 80 63 60
        E 0 80 6c 60
        E 120 90 63 60
        E 0 90 6c 60
        E 120 80 63 60
        E 0 80 6c 60
        E 120 90 63 60
        E 0 90 6c 60
        E 120 80 32 60
        E 0 80 63 60
        E 0 80 6c 60
        E 0 90 2f 60
        E 120 90 63 60
        E 0 90 6c 60
        E 120 80 63 60
        E 0 80 6c 60
        E 120 90 64 60
        E 0 90 6c 60
        E 120 80 64 60
        E 0 80 6c 60
        E 120 90 64 60
        E 0 90 6c 60
        E 120 80 64 60
        E 0 80 6c 60
        E 119 90 6c 60
        E 1 90 64 60
        E 120 80 6c 60
        E 0 80 64 60
        E 120 80 2f 60
        E 0 90 2d 60
        E 0 90 64 60
        E 0 90 6c 60
        E 120 80 2d 60
        E 0 80 64 60
        E 0 80 6c 60
        E 120 90 2c 60
        E 0 90 64 60
        E 0 90 6c 60
        E 120 80 2c 60
        E 0 80 64 60
        E 0 80 6c 60
        E 120 90 2b 60
        E 0 90 63 60
        E 0 90 6c 60
        E 120 80 2b 60
        E 0 80 63 60
        E 0 80 6c 60
        E 120 90 2a 60
        E 0 90 62 60
        E 0 90 6c 60
        E 120 80 62 60
        E 0 80 6c 60
        E 120 90 61 60
        E 0 90 6c 60
        E 120 80 61 60
        E 0 80 6c 60
        E 120 80 2a 60
        E 0 90 2f 60
        E 0 90 60 60
        E 0 90 6c 60
        E 120 80 60 60
        E 0 80 6c 60
        E 120 90 60 60
        E 0 90 6c 60
        E 120 80 60 60
        E 0 80 6c 60
        E 119 90 6c 60
        E 1 90 60 60
        E 120 80 6c 60
        E 0 80 60 60
        E 120 90 60 60
        E 0 90 6c 60
        E 120 80 60 60
        E 0 80 6c 60
        E 120 90 60 60
        E 0 90 6c 60
        E 120 80 60 60
        E 0 80 6c 60
        E 120 90 62 60
        E 0 90 6c 60
        E 120 80 62 60
        E 0 80 6c 60
        E 120 90 60 60
        E 0 90 6c 60
        E 120 80 60 60
        E 0 80 6c 60
        E 120 90 60 60
        E 0 90 6c 60
        E 120 80 60 60
        E 0 80 6c 60
        E 120 90 61 60
        E 0 90 6c 60
        E 120 80 61 60
        E 0 80 6c 60
        E 120 90 61 60
        E 0 90 6c 60
        E 120 80 61 60
        E 0 80 6c 60
        E 119 90 6c 60
        E 1 90 61 60
        E 120 80 6c 60
        E 0 80 61 60
        E 120 90 61 60
        E 0 90 6c 60
        E 120 80 61 60
        E 0 80 6c 60
        E 120 90 61 60
        E 0 90 6c 60
        E 120 80 61 60
        E 0 80 6c 60
        E 120 90 61 60
        E 0 90 6c 60
        E 120 80 61 60
        E 0 80 6c 60
        E 120 90 61 60
        E 0 90 6c 60
        E 120 80 61 60
        E 0 80 6c 60
        E 120 90 61 60
        E 0 90 6c 60
        E 120 80 61 60
        E 0 80 6c 60
        E 120 90 60 60
        E 0 90 6c 60
        E 120 80 60 60
        E 0 80 6c 60
        E 120 90 60 60
        E 0 90 6c 60
        E 120 80 60 60
        E 0 80 6c 60
        E 120 90 60 60
        E 0 90 6c 60
        E 120 80 60 60
        E 0 80 6c 60
        E 120 90 60 60
        E 0 90 6c 60
        E 120 80 60 60
        E 0 80 6c 60
        E 120 90 62 60
        E 0 90 6c 60
        E 120 80 2f 60
        E 0 80 6c 60
        E 1800 80 62 60
        E 480 90 2f 60
        E 0 90 63 60
        E 0 90 6c 60
        E 120 80 6c 60
        E 120 90 6c 60
        E 120 80 63 60
        E 0 80 6c 60
        E 120 90 60 60
        E 0 90 6c 60
        E 120 80 60 60
        E 0 80 6c 60
        E 119 90 6c 60
        E 1 90 60 60
        E 120 80 6c 60
        E 0 80 60 60
        E 120 90 60 60
        E 0 90 6c 60
        E 120 80 60 60
        E 0 80 6c 60
        E 120 90 60 60
        E 0 90 6c 60
        E 120 80 60 60
        E 0 80 6c 60
        E 120 90 60 60
        E 0 90 6c 60
        E 120 80 60 60
        E 0 80 6c 60
        E 120 90 60 60
        E 0 90 6c 60
        E 120 80 60 60
        E 0 80 6c 60
        E 120 90 60 60
        E 0 90 6c 60
        E 120 80 60 60
        E 0 80 6c 60
        E 120 90 63 60
        E 0 90 6c 60
        E 120 80 63 60
        E 0 80 6c 60
        E 120 90 60 60
        E 0 90 6c 60
        E 120 80 60 60
        E 0 80 6c 60
        E 119 90 6c 60
        E 1 90 60 60
        E 120 80 6c 60
        E 0 80 60 60
        E 120 90 60 60
        E 0 90 6c 60
        E 120 80 60 60
        E 0 80 6c 60
        E 120 90 60 60
        E 0 90 6c 60
        E 120 80 60 60
        E 0 80 6c 60
        E 120 90 60 60
        E 0 90 6c 60
        E 120 80 60 60
        E 0 80 6c 60
        E 120 90 60 60
        E 0 90 6c 60
        E 120 80 60 60
        E 0 80 6c 60
        E 120 90 60 60
        E 0 90 6c 60
        E 120 80 60 60
        E 0 80 6c 60
        E 120 90 60 60
        E 0 90 6c 60
        E 120 80 60 60
        E 0 80 6c 60
        E 120 80 2f 60
        E 0 90 31 60
        E 0 90 62 60
        E 0 90 6c 60
        E 120 80 62 60
        E 0 80 6c 60
        E 119 90 6c 60
        E 1 90 62 60
        E 120 80 6c 60
        E 0 80 62 60
        E 120 90 62 60
        E 0 90 6c 60
        E 120 80 62 60
        E 0 80 6c 60
        E 120 90 62 60
        E 0 90 6c 60
        E 120 80 62 60
        E 0 80 6c 60
        E 120 80 31 60
        E 0 90 32 60
        E 0 90 63 60
        E 0 90 6c 60
        E 120 80 63 60
        E 0 80 6c 60
        E 120 90 63 60
        E 0 90 6c 60
        E 120 80 63 60
        E 0 80 6c 60
        E 120 90 63 60
        E 0 90 6c 60
        E 120 80 63 60
        E 0 80 6c 60
        E 120 90 63 60
        E 0 90 6c 60
        E 120 80 63 60
        E 0 80 6c 60
        E 120 80 32 60
        E 0 90 2f 60
        E 0 90 60 60
        E 0 90 6c 60
        E 120 80 60 60
        E 0 80 6c 60
        E 119 90 6c 60
        E 1 90 60 60
        E 120 80 6c 60
        E 0 80 60 60
        E 120 90 60 60
        E 0 90 6c 60
        E 120 80 60 60
        E 0 80 6c 60
        E 120 90 60 60
        E 0 90 6c 60
        E 120 80 60 60
        E 0 80 6c 60
        E 120 90 60 60
        E 0 90 6c 60
        E 120 80 60 60
        E 0 80 6c 60
        E 120 90 60 60
        E 0 90 6c 60
        E 120 80 60 60
        E 0 80 6c 60
        E 120 90 60 60
        E 0 90 6c 60
        E 120 80 60 60
        E 0 80 6c 60
        E 120 90 61 60
        E 0 90 6c 60
        E 120 80 61 60
        E 0 80 6c 60
        E 120 80 2f 60
        E 0 90 31 60
        E 0 90 62 60
        E 0 90 6c 60
        E 120 80 62 60
        E 0 80 6c 60
        E 119 90 6c 60
        E 1 90 62 60
        E 120 80 6c 60
        E 0 80 62 60
        E 120 90 62 60
        E 0 90 6c 60
        E 120 80 62 60
        E 0 80 6c 60
        E 120 90 62 60
        E 0 90 6c 60
        E 120 80 62 60
        E 0 80 6c 60
        E 120 80 31 60
        E 0 90 32 60
        E 0 90 63 60
        E 0 90 6c 60
        E 120 80 63 60
        E 0 80 6c 60
        E 120 90 63 60
        E 0 90 6c 60
        E 120 80 63 60
        E 0 80 6c 60
        E 120 90 63 60
        E 0 90 6c 60
        E 120 80 63 60
        E 0 80 6c 60
        E 120 90 63 60
        E 0 90 6c 60
        E 120 80 63 60
        E 0 80 6c 60
        E 120 80 32 60
        E 0 90 2f 60
        E 0 90 60 60
        E 0 90 6c 60
        E 120 80 60 60
        E 0 80 6c 60
        E 119 90 6c 60
        E 1 90 60 60
        E 120 80 6c 60
        E 0 80 60 60
        E 120 90 60 60
        E 0 90 6c 60
        E 120 80 60 60
        E 0 80 6c 60
        E 120 90 60 60
        E 0 90 6c 60
        E 120 80 60 60
        E 0 80 6c 60
        E 120 90 60 60
        E 0 90 6c 60
        E 120 80 60 60
        E 0 80 6c 60
        E 120 90 60 60
        E 0 90 6c 60
        E 120 80 60 60
        E 0 80 6c 60
        E 120 90 60 60
        E 0 90 6c 60
        E 120 80 60 60
        E 0 80 6c 60
        E 120 90 60 60
        E 0 90 6c 60
        E 120 80 60 60
        E 0 80 6c 60
        E 120 80 2f 60
        E 0 90 31 60
        E 0 90 62 60
        E 0 90 6c 60
        E 120 80 62 60
        E 0 80 6c 60
        E 119 90 6c 60
        E 1 90 62 60
        E 120 80 6c 60
        E 0 80 62 60
        E 120 90 62 60
        E 0 90 6c 60
        E 120 80 62 60
        E 0 80 6c 60
        E 120 90 62 60
        E 0 90 6c 60
        E 120 80 62 60
        E 0 80 6c 60
        E 120 90 63 60
        E 0 90 6c 60
        E 120 80 63 60
        E 0 80 6c 60
        E 120 90 63 60
        E 0 90 6c 60
        E 120 80 63 60
        E 0 80 6c 60
        E 120 90 63 60
        E 0 90 6c 60
        E 120 80 63 60
        E 0 80 6c 60
        E 120 90 63 60
        E 0 90 6c 60
        E 120 80 63 60
        E 0 80 6c 60
        E 120 80 31 60
        E 0 90 32 60
        E 0 90 64 60
        E 0 90 6c 60
        E 120 80 64 60
        E 0 80 6c 60
        E 119 90 6c 60
        E 1 90 64 60
        E 120 80 6c 60
        E 0 80 64 60
        E 120 90 64 60
        E 0 90 6c 60
        E 120 80 64 60
        E 0 80 6c 60
        E 120 90 64 60
        E 0 90 6c 60
        E 120 80 64 60
        E 0 80 6c 60
        E 120 90 64 60
        E 0 90 6c 60
        E 120 80 64 60
        E 0 80 6c 60
        E 120 90 64 60
        E 0 90 6c 60
        E 120 80 64 60
        E 0 80 6c 60
        E 120 90 64 60
        E 0 90 6c 60
        E 120 80 64 60
        E 0 80 6c 60
        E 120 90 64 60
        E 0 90 6c 60
        E 120 80 64 60
        E 0 80 6c 60
        E 120 90 64 60
        E 0 90 6c 60
        E 120 80 64 60
        E 0 80 6c 60
        E 119 90 6c 60
        E 1 90 64 60
        E 120 80 6c 60
        E 0 80 64 60
        E 120 90 64 60
        E 0 90 6c 60
        E 120 80 64 60
        E 0 80 6c 60
        E 120 90 64 60
        E 0 90 6c 60
        E 120 80 64 60
        E 0 80 6c 60
        E 120 90 64 60
        E 0 90 6c 60
        E 120 80 64 60
        E 0 80 6c 60
        E 120 90 64 60
        E 0 90 6c 60
        E 120 80 64 60
        E 0 80 6c 60
        E 120 90 64 60
        E 0 90 6c 60
        E 120 80 64 60
        E 0 80 6c 60
        E 120 90 64 60
        E 0 90 6c 60
        E 120 80 64 60
        E 0 80 6c 60
        E 120 80 32 60
        E 0 90 29 60
        E 0 90 60 60
        E 0 90 6c 60
        E 120 80 29 60
        E 0 80 6c 60
        E 2759 80 60 60
        E 8436 b0 7b 00
        CCINTERP 32
        GUID {47B4F77D-3827-49E6-8D3C-1C5065990073}
        IGNTEMPO 0 120 4 4
        SRCCOLOR 51
        VELLANE 132 128 60
        CFGEDITVIEW 0 0 -1 12 0 0 0 0 0 0.5
        KEYSNAP 0
        TRACKSEL 0
        EVTFILTER 0 -1 -1 -1 -1 0 0 0 0 -1 -1 -1 -1 0 -1 0 -1 -1
        CFGEDIT 1 1 0 0 0 1 1 1 1 1 1 0.25 100 100 1200 800 0 0 2 2 0 0 0 0 0 0.5 1 0 1 64
      >
    >
  >
  <TRACK {7E6D7D59-1EB8-4EF7-A859-5E35D0990820}
    NAME GEORGE
    PEAKCOL 16576
    BEAT -1
    AUTOMODE 0
    VOLPAN 1 0 -1 -1 1
    MUTESOLO 0 0 0
    IPHASE 0
    PLAYOFFS 0 1
    ISBUS 0 0
    BUSCOMP 0 0 0 0 0
    SHOWINMIX 1 0.6667 0.5 1 0.5 -1 -1 -1
    SEL 0
    REC 0 0 1 0 0 0 0 0
    TRACKHEIGHT 0 0 0 0 0 0
    INQ 0 0 0 0.5 100 0 0 100
    NCHAN 2
    FX 0
    TRACKID {7E6D7D59-1EB8-4EF7-A859-5E35D0990820}
    PERF 0
    MIDIOUT -1
    MAINSEND 1 0
    <FXCHAIN
      SHOW 0
      LASTSEL 0
      DOCKED 0
    >
    <ITEM
      POSITION 0
      SNAPOFFS 0
      LENGTH 165.05873578958332
      LOOP 0
      ALLTAKES 0
      FADEIN 1 0 0 1 0 0 0
      FADEOUT 1 0 0 1 0 0 0
      MUTE 0 0
      SEL 0
      IGUID {04BF544C-3665-4561-B94D-C30D9569D0C5}
      IID 3
      NAME GEORGE
      VOLPAN 1 0 1 -1
      SOFFS 0 0
      PLAYRATE 1 1 0 -1 0 0.0025
      CHANMODE 0
      GUID {E72C4EDE-B9A0-4373-9D27-7816604C515C}
      <SOURCE MIDI
        HASDATA 1 480 QN
        CCINTERP 32
        POOLEDEVTS {E2732919-25B2-4549-B81D-BFA126063699}
        <X 0 0 0 0 3 GEORGE
          /wNHRU9SR0U=
        >
        <X 4327 0 0 0 1 [play]
          /wFbcGxheV0=
        >
        E 1433 90 40 64
        E 0 96 6e 64
        E 120 86 6e 60
        E 360 96 6f 64
        E 120 86 6f 60
        E 120 90 2b 64
        E 240 96 6f 64
        E 120 86 6f 60
        E 360 96 6f 64
        E 120 86 6f 60
        E 360 96 6e 64
        E 120 86 6e 60
        E 360 96 6f 64
        E 120 86 6f 60
        E 360 96 6f 64
        E 120 86 6f 60
        E 360 96 6f 64
        E 120 86 6f 60
        E 360 96 6e 64
        E 120 86 6e 60
        E 360 96 6f 64
        E 120 86 6f 60
        E 360 96 6f 64
        E 120 86 6f 60
        E 360 96 6f 64
        E 120 86 6f 60
        E 360 96 6e 64
        E 120 86 6e 60
        E 360 96 6f 64
        E 120 86 6f 60
        E 360 96 6f 64
        E 120 86 6f 60
        E 360 96 6f 64
        E 120 86 6f 60
        E 360 96 6e 64
        E 120 86 6e 60
        E 360 96 6f 64
        E 120 86 6f 60
        E 360 96 6f 64
        E 120 86 6f 60
        E 360 96 6f 64
        E 120 86 6f 60
        E 360 96 6e 64
        E 120 86 6e 60
        E 360 96 6f 64
        E 120 86 6f 60
        E 360 96 6f 64
        E 120 86 6f 60
        E 360 96 6f 64
        E 120 86 6f 60
        E 360 96 6e 64
        E 120 86 6e 60
        E 360 96 6f 64
        E 120 86 6f 60
        E 360 96 6f 64
        E 120 86 6f 60
        E 360 96 6f 64
        E 120 86 6f 60
        E 360 96 6e 64
        E 120 86 6e 60
        E 360 96 6f 64
        E 120 86 6f 60
        E 360 96 6f 64
        E 120 86 6f 60
        E 360 96 6f 64
        E 120 86 6f 60
        E 360 96 6e 64
        E 120 86 6e 60
        E 360 96 6f 64
        E 120 86 6f 60
        E 360 96 6f 64
        E 120 86 6f 60
        E 360 96 6f 64
        E 120 86 6f 60
        E 360 96 6e 64
        E 120 86 6e 60
        E 360 96 6f 64
        E 120 86 6f 60
        E 360 96 6f 64
        E 120 86 6f 60
        E 360 96 6f 64
        E 120 86 6f 60
        E 360 96 6e 64
        E 120 86 6e 60
        E 360 96 6f 64
        E 120 86 6f 60
        E 360 96 6f 64
        E 120 86 6f 60
        E 360 96 6f 64
        E 120 86 6f 60
        E 360 96 6e 64
        E 120 86 6e 60
        E 360 96 6f 64
        E 120 86 6f 60
        E 360 96 6f 64
        E 120 86 6f 60
        E 360 96 6f 64
        E 120 86 6f 60
        E 360 96 6e 64
        E 120 86 6e 60
        E 360 96 6f 64
        E 120 86 6f 60
        E 360 96 6f 64
        E 120 86 6f 60
        E 360 96 6f 64
        E 120 86 6f 60
        E 360 96 6e 64
        E 120 86 6e 60
        E 360 96 6f 64
        E 120 86 6f 60
        E 360 96 6f 64
        E 120 86 6f 60
        E 360 96 6f 64
        E 120 86 6f 60
        E 360 96 6e 64
        E 120 86 6e 60
        E 360 96 6f 64
        E 120 86 6f 60
        E 360 96 6f 64
        E 120 86 6f 60
        E 360 96 6f 64
        E 120 86 6f 60
        E 360 96 6e 64
        E 120 86 6e 60
        E 360 96 6f 64
        E 120 86 6f 60
        E 360 96 6f 64
        E 120 86 6f 60
        E 360 96 6f 64
        E 120 86 6f 60
        E 360 96 6e 64
        E 120 86 6e 60
        E 360 96 6f 64
        E 120 86 6f 60
        E 360 96 6f 64
        E 120 86 6f 60
        E 360 96 6f 64
        E 120 86 6f 60
        E 360 96 6e 64
        E 120 86 6e 60
        E 360 96 6f 64
        E 120 86 6f 60
        E 360 96 6f 64
        E 120 86 6f 60
        E 360 96 6f 64
        E 120 86 6f 60
        E 360 96 6e 64
        E 120 86 6e 60
        E 360 96 6f 64
        E 120 86 6f 60
        E 360 96 6f 64
        E 120 86 6f 60
        E 360 96 6f 64
        E 120 86 6f 60
        E 360 96 6e 64
        E 120 86 6e 60
        E 360 96 6f 64
        E 120 86 6f 60
        E 360 96 6f 64
        E 120 86 6f 60
        E 360 96 6f 64
        E 120 86 6f 60
        E 360 96 6e 64
        E 120 86 6e 60
        E 360 96 6f 64
        E 120 86 6f 60
        E 360 96 6f 64
        E 120 86 6f 60
        E 360 96 6f 64
        E 120 86 6f 60
        E 360 96 6e 64
        E 120 86 6e 60
        E 360 96 6f 64
        E 120 86 6f 60
        E 360 96 6f 64
        E 120 86 6f 60
        E 360 96 6f 64
        E 120 86 6f 60
        E 360 96 6e 64
        E 120 86 6e 60
        E 360 96 6f 64
        E 120 86 6f 60
        E 360 96 6f 64
        E 120 86 6f 60
        E 360 96 6f 64
        E 120 86 6f 60
        E 360 96 6e 64
        E 120 86 6e 60
        E 360 96 6f 64
        E 120 86 6f 60
        E 360 96 6f 64
        E 120 86 6f 60
        E 360 96 6f 64
        E 120 86 6f 60
        E 360 96 6e 64
        E 120 86 6e 60
        E 360 96 6f 64
        E 120 86 6f 60
        E 360 96 6f 64
        E 120 86 6f 60
        E 360 96 6f 64
        E 120 86 6f 60
        E 360 96 6e 64
        E 120 86 6e 60
        E 360 96 6f 64
        E 120 86 6f 60
        E 360 96 6f 64
        E 120 86 6f 60
        E 360 96 6f 64
        E 120 86 6f 60
        E 360 96 6e 64
        E 120 86 6e 60
        E 360 96 6f 64
        E 120 86 6f 60
        E 360 96 6f 64
        E 120 86 6f 60
        E 360 96 6f 64
        E 120 86 6f 60
        E 360 96 6e 64
        E 120 86 6e 60
        E 360 96 6f 64
        E 120 86 6f 60
        E 360 96 6f 64
        E 120 86 6f 60
        E 360 96 6f 64
        E 120 86 6f 60
        E 360 96 6e 64
        E 120 86 6e 60
        E 360 96 6f 64
        E 120 86 6f 60
        E 360 96 6f 64
        E 120 86 6f 60
        E 360 96 6f 64
        E 120 86 6f 60
        E 360 96 6e 64
        E 120 86 6e 60
        E 360 96 6f 64
        E 120 86 6f 60
        E 360 96 6f 64
        E 120 86 6f 60
        E 360 96 6f 64
        E 120 86 6f 60
        E 360 96 6e 64
        E 120 86 6e 60
        E 360 96 6f 64
        E 120 86 6f 60
        E 360 96 6f 64
        E 120 86 6f 60
        E 360 96 6f 64
        E 120 86 6f 60
        E 360 96 6e 64
        E 120 86 6e 60
        E 360 96 6f 64
        E 120 86 6f 60
        E 360 96 6f 64
        E 120 86 6f 60
        E 360 96 6f 64
        E 120 86 6f 60
        E 360 96 6e 64
        E 120 86 6e 60
        E 360 96 6f 64
        E 120 86 6f 60
        E 360 96 6f 64
        E 120 86 6f 60
        E 360 96 6f 64
        E 120 86 6f 60
        E 360 96 6e 64
        E 120 86 6e 60
        E 360 96 6f 64
        E 120 86 6f 60
        E 360 96 6f 64
        E 120 86 6f 60
        E 360 96 6f 64
        E 120 86 6f 60
        E 360 96 6e 64
        E 120 86 6e 60
        E 360 96 6f 64
        E 120 86 6f 60
        E 360 96 6f 64
        E 120 86 6f 60
        E 360 96 6f 64
        E 120 86 6f 60
        E 360 96 6e 64
        E 120 86 6e 60
        E 360 96 6f 64
        E 120 86 6f 60
        E 360 96 6f 64
        E 120 86 6f 60
        E 360 96 6f 64
        E 120 86 6f 60
        E 360 96 6e 64
        E 120 86 6e 60
        E 360 96 6f 64
        E 120 86 6f 60
        E 360 96 6f 64
        E 120 86 6f 60
        E 360 96 6f 64
        E 120 86 6f 60
        E 360 96 6e 64
        E 120 86 6e 60
        E 360 96 6f 64
        E 120 86 6f 60
        E 360 96 6f 64
        E 120 86 6f 60
        E 360 96 6f 64
        E 120 86 6f 60
        E 360 96 6e 64
        E 120 86 6e 60
        E 360 96 6f 64
        E 120 86 6f 60
        E 360 96 6f 64
        E 120 86 6f 60
        E 360 96 6f 64
        E 120 86 6f 60
        E 360 96 6e 64
        E 120 86 6e 60
        E 360 96 6f 64
        E 120 86 6f 60
        E 360 96 6f 64
        E 120 86 6f 60
        E 360 96 6f 64
        E 120 86 6f 60
        E 360 96 6e 64
        E 120 86 6e 60
        E 360 96 6f 64
        E 120 86 6f 60
        E 360 96 6f 64
        E 120 86 6f 60
        E 360 96 6f 64
        E 120 86 6f 60
        E 360 96 6e 64
        E 120 86 6e 60
        E 360 96 6f 64
        E 120 86 6f 60
        E 360 96 6f 64
        E 120 86 6f 60
        E 360 96 6f 64
        E 120 86 6f 60
        E 360 96 6e 64
        E 120 86 6e 60
        E 360 96 6f 64
        E 120 86 6f 60
        E 360 96 6f 64
        E 120 86 6f 60
        E 360 96 6f 64
        E 120 86 6f 60
        E 360 96 6e 64
        E 120 86 6e 60
        E 360 96 6f 64
        E 120 86 6f 60
        E 360 96 6f 64
        E 120 86 6f 60
        E 360 96 6f 64
        E 120 86 6f 60
        E 360 96 6e 64
        E 120 86 6e 60
        E 360 96 6f 64
        E 120 86 6f 60
        E 360 96 6f 64
        E 120 86 6f 60
        E 360 96 6f 64
        E 120 86 6f 60
        E 360 96 6e 64
        E 120 86 6e 60
        E 360 96 6f 64
        E 120 86 6f 60
        E 360 96 6f 64
        E 120 86 6f 60
        E 360 96 6f 64
        E 120 86 6f 60
        E 360 96 6e 64
        E 120 86 6e 60
        E 360 96 6f 64
        E 120 86 6f 60
        E 360 96 6f 64
        E 120 86 6f 60
        E 360 96 6f 64
        E 120 86 6f 60
        E 360 96 6e 64
        E 120 86 6e 60
        E 360 96 6f 64
        E 120 86 6f 60
        E 360 96 6f 64
        E 120 86 6f 60
        E 360 96 6f 64
        E 120 86 6f 60
        E 360 96 6e 64
        E 120 86 6e 60
        E 360 96 6f 64
        E 120 86 6f 60
        E 360 96 6f 64
        E 120 86 6f 60
        E 360 96 6f 64
        E 120 86 6f 60
        E 360 96 6e 64
        E 120 86 6e 60
        E 360 96 6f 64
        E 120 86 6f 60
        E 360 96 6f 64
        E 120 86 6f 60
        E 360 96 6f 64
        E 120 86 6f 60
        E 360 96 6e 64
        E 120 86 6e 60
        E 360 96 6f 64
        E 120 86 6f 60
        E 360 96 6f 64
        E 120 86 6f 60
        E 360 96 6f 64
        E 120 86 6f 60
        E 360 96 6e 64
        E 120 86 6e 60
        E 359 80 2b 60
        E 0 80 40 60
        E 10836 b0 7b 00
        CCINTERP 32
        GUID {D18E1A6D-B5E3-4E56-AE9C-C43D0579CAB9}
        IGNTEMPO 0 120 4 4
        SRCCOLOR 52
        VELLANE 132 128 60
        CFGEDITVIEW 0 0 -1 12 0 0 0 0 0 0.5
        KEYSNAP 0
        TRACKSEL 0
        EVTFILTER 0 -1 -1 -1 -1 0 0 0 0 -1 -1 -1 -1 0 -1 0 -1 -1
        CFGEDIT 1 1 0 0 0 1 1 1 1 1 1 0.25 100 100 1200 800 0 0 2 2 0 0 0 0 0 0.5 1 0 1 64
      >
    >
  >
  <TRACK {E841350E-D9D0-49B0-811D-36A54E7D8667}
    NAME RINGO
    PEAKCOL 16576
    BEAT -1
    AUTOMODE 0
    VOLPAN 1 0 -1 -1 1
    MUTESOLO 0 0 0
    IPHASE 0
    PLAYOFFS 0 1
    ISBUS 0 0
    BUSCOMP 0 0 0 0 0
    SHOWINMIX 1 0.6667 0.5 1 0.5 -1 -1 -1
    SEL 0
    REC 0 0 1 0 0 0 0 0
    TRACKHEIGHT 0 0 0 0 0 0
    INQ 0 0 0 0.5 100 0 0 100
    NCHAN 2
    FX 0
    TRACKID {E841350E-D9D0-49B0-811D-36A54E7D8667}
    PERF 0
    MIDIOUT -1
    MAINSEND 1 0
    <FXCHAIN
      SHOW 0
      LASTSEL 0
      DOCKED 0
    >
    <ITEM
      POSITION 0
      SNAPOFFS 0
      LENGTH 165.05873578958332
      LOOP 0
      ALLTAKES 0
      FADEIN 1 0 0 1 0 0 0
      FADEOUT 1 0 0 1 0 0 0
      MUTE 0 0
      SEL 0
      IGUID {D7A36941-176C-4BF4-B8B1-F3C8125A769A}
      IID 4
      NAME RINGO
      VOLPAN 1 0 1 -1
      SOFFS 0 0
      PLAYRATE 1 1 0 -1 0 0.0025
      CHANMODE 0
      GUID {F7285C0A-125E-422C-99AC-8A643B16BCE2}
      <SOURCE MIDI
        HASDATA 1 480 QN
        CCINTERP 32
        POOLEDEVTS {D0C1960E-C591-4A19-BDC5-DDF27B89DD1F}
        <X 0 0 0 0 3 RINGO
          /wNSSU5HTw==
        >
        E 4976 90 19 36
        E 545 90 1a 60
        E 0 90 1f 60
        E 120 80 1a 60
        E 0 80 1f 60
        E 120 90 18 75
        E 0 90 1f 60
        E 120 80 18 60
        E 0 80 1f 60
        E 49 80 19 60
        E 71 90 1f 60
        E 120 80 1f 60
        E 120 90 1a 60
        E 0 90 1f 60
        E 120 80 1a 60
        E 0 80 1f 60
        E 120 90 1f 60
        E 120 80 1f 60
        E 120 90 18 75
        E 0 90 1f 60
        E 120 80 18 60
        E 0 80 1f 60
        E 120 90 1f 60
        E 120 80 1f 60
        E 120 90 1a 60
        E 0 90 1f 60
        E 120 80 1a 60
        E 0 80 1f 60
        E 120 90 1f 60
        E 120 80 1f 60
        E 120 90 18 75
        E 0 90 1f 60
        E 120 80 18 60
        E 0 80 1f 60
        E 120 90 1f 60
        E 120 80 1f 60
        E 120 90 1a 60
        E 0 90 1f 60
        E 120 80 1a 60
        E 0 80 1f 60
        E 120 90 1f 60
        E 120 80 1f 60
        E 120 90 18 75
        E 0 90 1f 60
        E 120 80 18 60
        E 0 80 1f 60
        E 120 90 1f 60
        E 120 80 1f 60
        E 120 90 1a 60
        E 0 90 1f 60
        E 120 80 1a 60
        E 0 80 1f 60
        E 120 90 1f 60
        E 120 80 1f 60
        E 120 90 18 75
        E 0 90 1f 60
        E 120 80 18 60
        E 0 80 1f 60
        E 120 90 1f 60
        E 120 80 1f 60
        E 120 90 1a 60
        E 0 90 1f 60
        E 120 80 1a 60
        E 0 80 1f 60
        E 120 90 1f 60
        E 120 80 1f 60
        E 120 90 18 75
        E 0 90 1f 60
        E 120 80 18 60
        E 0 80 1f 60
        E 120 90 1f 60
        E 120 80 1f 60
        E 120 90 1a 60
        E 0 90 1f 60
        E 120 80 1a 60
        E 0 80 1f 60
        E 120 90 1f 60
        E 120 80 1f 60
        E 120 90 18 75
        E 0 90 1f 60
        E 120 80 18 60
        E 0 80 1f 60
        E 120 90 1f 60
        E 120 80 1f 60
        E 120 90 1a 60
        E 0 90 1f 60
        E 120 80 1a 60
        E 0 80 1f 60
        E 120 90 1f 60
        E 120 80 1f 60
        E 120 90 18 75
        E 0 90 1f 60
        E 120 80 18 60
        E 0 80 1f 60
        E 120 90 1f 60
        E 120 80 1f 60
        E 120 90 1a 60
        E 0 90 1f 60
        E 120 80 1a 60
        E 0 80 1f 60
        E 120 90 1f 60
        E 120 80 1f 60
        E 120 90 18 75
        E 0 90 1f 60
        E 120 80 18 60
        E 0 80 1f 60
        E 120 90 1f 60
        E 120 80 1f 60
        E 120 90 1a 60
        E 0 90 1f 60
        E 120 80 1a 60
        E 0 80 1f 60
        E 120 90 1f 60
        E 120 80 1f 60
        E 120 90 18 75
        E 0 90 1f 60
        E 120 80 18 60
        E 0 80 1f 60
        E 120 90 1f 60
        E 120 80 1f 60
        E 120 90 1a 60
        E 0 90 1f 60
        E 120 80 1a 60
        E 0 80 1f 60
        E 120 90 1f 60
        E 120 80 1f 60
        E 120 90 18 75
        E 0 90 1f 60
        E 120 80 18 60
        E 0 80 1f 60
        E 120 90 1f 60
        E 120 80 1f 60
        E 120 90 1a 60
        E 0 90 1f 60
        E 120 80 1a 60
        E 0 80 1f 60
        E 120 90 1f 60
        E 120 80 1f 60
        E 120 90 18 75
        E 0 90 1f 60
        E 120 80 18 60
        E 0 80 1f 60
        E 120 90 1f 60
        E 120 80 1f 60
        E 120 90 1a 60
        E 0 90 1f 60
        E 120 80 1a 60
        E 0 80 1f 60
        E 120 90 1f 60
        E 120 80 1f 60
        E 120 90 18 75
        E 0 90 1f 60
        E 120 80 18 60
        E 0 80 1f 60
        E 120 90 1f 60
        E 120 80 1f 60
        E 120 90 1a 60
        E 0 90 1f 60
        E 120 80 1a 60
        E 0 80 1f 60
        E 120 90 1f 60
        E 120 80 1f 60
        E 120 90 18 75
        E 0 90 1f 60
        E 120 80 18 60
        E 0 80 1f 60
        E 120 90 1f 60
        E 120 80 1f 60
        E 120 90 1a 60
        E 0 90 1f 60
        E 120 80 1a 60
        E 0 80 1f 60
        E 120 90 1f 60
        E 120 80 1f 60
        E 120 90 18 75
        E 0 90 1f 60
        E 120 80 18 60
        E 0 80 1f 60
        E 120 90 1f 60
        E 120 80 1f 60
        E 120 90 1a 60
        E 0 90 1f 60
        E 120 80 1a 60
        E 0 80 1f 60
        E 120 90 1f 60
        E 120 80 1f 60
        E 120 90 18 75
        E 0 90 1f 60
        E 120 80 18 60
        E 0 80 1f 60
        E 120 90 1f 60
        E 120 80 1f 60
        E 120 90 1a 60
        E 0 90 1f 60
        E 120 80 1a 60
        E 0 80 1f 60
        E 120 90 1f 60
        E 120 80 1f 60
        E 120 90 18 75
        E 0 90 1f 60
        E 120 80 18 60
        E 0 80 1f 60
        E 120 90 1f 60
        E 120 80 1f 60
        E 120 90 1a 60
        E 0 90 1f 60
        E 120 80 1a 60
        E 0 80 1f 60
        E 120 90 1f 60
        E 120 80 1f 60
        E 120 90 18 75
        E 0 90 1f 60
        E 120 80 18 60
        E 0 80 1f 60
        E 120 90 2e 60
        E 0 90 31 60
        E 120 80 2e 60
        E 0 80 31 60
        E 120 90 2e 60
        E 0 90 31 60
        E 120 80 2e 60
        E 0 80 31 60
        E 120 90 2e 60
        E 0 90 31 60
        E 120 80 2e 60
        E 0 80 31 60
        E 120 90 18 75
        E 0 90 26 60
        E 120 80 18 60
        E 0 80 26 60
        E 360 90 1a 60
        E 0 90 26 60
        E 120 80 1a 60
        E 0 80 26 60
        E 360 90 18 75
        E 0 90 26 60
        E 120 80 18 60
        E 0 80 26 60
        E 360 90 1a 60
        E 0 90 26 60
        E 120 80 1a 60
        E 0 80 26 60
        E 360 90 18 75
        E 0 90 26 60
        E 120 80 18 60
        E 0 80 26 60
        E 360 90 1a 60
        E 0 90 26 60
        E 120 80 1a 60
        E 0 80 26 60
        E 360 90 18 75
        E 0 90 26 60
        E 120 80 18 60
        E 0 80 26 60
        E 360 90 1a 60
        E 0 90 26 60
        E 120 80 1a 60
        E 0 80 26 60
        E 360 90 18 75
        E 0 90 26 60
        E 120 80 18 60
        E 0 80 26 60
        E 360 90 1a 60
        E 0 90 26 60
        E 120 80 1a 60
        E 0 80 26 60
        E 360 90 18 75
        E 0 90 26 60
        E 120 80 18 60
        E 0 80 26 60
        E 360 90 1a 60
        E 0 90 26 60
        E 120 80 1a 60
        E 0 80 26 60
        E 360 90 18 75
        E 0 90 26 60
        E 120 80 18 60
        E 0 80 26 60
        E 120 90 2e 60
        E 0 90 30 60
        E 120 80 2e 60
        E 0 80 30 60
        E 120 90 26 60
        E 0 90 32 60
        E 120 80 26 60
        E 0 80 32 60
        E 120 90 18 75
        E 0 90 26 60
        E 0 90 31 53
        E 120 80 18 60
        E 0 80 26 60
        E 0 80 31 60
        E 2280 90 1b 60
        E 120 80 1b 60
        E 0 90 1a 60
        E 120 80 1a 60
        E 120 90 1a 60
        E 120 80 1a 60
        E 0 90 1b 60
        E 120 80 1b 60
        E 120 90 18 75
        E 0 90 1f 60
        E 120 80 18 60
        E 0 80 1f 60
        E 120 90 1f 60
        E 120 80 1f 60
        E 120 90 1a 60
        E 0 90 1f 60
        E 120 80 1a 60
        E 0 80 1f 60
        E 120 90 1f 60
        E 120 80 1f 60
        E 120 90 18 75
        E 0 90 1f 60
        E 120 80 18 60
        E 0 80 1f 60
        E 120 90 1f 60
        E 120 80 1f 60
        E 120 90 1a 60
        E 0 90 1f 60
        E 120 80 1a 60
        E 0 80 1f 60
        E 120 90 1f 60
        E 120 80 1f 60
        E 120 90 18 75
        E 0 90 1f 60
        E 120 80 18 60
        E 0 80 1f 60
        E 120 90 1f 60
        E 120 80 1f 60
        E 120 90 1a 60
        E 0 90 1f 60
        E 120 80 1a 60
        E 0 80 1f 60
        E 120 90 1f 60
        E 120 80 1f 60
        E 120 90 18 75
        E 0 90 1f 60
        E 120 80 18 60
        E 0 80 1f 60
        E 120 90 1f 60
        E 120 80 1f 60
        E 120 90 1a 60
        E 0 90 1f 60
        E 120 80 1a 60
        E 0 80 1f 60
        E 120 90 1f 60
        E 120 80 1f 60
        E 120 90 18 75
        E 0 90 1f 60
        E 120 80 18 60
        E 0 80 1f 60
        E 120 90 1f 60
        E 120 80 1f 60
        E 120 90 1a 60
        E 0 90 1f 60
        E 120 80 1a 60
        E 0 80 1f 60
        E 120 90 1f 60
        E 120 80 1f 60
        E 120 90 18 75
        E 0 90 1f 60
        E 120 80 18 60
        E 0 80 1f 60
        E 120 90 1f 60
        E 120 80 1f 60
        E 120 90 1a 60
        E 0 90 1f 60
        E 120 80 1a 60
        E 0 80 1f 60
        E 120 90 1f 60
        E 120 80 1f 60
        E 120 90 18 75
        E 0 90 1f 60
        E 120 80 18 60
        E 0 80 1f 60
        E 120 90 1f 60
        E 120 80 1f 60
        E 120 90 1a 60
        E 0 90 1f 60
        E 120 80 1a 60
        E 0 80 1f 60
        E 240 90 30 60
        E 60 80 30 60
        E 60 90 31 60
        E 60 80 31 60
        E 60 90 30 60
        E 60 80 30 60
        E 60 90 31 60
        E 60 80 31 60
        E 180 90 30 60
        E 60 80 30 60
        E 180 90 31 60
        E 60 80 31 60
        E 180 90 18 75
        E 120 80 18 60
        E 120 90 18 60
        E 0 90 1a 60
        E 0 90 27 60
        E 60 80 18 60
        E 0 80 1a 60
        E 0 80 27 60
        E 180 90 18 60
        E 0 90 1a 60
        E 0 90 27 60
        E 60 80 18 60
        E 0 80 1a 60
        E 0 80 27 60
        E 180 90 18 60
        E 0 90 1a 60
        E 0 90 27 60
        E 60 80 18 60
        E 0 80 1a 60
        E 0 80 27 60
        E 180 90 18 60
        E 0 90 1a 60
        E 0 90 27 60
        E 60 80 18 60
        E 0 80 1a 60
        E 0 80 27 60
        E 180 90 18 60
        E 0 90 1a 60
        E 0 90 27 60
        E 60 80 18 60
        E 0 80 1a 60
        E 0 80 27 60
        E 180 90 18 60
        E 0 90 1a 60
        E 0 90 27 60
        E 60 80 18 60
        E 0 80 1a 60
        E 0 80 27 60
        E 180 90 18 60
        E 0 90 1a 60
        E 0 90 27 60
        E 60 80 18 60
        E 0 80 1a 60
        E 0 80 27 60
        E 180 90 18 75
        E 120 80 18 60
        E 120 90 1f 60
        E 120 80 1f 60
        E 120 90 1a 60
        E 0 90 1f 60
        E 120 80 1a 60
        E 0 80 1f 60
        E 120 90 1f 60
        E 120 80 1f 60
        E 120 90 18 75
        E 0 90 1f 60
        E 120 80 18 60
        E 0 80 1f 60
        E 120 90 1f 60
        E 120 80 1f 60
        E 120 90 1a 60
        E 0 90 1f 60
        E 120 80 1a 60
        E 0 80 1f 60
        E 120 90 1f 60
        E 120 80 1f 60
        E 120 90 18 75
        E 0 90 1f 60
        E 120 80 18 60
        E 0 80 1f 60
        E 120 90 1f 60
        E 120 80 1f 60
        E 120 90 1a 60
        E 0 90 1f 60
        E 120 80 1a 60
        E 0 80 1f 60
        E 120 90 1f 60
        E 120 80 1f 60
        E 120 90 18 75
        E 0 90 1f 60
        E 120 80 18 60
        E 0 80 1f 60
        E 120 90 1f 60
        E 120 80 1f 60
        E 120 90 1a 60
        E 0 90 1f 60
        E 120 80 1a 60
        E 0 80 1f 60
        E 120 90 1f 60
        E 120 80 1f 60
        E 120 90 18 75
        E 0 90 1f 60
        E 120 80 18 60
        E 0 80 1f 60
        E 120 90 1f 60
        E 120 80 1f 60
        E 120 90 1a 60
        E 0 90 1f 60
        E 120 80 1a 60
        E 0 80 1f 60
        E 120 90 1f 60
        E 120 80 1f 60
        E 120 90 18 75
        E 0 90 1f 60
        E 120 80 18 60
        E 0 80 1f 60
        E 120 90 1f 60
        E 120 80 1f 60
        E 120 90 1a 60
        E 0 90 1f 60
        E 120 80 1a 60
        E 0 80 1f 60
        E 120 90 1f 60
        E 120 80 1f 60
        E 120 90 18 75
        E 0 90 1f 60
        E 120 80 18 60
        E 0 80 1f 60
        E 120 90 1f 60
        E 120 80 1f 60
        E 120 90 1a 60
        E 0 90 1f 60
        E 120 80 1a 60
        E 0 80 1f 60
        E 120 90 1f 60
        E 120 80 1f 60
        E 240 90 2e 60
        E 60 80 2e 60
        E 60 90 2f 60
        E 60 80 2f 60
        E 60 90 2e 60
        E 60 80 2e 60
        E 180 90 2f 60
        E 60 80 2f 60
        E 60 90 2e 60
        E 60 80 2e 60
        E 180 90 18 75
        E 0 90 26 60
        E 120 80 18 60
        E 0 80 26 60
        E 120 90 1f 60
        E 120 80 1f 60
        E 120 90 1a 60
        E 0 90 1f 60
        E 120 80 1a 60
        E 0 80 1f 60
        E 120 90 1f 60
        E 120 80 1f 60
        E 120 90 18 75
        E 0 90 1f 60
        E 120 80 18 60
        E 0 80 1f 60
        E 120 90 1f 60
        E 120 80 1f 60
        E 120 90 1a 60
        E 0 90 1f 60
        E 120 80 1a 60
        E 0 80 1f 60
        E 120 90 1f 60
        E 120 80 1f 60
        E 120 90 18 75
        E 0 90 1f 60
        E 120 80 18 60
        E 0 80 1f 60
        E 120 90 1f 60
        E 120 80 1f 60
        E 120 90 1a 60
        E 0 90 1f 60
        E 120 80 1a 60
        E 0 80 1f 60
        E 120 90 1f 60
        E 120 80 1f 60
        E 120 90 18 75
        E 0 90 1f 60
        E 120 80 18 60
        E 0 80 1f 60
        E 120 90 1f 60
        E 120 80 1f 60
        E 120 90 1a 60
        E 0 90 1f 60
        E 120 80 1a 60
        E 0 80 1f 60
        E 120 90 1f 60
        E 120 80 1f 60
        E 120 90 18 75
        E 0 90 1f 60
        E 120 80 18 60
        E 0 80 1f 60
        E 120 90 1f 60
        E 120 80 1f 60
        E 120 90 1a 60
        E 0 90 1f 60
        E 120 80 1a 60
        E 0 80 1f 60
        E 120 90 1f 60
        E 120 80 1f 60
        E 120 90 18 75
        E 0 90 1f 60
        E 120 80 18 60
        E 0 80 1f 60
        E 120 90 1f 60
        E 120 80 1f 60
        E 120 90 1a 60
        E 0 90 1f 60
        E 120 80 1a 60
        E 0 80 1f 60
        E 120 90 1f 60
        E 120 80 1f 60
        E 120 90 18 75
        E 0 90 1f 60
        E 120 80 18 60
        E 0 80 1f 60
        E 120 90 1f 60
        E 120 80 1f 60
        E 120 90 1a 60
        E 0 90 1f 60
        E 120 80 1a 60
        E 0 80 1f 60
        E 120 90 1f 60
        E 120 80 1f 60
        E 120 90 18 75
        E 0 90 1a 60
        E 0 90 1f 60
        E 60 80 1f 60
        E 60 80 18 60
        E 0 80 1a 60
        E 120 90 18 75
        E 0 90 1a 60
        E 0 90 1f 60
        E 60 80 1f 60
        E 60 80 18 60
        E 0 80 1a 60
        E 120 90 18 75
        E 0 90 1a 60
        E 0 90 1f 60
        E 60 80 1f 60
        E 60 80 18 60
        E 0 80 1a 60
        E 120 90 18 75
        E 0 90 1a 60
        E 0 90 1f 60
        E 60 80 1f 60
        E 60 80 18 60
        E 0 80 1a 60
        E 120 90 18 75
        E 0 90 26 60
        E 120 80 18 60
        E 0 80 26 60
        E 360 90 1a 60
        E 0 90 26 60
        E 120 80 1a 60
        E 0 80 26 60
        E 360 90 18 75
        E 0 90 26 60
        E 120 80 18 60
        E 0 80 26 60
        E 360 90 1a 60
        E 0 90 1e 60
        E 120 80 1a 60
        E 0 80 1e 60
        E 120 90 1e 60
        E 120 80 1e 60
        E 120 90 18 75
        E 0 90 1e 60
        E 120 80 18 60
        E 0 80 1e 60
        E 120 90 1e 60
        E 120 80 1e 60
        E 120 90 1a 60
        E 0 90 1e 60
        E 120 80 1a 60
        E 0 80 1e 60
        E 120 90 1e 60
        E 120 80 1e 60
        E 120 90 18 75
        E 0 90 26 60
        E 120 80 18 60
        E 0 80 26 60
        E 120 90 26 60
        E 120 80 26 60
        E 120 90 1a 60
        E 0 90 26 60
        E 120 80 1a 60
        E 0 80 26 60
        E 120 90 18 75
        E 0 90 1f 60
        E 120 80 18 60
        E 0 80 1f 60
        E 120 90 18 75
        E 0 90 1f 60
        E 120 80 18 60
        E 0 80 1f 60
        E 120 90 1f 60
        E 120 80 1f 60
        E 120 90 1a 60
        E 0 90 1f 60
        E 120 80 1a 60
        E 0 80 1f 60
        E 120 90 1f 60
        E 120 80 1f 60
        E 120 90 18 75
        E 0 90 1f 60
        E 120 80 18 60
        E 0 80 1f 60
        E 120 90 18 75
        E 0 90 1f 60
        E 120 80 18 60
        E 0 80 1f 60
        E 120 90 1a 60
        E 0 90 1b 60
        E 120 80 1a 60
        E 0 80 1b 60
        E 120 90 1e 60
        E 120 80 1e 60
        E 120 90 18 75
        E 0 90 26 60
        E 120 80 18 60
        E 0 80 26 60
        E 120 90 30 60
        E 120 80 30 60
        E 120 90 2f 60
        E 120 80 2f 60
        E 120 90 18 75
        E 0 90 26 60
        E 120 80 18 60
        E 0 80 26 60
        E 2040 90 2f 60
        E 120 80 2f 60
        E 0 90 2e 60
        E 120 80 2e 60
        E 120 90 2f 60
        E 120 80 2f 60
        E 0 90 2e 60
        E 120 80 2e 60
        E 120 90 2f 60
        E 120 80 2f 60
        E 120 90 18 75
        E 0 90 1f 60
        E 120 80 18 60
        E 0 80 1f 60
        E 120 90 1f 60
        E 120 80 1f 60
        E 120 90 1a 60
        E 0 90 1f 60
        E 120 80 1a 60
        E 0 80 1f 60
        E 120 90 1f 60
        E 120 80 1f 60
        E 120 90 18 75
        E 0 90 1f 60
        E 120 80 18 60
        E 0 80 1f 60
        E 120 90 1f 60
        E 120 80 1f 60
        E 120 90 1a 60
        E 0 90 1f 60
        E 120 80 1a 60
        E 0 80 1f 60
        E 120 90 1f 60
        E 120 80 1f 60
        E 120 90 18 75
        E 0 90 1f 60
        E 120 80 18 60
        E 0 80 1f 60
        E 120 90 1f 60
        E 120 80 1f 60
        E 120 90 1a 60
        E 0 90 1f 60
        E 120 80 1a 60
        E 0 80 1f 60
        E 120 90 1f 60
        E 120 80 1f 60
        E 120 90 18 75
        E 0 90 1f 60
        E 120 80 18 60
        E 0 80 1f 60
        E 120 90 1f 60
        E 120 80 1f 60
        E 120 90 1a 60
        E 0 90 1f 60
        E 120 80 1a 60
        E 0 80 1f 60
        E 120 90 1f 60
        E 120 80 1f 60
        E 120 90 18 75
        E 0 90 1f 60
        E 120 80 18 60
        E 0 80 1f 60
        E 120 90 1f 60
        E 120 80 1f 60
        E 120 90 1a 60
        E 0 90 1f 60
        E 120 80 1a 60
        E 0 80 1f 60
        E 120 90 1f 60
        E 120 80 1f 60
        E 120 90 18 75
        E 0 90 1f 60
        E 120 80 18 60
        E 0 80 1f 60
        E 120 90 1f 60
        E 120 80 1f 60
        E 120 90 1a 60
        E 0 90 1f 60
        E 120 80 1a 60
        E 0 80 1f 60
        E 120 90 1f 60
        E 120 80 1f 60
        E 120 90 18 75
        E 0 90 1f 60
        E 120 80 18 60
        E 0 80 1f 60
        E 120 90 1f 60
        E 120 80 1f 60
        E 120 90 1a 60
        E 0 90 1f 60
        E 120 80 1a 60
        E 0 80 1f 60
        E 240 90 31 60
        E 60 80 31 60
        E 60 90 30 60
        E 60 80 30 60
        E 60 90 2f 60
        E 60 80 2f 60
        E 60 90 30 60
        E 60 80 30 60
        E 180 90 18 75
        E 0 90 2f 60
        E 60 80 2f 60
        E 60 80 18 60
        E 120 90 18 75
        E 0 90 2e 60
        E 60 80 2e 60
        E 60 80 18 60
        E 120 90 18 75
        E 0 90 26 60
        E 120 80 18 60
        E 0 80 26 60
        E 120 90 1f 60
        E 120 80 1f 60
        E 120 90 1a 60
        E 0 90 1f 60
        E 120 80 1a 60
        E 0 80 1f 60
        E 120 90 1f 60
        E 120 80 1f 60
        E 120 90 18 75
        E 0 90 1f 60
        E 120 80 18 60
        E 0 80 1f 60
        E 120 90 1f 60
        E 120 80 1f 60
        E 120 90 1a 60
        E 0 90 1f 60
        E 120 80 1a 60
        E 0 80 1f 60
        E 120 90 1f 60
        E 120 80 1f 60
        E 120 90 18 75
        E 0 90 1f 60
        E 120 80 18 60
        E 0 80 1f 60
        E 120 90 1f 60
        E 120 80 1f 60
        E 120 90 1a 60
        E 0 90 1f 60
        E 120 80 1a 60
        E 0 80 1f 60
        E 120 90 1f 60
        E 120 80 1f 60
        E 120 90 18 75
        E 0 90 1f 60
        E 120 80 18 60
        E 0 80 1f 60
        E 120 90 1f 60
        E 120 80 1f 60
        E 120 90 30 75
        E 60 80 30 60
        E 60 90 2f 75
        E 60 80 2f 60
        E 180 90 30 75
        E 60 80 30 60
        E 60 90 2f 75
        E 60 80 2f 60
        E 180 90 30 75
        E 60 80 30 60
        E 180 90 2f 75
        E 60 80 2f 60
        E 180 90 30 75
        E 60 80 30 60
        E 180 90 2f 75
        E 60 80 2f 60
        E 180 90 30 75
        E 60 80 30 60
        E 180 90 2f 75
        E 60 80 2f 60
        E 60 90 30 75
        E 60 80 30 60
        E 180 90 2f 75
        E 60 80 2f 60
        E 60 90 18 75
        E 0 90 30 75
        E 60 80 18 60
        E 0 80 30 60
        E 180 90 2f 75
        E 60 80 2f 60
        E 180 90 27 75
        E 0 90 30 75
        E 60 80 27 60
        E 0 80 30 60
        E 420 90 27 75
        E 0 90 2f 75
        E 60 80 27 60
        E 0 80 2f 60
        E 180 90 2f 75
        E 60 80 2f 60
        E 180 90 27 75
        E 0 90 2f 75
        E 60 80 27 60
        E 0 80 2f 60
        E 420 90 18 75
        E 0 90 2f 75
        E 60 80 18 60
        E 0 80 2f 60
        E 180 90 2f 75
        E 60 80 2f 60
        E 180 90 2a 75
        E 60 80 2a 60
        E 180 90 1f 75
        E 60 80 1f 60
        E 180 90 2e 75
        E 30 80 2e 60
        E 0 90 2f 75
        E 30 80 2f 60
        E 0 90 2e 75
        E 30 80 2e 60
        E 0 90 2f 75
        E 30 80 2f 60
        E 0 90 2e 75
        E 30 80 2e 60
        E 0 90 2f 75
        E 30 80 2f 60
        E 0 90 2e 75
        E 30 80 2e 60
        E 0 90 2f 75
        E 30 80 2f 60
        E 0 90 2e 75
        E 30 80 2e 60
        E 0 90 2f 75
        E 30 80 2f 60
        E 0 90 2e 75
        E 30 80 2e 60
        E 0 90 2f 75
        E 30 80 2f 60
        E 0 90 2e 75
        E 30 80 2e 60
        E 0 90 2f 75
        E 30 80 2f 60
        E 0 90 2e 75
        E 30 80 2e 60
        E 0 90 2f 75
        E 30 80 2f 60
        E 0 90 2e 75
        E 30 80 2e 60
        E 0 90 2f 75
        E 30 80 2f 60
        E 0 90 2e 75
        E 30 80 2e 60
        E 0 90 2f 75
        E 30 80 2f 60
        E 0 90 2e 75
        E 30 80 2e 60
        E 0 90 2f 75
        E 30 80 2f 60
        E 0 90 2e 75
        E 30 80 2e 60
        E 0 90 2f 75
        E 30 80 2f 60
        E 0 90 2e 75
        E 30 80 2e 60
        E 0 90 2f 75
        E 30 80 2f 60
        E 0 90 2e 75
        E 30 80 2e 60
        E 30 90 2f 75
        E 30 80 2f 60
        E 930 90 33 60
        E 120 80 33 60
        E 0 90 32 60
        E 120 80 32 60
        E 120 90 33 60
        E 120 80 33 60
        E 120 90 31 60
        E 120 80 31 60
        E 120 90 32 60
        E 120 80 32 60
        E 120 90 18 75
        E 0 90 26 60
        E 120 80 18 60
        E 0 80 26 60
        E 120 90 1f 60
        E 120 80 1f 60
        E 120 90 1a 60
        E 0 90 1f 60
        E 120 80 1a 60
        E 0 80 1f 60
        E 120 90 1f 60
        E 120 80 1f 60
        E 120 90 18 75
        E 0 90 1f 60
        E 120 80 18 60
        E 0 80 1f 60
        E 120 90 1f 60
        E 120 80 1f 60
        E 120 90 1a 60
        E 0 90 1f 60
        E 120 80 1a 60
        E 0 80 1f 60
        E 120 90 1f 60
        E 120 80 1f 60
        E 120 90 18 75
        E 0 90 1f 60
        E 120 80 18 60
        E 0 80 1f 60
        E 120 90 1f 60
        E 120 80 1f 60
        E 120 90 1a 60
        E 0 90 1f 60
        E 120 80 1a 60
        E 0 80 1f 60
        E 120 90 1f 60
        E 120 80 1f 60
        E 120 90 18 75
        E 0 90 1f 60
        E 120 80 18 60
        E 0 80 1f 60
        E 120 90 1f 60
        E 120 80 1f 60
        E 120 90 1a 60
        E 0 90 1f 60
        E 120 80 1a 60
        E 0 80 1f 60
        E 120 90 1f 60
        E 120 80 1f 60
        E 120 90 18 75
        E 0 90 1f 60
        E 120 80 18 60
        E 0 80 1f 60
        E 120 90 1f 60
        E 120 80 1f 60
        E 120 90 1a 60
        E 0 90 1f 60
        E 120 80 1a 60
        E 0 80 1f 60
        E 120 90 1f 60
        E 120 80 1f 60
        E 120 90 18 75
        E 0 90 1f 60
        E 120 80 18 60
        E 0 80 1f 60
        E 120 90 1f 60
        E 120 80 1f 60
        E 120 90 1a 60
        E 0 90 1f 60
        E 120 80 1a 60
        E 0 80 1f 60
        E 120 90 1f 60
        E 120 80 1f 60
        E 120 90 18 75
        E 0 90 1f 60
        E 120 80 18 60
        E 0 80 1f 60
        E 120 90 2f 60
        E 60 80 2f 60
        E 60 90 30 60
        E 60 80 30 60
        E 180 90 2f 60
        E 60 80 2f 60
        E 60 90 30 60
        E 60 80 30 60
        E 180 90 2f 60
        E 60 80 2f 60
        E 60 90 30 60
        E 60 80 30 60
        E 180 90 2f 60
        E 60 80 2f 60
        E 180 90 30 60
        E 60 80 30 60
        E 60 90 2f 60
        E 60 80 2f 60
        E 180 90 18 75
        E 0 90 26 60
        E 120 80 18 60
        E 0 80 26 60
        E 120 90 1f 60
        E 120 80 1f 60
        E 120 90 1a 60
        E 0 90 1f 60
        E 120 80 1a 60
        E 0 80 1f 60
        E 120 90 1f 60
        E 120 80 1f 60
        E 120 90 18 75
        E 0 90 1f 60
        E 120 80 18 60
        E 0 80 1f 60
        E 120 90 1f 60
        E 120 80 1f 60
        E 120 90 1a 60
        E 0 90 1f 60
        E 120 80 1a 60
        E 0 80 1f 60
        E 120 90 1f 60
        E 120 80 1f 60
        E 120 90 18 75
        E 0 90 1f 60
        E 120 80 18 60
        E 0 80 1f 60
        E 120 90 2e 60
        E 60 80 2e 60
        E 60 90 2f 60
        E 60 80 2f 60
        E 180 90 2f 60
        E 60 80 2f 60
        E 60 90 2e 60
        E 60 80 2e 60
        E 180 90 2e 60
        E 60 80 2e 60
        E 60 90 2f 60
        E 60 80 2f 60
        E 60 90 31 60
        E 60 80 31 60
        E 60 90 30 60
        E 60 80 30 60
        E 60 90 31 60
        E 60 80 31 60
        E 180 90 30 60
        E 60 80 30 60
        E 180 90 18 75
        E 0 90 26 60
        E 60 80 18 60
        E 0 80 26 60
        E 180 90 1f 60
        E 120 80 1f 60
        E 120 90 1a 60
        E 0 90 1f 60
        E 120 80 1a 60
        E 0 80 1f 60
        E 120 90 1f 60
        E 120 80 1f 60
        E 120 90 18 75
        E 0 90 1f 60
        E 120 80 18 60
        E 0 80 1f 60
        E 120 90 1f 60
        E 120 80 1f 60
        E 120 90 1a 60
        E 0 90 1f 60
        E 120 80 1a 60
        E 0 80 1f 60
        E 120 90 1f 60
        E 120 80 1f 60
        E 120 90 18 75
        E 0 90 26 60
        E 120 80 18 60
        E 0 80 26 60
        E 360 90 1a 60
        E 0 90 26 60
        E 120 80 1a 60
        E 0 80 26 60
        E 120 90 18 75
        E 120 80 18 60
        E 120 90 1a 60
        E 0 90 26 60
        E 120 80 1a 60
        E 0 80 26 60
        E 120 90 18 75
        E 120 80 18 60
        E 120 90 1a 60
        E 0 90 26 60
        E 120 80 1a 60
        E 0 80 26 60
        E 120 90 18 75
        E 120 80 18 60
        E 120 90 1a 60
        E 0 90 26 60
        E 120 80 1a 60
        E 0 80 26 60
        E 120 90 18 75
        E 120 80 18 60
        E 120 90 1a 60
        E 0 90 26 60
        E 120 80 1a 60
        E 0 80 26 60
        E 120 90 18 75
        E 120 80 18 60
        E 120 90 1a 60
        E 0 90 26 60
        E 120 80 1a 60
        E 0 80 26 60
        E 120 90 18 75
        E 120 80 18 60
        E 120 90 1a 60
        E 0 90 26 60
        E 120 80 1a 60
        E 0 80 26 60
        E 120 90 18 75
        E 120 80 18 60
        E 120 90 18 75
        E 0 90 22 60
        E 0 90 26 60
        E 120 80 18 60
        E 0 80 22 60
        E 0 80 26 60
        E 11194 b0 7b 00
        CCINTERP 32
        GUID {A6DAD8DE-4588-41E4-A9C3-FE115E04CF53}
        IGNTEMPO 0 120 4 4
        SRCCOLOR 53
        VELLANE 132 128 60
        CFGEDITVIEW 0 0 -1 12 0 0 0 0 0 0.5
        KEYSNAP 0
        TRACKSEL 0
        EVTFILTER 0 -1 -1 -1 -1 0 0 0 0 -1 -1 -1 -1 0 -1 0 -1 -1
        CFGEDIT 1 1 0 0 0 1 1 1 1 1 1 0.25 100 100 1200 800 0 0 2 2 0 0 0 0 0 0.5 1 0 1 64
      >
    >
  >
  <TRACK {264C8D42-54F4-40B3-A05D-951ADEFD9C07}
    NAME "PART DRUMS"
    PEAKCOL 16834047
    BEAT -1
    AUTOMODE 0
    VOLPAN 1 0 -1 -1 1
    MUTESOLO 0 0 0
    IPHASE 0
    PLAYOFFS 0 1
    ISBUS 0 0
    BUSCOMP 0 0 0 0 0
    SHOWINMIX 1 0.6667 0.5 1 0.5 -1 -1 -1
    SEL 0
    REC 0 0 1 0 0 0 0 0
    TRACKHEIGHT 0 0 0 0 0 0
    INQ 0 0 0 0.5 100 0 0 100
    NCHAN 2
    FX 1
    TRACKID {264C8D42-54F4-40B3-A05D-951ADEFD9C07}
    PERF 0
    MIDIOUT -1
    <MIDINOTENAMES
      0 24 "KICK RF" 0 24
      0 25 "HI-HAT OPEN" 0 25
      0 26 "SNARE HARD LH" 0 26
      0 27 "SNARE HARD RH" 0 27
      0 28 "SNARE SOFT LH" 0 28
      0 29 "SNARE SOFT RH" 0 29
      0 30 "HI-HAT LH" 0 30
      0 31 "HI-HAT RH" 0 31
      0 32 "PERCUSSION RH" 0 32
      0 34 "CRASH1 HARD LH" 0 34
      0 35 "CRASH1 SOFT LH" 0 35
      0 36 "CRASH1 HARD RH" 0 36
      0 37 "CRASH1 SOFT RH" 0 37
      0 38 "CRASH2 HARD RH" 0 38
      0 39 "CRASH2 SOFT RH" 0 39
      0 40 "CRASH2 CHOKE" 0 40
      0 41 "CRASH1 CHOKE" 0 41
      0 42 "RIDE CYM RH" 0 42
      0 43 "RIDE CYM LH" 0 43
      0 44 "CRASH2 HARD LH" 0 44
      0 45 "CRASH2 SOFT LH" 0 45
      0 46 "TOM1 LH" 0 46
      0 47 "TOM1 RH" 0 47
      0 48 "TOM2 LH" 0 48
      0 49 "TOM2 RH" 0 49
      0 50 "FLOOR TOM LH" 0 50
      0 51 "FLOOR TOM RH" 0 51
      0 52 "--DRUM ANIMATION--" 0 52
      0 56 ---- 0 56
      0 60 "EASY Kick" 0 60
      0 61 "EASY Red" 0 61
      0 62 "EASY Yellow" 0 62
      0 63 "EASY Blue" 0 63
      0 64 "EASY Green" 0 64
      0 68 ---- 0 68
      0 72 "MEDIUM Kick" 0 72
      0 73 "MEDIUM Red" 0 73
      0 74 "MEDIUM Yellow" 0 74
      0 75 "MEDIUM Blue" 0 75
      0 76 "MEDIUM Green" 0 76
      0 80 ---- 0 80
      0 84 "HARD Kick" 0 84
      0 85 "HARD Red" 0 85
      0 86 "HARD Yellow" 0 86
      0 87 "HARD Blue" 0 87
      0 88 "HARD Green" 0 88
      0 92 ---- 0 92
      0 95 "PS Left Kick" 0 95
      0 96 "EXPERT Kick" 0 96
      0 97 "EXPERT Red" 0 97
      0 98 "EXPERT Yellow" 0 98
      0 99 "EXPERT Blue" 0 99
      0 100 "EXPERT Green" 0 100
      0 102 ---- 0 102
      0 103 "Solo Marker" 0 103
      0 108 ---- 0 108
      0 110 "PRO Yellow Tom" 0 110
      0 111 "PRO Blue Tom" 0 111
      0 112 "PRO Green Tom" 0 112
      0 114 ---- 0 114
      0 116 OVERDRIVE 0 116
      0 118 ---- 0 118
      0 120 "DRUM FILL (use all 5)" 0 120
      0 121 "DRUM FILL" 0 121
      0 122 "DRUM FILL" 0 122
      0 123 "DRUM FILL" 0 123
      0 124 "DRUM FILL" 0 124
      0 125 ---- 0 125
      0 126 "Roll Marker 1-Lane" 0 126
      0 127 "Roll Marker 2-Lane" 0 127
    >
    MAINSEND 1 0
    <FXCHAIN
      SHOW 0
      LASTSEL 0
      DOCKED 0
      BYPASS 0 0 0
      <VST "VSTi: RBN Preview (RBN)" rbprev_vst.dll 0 "VSTi: RBN Preview (RBN)" 1919053942 ""
        dnBicu5e7f4AAAAAAgAAAAEAAAAAAAAAAgAAAAAAAAAEAAAAAQAAAAAAEAADAaoAAAAQAAAA
      >
      FLOATPOS 0 0 0 0
      FXID {8BC4EC91-C098-4D07-95F6-549CD9A05B90}
      WAK 0 0
      BYPASS 0 0 0
      <JS "IX/MIDI_Tool II" ""
        0 0 94 0 0 0 100 0 0 127 0 0 1 0 0 - - - - - - - - - - - - - - - - - - - - - - - - - - - - - - - - - - - - - - - - - - - - - - - - - 
      >
      FLOATPOS 0 0 0 0
      FXID {A2ACD732-28E9-47E2-A603-14F6679162C8}
      WAK 0 0
      BYPASS 0 0 0
      <JS "IX/MIDI_Tool II" ""
        0 101 127 0 0 0 100 0 0 127 0 0 1 0 0 - - - - - - - - - - - - - - - - - - - - - - - - - - - - - - - - - - - - - - - - - - - - - - - - - 
      >
      FLOATPOS 0 0 0 0
      FXID {8857057F-A6B7-4E36-8738-85C068909CC0}
      WAK 0 0
      BYPASS 1 0 0
      <VST "VSTi: ReaSynth (Cockos)" reasynth.dll 0 "VSTi: ReaSynth (Cockos)" 1919251321<5653547265737972656173796E746800> ""
        eXNlcu9e7f4AAAAAAgAAAAEAAAAAAAAAAgAAAAAAAABEAAAAAAAAAAAAEAA=
        776t3g3wrd6mm8Q7F7fROgAAAAAAAAAAAAAAAFmzJj8BTB06AAAAAAAAAD8AAAAAAACAPwAAAAAAAAAAAAAAAAAAgD8=
        AFByb2dyYW0gMQAQAAAA
      >
      PRESETNAME "Program 1"
      FLOATPOS 0 0 0 0
      FXID {25832A5A-D53B-4D91-B640-E7F190473A8C}
      WAK 0 0
    >
    <ITEM
      POSITION 0
      SNAPOFFS 0
      LENGTH 165.05873578958332
      LOOP 0
      ALLTAKES 0
      FADEIN 1 0 0 1 0 0 0
      FADEOUT 1 0 0 1 0 0 0
      MUTE 0 0
      SEL 0
      IGUID {52C9C3E4-BAE7-4289-BC0B-D9AD859AD0AB}
      IID 5
      NAME "PART DRUMS"
      VOLPAN 1 0 1 -1
      SOFFS 0 0
      PLAYRATE 1 1 0 -1 0 0.0025
      CHANMODE 0
      GUID {65AF6CF5-99DE-4DD3-8127-4B8385439FE0}
      <SOURCE MIDI
        HASDATA 1 480 QN
        CCINTERP 32
        POOLEDEVTS {5BFDBEB7-2336-4729-867D-BB03DB5A4FD3}
        <X 0 0 0 0 3 "PART DRUMS"
          /wNQQVJUIERSVU1T
        >
        <X 420 0 0 0 1 "[mix 3 drums0]"
          /wFbbWl4IDMgZHJ1bXMwXQ==
        >
        <X 0 0 0 0 1 "[mix 2 drums0]"
          /wFbbWl4IDIgZHJ1bXMwXQ==
        >
        <X 0 0 0 0 1 "[mix 1 drums0]"
          /wFbbWl4IDEgZHJ1bXMwXQ==
        >
        <X 0 0 0 0 1 "[mix 0 drums0]"
          /wFbbWl4IDAgZHJ1bXMwXQ==
        >
        <X 3420 0 0 0 1 [play]
          /wFbcGxheV0=
        >
        E 1680 90 1a 60
        E 0 90 1f 60
        E 0 90 55 60
        E 0 90 56 60
        E 0 90 61 60
        E 0 90 62 60
        E 120 80 1a 60
        E 0 80 1f 60
        E 0 80 55 60
        E 0 80 56 60
        E 0 80 61 60
        E 0 80 62 60
        E 120 90 18 75
        E 0 90 1f 60
        E 0 90 3e 60
        E 0 90 48 75
        E 0 90 4a 60
        E 0 90 54 75
        E 0 90 56 60
        E 0 90 60 75
        E 0 90 62 60
        E 120 80 18 60
        E 0 80 1f 60
        E 0 80 3e 60
        E 0 80 48 60
        E 0 80 4a 60
        E 0 80 54 60
        E 0 80 56 60
        E 0 80 60 60
        E 0 80 62 60
        E 120 90 1f 60
        E 0 90 56 60
        E 0 90 62 60
        E 120 80 1f 60
        E 0 80 56 60
        E 0 80 62 60
        E 120 90 1a 60
        E 0 90 1f 60
        E 0 90 3d 60
        E 0 90 3e 60
        E 0 90 49 60
        E 0 90 4a 60
        E 0 90 55 60
        E 0 90 56 60
        E 0 90 61 60
        E 0 90 62 60
        E 120 80 1a 60
        E 0 80 1f 60
        E 0 80 3d 60
        E 0 80 3e 60
        E 0 80 49 60
        E 0 80 4a 60
        E 0 80 55 60
        E 0 80 56 60
        E 0 80 61 60
        E 0 80 62 60
        E 120 90 1f 60
        E 0 90 56 60
        E 0 90 62 60
        E 120 80 1f 60
        E 0 80 56 60
        E 0 80 62 60
        E 120 90 18 75
        E 0 90 1f 60
        E 0 90 3e 60
        E 0 90 48 75
        E 0 90 4a 60
        E 0 90 54 75
        E 0 90 56 60
        E 0 90 60 75
        E 0 90 62 60
        E 120 80 18 60
        E 0 80 1f 60
        E 0 80 3e 60
        E 0 80 48 60
        E 0 80 4a 60
        E 0 80 54 60
        E 0 80 56 60
        E 0 80 60 60
        E 0 80 62 60
        E 120 90 1f 60
        E 0 90 56 60
        E 0 90 62 60
        E 120 80 1f 60
        E 0 80 56 60
        E 0 80 62 60
        E 120 90 1a 60
        E 0 90 1f 60
        E 0 90 3d 60
        E 0 90 3e 60
        E 0 90 49 60
        E 0 90 4a 60
        E 0 90 55 60
        E 0 90 56 60
        E 0 90 61 60
        E 0 90 62 60
        E 120 80 1a 60
        E 0 80 1f 60
        E 0 80 3d 60
        E 0 80 3e 60
        E 0 80 49 60
        E 0 80 4a 60
        E 0 80 55 60
        E 0 80 56 60
        E 0 80 61 60
        E 0 80 62 60
        E 120 90 1f 60
        E 0 90 56 60
        E 0 90 62 60
        E 120 80 1f 60
        E 0 80 56 60
        E 0 80 62 60
        E 120 90 18 75
        E 0 90 1f 60
        E 0 90 3e 60
        E 0 90 48 75
        E 0 90 4a 60
        E 0 90 54 75
        E 0 90 56 60
        E 0 90 60 75
        E 0 90 62 60
        E 120 80 18 60
        E 0 80 1f 60
        E 0 80 3e 60
        E 0 80 48 60
        E 0 80 4a 60
        E 0 80 54 60
        E 0 80 56 60
        E 0 80 60 60
        E 0 80 62 60
        E 120 90 1f 60
        E 0 90 56 60
        E 0 90 62 60
        E 120 80 1f 60
        E 0 80 56 60
        E 0 80 62 60
        E 120 90 1a 60
        E 0 90 1f 60
        E 0 90 3d 60
        E 0 90 3e 60
        E 0 90 49 60
        E 0 90 4a 60
        E 0 90 55 60
        E 0 90 56 60
        E 0 90 61 60
        E 0 90 62 60
        E 120 80 1a 60
        E 0 80 1f 60
        E 0 80 3d 60
        E 0 80 3e 60
        E 0 80 49 60
        E 0 80 4a 60
        E 0 80 55 60
        E 0 80 56 60
        E 0 80 61 60
        E 0 80 62 60
        E 120 90 1f 60
        E 0 90 56 60
        E 0 90 62 60
        E 120 80 1f 60
        E 0 80 56 60
        E 0 80 62 60
        E 120 90 18 75
        E 0 90 1f 60
        E 0 90 3e 60
        E 0 90 48 75
        E 0 90 4a 60
        E 0 90 54 75
        E 0 90 56 60
        E 0 90 60 75
        E 0 90 62 60
        E 120 80 18 60
        E 0 80 1f 60
        E 0 80 3e 60
        E 0 80 48 60
        E 0 80 4a 60
        E 0 80 54 60
        E 0 80 56 60
        E 0 80 60 60
        E 0 80 62 60
        E 120 90 1f 60
        E 0 90 56 60
        E 0 90 62 60
        E 120 80 1f 60
        E 0 80 56 60
        E 0 80 62 60
        E 120 90 1a 60
        E 0 90 1f 60
        E 0 90 3d 60
        E 0 90 3e 60
        E 0 90 49 60
        E 0 90 4a 60
        E 0 90 55 60
        E 0 90 56 60
        E 0 90 61 60
        E 0 90 62 60
        E 120 80 1a 60
        E 0 80 1f 60
        E 0 80 3d 60
        E 0 80 3e 60
        E 0 80 49 60
        E 0 80 4a 60
        E 0 80 55 60
        E 0 80 56 60
        E 0 80 61 60
        E 0 80 62 60
        E 120 90 1f 60
        E 0 90 56 60
        E 0 90 62 60
        E 120 80 1f 60
        E 0 80 56 60
        E 0 80 62 60
        E 120 90 18 75
        E 0 90 1f 60
        E 0 90 3e 60
        E 0 90 48 75
        E 0 90 4a 60
        E 0 90 54 75
        E 0 90 56 60
        E 0 90 60 75
        E 0 90 62 60
        E 120 80 18 60
        E 0 80 1f 60
        E 0 80 3e 60
        E 0 80 48 60
        E 0 80 4a 60
        E 0 80 54 60
        E 0 80 56 60
        E 0 80 60 60
        E 0 80 62 60
        E 120 90 1f 60
        E 0 90 56 60
        E 0 90 62 60
        E 120 80 1f 60
        E 0 80 56 60
        E 0 80 62 60
        E 120 90 1a 60
        E 0 90 1f 60
        E 0 90 3d 60
        E 0 90 3e 60
        E 0 90 49 60
        E 0 90 4a 60
        E 0 90 55 60
        E 0 90 56 60
        E 0 90 61 60
        E 0 90 62 60
        E 120 80 1a 60
        E 0 80 1f 60
        E 0 80 3d 60
        E 0 80 3e 60
        E 0 80 49 60
        E 0 80 4a 60
        E 0 80 55 60
        E 0 80 56 60
        E 0 80 61 60
        E 0 80 62 60
        E 120 90 1f 60
        E 0 90 56 60
        E 0 90 62 60
        E 120 80 1f 60
        E 0 80 56 60
        E 0 80 62 60
        E 120 90 18 75
        E 0 90 1f 60
        E 0 90 3e 60
        E 0 90 48 75
        E 0 90 4a 60
        E 0 90 54 75
        E 0 90 56 60
        E 0 90 60 75
        E 0 90 62 60
        E 120 80 18 60
        E 0 80 1f 60
        E 0 80 3e 60
        E 0 80 48 60
        E 0 80 4a 60
        E 0 80 54 60
        E 0 80 56 60
        E 0 80 60 60
        E 0 80 62 60
        E 120 90 1f 60
        E 0 90 56 60
        E 0 90 62 60
        E 120 80 1f 60
        E 0 80 56 60
        E 0 80 62 60
        E 120 90 1a 60
        E 0 90 1f 60
        E 0 90 3d 60
        E 0 90 3e 60
        E 0 90 49 60
        E 0 90 4a 60
        E 0 90 55 60
        E 0 90 56 60
        E 0 90 61 60
        E 0 90 62 60
        E 120 80 1a 60
        E 0 80 1f 60
        E 0 80 3d 60
        E 0 80 3e 60
        E 0 80 49 60
        E 0 80 4a 60
        E 0 80 55 60
        E 0 80 56 60
        E 0 80 61 60
        E 0 80 62 60
        E 120 90 1f 60
        E 0 90 56 60
        E 0 90 62 60
        E 120 80 1f 60
        E 0 80 56 60
        E 0 80 62 60
        E 120 90 18 75
        E 0 90 1f 60
        E 0 90 3e 60
        E 0 90 48 75
        E 0 90 4a 60
        E 0 90 54 75
        E 0 90 56 60
        E 0 90 60 75
        E 0 90 62 60
        E 120 80 18 60
        E 0 80 1f 60
        E 0 80 3e 60
        E 0 80 48 60
        E 0 80 4a 60
        E 0 80 54 60
        E 0 80 56 60
        E 0 80 60 60
        E 0 80 62 60
        E 120 90 1f 60
        E 0 90 56 60
        E 0 90 62 60
        E 120 80 1f 60
        E 0 80 56 60
        E 0 80 62 60
        E 120 90 1a 60
        E 0 90 1f 60
        E 0 90 3d 60
        E 0 90 3e 60
        E 0 90 49 60
        E 0 90 4a 60
        E 0 90 55 60
        E 0 90 56 60
        E 0 90 61 60
        E 0 90 62 60
        E 120 80 1a 60
        E 0 80 1f 60
        E 0 80 3d 60
        E 0 80 3e 60
        E 0 80 49 60
        E 0 80 4a 60
        E 0 80 55 60
        E 0 80 56 60
        E 0 80 61 60
        E 0 80 62 60
        E 120 90 1f 60
        E 0 90 56 60
        E 0 90 62 60
        E 120 80 1f 60
        E 0 80 56 60
        E 0 80 62 60
        E 120 90 18 75
        E 0 90 1f 60
        E 0 90 3e 60
        E 0 90 48 75
        E 0 90 4a 60
        E 0 90 54 75
        E 0 90 56 60
        E 0 90 60 75
        E 0 90 62 60
        E 120 80 18 60
        E 0 80 1f 60
        E 0 80 3e 60
        E 0 80 48 60
        E 0 80 4a 60
        E 0 80 54 60
        E 0 80 56 60
        E 0 80 60 60
        E 0 80 62 60
        E 120 90 1f 60
        E 0 90 56 60
        E 0 90 62 60
        E 120 80 1f 60
        E 0 80 56 60
        E 0 80 62 60
        E 120 90 1a 60
        E 0 90 1f 60
        E 0 90 3d 60
        E 0 90 3e 60
        E 0 90 49 60
        E 0 90 4a 60
        E 0 90 55 60
        E 0 90 56 60
        E 0 90 61 60
        E 0 90 62 60
        E 120 80 1a 60
        E 0 80 1f 60
        E 0 80 3d 60
        E 0 80 3e 60
        E 0 80 49 60
        E 0 80 4a 60
        E 0 80 55 60
        E 0 80 56 60
        E 0 80 61 60
        E 0 80 62 60
        E 120 90 1f 60
        E 0 90 56 60
        E 0 90 62 60
        E 120 80 1f 60
        E 0 80 56 60
        E 0 80 62 60
        E 120 90 18 75
        E 0 90 1f 60
        E 0 90 3e 60
        E 0 90 48 75
        E 0 90 4a 60
        E 0 90 54 75
        E 0 90 56 60
        E 0 90 60 75
        E 0 90 62 60
        E 0 90 74 60
        E 120 80 18 60
        E 0 80 1f 60
        E 0 80 3e 60
        E 0 80 48 60
        E 0 80 4a 60
        E 0 80 54 60
        E 0 80 56 60
        E 0 80 60 60
        E 0 80 62 60
        E 120 90 1f 60
        E 0 90 56 60
        E 0 90 62 60
        E 120 80 1f 60
        E 0 80 56 60
        E 0 80 62 60
        E 120 90 1a 60
        E 0 90 1f 60
        E 0 90 3d 60
        E 0 90 3e 60
        E 0 90 49 60
        E 0 90 4a 60
        E 0 90 55 60
        E 0 90 56 60
        E 0 90 61 60
        E 0 90 62 60
        E 120 80 1a 60
        E 0 80 1f 60
        E 0 80 3d 60
        E 0 80 3e 60
        E 0 80 49 60
        E 0 80 4a 60
        E 0 80 55 60
        E 0 80 56 60
        E 0 80 61 60
        E 0 80 62 60
        E 120 90 1f 60
        E 0 90 56 60
        E 0 90 62 60
        E 120 80 1f 60
        E 0 80 56 60
        E 0 80 62 60
        E 120 90 18 75
        E 0 90 1f 60
        E 0 90 3e 60
        E 0 90 48 75
        E 0 90 4a 60
        E 0 90 54 75
        E 0 90 56 60
        E 0 90 60 75
        E 0 90 62 60
        E 120 80 18 60
        E 0 80 1f 60
        E 0 80 3e 60
        E 0 80 48 60
        E 0 80 4a 60
        E 0 80 54 60
        E 0 80 56 60
        E 0 80 60 60
        E 0 80 62 60
        E 120 90 1f 60
        E 0 90 56 60
        E 0 90 62 60
        E 120 80 1f 60
        E 0 80 56 60
        E 0 80 62 60
        E 120 90 1a 60
        E 0 90 1f 60
        E 0 90 3d 60
        E 0 90 3e 60
        E 0 90 49 60
        E 0 90 4a 60
        E 0 90 55 60
        E 0 90 56 60
        E 0 90 61 60
        E 0 90 62 60
        E 120 80 1a 60
        E 0 80 1f 60
        E 0 80 3d 60
        E 0 80 3e 60
        E 0 80 49 60
        E 0 80 4a 60
        E 0 80 55 60
        E 0 80 56 60
        E 0 80 61 60
        E 0 80 62 60
        E 120 90 1f 60
        E 0 90 56 60
        E 0 90 62 60
        E 120 80 1f 60
        E 0 80 56 60
        E 0 80 62 60
        E 120 80 74 60
        E 0 90 18 75
        E 0 90 1f 60
        E 0 90 3e 60
        E 0 90 48 75
        E 0 90 4a 60
        E 0 90 54 75
        E 0 90 56 60
        E 0 90 60 75
        E 0 90 62 60
        E 120 80 18 60
        E 0 80 1f 60
        E 0 80 3e 60
        E 0 80 48 60
        E 0 80 4a 60
        E 0 80 54 60
        E 0 80 56 60
        E 0 80 60 60
        E 0 80 62 60
        E 120 90 1f 60
        E 0 90 56 60
        E 0 90 62 60
        E 120 80 1f 60
        E 0 80 56 60
        E 0 80 62 60
        E 120 90 1a 60
        E 0 90 1f 60
        E 0 90 3d 60
        E 0 90 3e 60
        E 0 90 49 60
        E 0 90 4a 60
        E 0 90 55 60
        E 0 90 56 60
        E 0 90 61 60
        E 0 90 62 60
        E 120 80 1a 60
        E 0 80 1f 60
        E 0 80 3d 60
        E 0 80 3e 60
        E 0 80 49 60
        E 0 80 4a 60
        E 0 80 55 60
        E 0 80 56 60
        E 0 80 61 60
        E 0 80 62 60
        E 120 90 1f 60
        E 0 90 56 60
        E 0 90 62 60
        E 120 80 1f 60
        E 0 80 56 60
        E 0 80 62 60
        E 120 90 18 75
        E 0 90 1f 60
        E 0 90 3e 60
        E 0 90 48 75
        E 0 90 4a 60
        E 0 90 54 75
        E 0 90 56 60
        E 0 90 60 75
        E 0 90 62 60
        E 120 80 18 60
        E 0 80 1f 60
        E 0 80 3e 60
        E 0 80 48 60
        E 0 80 4a 60
        E 0 80 54 60
        E 0 80 56 60
        E 0 80 60 60
        E 0 80 62 60
        E 120 90 1f 60
        E 0 90 56 60
        E 0 90 62 60
        E 120 80 1f 60
        E 0 80 56 60
        E 0 80 62 60
        E 120 90 1a 60
        E 0 90 1f 60
        E 0 90 3d 60
        E 0 90 3e 60
        E 0 90 49 60
        E 0 90 4a 60
        E 0 90 55 60
        E 0 90 56 60
        E 0 90 61 60
        E 0 90 62 60
        E 120 80 1a 60
        E 0 80 1f 60
        E 0 80 3d 60
        E 0 80 3e 60
        E 0 80 49 60
        E 0 80 4a 60
        E 0 80 55 60
        E 0 80 56 60
        E 0 80 61 60
        E 0 80 62 60
        E 120 90 1f 60
        E 0 90 56 60
        E 0 90 62 60
        E 120 80 1f 60
        E 0 80 56 60
        E 0 80 62 60
        E 120 90 18 75
        E 0 90 1f 60
        E 0 90 3e 60
        E 0 90 48 75
        E 0 90 4a 60
        E 0 90 54 75
        E 0 90 56 60
        E 0 90 60 75
        E 0 90 62 60
        E 120 80 18 60
        E 0 80 1f 60
        E 0 80 3e 60
        E 0 80 48 60
        E 0 80 4a 60
        E 0 80 54 60
        E 0 80 56 60
        E 0 80 60 60
        E 0 80 62 60
        E 120 90 1f 60
        E 0 90 56 60
        E 0 90 62 60
        E 120 80 1f 60
        E 0 80 56 60
        E 0 80 62 60
        E 120 90 1a 60
        E 0 90 1f 60
        E 0 90 3d 60
        E 0 90 3e 60
        E 0 90 49 60
        E 0 90 4a 60
        E 0 90 55 60
        E 0 90 56 60
        E 0 90 61 60
        E 0 90 62 60
        E 120 80 1a 60
        E 0 80 1f 60
        E 0 80 3d 60
        E 0 80 3e 60
        E 0 80 49 60
        E 0 80 4a 60
        E 0 80 55 60
        E 0 80 56 60
        E 0 80 61 60
        E 0 80 62 60
        E 120 90 1f 60
        E 0 90 56 60
        E 0 90 62 60
        E 120 80 1f 60
        E 0 80 56 60
        E 0 80 62 60
        E 120 90 18 75
        E 0 90 1f 60
        E 0 90 3e 60
        E 0 90 48 75
        E 0 90 4a 60
        E 0 90 54 75
        E 0 90 56 60
        E 0 90 60 75
        E 0 90 62 60
        E 120 80 18 60
        E 0 80 1f 60
        E 0 80 3e 60
        E 0 80 48 60
        E 0 80 4a 60
        E 0 80 54 60
        E 0 80 56 60
        E 0 80 60 60
        E 0 80 62 60
        E 120 90 1f 60
        E 0 90 56 60
        E 0 90 62 60
        E 120 80 1f 60
        E 0 80 56 60
        E 0 80 62 60
        E 120 90 1a 60
        E 0 90 1f 60
        E 0 90 3d 60
        E 0 90 3e 60
        E 0 90 49 60
        E 0 90 4a 60
        E 0 90 55 60
        E 0 90 56 60
        E 0 90 61 60
        E 0 90 62 60
        E 120 80 1a 60
        E 0 80 1f 60
        E 0 80 3d 60
        E 0 80 3e 60
        E 0 80 49 60
        E 0 80 4a 60
        E 0 80 55 60
        E 0 80 56 60
        E 0 80 61 60
        E 0 80 62 60
        E 120 90 1f 60
        E 0 90 56 60
        E 0 90 62 60
        E 120 80 1f 60
        E 0 80 56 60
        E 0 80 62 60
        E 120 90 18 75
        E 0 90 1f 60
        E 0 90 3e 60
        E 0 90 48 75
        E 0 90 4a 60
        E 0 90 54 75
        E 0 90 56 60
        E 0 90 60 75
        E 0 90 62 60
        E 120 80 18 60
        E 0 80 1f 60
        E 0 80 3e 60
        E 0 80 48 60
        E 0 80 4a 60
        E 0 80 54 60
        E 0 80 56 60
        E 0 80 60 60
        E 0 80 62 60
        E 120 90 1f 60
        E 0 90 56 60
        E 0 90 62 60
        E 120 80 1f 60
        E 0 80 56 60
        E 0 80 62 60
        E 120 90 1a 60
        E 0 90 1f 60
        E 0 90 3d 60
        E 0 90 3e 60
        E 0 90 49 60
        E 0 90 4a 60
        E 0 90 55 60
        E 0 90 56 60
        E 0 90 61 60
        E 0 90 62 60
        E 120 80 1a 60
        E 0 80 1f 60
        E 0 80 3d 60
        E 0 80 3e 60
        E 0 80 49 60
        E 0 80 4a 60
        E 0 80 55 60
        E 0 80 56 60
        E 0 80 61 60
        E 0 80 62 60
        E 120 90 1f 60
        E 0 90 56 60
        E 0 90 62 60
        E 120 80 1f 60
        E 0 80 56 60
        E 0 80 62 60
        E 120 90 18 75
        E 0 90 1f 60
        E 0 90 3e 60
        E 0 90 48 75
        E 0 90 4a 60
        E 0 90 54 75
        E 0 90 56 60
        E 0 90 60 75
        E 0 90 62 60
        E 120 80 18 60
        E 0 80 1f 60
        E 0 80 3e 60
        E 0 80 48 60
        E 0 80 4a 60
        E 0 80 54 60
        E 0 80 56 60
        E 0 80 60 60
        E 0 80 62 60
        E 120 90 1f 60
        E 0 90 56 60
        E 0 90 62 60
        E 120 80 1f 60
        E 0 80 56 60
        E 0 80 62 60
        E 120 90 1a 60
        E 0 90 1f 60
        E 0 90 3d 60
        E 0 90 3e 60
        E 0 90 49 60
        E 0 90 4a 60
        E 0 90 55 60
        E 0 90 56 60
        E 0 90 61 60
        E 0 90 62 60
        E 120 80 1a 60
        E 0 80 1f 60
        E 0 80 3d 60
        E 0 80 3e 60
        E 0 80 49 60
        E 0 80 4a 60
        E 0 80 55 60
        E 0 80 56 60
        E 0 80 61 60
        E 0 80 62 60
        E 120 90 1f 60
        E 0 90 56 60
        E 0 90 62 60
        E 120 80 1f 60
        E 0 80 56 60
        E 0 80 62 60
        E 120 90 18 75
        E 0 90 1f 60
        E 0 90 3e 60
        E 0 90 48 75
        E 0 90 4a 60
        E 0 90 54 75
        E 0 90 56 60
        E 0 90 60 75
        E 0 90 62 60
        E 120 80 18 60
        E 0 80 1f 60
        E 0 80 3e 60
        E 0 80 48 60
        E 0 80 4a 60
        E 0 80 54 60
        E 0 80 56 60
        E 0 80 60 60
        E 0 80 62 60
        E 120 90 1f 60
        E 0 90 56 60
        E 0 90 62 60
        E 120 80 1f 60
        E 0 80 56 60
        E 0 80 62 60
        E 120 90 1a 60
        E 0 90 1f 60
        E 0 90 3d 60
        E 0 90 3e 60
        E 0 90 49 60
        E 0 90 4a 60
        E 0 90 55 60
        E 0 90 56 60
        E 0 90 61 60
        E 0 90 62 60
        E 120 80 1a 60
        E 0 80 1f 60
        E 0 80 3d 60
        E 0 80 3e 60
        E 0 80 49 60
        E 0 80 4a 60
        E 0 80 55 60
        E 0 80 56 60
        E 0 80 61 60
        E 0 80 62 60
        E 120 90 1f 60
        E 0 90 56 60
        E 0 90 62 60
        E 120 80 1f 60
        E 0 80 56 60
        E 0 80 62 60
        E 120 90 18 75
        E 0 90 2a 60
        E 0 90 3f 60
        E 0 90 48 75
        E 0 90 4b 60
        E 0 90 54 75
        E 0 90 57 60
        E 0 90 60 75
        E 0 90 63 60
        E 0 90 78 60
        E 0 90 79 60
        E 0 90 7a 60
        E 0 90 7b 60
        E 0 90 7c 60
        E 120 80 18 60
        E 0 80 2a 60
        E 0 80 3f 60
        E 0 80 48 60
        E 0 80 4b 60
        E 0 80 54 60
        E 0 80 57 60
        E 0 80 60 60
        E 0 80 63 60
        E 120 90 1e 60
        E 0 90 2a 60
        E 0 90 56 60
        E 0 90 57 60
        E 0 90 62 60
        E 0 90 63 60
        E 120 80 1e 60
        E 0 80 2a 60
        E 0 80 56 60
        E 0 80 57 60
        E 0 80 62 60
        E 0 80 63 60
        E 120 90 1e 60
        E 0 90 2a 60
        E 0 90 3e 60
        E 0 90 3f 60
        E 0 90 4a 60
        E 0 90 4b 60
        E 0 90 56 60
        E 0 90 57 60
        E 0 90 62 60
        E 0 90 63 60
        E 120 80 1e 60
        E 0 80 2a 60
        E 0 80 3e 60
        E 0 80 3f 60
        E 0 80 4a 60
        E 0 80 4b 60
        E 0 80 56 60
        E 0 80 57 60
        E 0 80 62 60
        E 0 80 63 60
        E 120 90 1e 60
        E 0 90 2a 60
        E 0 90 56 60
        E 0 90 57 60
        E 0 90 62 60
        E 0 90 63 60
        E 120 80 1e 60
        E 0 80 2a 60
        E 0 80 56 60
        E 0 80 57 60
        E 0 80 62 60
        E 0 80 63 60
        E 120 80 78 60
        E 0 80 79 60
        E 0 80 7a 60
        E 0 80 7b 60
        E 0 80 7c 60
        E 0 90 18 75
        E 0 90 26 60
        E 0 90 40 60
        E 0 90 48 75
        E 0 90 4c 60
        E 0 90 54 75
        E 0 90 58 60
        E 0 90 60 75
        E 0 90 64 60
        E 120 80 18 60
        E 0 80 26 60
        E 0 80 40 60
        E 0 80 48 60
        E 0 80 4c 60
        E 0 80 54 60
        E 0 80 58 60
        E 0 80 60 60
        E 0 80 64 60
        E 360 90 1a 60
        E 0 90 26 60
        E 0 90 3d 60
        E 0 90 40 60
        E 0 90 49 60
        E 0 90 4c 60
        E 0 90 55 60
        E 0 90 58 60
        E 0 90 61 60
        E 0 90 64 60
        E 120 80 1a 60
        E 0 80 26 60
        E 0 80 3d 60
        E 0 80 40 60
        E 0 80 49 60
        E 0 80 4c 60
        E 0 80 55 60
        E 0 80 58 60
        E 0 80 61 60
        E 0 80 64 60
        E 360 90 18 75
        E 0 90 26 60
        E 0 90 40 60
        E 0 90 48 75
        E 0 90 4c 60
        E 0 90 54 75
        E 0 90 58 60
        E 0 90 60 75
        E 0 90 64 60
        E 120 80 18 60
        E 0 80 26 60
        E 0 80 40 60
        E 0 80 48 60
        E 0 80 4c 60
        E 0 80 54 60
        E 0 80 58 60
        E 0 80 60 60
        E 0 80 64 60
        E 360 90 1a 60
        E 0 90 26 60
        E 0 90 3d 60
        E 0 90 40 60
        E 0 90 49 60
        E 0 90 4c 60
        E 0 90 55 60
        E 0 90 58 60
        E 0 90 61 60
        E 0 90 64 60
        E 120 80 1a 60
        E 0 80 26 60
        E 0 80 3d 60
        E 0 80 40 60
        E 0 80 49 60
        E 0 80 4c 60
        E 0 80 55 60
        E 0 80 58 60
        E 0 80 61 60
        E 0 80 64 60
        E 360 90 18 75
        E 0 90 26 60
        E 0 90 40 60
        E 0 90 48 75
        E 0 90 4c 60
        E 0 90 54 75
        E 0 90 58 60
        E 0 90 60 75
        E 0 90 64 60
        E 120 80 18 60
        E 0 80 26 60
        E 0 80 40 60
        E 0 80 48 60
        E 0 80 4c 60
        E 0 80 54 60
        E 0 80 58 60
        E 0 80 60 60
        E 0 80 64 60
        E 360 90 1a 60
        E 0 90 26 60
        E 0 90 3d 60
        E 0 90 40 60
        E 0 90 49 60
        E 0 90 4c 60
        E 0 90 55 60
        E 0 90 58 60
        E 0 90 61 60
        E 0 90 64 60
        E 120 80 1a 60
        E 0 80 26 60
        E 0 80 3d 60
        E 0 80 40 60
        E 0 80 49 60
        E 0 80 4c 60
        E 0 80 55 60
        E 0 80 58 60
        E 0 80 61 60
        E 0 80 64 60
        E 360 90 18 75
        E 0 90 26 60
        E 0 90 40 60
        E 0 90 48 75
        E 0 90 4c 60
        E 0 90 54 75
        E 0 90 58 60
        E 0 90 60 75
        E 0 90 64 60
        E 120 80 18 60
        E 0 80 26 60
        E 0 80 40 60
        E 0 80 48 60
        E 0 80 4c 60
        E 0 80 54 60
        E 0 80 58 60
        E 0 80 60 60
        E 0 80 64 60
        E 360 90 1a 60
        E 0 90 26 60
        E 0 90 3d 60
        E 0 90 40 60
        E 0 90 49 60
        E 0 90 4c 60
        E 0 90 55 60
        E 0 90 58 60
        E 0 90 61 60
        E 0 90 64 60
        E 120 80 1a 60
        E 0 80 26 60
        E 0 80 3d 60
        E 0 80 40 60
        E 0 80 49 60
        E 0 80 4c 60
        E 0 80 55 60
        E 0 80 58 60
        E 0 80 61 60
        E 0 80 64 60
        E 360 90 18 75
        E 0 90 26 60
        E 0 90 40 60
        E 0 90 48 75
        E 0 90 4c 60
        E 0 90 54 75
        E 0 90 58 60
        E 0 90 60 75
        E 0 90 64 60
        E 0 90 74 60
        E 120 80 18 60
        E 0 80 26 60
        E 0 80 40 60
        E 0 80 48 60
        E 0 80 4c 60
        E 0 80 54 60
        E 0 80 58 60
        E 0 80 60 60
        E 0 80 64 60
        E 360 90 1a 60
        E 0 90 26 60
        E 0 90 3d 60
        E 0 90 40 60
        E 0 90 49 60
        E 0 90 4c 60
        E 0 90 55 60
        E 0 90 58 60
        E 0 90 61 60
        E 0 90 64 60
        E 120 80 1a 60
        E 0 80 26 60
        E 0 80 3d 60
        E 0 80 40 60
        E 0 80 49 60
        E 0 80 4c 60
        E 0 80 55 60
        E 0 80 58 60
        E 0 80 61 60
        E 0 80 64 60
        E 360 90 18 75
        E 0 90 26 60
        E 0 90 40 60
        E 0 90 48 75
        E 0 90 4c 60
        E 0 90 54 75
        E 0 90 58 60
        E 0 90 60 75
        E 0 90 64 60
        E 120 80 18 60
        E 0 80 26 60
        E 0 80 40 60
        E 0 80 48 60
        E 0 80 4c 60
        E 0 80 54 60
        E 0 80 58 60
        E 0 80 60 60
        E 0 80 64 60
        E 360 90 1a 60
        E 0 90 26 60
        E 0 90 3d 60
        E 0 90 40 60
        E 0 90 49 60
        E 0 90 4c 60
        E 0 90 55 60
        E 0 90 58 60
        E 0 90 61 60
        E 0 90 64 60
        E 120 80 1a 60
        E 0 80 26 60
        E 0 80 3d 60
        E 0 80 40 60
        E 0 80 49 60
        E 0 80 4c 60
        E 0 80 55 60
        E 0 80 58 60
        E 0 80 61 60
        E 0 80 64 60
        E 360 80 74 60
        E 0 90 18 75
        E 0 90 26 60
        E 0 90 40 60
        E 0 90 48 75
        E 0 90 4c 60
        E 0 90 54 75
        E 0 90 58 60
        E 0 90 60 75
        E 0 90 64 60
        E 120 80 18 60
        E 0 80 26 60
        E 0 80 40 60
        E 0 80 48 60
        E 0 80 4c 60
        E 0 80 54 60
        E 0 80 58 60
        E 0 80 60 60
        E 0 80 64 60
        E 120 90 1e 60
        E 0 90 2a 60
        E 0 90 56 60
        E 0 90 57 60
        E 0 90 62 60
        E 0 90 63 60
        E 120 80 1e 60
        E 0 80 2a 60
        E 0 80 56 60
        E 0 80 57 60
        E 0 80 62 60
        E 0 80 63 60
        E 120 90 22 60
        E 0 90 26 60
        E 0 90 57 60
        E 0 90 58 60
        E 0 90 63 60
        E 0 90 64 60
        E 120 80 22 60
        E 0 80 26 60
        E 0 80 57 60
        E 0 80 58 60
        E 0 80 63 60
        E 0 80 64 60
        E 120 90 18 75
        E 0 90 22 60
        E 0 90 26 60
        E 0 90 3e 60
        E 0 90 40 60
        E 0 90 48 60
        E 0 90 4a 60
        E 0 90 4c 60
        E 0 90 54 75
        E 0 90 56 60
        E 0 90 58 60
        E 0 90 60 75
        E 0 90 62 60
        E 0 90 64 60
        E 120 80 18 60
        E 0 80 22 60
        E 0 80 26 60
        E 0 80 3e 60
        E 0 80 40 60
        E 0 80 48 60
        E 0 80 4a 60
        E 0 80 4c 60
        E 0 80 54 60
        E 0 80 56 60
        E 0 80 58 60
        E 0 80 60 60
        E 0 80 62 60
        E 0 80 64 60
        E 2040 90 78 60
        E 0 90 79 60
        E 0 90 7a 60
        E 0 90 7b 60
        E 0 90 7c 60
        E 240 90 1b 60
        E 0 90 3d 60
        E 0 90 49 60
        E 0 90 55 60
        E 0 90 61 60
        E 120 80 1b 60
        E 0 80 3d 60
        E 0 80 49 60
        E 0 80 55 60
        E 0 80 61 60
        E 0 90 1a 60
        E 0 90 61 60
        E 120 80 1a 60
        E 0 80 61 60
        E 120 90 1a 60
        E 0 90 61 60
        E 120 80 1a 60
        E 0 80 61 60
        E 0 90 1b 60
        E 0 90 55 60
        E 0 90 61 60
        E 120 80 1b 60
        E 0 80 55 60
        E 0 80 61 60
        E 120 90 18 75
        E 0 90 1f 60
        E 0 90 3e 60
        E 0 90 48 75
        E 0 90 4a 60
        E 0 90 54 75
        E 0 90 56 60
        E 0 90 60 75
        E 0 90 62 60
        E 1 80 78 60
        E 0 80 79 60
        E 0 80 7a 60
        E 0 80 7b 60
        E 0 80 7c 60
        E 119 80 18 60
        E 0 80 1f 60
        E 0 80 3e 60
        E 0 80 48 60
        E 0 80 4a 60
        E 0 80 54 60
        E 0 80 56 60
        E 0 80 60 60
        E 0 80 62 60
        E 120 90 1f 60
        E 0 90 56 60
        E 0 90 62 60
        E 120 80 1f 60
        E 0 80 56 60
        E 0 80 62 60
        E 120 90 1a 60
        E 0 90 1f 60
        E 0 90 3d 60
        E 0 90 3e 60
        E 0 90 49 60
        E 0 90 4a 60
        E 0 90 55 60
        E 0 90 56 60
        E 0 90 61 60
        E 0 90 62 60
        E 120 80 1a 60
        E 0 80 1f 60
        E 0 80 3d 60
        E 0 80 3e 60
        E 0 80 49 60
        E 0 80 4a 60
        E 0 80 55 60
        E 0 80 56 60
        E 0 80 61 60
        E 0 80 62 60
        E 120 90 1f 60
        E 0 90 56 60
        E 0 90 62 60
        E 120 80 1f 60
        E 0 80 56 60
        E 0 80 62 60
        E 120 90 18 75
        E 0 90 1f 60
        E 0 90 3e 60
        E 0 90 48 75
        E 0 90 4a 60
        E 0 90 54 75
        E 0 90 56 60
        E 0 90 60 75
        E 0 90 62 60
        E 120 80 18 60
        E 0 80 1f 60
        E 0 80 3e 60
        E 0 80 48 60
        E 0 80 4a 60
        E 0 80 54 60
        E 0 80 56 60
        E 0 80 60 60
        E 0 80 62 60
        E 120 90 1f 60
        E 0 90 56 60
        E 0 90 62 60
        E 120 80 1f 60
        E 0 80 56 60
        E 0 80 62 60
        E 120 90 1a 60
        E 0 90 1f 60
        E 0 90 3d 60
        E 0 90 3e 60
        E 0 90 49 60
        E 0 90 4a 60
        E 0 90 55 60
        E 0 90 56 60
        E 0 90 61 60
        E 0 90 62 60
        E 120 80 1a 60
        E 0 80 1f 60
        E 0 80 3d 60
        E 0 80 3e 60
        E 0 80 49 60
        E 0 80 4a 60
        E 0 80 55 60
        E 0 80 56 60
        E 0 80 61 60
        E 0 80 62 60
        E 120 90 1f 60
        E 0 90 56 60
        E 0 90 62 60
        E 120 80 1f 60
        E 0 80 56 60
        E 0 80 62 60
        E 120 90 18 75
        E 0 90 1f 60
        E 0 90 3e 60
        E 0 90 48 75
        E 0 90 4a 60
        E 0 90 54 75
        E 0 90 56 60
        E 0 90 60 75
        E 0 90 62 60
        E 120 80 18 60
        E 0 80 1f 60
        E 0 80 3e 60
        E 0 80 48 60
        E 0 80 4a 60
        E 0 80 54 60
        E 0 80 56 60
        E 0 80 60 60
        E 0 80 62 60
        E 120 90 1f 60
        E 0 90 56 60
        E 0 90 62 60
        E 120 80 1f 60
        E 0 80 56 60
        E 0 80 62 60
        E 120 90 1a 60
        E 0 90 1f 60
        E 0 90 3d 60
        E 0 90 3e 60
        E 0 90 49 60
        E 0 90 4a 60
        E 0 90 55 60
        E 0 90 56 60
        E 0 90 61 60
        E 0 90 62 60
        E 120 80 1a 60
        E 0 80 1f 60
        E 0 80 3d 60
        E 0 80 3e 60
        E 0 80 49 60
        E 0 80 4a 60
        E 0 80 55 60
        E 0 80 56 60
        E 0 80 61 60
        E 0 80 62 60
        E 120 90 1f 60
        E 0 90 56 60
        E 0 90 62 60
        E 120 80 1f 60
        E 0 80 56 60
        E 0 80 62 60
        E 120 90 18 75
        E 0 90 1f 60
        E 0 90 3e 60
        E 0 90 48 75
        E 0 90 4a 60
        E 0 90 54 75
        E 0 90 56 60
        E 0 90 60 75
        E 0 90 62 60
        E 120 80 18 60
        E 0 80 1f 60
        E 0 80 3e 60
        E 0 80 48 60
        E 0 80 4a 60
        E 0 80 54 60
        E 0 80 56 60
        E 0 80 60 60
        E 0 80 62 60
        E 120 90 1f 60
        E 0 90 56 60
        E 0 90 62 60
        E 120 80 1f 60
        E 0 80 56 60
        E 0 80 62 60
        E 120 90 1a 60
        E 0 90 1f 60
        E 0 90 3d 60
        E 0 90 3e 60
        E 0 90 49 60
        E 0 90 4a 60
        E 0 90 55 60
        E 0 90 56 60
        E 0 90 61 60
        E 0 90 62 60
        E 120 80 1a 60
        E 0 80 1f 60
        E 0 80 3d 60
        E 0 80 3e 60
        E 0 80 49 60
        E 0 80 4a 60
        E 0 80 55 60
        E 0 80 56 60
        E 0 80 61 60
        E 0 80 62 60
        E 120 90 1f 60
        E 0 90 56 60
        E 0 90 62 60
        E 120 80 1f 60
        E 0 80 56 60
        E 0 80 62 60
        E 120 90 18 75
        E 0 90 1f 60
        E 0 90 3e 60
        E 0 90 48 75
        E 0 90 4a 60
        E 0 90 54 75
        E 0 90 56 60
        E 0 90 60 75
        E 0 90 62 60
        E 120 80 18 60
        E 0 80 1f 60
        E 0 80 3e 60
        E 0 80 48 60
        E 0 80 4a 60
        E 0 80 54 60
        E 0 80 56 60
        E 0 80 60 60
        E 0 80 62 60
        E 120 90 1f 60
        E 0 90 56 60
        E 0 90 62 60
        E 120 80 1f 60
        E 0 80 56 60
        E 0 80 62 60
        E 120 90 1a 60
        E 0 90 1f 60
        E 0 90 3d 60
        E 0 90 3e 60
        E 0 90 49 60
        E 0 90 4a 60
        E 0 90 55 60
        E 0 90 56 60
        E 0 90 61 60
        E 0 90 62 60
        E 120 80 1a 60
        E 0 80 1f 60
        E 0 80 3d 60
        E 0 80 3e 60
        E 0 80 49 60
        E 0 80 4a 60
        E 0 80 55 60
        E 0 80 56 60
        E 0 80 61 60
        E 0 80 62 60
        E 120 90 1f 60
        E 0 90 56 60
        E 0 90 62 60
        E 120 80 1f 60
        E 0 80 56 60
        E 0 80 62 60
        E 120 90 18 75
        E 0 90 1f 60
        E 0 90 3e 60
        E 0 90 48 75
        E 0 90 4a 60
        E 0 90 54 75
        E 0 90 56 60
        E 0 90 60 75
        E 0 90 62 60
        E 120 80 18 60
        E 0 80 1f 60
        E 0 80 3e 60
        E 0 80 48 60
        E 0 80 4a 60
        E 0 80 54 60
        E 0 80 56 60
        E 0 80 60 60
        E 0 80 62 60
        E 120 90 1f 60
        E 0 90 56 60
        E 0 90 62 60
        E 120 80 1f 60
        E 0 80 56 60
        E 0 80 62 60
        E 120 90 1a 60
        E 0 90 1f 60
        E 0 90 3d 60
        E 0 90 3e 60
        E 0 90 49 60
        E 0 90 4a 60
        E 0 90 55 60
        E 0 90 56 60
        E 0 90 61 60
        E 0 90 62 60
        E 120 80 1a 60
        E 0 80 1f 60
        E 0 80 3d 60
        E 0 80 3e 60
        E 0 80 49 60
        E 0 80 4a 60
        E 0 80 55 60
        E 0 80 56 60
        E 0 80 61 60
        E 0 80 62 60
        E 120 90 1f 60
        E 0 90 56 60
        E 0 90 62 60
        E 120 80 1f 60
        E 0 80 56 60
        E 0 80 62 60
        E 120 90 18 75
        E 0 90 1f 60
        E 0 90 3e 60
        E 0 90 48 75
        E 0 90 4a 60
        E 0 90 54 75
        E 0 90 56 60
        E 0 90 60 75
        E 0 90 62 60
        E 120 80 18 60
        E 0 80 1f 60
        E 0 80 3e 60
        E 0 80 48 60
        E 0 80 4a 60
        E 0 80 54 60
        E 0 80 56 60
        E 0 80 60 60
        E 0 80 62 60
        E 120 90 1f 60
        E 0 90 56 60
        E 0 90 62 60
        E 120 80 1f 60
        E 0 80 56 60
        E 0 80 62 60
        E 120 90 1a 60
        E 0 90 1f 60
        E 0 90 3d 60
        E 0 90 3e 60
        E 0 90 49 60
        E 0 90 4a 60
        E 0 90 55 60
        E 0 90 56 60
        E 0 90 61 60
        E 0 90 62 60
        E 120 80 1a 60
        E 0 80 1f 60
        E 0 80 3d 60
        E 0 80 3e 60
        E 0 80 49 60
        E 0 80 4a 60
        E 0 80 55 60
        E 0 80 56 60
        E 0 80 61 60
        E 0 80 62 60
        E 240 90 2a 60
        E 0 90 63 60
        E 60 80 2a 60
        E 0 80 63 60
        E 60 90 2a 60
        E 0 90 3f 60
        E 0 90 4b 60
        E 0 90 57 60
        E 0 90 63 60
        E 0 90 78 60
        E 0 90 79 60
        E 0 90 7a 60
        E 0 90 7b 60
        E 0 90 7c 60
        E 60 80 2a 60
        E 0 80 3f 60
        E 0 80 4b 60
        E 0 80 57 60
        E 0 80 63 60
        E 60 90 26 60
        E 0 90 64 60
        E 60 80 26 60
        E 0 80 64 60
        E 60 90 26 60
        E 0 90 58 60
        E 0 90 64 60
        E 60 80 26 60
        E 0 80 58 60
        E 0 80 64 60
        E 180 90 26 60
        E 0 90 40 60
        E 0 90 4c 60
        E 0 90 58 60
        E 0 90 64 60
        E 60 80 26 60
        E 0 80 40 60
        E 0 80 4c 60
        E 0 80 58 60
        E 0 80 64 60
        E 180 90 26 60
        E 0 90 58 60
        E 0 90 64 60
        E 60 80 26 60
        E 0 80 58 60
        E 0 80 64 60
        E 180 90 18 75
        E 0 90 26 60
        E 0 90 40 60
        E 0 90 48 75
        E 0 90 4c 60
        E 0 90 54 75
        E 0 90 58 60
        E 0 90 60 75
        E 0 90 64 60
        E 1 80 78 60
        E 0 80 79 60
        E 0 80 7a 60
        E 0 80 7b 60
        E 0 80 7c 60
        E 119 80 18 60
        E 0 80 26 60
        E 0 80 40 60
        E 0 80 48 60
        E 0 80 4c 60
        E 0 80 54 60
        E 0 80 58 60
        E 0 80 60 60
        E 0 80 64 60
        E 120 90 18 60
        E 0 90 1a 60
        E 0 90 26 60
        E 0 90 54 60
        E 0 90 55 60
        E 0 90 58 60
        E 0 90 60 60
        E 0 90 61 60
        E 0 90 64 60
        E 60 80 18 60
        E 0 80 1a 60
        E 0 80 26 60
        E 0 80 54 60
        E 0 80 55 60
        E 0 80 58 60
        E 0 80 60 60
        E 0 80 61 60
        E 0 80 64 60
        E 180 90 18 60
        E 0 90 1a 60
        E 0 90 26 60
        E 0 90 3d 60
        E 0 90 40 60
        E 0 90 49 60
        E 0 90 4c 60
        E 0 90 54 60
        E 0 90 55 60
        E 0 90 58 60
        E 0 90 60 60
        E 0 90 61 60
        E 0 90 64 60
        E 60 80 18 60
        E 0 80 1a 60
        E 0 80 26 60
        E 0 80 3d 60
        E 0 80 40 60
        E 0 80 49 60
        E 0 80 4c 60
        E 0 80 54 60
        E 0 80 55 60
        E 0 80 58 60
        E 0 80 60 60
        E 0 80 61 60
        E 0 80 64 60
        E 180 90 18 60
        E 0 90 1a 60
        E 0 90 26 60
        E 0 90 54 60
        E 0 90 55 60
        E 0 90 58 60
        E 0 90 60 60
        E 0 90 61 60
        E 0 90 64 60
        E 60 80 18 60
        E 0 80 1a 60
        E 0 80 26 60
        E 0 80 54 60
        E 0 80 55 60
        E 0 80 58 60
        E 0 80 60 60
        E 0 80 61 60
        E 0 80 64 60
        E 180 90 18 60
        E 0 90 1a 60
        E 0 90 26 60
        E 0 90 3d 60
        E 0 90 40 60
        E 0 90 49 60
        E 0 90 4c 60
        E 0 90 54 60
        E 0 90 55 60
        E 0 90 58 60
        E 0 90 60 60
        E 0 90 61 60
        E 0 90 64 60
        E 60 80 18 60
        E 0 80 1a 60
        E 0 80 26 60
        E 0 80 3d 60
        E 0 80 40 60
        E 0 80 49 60
        E 0 80 4c 60
        E 0 80 54 60
        E 0 80 55 60
        E 0 80 58 60
        E 0 80 60 60
        E 0 80 61 60
        E 0 80 64 60
        E 180 90 18 60
        E 0 90 1a 60
        E 0 90 26 60
        E 0 90 54 60
        E 0 90 55 60
        E 0 90 58 60
        E 0 90 60 60
        E 0 90 61 60
        E 0 90 64 60
        E 60 80 18 60
        E 0 80 1a 60
        E 0 80 26 60
        E 0 80 54 60
        E 0 80 55 60
        E 0 80 58 60
        E 0 80 60 60
        E 0 80 61 60
        E 0 80 64 60
        E 180 90 18 60
        E 0 90 1a 60
        E 0 90 26 60
        E 0 90 3d 60
        E 0 90 40 60
        E 0 90 49 60
        E 0 90 4c 60
        E 0 90 54 60
        E 0 90 55 60
        E 0 90 58 60
        E 0 90 60 60
        E 0 90 61 60
        E 0 90 64 60
        E 60 80 18 60
        E 0 80 1a 60
        E 0 80 26 60
        E 0 80 3d 60
        E 0 80 40 60
        E 0 80 49 60
        E 0 80 4c 60
        E 0 80 54 60
        E 0 80 55 60
        E 0 80 58 60
        E 0 80 60 60
        E 0 80 61 60
        E 0 80 64 60
        E 180 90 18 60
        E 0 90 1a 60
        E 0 90 26 60
        E 0 90 54 60
        E 0 90 55 60
        E 0 90 58 60
        E 0 90 60 60
        E 0 90 61 60
        E 0 90 64 60
        E 60 80 18 60
        E 0 80 1a 60
        E 0 80 26 60
        E 0 80 54 60
        E 0 80 55 60
        E 0 80 58 60
        E 0 80 60 60
        E 0 80 61 60
        E 0 80 64 60
        E 180 90 18 75
        E 0 90 26 60
        E 0 90 40 60
        E 0 90 48 75
        E 0 90 4c 60
        E 0 90 54 75
        E 0 90 58 60
        E 0 90 60 75
        E 0 90 64 60
        E 120 80 18 60
        E 0 80 26 60
        E 0 80 40 60
        E 0 80 48 60
        E 0 80 4c 60
        E 0 80 54 60
        E 0 80 58 60
        E 0 80 60 60
        E 0 80 64 60
        E 120 90 1f 60
        E 0 90 56 60
        E 0 90 62 60
        E 120 80 1f 60
        E 0 80 56 60
        E 0 80 62 60
        E 120 90 1a 60
        E 0 90 1f 60
        E 0 90 3d 60
        E 0 90 3e 60
        E 0 90 49 60
        E 0 90 4a 60
        E 0 90 55 60
        E 0 90 56 60
        E 0 90 61 60
        E 0 90 62 60
        E 120 80 1a 60
        E 0 80 1f 60
        E 0 80 3d 60
        E 0 80 3e 60
        E 0 80 49 60
        E 0 80 4a 60
        E 0 80 55 60
        E 0 80 56 60
        E 0 80 61 60
        E 0 80 62 60
        E 120 90 1f 60
        E 0 90 56 60
        E 0 90 62 60
        E 120 80 1f 60
        E 0 80 56 60
        E 0 80 62 60
        E 120 90 18 75
        E 0 90 1f 60
        E 0 90 3e 60
        E 0 90 48 75
        E 0 90 4a 60
        E 0 90 54 75
        E 0 90 56 60
        E 0 90 60 75
        E 0 90 62 60
        E 120 80 18 60
        E 0 80 1f 60
        E 0 80 3e 60
        E 0 80 48 60
        E 0 80 4a 60
        E 0 80 54 60
        E 0 80 56 60
        E 0 80 60 60
        E 0 80 62 60
        E 120 90 1f 60
        E 0 90 56 60
        E 0 90 62 60
        E 120 80 1f 60
        E 0 80 56 60
        E 0 80 62 60
        E 120 90 1a 60
        E 0 90 1f 60
        E 0 90 3d 60
        E 0 90 3e 60
        E 0 90 49 60
        E 0 90 4a 60
        E 0 90 55 60
        E 0 90 56 60
        E 0 90 61 60
        E 0 90 62 60
        E 120 80 1a 60
        E 0 80 1f 60
        E 0 80 3d 60
        E 0 80 3e 60
        E 0 80 49 60
        E 0 80 4a 60
        E 0 80 55 60
        E 0 80 56 60
        E 0 80 61 60
        E 0 80 62 60
        E 120 90 1f 60
        E 0 90 56 60
        E 0 90 62 60
        E 120 80 1f 60
        E 0 80 56 60
        E 0 80 62 60
        E 120 90 18 75
        E 0 90 1f 60
        E 0 90 3e 60
        E 0 90 48 75
        E 0 90 4a 60
        E 0 90 54 75
        E 0 90 56 60
        E 0 90 60 75
        E 0 90 62 60
        E 0 90 74 60
        E 120 80 18 60
        E 0 80 1f 60
        E 0 80 3e 60
        E 0 80 48 60
        E 0 80 4a 60
        E 0 80 54 60
        E 0 80 56 60
        E 0 80 60 60
        E 0 80 62 60
        E 120 90 1f 60
        E 0 90 56 60
        E 0 90 62 60
        E 120 80 1f 60
        E 0 80 56 60
        E 0 80 62 60
        E 120 90 1a 60
        E 0 90 1f 60
        E 0 90 3d 60
        E 0 90 3e 60
        E 0 90 49 60
        E 0 90 4a 60
        E 0 90 55 60
        E 0 90 56 60
        E 0 90 61 60
        E 0 90 62 60
        E 120 80 1a 60
        E 0 80 1f 60
        E 0 80 3d 60
        E 0 80 3e 60
        E 0 80 49 60
        E 0 80 4a 60
        E 0 80 55 60
        E 0 80 56 60
        E 0 80 61 60
        E 0 80 62 60
        E 120 90 1f 60
        E 0 90 56 60
        E 0 90 62 60
        E 120 80 1f 60
        E 0 80 56 60
        E 0 80 62 60
        E 120 90 18 75
        E 0 90 1f 60
        E 0 90 3e 60
        E 0 90 48 75
        E 0 90 4a 60
        E 0 90 54 75
        E 0 90 56 60
        E 0 90 60 75
        E 0 90 62 60
        E 120 80 18 60
        E 0 80 1f 60
        E 0 80 3e 60
        E 0 80 48 60
        E 0 80 4a 60
        E 0 80 54 60
        E 0 80 56 60
        E 0 80 60 60
        E 0 80 62 60
        E 120 90 1f 60
        E 0 90 56 60
        E 0 90 62 60
        E 120 80 1f 60
        E 0 80 56 60
        E 0 80 62 60
        E 120 90 1a 60
        E 0 90 1f 60
        E 0 90 3d 60
        E 0 90 3e 60
        E 0 90 49 60
        E 0 90 4a 60
        E 0 90 55 60
        E 0 90 56 60
        E 0 90 61 60
        E 0 90 62 60
        E 120 80 1a 60
        E 0 80 1f 60
        E 0 80 3d 60
        E 0 80 3e 60
        E 0 80 49 60
        E 0 80 4a 60
        E 0 80 55 60
        E 0 80 56 60
        E 0 80 61 60
        E 0 80 62 60
        E 120 90 1f 60
        E 0 90 56 60
        E 0 90 62 60
        E 120 80 1f 60
        E 0 80 56 60
        E 0 80 62 60
        E 120 80 74 60
        E 0 90 18 75
        E 0 90 1f 60
        E 0 90 3e 60
        E 0 90 48 75
        E 0 90 4a 60
        E 0 90 54 75
        E 0 90 56 60
        E 0 90 60 75
        E 0 90 62 60
        E 120 80 18 60
        E 0 80 1f 60
        E 0 80 3e 60
        E 0 80 48 60
        E 0 80 4a 60
        E 0 80 54 60
        E 0 80 56 60
        E 0 80 60 60
        E 0 80 62 60
        E 120 90 1f 60
        E 0 90 56 60
        E 0 90 62 60
        E 120 80 1f 60
        E 0 80 56 60
        E 0 80 62 60
        E 120 90 1a 60
        E 0 90 1f 60
        E 0 90 3d 60
        E 0 90 3e 60
        E 0 90 49 60
        E 0 90 4a 60
        E 0 90 55 60
        E 0 90 56 60
        E 0 90 61 60
        E 0 90 62 60
        E 120 80 1a 60
        E 0 80 1f 60
        E 0 80 3d 60
        E 0 80 3e 60
        E 0 80 49 60
        E 0 80 4a 60
        E 0 80 55 60
        E 0 80 56 60
        E 0 80 61 60
        E 0 80 62 60
        E 120 90 1f 60
        E 0 90 56 60
        E 0 90 62 60
        E 120 80 1f 60
        E 0 80 56 60
        E 0 80 62 60
        E 120 90 18 75
        E 0 90 1f 60
        E 0 90 3e 60
        E 0 90 48 75
        E 0 90 4a 60
        E 0 90 54 75
        E 0 90 56 60
        E 0 90 60 75
        E 0 90 62 60
        E 120 80 18 60
        E 0 80 1f 60
        E 0 80 3e 60
        E 0 80 48 60
        E 0 80 4a 60
        E 0 80 54 60
        E 0 80 56 60
        E 0 80 60 60
        E 0 80 62 60
        E 120 90 1f 60
        E 0 90 56 60
        E 0 90 62 60
        E 120 80 1f 60
        E 0 80 56 60
        E 0 80 62 60
        E 120 90 1a 60
        E 0 90 1f 60
        E 0 90 3d 60
        E 0 90 3e 60
        E 0 90 49 60
        E 0 90 4a 60
        E 0 90 55 60
        E 0 90 56 60
        E 0 90 61 60
        E 0 90 62 60
        E 120 80 1a 60
        E 0 80 1f 60
        E 0 80 3d 60
        E 0 80 3e 60
        E 0 80 49 60
        E 0 80 4a 60
        E 0 80 55 60
        E 0 80 56 60
        E 0 80 61 60
        E 0 80 62 60
        E 120 90 1f 60
        E 0 90 56 60
        E 0 90 62 60
        E 120 80 1f 60
        E 0 80 56 60
        E 0 80 62 60
        E 120 90 18 75
        E 0 90 1f 60
        E 0 90 3e 60
        E 0 90 48 75
        E 0 90 4a 60
        E 0 90 54 75
        E 0 90 56 60
        E 0 90 60 75
        E 0 90 62 60
        E 120 80 18 60
        E 0 80 1f 60
        E 0 80 3e 60
        E 0 80 48 60
        E 0 80 4a 60
        E 0 80 54 60
        E 0 80 56 60
        E 0 80 60 60
        E 0 80 62 60
        E 120 90 1f 60
        E 0 90 56 60
        E 0 90 62 60
        E 120 80 1f 60
        E 0 80 56 60
        E 0 80 62 60
        E 120 90 1a 60
        E 0 90 1f 60
        E 0 90 3d 60
        E 0 90 3e 60
        E 0 90 49 60
        E 0 90 4a 60
        E 0 90 55 60
        E 0 90 56 60
        E 0 90 61 60
        E 0 90 62 60
        E 120 80 1a 60
        E 0 80 1f 60
        E 0 80 3d 60
        E 0 80 3e 60
        E 0 80 49 60
        E 0 80 4a 60
        E 0 80 55 60
        E 0 80 56 60
        E 0 80 61 60
        E 0 80 62 60
        E 120 90 1f 60
        E 0 90 56 60
        E 0 90 62 60
        E 120 80 1f 60
        E 0 80 56 60
        E 0 80 62 60
        E 120 90 78 60
        E 0 90 79 60
        E 0 90 7a 60
        E 0 90 7b 60
        E 0 90 7c 60
        E 120 90 2a 60
        E 0 90 63 60
        E 60 80 2a 60
        E 0 80 63 60
        E 60 90 2a 60
        E 0 90 3f 60
        E 0 90 4b 60
        E 0 90 57 60
        E 0 90 63 60
        E 60 80 2a 60
        E 0 80 3f 60
        E 0 80 4b 60
        E 0 80 57 60
        E 0 80 63 60
        E 60 90 26 60
        E 0 90 64 60
        E 60 80 26 60
        E 0 80 64 60
        E 180 90 26 60
        E 0 90 64 60
        E 60 80 26 60
        E 0 80 64 60
        E 60 90 26 60
        E 0 90 58 60
        E 0 90 64 60
        E 60 80 26 60
        E 0 80 58 60
        E 0 80 64 60
        E 180 90 18 75
        E 0 90 26 60
        E 0 90 40 60
        E 0 90 48 75
        E 0 90 4c 60
        E 0 90 54 75
        E 0 90 58 60
        E 0 90 60 75
        E 0 90 64 60
        E 1 80 78 60
        E 0 80 79 60
        E 0 80 7a 60
        E 0 80 7b 60
        E 0 80 7c 60
        E 119 80 18 60
        E 0 80 26 60
        E 0 80 40 60
        E 0 80 48 60
        E 0 80 4c 60
        E 0 80 54 60
        E 0 80 58 60
        E 0 80 60 60
        E 0 80 64 60
        E 120 90 1f 60
        E 0 90 56 60
        E 0 90 62 60
        E 120 80 1f 60
        E 0 80 56 60
        E 0 80 62 60
        E 120 90 1a 60
        E 0 90 1f 60
        E 0 90 3d 60
        E 0 90 3e 60
        E 0 90 49 60
        E 0 90 4a 60
        E 0 90 55 60
        E 0 90 56 60
        E 0 90 61 60
        E 0 90 62 60
        E 120 80 1a 60
        E 0 80 1f 60
        E 0 80 3d 60
        E 0 80 3e 60
        E 0 80 49 60
        E 0 80 4a 60
        E 0 80 55 60
        E 0 80 56 60
        E 0 80 61 60
        E 0 80 62 60
        E 120 90 1f 60
        E 0 90 56 60
        E 0 90 62 60
        E 120 80 1f 60
        E 0 80 56 60
        E 0 80 62 60
        E 120 90 18 75
        E 0 90 1f 60
        E 0 90 3e 60
        E 0 90 48 75
        E 0 90 4a 60
        E 0 90 54 75
        E 0 90 56 60
        E 0 90 60 75
        E 0 90 62 60
        E 120 80 18 60
        E 0 80 1f 60
        E 0 80 3e 60
        E 0 80 48 60
        E 0 80 4a 60
        E 0 80 54 60
        E 0 80 56 60
        E 0 80 60 60
        E 0 80 62 60
        E 120 90 1f 60
        E 0 90 56 60
        E 0 90 62 60
        E 120 80 1f 60
        E 0 80 56 60
        E 0 80 62 60
        E 120 90 1a 60
        E 0 90 1f 60
        E 0 90 3d 60
        E 0 90 3e 60
        E 0 90 49 60
        E 0 90 4a 60
        E 0 90 55 60
        E 0 90 56 60
        E 0 90 61 60
        E 0 90 62 60
        E 120 80 1a 60
        E 0 80 1f 60
        E 0 80 3d 60
        E 0 80 3e 60
        E 0 80 49 60
        E 0 80 4a 60
        E 0 80 55 60
        E 0 80 56 60
        E 0 80 61 60
        E 0 80 62 60
        E 120 90 1f 60
        E 0 90 56 60
        E 0 90 62 60
        E 120 80 1f 60
        E 0 80 56 60
        E 0 80 62 60
        E 120 90 18 75
        E 0 90 1f 60
        E 0 90 3e 60
        E 0 90 48 75
        E 0 90 4a 60
        E 0 90 54 75
        E 0 90 56 60
        E 0 90 60 75
        E 0 90 62 60
        E 120 80 18 60
        E 0 80 1f 60
        E 0 80 3e 60
        E 0 80 48 60
        E 0 80 4a 60
        E 0 80 54 60
        E 0 80 56 60
        E 0 80 60 60
        E 0 80 62 60
        E 120 90 1f 60
        E 0 90 56 60
        E 0 90 62 60
        E 120 80 1f 60
        E 0 80 56 60
        E 0 80 62 60
        E 120 90 1a 60
        E 0 90 1f 60
        E 0 90 3d 60
        E 0 90 3e 60
        E 0 90 49 60
        E 0 90 4a 60
        E 0 90 55 60
        E 0 90 56 60
        E 0 90 61 60
        E 0 90 62 60
        E 120 80 1a 60
        E 0 80 1f 60
        E 0 80 3d 60
        E 0 80 3e 60
        E 0 80 49 60
        E 0 80 4a 60
        E 0 80 55 60
        E 0 80 56 60
        E 0 80 61 60
        E 0 80 62 60
        E 120 90 1f 60
        E 0 90 56 60
        E 0 90 62 60
        E 120 80 1f 60
        E 0 80 56 60
        E 0 80 62 60
        E 120 90 18 75
        E 0 90 1f 60
        E 0 90 3e 60
        E 0 90 48 75
        E 0 90 4a 60
        E 0 90 54 75
        E 0 90 56 60
        E 0 90 60 75
        E 0 90 62 60
        E 120 80 18 60
        E 0 80 1f 60
        E 0 80 3e 60
        E 0 80 48 60
        E 0 80 4a 60
        E 0 80 54 60
        E 0 80 56 60
        E 0 80 60 60
        E 0 80 62 60
        E 120 90 1f 60
        E 0 90 56 60
        E 0 90 62 60
        E 120 80 1f 60
        E 0 80 56 60
        E 0 80 62 60
        E 120 90 1a 60
        E 0 90 1f 60
        E 0 90 3d 60
        E 0 90 3e 60
        E 0 90 49 60
        E 0 90 4a 60
        E 0 90 55 60
        E 0 90 56 60
        E 0 90 61 60
        E 0 90 62 60
        E 120 80 1a 60
        E 0 80 1f 60
        E 0 80 3d 60
        E 0 80 3e 60
        E 0 80 49 60
        E 0 80 4a 60
        E 0 80 55 60
        E 0 80 56 60
        E 0 80 61 60
        E 0 80 62 60
        E 120 90 1f 60
        E 0 90 56 60
        E 0 90 62 60
        E 120 80 1f 60
        E 0 80 56 60
        E 0 80 62 60
        E 120 90 18 75
        E 0 90 1f 60
        E 0 90 3e 60
        E 0 90 48 75
        E 0 90 4a 60
        E 0 90 54 75
        E 0 90 56 60
        E 0 90 60 75
        E 0 90 62 60
        E 120 80 18 60
        E 0 80 1f 60
        E 0 80 3e 60
        E 0 80 48 60
        E 0 80 4a 60
        E 0 80 54 60
        E 0 80 56 60
        E 0 80 60 60
        E 0 80 62 60
        E 120 90 1f 60
        E 0 90 56 60
        E 0 90 62 60
        E 120 80 1f 60
        E 0 80 56 60
        E 0 80 62 60
        E 120 90 1a 60
        E 0 90 1f 60
        E 0 90 3d 60
        E 0 90 3e 60
        E 0 90 49 60
        E 0 90 4a 60
        E 0 90 55 60
        E 0 90 56 60
        E 0 90 61 60
        E 0 90 62 60
        E 120 80 1a 60
        E 0 80 1f 60
        E 0 80 3d 60
        E 0 80 3e 60
        E 0 80 49 60
        E 0 80 4a 60
        E 0 80 55 60
        E 0 80 56 60
        E 0 80 61 60
        E 0 80 62 60
        E 120 90 1f 60
        E 0 90 56 60
        E 0 90 62 60
        E 120 80 1f 60
        E 0 80 56 60
        E 0 80 62 60
        E 120 90 18 75
        E 0 90 1f 60
        E 0 90 3e 60
        E 0 90 48 75
        E 0 90 4a 60
        E 0 90 54 75
        E 0 90 56 60
        E 0 90 60 75
        E 0 90 62 60
        E 120 80 18 60
        E 0 80 1f 60
        E 0 80 3e 60
        E 0 80 48 60
        E 0 80 4a 60
        E 0 80 54 60
        E 0 80 56 60
        E 0 80 60 60
        E 0 80 62 60
        E 120 90 1f 60
        E 0 90 56 60
        E 0 90 62 60
        E 120 80 1f 60
        E 0 80 56 60
        E 0 80 62 60
        E 120 90 1a 60
        E 0 90 1f 60
        E 0 90 3d 60
        E 0 90 3e 60
        E 0 90 49 60
        E 0 90 4a 60
        E 0 90 55 60
        E 0 90 56 60
        E 0 90 61 60
        E 0 90 62 60
        E 120 80 1a 60
        E 0 80 1f 60
        E 0 80 3d 60
        E 0 80 3e 60
        E 0 80 49 60
        E 0 80 4a 60
        E 0 80 55 60
        E 0 80 56 60
        E 0 80 61 60
        E 0 80 62 60
        E 120 90 1f 60
        E 0 90 56 60
        E 0 90 62 60
        E 120 80 1f 60
        E 0 80 56 60
        E 0 80 62 60
        E 120 90 18 75
        E 0 90 1f 60
        E 0 90 3e 60
        E 0 90 48 75
        E 0 90 4a 60
        E 0 90 54 75
        E 0 90 56 60
        E 0 90 60 75
        E 0 90 62 60
        E 120 80 18 60
        E 0 80 1f 60
        E 0 80 3e 60
        E 0 80 48 60
        E 0 80 4a 60
        E 0 80 54 60
        E 0 80 56 60
        E 0 80 60 60
        E 0 80 62 60
        E 120 90 1f 60
        E 0 90 56 60
        E 0 90 62 60
        E 120 80 1f 60
        E 0 80 56 60
        E 0 80 62 60
        E 120 90 1a 60
        E 0 90 1f 60
        E 0 90 3d 60
        E 0 90 3e 60
        E 0 90 49 60
        E 0 90 4a 60
        E 0 90 55 60
        E 0 90 56 60
        E 0 90 61 60
        E 0 90 62 60
        E 120 80 1a 60
        E 0 80 1f 60
        E 0 80 3d 60
        E 0 80 3e 60
        E 0 80 49 60
        E 0 80 4a 60
        E 0 80 55 60
        E 0 80 56 60
        E 0 80 61 60
        E 0 80 62 60
        E 120 90 1f 60
        E 0 90 56 60
        E 0 90 62 60
        E 120 80 1f 60
        E 0 80 56 60
        E 0 80 62 60
        E 120 90 18 75
        E 0 90 1a 60
        E 0 90 1f 60
        E 0 90 3d 60
        E 0 90 3e 60
        E 0 90 49 60
        E 0 90 4a 60
        E 0 90 54 75
        E 0 90 55 60
        E 0 90 56 60
        E 0 90 60 75
        E 0 90 61 60
        E 0 90 62 60
        E 0 90 78 60
        E 0 90 79 60
        E 0 90 7a 60
        E 0 90 7b 60
        E 0 90 7c 60
        E 60 80 1f 60
        E 0 80 3e 60
        E 0 80 4a 60
        E 0 80 56 60
        E 0 80 62 60
        E 60 80 18 60
        E 0 80 1a 60
        E 0 80 3d 60
        E 0 80 49 60
        E 0 80 54 60
        E 0 80 55 60
        E 0 80 60 60
        E 0 80 61 60
        E 120 90 18 75
        E 0 90 1a 60
        E 0 90 1f 60
        E 0 90 54 75
        E 0 90 55 60
        E 0 90 56 60
        E 0 90 60 75
        E 0 90 61 60
        E 0 90 62 60
        E 60 80 1f 60
        E 0 80 56 60
        E 0 80 62 60
        E 60 80 18 60
        E 0 80 1a 60
        E 0 80 54 60
        E 0 80 55 60
        E 0 80 60 60
        E 0 80 61 60
        E 120 90 18 75
        E 0 90 1a 60
        E 0 90 1f 60
        E 0 90 3d 60
        E 0 90 3e 60
        E 0 90 49 60
        E 0 90 4a 60
        E 0 90 54 75
        E 0 90 55 60
        E 0 90 56 60
        E 0 90 60 75
        E 0 90 61 60
        E 0 90 62 60
        E 60 80 1f 60
        E 0 80 3e 60
        E 0 80 4a 60
        E 0 80 56 60
        E 0 80 62 60
        E 60 80 18 60
        E 0 80 1a 60
        E 0 80 3d 60
        E 0 80 49 60
        E 0 80 54 60
        E 0 80 55 60
        E 0 80 60 60
        E 0 80 61 60
        E 120 90 18 75
        E 0 90 1a 60
        E 0 90 1f 60
        E 0 90 54 75
        E 0 90 55 60
        E 0 90 56 60
        E 0 90 60 75
        E 0 90 61 60
        E 0 90 62 60
        E 60 80 1f 60
        E 0 80 56 60
        E 0 80 62 60
        E 60 80 18 60
        E 0 80 1a 60
        E 0 80 54 60
        E 0 80 55 60
        E 0 80 60 60
        E 0 80 61 60
        E 120 80 78 60
        E 0 80 79 60
        E 0 80 7a 60
        E 0 80 7b 60
        E 0 80 7c 60
        E 0 90 18 75
        E 0 90 26 60
        E 0 90 40 60
        E 0 90 48 75
        E 0 90 4c 60
        E 0 90 54 75
        E 0 90 58 60
        E 0 90 60 75
        E 0 90 64 60
        E 120 80 18 60
        E 0 80 26 60
        E 0 80 40 60
        E 0 80 48 60
        E 0 80 4c 60
        E 0 80 54 60
        E 0 80 58 60
        E 0 80 60 60
        E 0 80 64 60
        E 360 90 1a 60
        E 0 90 26 60
        E 0 90 3d 60
        E 0 90 40 60
        E 0 90 49 60
        E 0 90 4c 60
        E 0 90 55 60
        E 0 90 58 60
        E 0 90 61 60
        E 0 90 64 60
        E 120 80 1a 60
        E 0 80 26 60
        E 0 80 3d 60
        E 0 80 40 60
        E 0 80 49 60
        E 0 80 4c 60
        E 0 80 55 60
        E 0 80 58 60
        E 0 80 61 60
        E 0 80 64 60
        E 360 90 18 75
        E 0 90 26 60
        E 0 90 40 60
        E 0 90 48 75
        E 0 90 4c 60
        E 0 90 54 75
        E 0 90 58 60
        E 0 90 60 75
        E 0 90 64 60
        E 120 80 18 60
        E 0 80 26 60
        E 0 80 40 60
        E 0 80 48 60
        E 0 80 4c 60
        E 0 80 54 60
        E 0 80 58 60
        E 0 80 60 60
        E 0 80 64 60
        E 360 90 1a 60
        E 0 90 2a 60
        E 0 90 3d 60
        E 0 90 3f 60
        E 0 90 49 60
        E 0 90 4b 60
        E 0 90 55 60
        E 0 90 57 60
        E 0 90 61 60
        E 0 90 63 60
        E 120 80 1a 60
        E 0 80 2a 60
        E 0 80 3d 60
        E 0 80 3f 60
        E 0 80 49 60
        E 0 80 4b 60
        E 0 80 55 60
        E 0 80 57 60
        E 0 80 61 60
        E 0 80 63 60
        E 120 90 2a 60
        E 0 90 57 60
        E 0 90 63 60
        E 120 80 2a 60
        E 0 80 57 60
        E 0 80 63 60
        E 120 90 18 75
        E 0 90 2a 60
        E 0 90 3f 60
        E 0 90 48 75
        E 0 90 4b 60
        E 0 90 54 75
        E 0 90 57 60
        E 0 90 60 75
        E 0 90 63 60
        E 0 90 74 60
        E 120 80 18 60
        E 0 80 2a 60
        E 0 80 3f 60
        E 0 80 48 60
        E 0 80 4b 60
        E 0 80 54 60
        E 0 80 57 60
        E 0 80 60 60
        E 0 80 63 60
        E 120 90 2a 60
        E 0 90 57 60
        E 0 90 63 60
        E 120 80 2a 60
        E 0 80 57 60
        E 0 80 63 60
        E 120 90 1a 60
        E 0 90 2a 60
        E 0 90 3d 60
        E 0 90 3f 60
        E 0 90 49 60
        E 0 90 4b 60
        E 0 90 55 60
        E 0 90 57 60
        E 0 90 61 60
        E 0 90 63 60
        E 120 80 1a 60
        E 0 80 2a 60
        E 0 80 3d 60
        E 0 80 3f 60
        E 0 80 49 60
        E 0 80 4b 60
        E 0 80 55 60
        E 0 80 57 60
        E 0 80 61 60
        E 0 80 63 60
        E 120 90 2a 60
        E 0 90 57 60
        E 0 90 63 60
        E 120 80 2a 60
        E 0 80 57 60
        E 0 80 63 60
        E 120 90 18 75
        E 0 90 26 60
        E 0 90 40 60
        E 0 90 48 75
        E 0 90 4c 60
        E 0 90 54 75
        E 0 90 58 60
        E 0 90 60 75
        E 0 90 64 60
        E 120 80 18 60
        E 0 80 26 60
        E 0 80 40 60
        E 0 80 48 60
        E 0 80 4c 60
        E 0 80 54 60
        E 0 80 58 60
        E 0 80 60 60
        E 0 80 64 60
        E 120 90 26 60
        E 0 90 58 60
        E 0 90 64 60
        E 120 80 26 60
        E 0 80 58 60
        E 0 80 64 60
        E 120 90 1a 60
        E 0 90 26 60
        E 0 90 3d 60
        E 0 90 40 60
        E 0 90 49 60
        E 0 90 4c 60
        E 0 90 55 60
        E 0 90 58 60
        E 0 90 61 60
        E 0 90 64 60
        E 120 80 1a 60
        E 0 80 26 60
        E 0 80 3d 60
        E 0 80 40 60
        E 0 80 49 60
        E 0 80 4c 60
        E 0 80 55 60
        E 0 80 58 60
        E 0 80 61 60
        E 0 80 64 60
        E 120 90 18 75
        E 0 90 2a 60
        E 0 90 54 75
        E 0 90 57 60
        E 0 90 60 75
        E 0 90 63 60
        E 120 80 18 60
        E 0 80 2a 60
        E 0 80 54 60
        E 0 80 57 60
        E 0 80 60 60
        E 0 80 63 60
        E 120 80 74 60
        E 0 90 18 75
        E 0 90 2a 60
        E 0 90 3f 60
        E 0 90 48 75
        E 0 90 4b 60
        E 0 90 54 75
        E 0 90 57 60
        E 0 90 60 75
        E 0 90 63 60
        E 120 80 18 60
        E 0 80 2a 60
        E 0 80 3f 60
        E 0 80 48 60
        E 0 80 4b 60
        E 0 80 54 60
        E 0 80 57 60
        E 0 80 60 60
        E 0 80 63 60
        E 120 90 2a 60
        E 0 90 57 60
        E 0 90 63 60
        E 120 80 2a 60
        E 0 80 57 60
        E 0 80 63 60
        E 120 90 1a 60
        E 0 90 2a 60
        E 0 90 3d 60
        E 0 90 3f 60
        E 0 90 49 60
        E 0 90 4b 60
        E 0 90 55 60
        E 0 90 57 60
        E 0 90 61 60
        E 0 90 63 60
        E 120 80 1a 60
        E 0 80 2a 60
        E 0 80 3d 60
        E 0 80 3f 60
        E 0 80 49 60
        E 0 80 4b 60
        E 0 80 55 60
        E 0 80 57 60
        E 0 80 61 60
        E 0 80 63 60
        E 120 90 2a 60
        E 0 90 57 60
        E 0 90 63 60
        E 120 80 2a 60
        E 0 80 57 60
        E 0 80 63 60
        E 120 90 18 75
        E 0 90 2a 60
        E 0 90 3f 60
        E 0 90 48 75
        E 0 90 4b 60
        E 0 90 54 75
        E 0 90 57 60
        E 0 90 60 75
        E 0 90 63 60
        E 120 80 18 60
        E 0 80 2a 60
        E 0 80 3f 60
        E 0 80 48 60
        E 0 80 4b 60
        E 0 80 54 60
        E 0 80 57 60
        E 0 80 60 60
        E 0 80 63 60
        E 120 90 18 75
        E 0 90 2a 60
        E 0 90 54 75
        E 0 90 57 60
        E 0 90 60 75
        E 0 90 63 60
        E 120 80 18 60
        E 0 80 2a 60
        E 0 80 54 60
        E 0 80 57 60
        E 0 80 60 60
        E 0 80 63 60
        E 120 90 1a 60
        E 0 90 26 60
        E 0 90 3d 60
        E 0 90 40 60
        E 0 90 49 60
        E 0 90 4c 60
        E 0 90 55 60
        E 0 90 58 60
        E 0 90 61 60
        E 0 90 64 60
        E 120 80 1a 60
        E 0 80 26 60
        E 0 80 3d 60
        E 0 80 40 60
        E 0 80 49 60
        E 0 80 4c 60
        E 0 80 55 60
        E 0 80 58 60
        E 0 80 61 60
        E 0 80 64 60
        E 120 90 2a 60
        E 0 90 57 60
        E 0 90 63 60
        E 120 80 2a 60
        E 0 80 57 60
        E 0 80 63 60
        E 120 90 18 75
        E 0 90 26 60
        E 0 90 40 60
        E 0 90 48 75
        E 0 90 4c 60
        E 0 90 54 75
        E 0 90 58 60
        E 0 90 60 75
        E 0 90 64 60
        E 120 80 18 60
        E 0 80 26 60
        E 0 80 40 60
        E 0 80 48 60
        E 0 80 4c 60
        E 0 80 54 60
        E 0 80 58 60
        E 0 80 60 60
        E 0 80 64 60
        E 120 90 1e 60
        E 0 90 2a 60
        E 0 90 56 60
        E 0 90 57 60
        E 0 90 62 60
        E 0 90 63 60
        E 120 80 1e 60
        E 0 80 2a 60
        E 0 80 56 60
        E 0 80 57 60
        E 0 80 62 60
        E 0 80 63 60
        E 120 90 22 60
        E 0 90 26 60
        E 0 90 57 60
        E 0 90 58 60
        E 0 90 63 60
        E 0 90 64 60
        E 120 80 22 60
        E 0 80 26 60
        E 0 80 57 60
        E 0 80 58 60
        E 0 80 63 60
        E 0 80 64 60
        E 120 90 18 75
        E 0 90 22 60
        E 0 90 26 60
        E 0 90 3e 60
        E 0 90 40 60
        E 0 90 48 60
        E 0 90 4a 60
        E 0 90 4c 60
        E 0 90 54 75
        E 0 90 56 60
        E 0 90 58 60
        E 0 90 60 75
        E 0 90 62 60
        E 0 90 64 60
        E 120 80 18 60
        E 0 80 22 60
        E 0 80 26 60
        E 0 80 3e 60
        E 0 80 40 60
        E 0 80 48 60
        E 0 80 4a 60
        E 0 80 4c 60
        E 0 80 54 60
        E 0 80 56 60
        E 0 80 58 60
        E 0 80 60 60
        E 0 80 62 60
        E 0 80 64 60
        E 2040 90 2a 60
        E 0 90 3f 60
        E 0 90 4b 60
        E 0 90 57 60
        E 0 90 63 60
        E 0 90 78 60
        E 0 90 79 60
        E 0 90 7a 60
        E 0 90 7b 60
        E 0 90 7c 60
        E 120 80 2a 60
        E 0 80 3f 60
        E 0 80 4b 60
        E 0 80 57 60
        E 0 80 63 60
        E 0 90 2a 60
        E 0 90 63 60
        E 120 80 2a 60
        E 0 80 63 60
        E 120 90 2a 60
        E 0 90 63 60
        E 120 80 2a 60
        E 0 80 63 60
        E 0 90 2a 60
        E 0 90 3f 60
        E 0 90 4b 60
        E 0 90 57 60
        E 0 90 63 60
        E 120 80 2a 60
        E 0 80 3f 60
        E 0 80 4b 60
        E 0 80 57 60
        E 0 80 63 60
        E 120 90 2a 60
        E 0 90 57 60
        E 0 90 63 60
        E 120 80 2a 60
        E 0 80 57 60
        E 0 80 63 60
        E 120 90 18 75
        E 0 90 26 60
        E 0 90 40 60
        E 0 90 48 75
        E 0 90 4c 60
        E 0 90 54 75
        E 0 90 58 60
        E 0 90 60 75
        E 0 90 64 60
        E 1 80 78 60
        E 0 80 79 60
        E 0 80 7a 60
        E 0 80 7b 60
        E 0 80 7c 60
        E 119 80 18 60
        E 0 80 26 60
        E 0 80 40 60
        E 0 80 48 60
        E 0 80 4c 60
        E 0 80 54 60
        E 0 80 58 60
        E 0 80 60 60
        E 0 80 64 60
        E 120 90 1f 60
        E 0 90 56 60
        E 0 90 62 60
        E 120 80 1f 60
        E 0 80 56 60
        E 0 80 62 60
        E 120 90 1a 60
        E 0 90 1f 60
        E 0 90 3d 60
        E 0 90 3e 60
        E 0 90 49 60
        E 0 90 4a 60
        E 0 90 55 60
        E 0 90 56 60
        E 0 90 61 60
        E 0 90 62 60
        E 120 80 1a 60
        E 0 80 1f 60
        E 0 80 3d 60
        E 0 80 3e 60
        E 0 80 49 60
        E 0 80 4a 60
        E 0 80 55 60
        E 0 80 56 60
        E 0 80 61 60
        E 0 80 62 60
        E 120 90 1f 60
        E 0 90 56 60
        E 0 90 62 60
        E 120 80 1f 60
        E 0 80 56 60
        E 0 80 62 60
        E 120 90 18 75
        E 0 90 1f 60
        E 0 90 3e 60
        E 0 90 48 75
        E 0 90 4a 60
        E 0 90 54 75
        E 0 90 56 60
        E 0 90 60 75
        E 0 90 62 60
        E 120 80 18 60
        E 0 80 1f 60
        E 0 80 3e 60
        E 0 80 48 60
        E 0 80 4a 60
        E 0 80 54 60
        E 0 80 56 60
        E 0 80 60 60
        E 0 80 62 60
        E 120 90 1f 60
        E 0 90 56 60
        E 0 90 62 60
        E 120 80 1f 60
        E 0 80 56 60
        E 0 80 62 60
        E 120 90 1a 60
        E 0 90 1f 60
        E 0 90 3d 60
        E 0 90 3e 60
        E 0 90 49 60
        E 0 90 4a 60
        E 0 90 55 60
        E 0 90 56 60
        E 0 90 61 60
        E 0 90 62 60
        E 120 80 1a 60
        E 0 80 1f 60
        E 0 80 3d 60
        E 0 80 3e 60
        E 0 80 49 60
        E 0 80 4a 60
        E 0 80 55 60
        E 0 80 56 60
        E 0 80 61 60
        E 0 80 62 60
        E 120 90 1f 60
        E 0 90 56 60
        E 0 90 62 60
        E 120 80 1f 60
        E 0 80 56 60
        E 0 80 62 60
        E 120 90 18 75
        E 0 90 1f 60
        E 0 90 3e 60
        E 0 90 48 75
        E 0 90 4a 60
        E 0 90 54 75
        E 0 90 56 60
        E 0 90 60 75
        E 0 90 62 60
        E 120 80 18 60
        E 0 80 1f 60
        E 0 80 3e 60
        E 0 80 48 60
        E 0 80 4a 60
        E 0 80 54 60
        E 0 80 56 60
        E 0 80 60 60
        E 0 80 62 60
        E 120 90 1f 60
        E 0 90 56 60
        E 0 90 62 60
        E 120 80 1f 60
        E 0 80 56 60
        E 0 80 62 60
        E 120 90 1a 60
        E 0 90 1f 60
        E 0 90 3d 60
        E 0 90 3e 60
        E 0 90 49 60
        E 0 90 4a 60
        E 0 90 55 60
        E 0 90 56 60
        E 0 90 61 60
        E 0 90 62 60
        E 120 80 1a 60
        E 0 80 1f 60
        E 0 80 3d 60
        E 0 80 3e 60
        E 0 80 49 60
        E 0 80 4a 60
        E 0 80 55 60
        E 0 80 56 60
        E 0 80 61 60
        E 0 80 62 60
        E 120 90 1f 60
        E 0 90 56 60
        E 0 90 62 60
        E 120 80 1f 60
        E 0 80 56 60
        E 0 80 62 60
        E 120 90 18 75
        E 0 90 1f 60
        E 0 90 3e 60
        E 0 90 48 75
        E 0 90 4a 60
        E 0 90 54 75
        E 0 90 56 60
        E 0 90 60 75
        E 0 90 62 60
        E 120 80 18 60
        E 0 80 1f 60
        E 0 80 3e 60
        E 0 80 48 60
        E 0 80 4a 60
        E 0 80 54 60
        E 0 80 56 60
        E 0 80 60 60
        E 0 80 62 60
        E 120 90 1f 60
        E 0 90 56 60
        E 0 90 62 60
        E 120 80 1f 60
        E 0 80 56 60
        E 0 80 62 60
        E 120 90 1a 60
        E 0 90 1f 60
        E 0 90 3d 60
        E 0 90 3e 60
        E 0 90 49 60
        E 0 90 4a 60
        E 0 90 55 60
        E 0 90 56 60
        E 0 90 61 60
        E 0 90 62 60
        E 120 80 1a 60
        E 0 80 1f 60
        E 0 80 3d 60
        E 0 80 3e 60
        E 0 80 49 60
        E 0 80 4a 60
        E 0 80 55 60
        E 0 80 56 60
        E 0 80 61 60
        E 0 80 62 60
        E 120 90 1f 60
        E 0 90 56 60
        E 0 90 62 60
        E 120 80 1f 60
        E 0 80 56 60
        E 0 80 62 60
        E 120 90 18 75
        E 0 90 1f 60
        E 0 90 3e 60
        E 0 90 48 75
        E 0 90 4a 60
        E 0 90 54 75
        E 0 90 56 60
        E 0 90 60 75
        E 0 90 62 60
        E 120 80 18 60
        E 0 80 1f 60
        E 0 80 3e 60
        E 0 80 48 60
        E 0 80 4a 60
        E 0 80 54 60
        E 0 80 56 60
        E 0 80 60 60
        E 0 80 62 60
        E 120 90 1f 60
        E 0 90 56 60
        E 0 90 62 60
        E 120 80 1f 60
        E 0 80 56 60
        E 0 80 62 60
        E 120 90 1a 60
        E 0 90 1f 60
        E 0 90 3d 60
        E 0 90 3e 60
        E 0 90 49 60
        E 0 90 4a 60
        E 0 90 55 60
        E 0 90 56 60
        E 0 90 61 60
        E 0 90 62 60
        E 120 80 1a 60
        E 0 80 1f 60
        E 0 80 3d 60
        E 0 80 3e 60
        E 0 80 49 60
        E 0 80 4a 60
        E 0 80 55 60
        E 0 80 56 60
        E 0 80 61 60
        E 0 80 62 60
        E 120 90 1f 60
        E 0 90 56 60
        E 0 90 62 60
        E 120 80 1f 60
        E 0 80 56 60
        E 0 80 62 60
        E 120 90 18 75
        E 0 90 1f 60
        E 0 90 3e 60
        E 0 90 48 75
        E 0 90 4a 60
        E 0 90 54 75
        E 0 90 56 60
        E 0 90 60 75
        E 0 90 62 60
        E 120 80 18 60
        E 0 80 1f 60
        E 0 80 3e 60
        E 0 80 48 60
        E 0 80 4a 60
        E 0 80 54 60
        E 0 80 56 60
        E 0 80 60 60
        E 0 80 62 60
        E 120 90 1f 60
        E 0 90 56 60
        E 0 90 62 60
        E 120 80 1f 60
        E 0 80 56 60
        E 0 80 62 60
        E 120 90 1a 60
        E 0 90 1f 60
        E 0 90 3d 60
        E 0 90 3e 60
        E 0 90 49 60
        E 0 90 4a 60
        E 0 90 55 60
        E 0 90 56 60
        E 0 90 61 60
        E 0 90 62 60
        E 120 80 1a 60
        E 0 80 1f 60
        E 0 80 3d 60
        E 0 80 3e 60
        E 0 80 49 60
        E 0 80 4a 60
        E 0 80 55 60
        E 0 80 56 60
        E 0 80 61 60
        E 0 80 62 60
        E 120 90 1f 60
        E 0 90 56 60
        E 0 90 62 60
        E 120 80 1f 60
        E 0 80 56 60
        E 0 80 62 60
        E 120 90 18 75
        E 0 90 1f 60
        E 0 90 3e 60
        E 0 90 48 75
        E 0 90 4a 60
        E 0 90 54 75
        E 0 90 56 60
        E 0 90 60 75
        E 0 90 62 60
        E 120 80 18 60
        E 0 80 1f 60
        E 0 80 3e 60
        E 0 80 48 60
        E 0 80 4a 60
        E 0 80 54 60
        E 0 80 56 60
        E 0 80 60 60
        E 0 80 62 60
        E 120 90 1f 60
        E 0 90 56 60
        E 0 90 62 60
        E 120 80 1f 60
        E 0 80 56 60
        E 0 80 62 60
        E 120 90 1a 60
        E 0 90 1f 60
        E 0 90 3d 60
        E 0 90 3e 60
        E 0 90 49 60
        E 0 90 4a 60
        E 0 90 55 60
        E 0 90 56 60
        E 0 90 61 60
        E 0 90 62 60
        E 120 80 1a 60
        E 0 80 1f 60
        E 0 80 3d 60
        E 0 80 3e 60
        E 0 80 49 60
        E 0 80 4a 60
        E 0 80 55 60
        E 0 80 56 60
        E 0 80 61 60
        E 0 80 62 60
        E 240 90 2a 60
        E 0 90 63 60
        E 60 80 2a 60
        E 0 80 63 60
        E 60 90 2a 60
        E 0 90 3f 60
        E 0 90 4b 60
        E 0 90 57 60
        E 0 90 63 60
        E 0 90 78 60
        E 0 90 79 60
        E 0 90 7a 60
        E 0 90 7b 60
        E 0 90 7c 60
        E 60 80 2a 60
        E 0 80 3f 60
        E 0 80 4b 60
        E 0 80 57 60
        E 0 80 63 60
        E 60 90 26 60
        E 0 90 64 60
        E 60 80 26 60
        E 0 80 64 60
        E 60 90 26 60
        E 0 90 58 60
        E 0 90 64 60
        E 60 80 26 60
        E 0 80 58 60
        E 0 80 64 60
        E 180 90 18 75
        E 0 90 26 60
        E 0 90 40 60
        E 0 90 48 75
        E 0 90 4c 60
        E 0 90 54 75
        E 0 90 58 60
        E 0 90 60 75
        E 0 90 64 60
        E 60 80 26 60
        E 0 80 40 60
        E 0 80 4c 60
        E 0 80 58 60
        E 0 80 64 60
        E 60 80 18 60
        E 0 80 48 60
        E 0 80 54 60
        E 0 80 60 60
        E 120 90 18 75
        E 0 90 26 60
        E 0 90 54 75
        E 0 90 58 60
        E 0 90 60 75
        E 0 90 64 60
        E 60 80 26 60
        E 0 80 58 60
        E 0 80 64 60
        E 60 80 18 60
        E 0 80 54 60
        E 0 80 60 60
        E 120 80 78 60
        E 0 80 79 60
        E 0 80 7a 60
        E 0 80 7b 60
        E 0 80 7c 60
        E 0 90 18 75
        E 0 90 26 60
        E 0 90 40 60
        E 0 90 48 75
        E 0 90 4c 60
        E 0 90 54 75
        E 0 90 58 60
        E 0 90 60 75
        E 0 90 64 60
        E 120 80 18 60
        E 0 80 26 60
        E 0 80 40 60
        E 0 80 48 60
        E 0 80 4c 60
        E 0 80 54 60
        E 0 80 58 60
        E 0 80 60 60
        E 0 80 64 60
        E 120 90 1f 60
        E 0 90 56 60
        E 0 90 62 60
        E 120 80 1f 60
        E 0 80 56 60
        E 0 80 62 60
        E 120 90 1a 60
        E 0 90 1f 60
        E 0 90 3d 60
        E 0 90 3e 60
        E 0 90 49 60
        E 0 90 4a 60
        E 0 90 55 60
        E 0 90 56 60
        E 0 90 61 60
        E 0 90 62 60
        E 120 80 1a 60
        E 0 80 1f 60
        E 0 80 3d 60
        E 0 80 3e 60
        E 0 80 49 60
        E 0 80 4a 60
        E 0 80 55 60
        E 0 80 56 60
        E 0 80 61 60
        E 0 80 62 60
        E 120 90 1f 60
        E 0 90 56 60
        E 0 90 62 60
        E 120 80 1f 60
        E 0 80 56 60
        E 0 80 62 60
        E 120 90 18 75
        E 0 90 1f 60
        E 0 90 3e 60
        E 0 90 48 75
        E 0 90 4a 60
        E 0 90 54 75
        E 0 90 56 60
        E 0 90 60 75
        E 0 90 62 60
        E 120 80 18 60
        E 0 80 1f 60
        E 0 80 3e 60
        E 0 80 48 60
        E 0 80 4a 60
        E 0 80 54 60
        E 0 80 56 60
        E 0 80 60 60
        E 0 80 62 60
        E 120 90 1f 60
        E 0 90 56 60
        E 0 90 62 60
        E 120 80 1f 60
        E 0 80 56 60
        E 0 80 62 60
        E 120 90 1a 60
        E 0 90 1f 60
        E 0 90 3d 60
        E 0 90 3e 60
        E 0 90 49 60
        E 0 90 4a 60
        E 0 90 55 60
        E 0 90 56 60
        E 0 90 61 60
        E 0 90 62 60
        E 120 80 1a 60
        E 0 80 1f 60
        E 0 80 3d 60
        E 0 80 3e 60
        E 0 80 49 60
        E 0 80 4a 60
        E 0 80 55 60
        E 0 80 56 60
        E 0 80 61 60
        E 0 80 62 60
        E 120 90 1f 60
        E 0 90 56 60
        E 0 90 62 60
        E 120 80 1f 60
        E 0 80 56 60
        E 0 80 62 60
        E 120 90 18 75
        E 0 90 1f 60
        E 0 90 3e 60
        E 0 90 48 75
        E 0 90 4a 60
        E 0 90 54 75
        E 0 90 56 60
        E 0 90 60 75
        E 0 90 62 60
        E 0 90 74 60
        E 120 80 18 60
        E 0 80 1f 60
        E 0 80 3e 60
        E 0 80 48 60
        E 0 80 4a 60
        E 0 80 54 60
        E 0 80 56 60
        E 0 80 60 60
        E 0 80 62 60
        E 120 90 1f 60
        E 0 90 56 60
        E 0 90 62 60
        E 120 80 1f 60
        E 0 80 56 60
        E 0 80 62 60
        E 120 90 1a 60
        E 0 90 1f 60
        E 0 90 3d 60
        E 0 90 3e 60
        E 0 90 49 60
        E 0 90 4a 60
        E 0 90 55 60
        E 0 90 56 60
        E 0 90 61 60
        E 0 90 62 60
        E 120 80 1a 60
        E 0 80 1f 60
        E 0 80 3d 60
        E 0 80 3e 60
        E 0 80 49 60
        E 0 80 4a 60
        E 0 80 55 60
        E 0 80 56 60
        E 0 80 61 60
        E 0 80 62 60
        E 120 90 1f 60
        E 0 90 56 60
        E 0 90 62 60
        E 120 80 1f 60
        E 0 80 56 60
        E 0 80 62 60
        E 120 90 18 75
        E 0 90 1f 60
        E 0 90 3e 60
        E 0 90 48 75
        E 0 90 4a 60
        E 0 90 54 75
        E 0 90 56 60
        E 0 90 60 75
        E 0 90 62 60
        E 120 80 18 60
        E 0 80 1f 60
        E 0 80 3e 60
        E 0 80 48 60
        E 0 80 4a 60
        E 0 80 54 60
        E 0 80 56 60
        E 0 80 60 60
        E 0 80 62 60
        E 120 90 1f 60
        E 0 90 56 60
        E 0 90 62 60
        E 120 80 1f 60
        E 0 80 56 60
        E 0 80 62 60
        E 120 90 2a 75
        E 0 90 3f 75
        E 0 90 4b 75
        E 0 90 57 75
        E 0 90 63 75
        E 60 80 2a 60
        E 0 80 3f 60
        E 0 80 4b 60
        E 0 80 57 60
        E 0 80 63 60
        E 60 90 2a 75
        E 0 90 63 75
        E 60 80 2a 60
        E 0 80 63 60
        E 180 90 2a 75
        E 0 90 63 75
        E 60 80 2a 60
        E 0 80 63 60
        E 60 80 74 60
        E 0 90 2a 75
        E 0 90 3f 75
        E 0 90 4b 75
        E 0 90 57 75
        E 0 90 63 75
        E 60 80 2a 60
        E 0 80 3f 60
        E 0 80 4b 60
        E 0 80 57 60
        E 0 80 63 60
        E 180 90 2a 75
        E 0 90 57 75
        E 0 90 63 75
        E 60 80 2a 60
        E 0 80 57 60
        E 0 80 63 60
        E 180 90 2a 75
        E 0 90 3f 75
        E 0 90 4b 75
        E 0 90 57 75
        E 0 90 63 75
        E 60 80 2a 60
        E 0 80 3f 60
        E 0 80 4b 60
        E 0 80 57 60
        E 0 80 63 60
        E 180 90 2a 75
        E 0 90 57 75
        E 0 90 63 75
        E 60 80 2a 60
        E 0 80 57 60
        E 0 80 63 60
        E 180 90 2a 75
        E 0 90 3f 75
        E 0 90 4b 75
        E 0 90 57 75
        E 0 90 63 75
        E 0 90 78 60
        E 0 90 79 60
        E 0 90 7a 60
        E 0 90 7b 60
        E 0 90 7c 60
        E 60 80 2a 60
        E 0 80 3f 60
        E 0 80 4b 60
        E 0 80 57 60
        E 0 80 63 60
        E 180 90 26 75
        E 0 90 58 75
        E 0 90 64 75
        E 60 80 26 60
        E 0 80 58 60
        E 0 80 64 60
        E 180 90 2a 75
        E 0 90 3f 75
        E 0 90 4b 75
        E 0 90 57 75
        E 0 90 63 75
        E 60 80 2a 60
        E 0 80 3f 60
        E 0 80 4b 60
        E 0 80 57 60
        E 0 80 63 60
        E 60 90 2a 75
        E 0 90 63 75
        E 60 80 2a 60
        E 0 80 63 60
        E 180 90 2a 75
        E 0 90 63 75
        E 60 80 2a 60
        E 0 80 63 60
        E 60 90 18 75
        E 0 90 2a 75
        E 0 90 3f 75
        E 0 90 48 75
        E 0 90 4b 75
        E 0 90 54 75
        E 0 90 57 75
        E 0 90 60 75
        E 0 90 63 75
        E 1 80 78 60
        E 0 80 79 60
        E 0 80 7a 60
        E 0 80 7b 60
        E 0 80 7c 60
        E 59 80 18 60
        E 0 80 2a 60
        E 0 80 3f 60
        E 0 80 48 60
        E 0 80 4b 60
        E 0 80 54 60
        E 0 80 57 60
        E 0 80 60 60
        E 0 80 63 60
        E 180 90 2a 75
        E 0 90 57 75
        E 0 90 63 75
        E 60 80 2a 60
        E 0 80 57 60
        E 0 80 63 60
        E 180 90 2a 75
        E 0 90 3f 75
        E 0 90 4b 75
        E 0 90 57 75
        E 0 90 63 75
        E 60 80 2a 60
        E 0 80 3f 60
        E 0 80 4b 60
        E 0 80 57 60
        E 0 80 63 60
        E 180 90 1f 75
        E 0 90 56 75
        E 0 90 62 75
        E 60 80 1f 60
        E 0 80 56 60
        E 0 80 62 60
        E 180 90 2a 75
        E 0 90 3f 75
        E 0 90 4b 75
        E 0 90 57 75
        E 0 90 63 75
        E 60 80 2a 60
        E 0 80 3f 60
        E 0 80 4b 60
        E 0 80 57 60
        E 0 80 63 60
        E 180 90 2a 75
        E 0 90 57 75
        E 0 90 63 75
        E 60 80 2a 60
        E 0 80 57 60
        E 0 80 63 60
        E 180 90 2a 75
        E 0 90 3f 75
        E 0 90 4b 75
        E 0 90 57 75
        E 0 90 63 75
        E 60 80 2a 60
        E 0 80 3f 60
        E 0 80 4b 60
        E 0 80 57 60
        E 0 80 63 60
        E 180 90 1f 75
        E 0 90 56 75
        E 0 90 62 75
        E 60 80 1f 60
        E 0 80 56 60
        E 0 80 62 60
        E 180 90 18 75
        E 0 90 2a 75
        E 0 90 3f 75
        E 0 90 48 75
        E 0 90 4b 75
        E 0 90 54 75
        E 0 90 57 75
        E 0 90 60 75
        E 0 90 63 75
        E 60 80 18 60
        E 0 80 2a 60
        E 0 80 3f 60
        E 0 80 48 60
        E 0 80 4b 60
        E 0 80 54 60
        E 0 80 57 60
        E 0 80 60 60
        E 0 80 63 60
        E 180 90 2a 75
        E 0 90 57 75
        E 0 90 63 75
        E 60 80 2a 60
        E 0 80 57 60
        E 0 80 63 60
        E 180 90 2a 75
        E 0 90 3f 75
        E 0 90 4b 75
        E 0 90 57 75
        E 0 90 63 75
        E 60 80 2a 60
        E 0 80 3f 60
        E 0 80 4b 60
        E 0 80 57 60
        E 0 80 63 60
        E 180 90 1f 75
        E 0 90 56 75
        E 0 90 62 75
        E 60 80 1f 60
        E 0 80 56 60
        E 0 80 62 60
        E 180 90 2a 75
        E 0 90 3f 75
        E 0 90 4b 75
        E 0 90 57 75
        E 0 90 63 75
        E 30 80 2a 60
        E 0 80 3f 60
        E 0 80 4b 60
        E 0 80 57 60
        E 0 80 63 60
        E 0 90 2b 75
        E 0 90 63 75
        E 30 80 2b 60
        E 0 80 63 60
        E 0 90 2a 75
        E 0 90 63 75
        E 30 80 2a 60
        E 0 80 63 60
        E 0 90 2b 75
        E 0 90 63 75
        E 30 80 2b 60
        E 0 80 63 60
        E 0 90 2a 75
        E 0 90 63 75
        E 30 80 2a 60
        E 0 80 63 60
        E 0 90 2b 75
        E 0 90 63 75
        E 30 80 2b 60
        E 0 80 63 60
        E 0 90 2a 75
        E 0 90 63 75
        E 30 80 2a 60
        E 0 80 63 60
        E 0 90 2b 75
        E 0 90 63 75
        E 30 80 2b 60
        E 0 80 63 60
        E 0 90 2a 75
        E 0 90 57 75
        E 0 90 63 75
        E 30 80 2a 60
        E 0 80 57 60
        E 0 80 63 60
        E 0 90 2b 75
        E 0 90 63 75
        E 30 80 2b 60
        E 0 80 63 60
        E 0 90 2a 75
        E 0 90 63 75
        E 30 80 2a 60
        E 0 80 63 60
        E 0 90 2b 75
        E 0 90 63 75
        E 30 80 2b 60
        E 0 80 63 60
        E 0 90 2a 75
        E 0 90 63 75
        E 30 80 2a 60
        E 0 80 63 60
        E 0 90 2b 75
        E 0 90 63 75
        E 30 80 2b 60
        E 0 80 63 60
        E 0 90 2a 75
        E 0 90 63 75
        E 30 80 2a 60
        E 0 80 63 60
        E 0 90 2b 75
        E 0 90 63 75
        E 30 80 2b 60
        E 0 80 63 60
        E 0 90 2a 75
        E 0 90 3f 75
        E 0 90 4b 75
        E 0 90 57 75
        E 0 90 63 75
        E 30 80 2a 60
        E 0 80 3f 60
        E 0 80 4b 60
        E 0 80 57 60
        E 0 80 63 60
        E 0 90 2b 75
        E 0 90 63 75
        E 30 80 2b 60
        E 0 80 63 60
        E 0 90 2a 75
        E 0 90 63 75
        E 30 80 2a 60
        E 0 80 63 60
        E 0 90 2b 75
        E 0 90 63 75
        E 30 80 2b 60
        E 0 80 63 60
        E 0 90 2a 75
        E 0 90 63 75
        E 30 80 2a 60
        E 0 80 63 60
        E 0 90 2b 75
        E 0 90 63 75
        E 30 80 2b 60
        E 0 80 63 60
        E 0 90 2a 75
        E 0 90 63 75
        E 30 80 2a 60
        E 0 80 63 60
        E 0 90 2b 75
        E 0 90 63 75
        E 30 80 2b 60
        E 0 80 63 60
        E 0 90 2a 75
        E 0 90 57 75
        E 0 90 63 75
        E 30 80 2a 60
        E 0 80 57 60
        E 0 80 63 60
        E 0 90 2b 75
        E 0 90 63 75
        E 30 80 2b 60
        E 0 80 63 60
        E 0 90 2a 75
        E 0 90 63 75
        E 30 80 2a 60
        E 0 80 63 60
        E 30 90 2b 75
        E 0 90 63 75
        E 30 80 2b 60
        E 0 80 63 60
        E 930 90 1f 60
        E 0 90 62 60
        E 120 80 1f 60
        E 0 80 62 60
        E 0 90 1f 60
        E 0 90 3e 60
        E 0 90 4a 60
        E 0 90 56 60
        E 0 90 62 60
        E 120 80 1f 60
        E 0 80 3e 60
        E 0 80 4a 60
        E 0 80 56 60
        E 0 80 62 60
        E 120 90 1f 60
        E 0 90 56 60
        E 0 90 62 60
        E 120 80 1f 60
        E 0 80 56 60
        E 0 80 62 60
        E 120 90 2a 60
        E 0 90 3f 60
        E 0 90 4b 60
        E 0 90 57 60
        E 0 90 63 60
        E 120 80 2a 60
        E 0 80 3f 60
        E 0 80 4b 60
        E 0 80 57 60
        E 0 80 63 60
        E 120 90 2a 60
        E 0 90 57 60
        E 0 90 63 60
        E 120 80 2a 60
        E 0 80 57 60
        E 0 80 63 60
        E 120 90 18 75
        E 0 90 26 60
        E 0 90 40 60
        E 0 90 48 75
        E 0 90 4c 60
        E 0 90 54 75
        E 0 90 58 60
        E 0 90 60 75
        E 0 90 64 60
        E 120 80 18 60
        E 0 80 26 60
        E 0 80 40 60
        E 0 80 48 60
        E 0 80 4c 60
        E 0 80 54 60
        E 0 80 58 60
        E 0 80 60 60
        E 0 80 64 60
        E 120 90 1f 60
        E 0 90 56 60
        E 0 90 62 60
        E 120 80 1f 60
        E 0 80 56 60
        E 0 80 62 60
        E 120 90 1a 60
        E 0 90 1f 60
        E 0 90 3d 60
        E 0 90 3e 60
        E 0 90 49 60
        E 0 90 4a 60
        E 0 90 55 60
        E 0 90 56 60
        E 0 90 61 60
        E 0 90 62 60
        E 120 80 1a 60
        E 0 80 1f 60
        E 0 80 3d 60
        E 0 80 3e 60
        E 0 80 49 60
        E 0 80 4a 60
        E 0 80 55 60
        E 0 80 56 60
        E 0 80 61 60
        E 0 80 62 60
        E 120 90 1f 60
        E 0 90 56 60
        E 0 90 62 60
        E 120 80 1f 60
        E 0 80 56 60
        E 0 80 62 60
        E 120 90 18 75
        E 0 90 1f 60
        E 0 90 3e 60
        E 0 90 48 75
        E 0 90 4a 60
        E 0 90 54 75
        E 0 90 56 60
        E 0 90 60 75
        E 0 90 62 60
        E 120 80 18 60
        E 0 80 1f 60
        E 0 80 3e 60
        E 0 80 48 60
        E 0 80 4a 60
        E 0 80 54 60
        E 0 80 56 60
        E 0 80 60 60
        E 0 80 62 60
        E 120 90 1f 60
        E 0 90 56 60
        E 0 90 62 60
        E 120 80 1f 60
        E 0 80 56 60
        E 0 80 62 60
        E 120 90 1a 60
        E 0 90 1f 60
        E 0 90 3d 60
        E 0 90 3e 60
        E 0 90 49 60
        E 0 90 4a 60
        E 0 90 55 60
        E 0 90 56 60
        E 0 90 61 60
        E 0 90 62 60
        E 120 80 1a 60
        E 0 80 1f 60
        E 0 80 3d 60
        E 0 80 3e 60
        E 0 80 49 60
        E 0 80 4a 60
        E 0 80 55 60
        E 0 80 56 60
        E 0 80 61 60
        E 0 80 62 60
        E 120 90 1f 60
        E 0 90 56 60
        E 0 90 62 60
        E 120 80 1f 60
        E 0 80 56 60
        E 0 80 62 60
        E 120 90 18 75
        E 0 90 1f 60
        E 0 90 3e 60
        E 0 90 48 75
        E 0 90 4a 60
        E 0 90 54 75
        E 0 90 56 60
        E 0 90 60 75
        E 0 90 62 60
        E 120 80 18 60
        E 0 80 1f 60
        E 0 80 3e 60
        E 0 80 48 60
        E 0 80 4a 60
        E 0 80 54 60
        E 0 80 56 60
        E 0 80 60 60
        E 0 80 62 60
        E 120 90 1f 60
        E 0 90 56 60
        E 0 90 62 60
        E 120 80 1f 60
        E 0 80 56 60
        E 0 80 62 60
        E 120 90 1a 60
        E 0 90 1f 60
        E 0 90 3d 60
        E 0 90 3e 60
        E 0 90 49 60
        E 0 90 4a 60
        E 0 90 55 60
        E 0 90 56 60
        E 0 90 61 60
        E 0 90 62 60
        E 120 80 1a 60
        E 0 80 1f 60
        E 0 80 3d 60
        E 0 80 3e 60
        E 0 80 49 60
        E 0 80 4a 60
        E 0 80 55 60
        E 0 80 56 60
        E 0 80 61 60
        E 0 80 62 60
        E 120 90 1f 60
        E 0 90 56 60
        E 0 90 62 60
        E 120 80 1f 60
        E 0 80 56 60
        E 0 80 62 60
        E 120 90 18 75
        E 0 90 1f 60
        E 0 90 3e 60
        E 0 90 48 75
        E 0 90 4a 60
        E 0 90 54 75
        E 0 90 56 60
        E 0 90 60 75
        E 0 90 62 60
        E 120 80 18 60
        E 0 80 1f 60
        E 0 80 3e 60
        E 0 80 48 60
        E 0 80 4a 60
        E 0 80 54 60
        E 0 80 56 60
        E 0 80 60 60
        E 0 80 62 60
        E 120 90 1f 60
        E 0 90 56 60
        E 0 90 62 60
        E 120 80 1f 60
        E 0 80 56 60
        E 0 80 62 60
        E 120 90 1a 60
        E 0 90 1f 60
        E 0 90 3d 60
        E 0 90 3e 60
        E 0 90 49 60
        E 0 90 4a 60
        E 0 90 55 60
        E 0 90 56 60
        E 0 90 61 60
        E 0 90 62 60
        E 120 80 1a 60
        E 0 80 1f 60
        E 0 80 3d 60
        E 0 80 3e 60
        E 0 80 49 60
        E 0 80 4a 60
        E 0 80 55 60
        E 0 80 56 60
        E 0 80 61 60
        E 0 80 62 60
        E 120 90 1f 60
        E 0 90 56 60
        E 0 90 62 60
        E 120 80 1f 60
        E 0 80 56 60
        E 0 80 62 60
        E 120 90 18 75
        E 0 90 1f 60
        E 0 90 3e 60
        E 0 90 48 75
        E 0 90 4a 60
        E 0 90 54 75
        E 0 90 56 60
        E 0 90 60 75
        E 0 90 62 60
        E 0 90 74 60
        E 120 80 18 60
        E 0 80 1f 60
        E 0 80 3e 60
        E 0 80 48 60
        E 0 80 4a 60
        E 0 80 54 60
        E 0 80 56 60
        E 0 80 60 60
        E 0 80 62 60
        E 120 90 1f 60
        E 0 90 56 60
        E 0 90 62 60
        E 120 80 1f 60
        E 0 80 56 60
        E 0 80 62 60
        E 120 90 1a 60
        E 0 90 1f 60
        E 0 90 3d 60
        E 0 90 3e 60
        E 0 90 49 60
        E 0 90 4a 60
        E 0 90 55 60
        E 0 90 56 60
        E 0 90 61 60
        E 0 90 62 60
        E 120 80 1a 60
        E 0 80 1f 60
        E 0 80 3d 60
        E 0 80 3e 60
        E 0 80 49 60
        E 0 80 4a 60
        E 0 80 55 60
        E 0 80 56 60
        E 0 80 61 60
        E 0 80 62 60
        E 120 90 1f 60
        E 0 90 56 60
        E 0 90 62 60
        E 120 80 1f 60
        E 0 80 56 60
        E 0 80 62 60
        E 120 90 18 75
        E 0 90 1f 60
        E 0 90 3e 60
        E 0 90 48 75
        E 0 90 4a 60
        E 0 90 54 75
        E 0 90 56 60
        E 0 90 60 75
        E 0 90 62 60
        E 120 80 18 60
        E 0 80 1f 60
        E 0 80 3e 60
        E 0 80 48 60
        E 0 80 4a 60
        E 0 80 54 60
        E 0 80 56 60
        E 0 80 60 60
        E 0 80 62 60
        E 120 90 1f 60
        E 0 90 56 60
        E 0 90 62 60
        E 120 80 1f 60
        E 0 80 56 60
        E 0 80 62 60
        E 120 90 1a 60
        E 0 90 1f 60
        E 0 90 3d 60
        E 0 90 3e 60
        E 0 90 49 60
        E 0 90 4a 60
        E 0 90 55 60
        E 0 90 56 60
        E 0 90 61 60
        E 0 90 62 60
        E 120 80 1a 60
        E 0 80 1f 60
        E 0 80 3d 60
        E 0 80 3e 60
        E 0 80 49 60
        E 0 80 4a 60
        E 0 80 55 60
        E 0 80 56 60
        E 0 80 61 60
        E 0 80 62 60
        E 120 90 1f 60
        E 0 90 56 60
        E 0 90 62 60
        E 120 80 1f 60
        E 0 80 56 60
        E 0 80 62 60
        E 120 80 74 60
        E 0 90 18 75
        E 0 90 1f 60
        E 0 90 3e 60
        E 0 90 48 75
        E 0 90 4a 60
        E 0 90 54 75
        E 0 90 56 60
        E 0 90 60 75
        E 0 90 62 60
        E 120 80 18 60
        E 0 80 1f 60
        E 0 80 3e 60
        E 0 80 48 60
        E 0 80 4a 60
        E 0 80 54 60
        E 0 80 56 60
        E 0 80 60 60
        E 0 80 62 60
        E 120 90 2a 60
        E 0 90 57 60
        E 0 90 63 60
        E 60 80 2a 60
        E 0 80 57 60
        E 0 80 63 60
        E 60 90 2a 60
        E 0 90 63 60
        E 60 80 2a 60
        E 0 80 63 60
        E 180 90 2a 60
        E 0 90 63 60
        E 60 80 2a 60
        E 0 80 63 60
        E 60 90 2a 60
        E 0 90 57 60
        E 0 90 63 60
        E 60 80 2a 60
        E 0 80 57 60
        E 0 80 63 60
        E 180 90 2a 60
        E 0 90 3f 60
        E 0 90 4b 60
        E 0 90 57 60
        E 0 90 63 60
        E 60 80 2a 60
        E 0 80 3f 60
        E 0 80 4b 60
        E 0 80 57 60
        E 0 80 63 60
        E 60 90 2a 60
        E 0 90 63 60
        E 60 80 2a 60
        E 0 80 63 60
        E 180 90 2a 60
        E 0 90 57 60
        E 0 90 63 60
        E 60 80 2a 60
        E 0 80 57 60
        E 0 80 63 60
        E 180 90 2a 60
        E 0 90 63 60
        E 60 80 2a 60
        E 0 80 63 60
        E 60 90 2a 60
        E 0 90 57 60
        E 0 90 63 60
        E 60 80 2a 60
        E 0 80 57 60
        E 0 80 63 60
        E 180 90 18 75
        E 0 90 26 60
        E 0 90 40 60
        E 0 90 48 75
        E 0 90 4c 60
        E 0 90 54 75
        E 0 90 58 60
        E 0 90 60 75
        E 0 90 64 60
        E 120 80 18 60
        E 0 80 26 60
        E 0 80 40 60
        E 0 80 48 60
        E 0 80 4c 60
        E 0 80 54 60
        E 0 80 58 60
        E 0 80 60 60
        E 0 80 64 60
        E 120 90 1f 60
        E 0 90 56 60
        E 0 90 62 60
        E 120 80 1f 60
        E 0 80 56 60
        E 0 80 62 60
        E 120 90 1a 60
        E 0 90 1f 60
        E 0 90 3d 60
        E 0 90 3e 60
        E 0 90 49 60
        E 0 90 4a 60
        E 0 90 55 60
        E 0 90 56 60
        E 0 90 61 60
        E 0 90 62 60
        E 120 80 1a 60
        E 0 80 1f 60
        E 0 80 3d 60
        E 0 80 3e 60
        E 0 80 49 60
        E 0 80 4a 60
        E 0 80 55 60
        E 0 80 56 60
        E 0 80 61 60
        E 0 80 62 60
        E 120 90 1f 60
        E 0 90 56 60
        E 0 90 62 60
        E 120 80 1f 60
        E 0 80 56 60
        E 0 80 62 60
        E 120 90 18 75
        E 0 90 1f 60
        E 0 90 3e 60
        E 0 90 48 75
        E 0 90 4a 60
        E 0 90 54 75
        E 0 90 56 60
        E 0 90 60 75
        E 0 90 62 60
        E 120 80 18 60
        E 0 80 1f 60
        E 0 80 3e 60
        E 0 80 48 60
        E 0 80 4a 60
        E 0 80 54 60
        E 0 80 56 60
        E 0 80 60 60
        E 0 80 62 60
        E 120 90 1f 60
        E 0 90 56 60
        E 0 90 62 60
        E 120 80 1f 60
        E 0 80 56 60
        E 0 80 62 60
        E 120 90 1a 60
        E 0 90 1f 60
        E 0 90 3d 60
        E 0 90 3e 60
        E 0 90 49 60
        E 0 90 4a 60
        E 0 90 55 60
        E 0 90 56 60
        E 0 90 61 60
        E 0 90 62 60
        E 120 80 1a 60
        E 0 80 1f 60
        E 0 80 3d 60
        E 0 80 3e 60
        E 0 80 49 60
        E 0 80 4a 60
        E 0 80 55 60
        E 0 80 56 60
        E 0 80 61 60
        E 0 80 62 60
        E 120 90 1f 60
        E 0 90 56 60
        E 0 90 62 60
        E 120 80 1f 60
        E 0 80 56 60
        E 0 80 62 60
        E 120 90 18 75
        E 0 90 1f 60
        E 0 90 3e 60
        E 0 90 48 75
        E 0 90 4a 60
        E 0 90 54 75
        E 0 90 56 60
        E 0 90 60 75
        E 0 90 62 60
        E 0 90 78 60
        E 0 90 79 60
        E 0 90 7a 60
        E 0 90 7b 60
        E 0 90 7c 60
        E 120 80 18 60
        E 0 80 1f 60
        E 0 80 3e 60
        E 0 80 48 60
        E 0 80 4a 60
        E 0 80 54 60
        E 0 80 56 60
        E 0 80 60 60
        E 0 80 62 60
        E 120 90 2a 60
        E 0 90 57 60
        E 0 90 63 60
        E 60 80 2a 60
        E 0 80 57 60
        E 0 80 63 60
        E 60 90 2a 60
        E 0 90 63 60
        E 60 80 2a 60
        E 0 80 63 60
        E 180 90 2b 60
        E 0 90 63 60
        E 60 80 2b 60
        E 0 80 63 60
        E 60 90 2a 60
        E 0 90 57 60
        E 0 90 63 60
        E 60 80 2a 60
        E 0 80 57 60
        E 0 80 63 60
        E 180 90 2a 60
        E 0 90 3f 60
        E 0 90 4b 60
        E 0 90 57 60
        E 0 90 63 60
        E 60 80 2a 60
        E 0 80 3f 60
        E 0 80 4b 60
        E 0 80 57 60
        E 0 80 63 60
        E 60 90 2b 60
        E 0 90 63 60
        E 60 80 2b 60
        E 0 80 63 60
        E 60 90 26 60
        E 0 90 58 60
        E 0 90 64 60
        E 60 80 26 60
        E 0 80 58 60
        E 0 80 64 60
        E 60 90 26 60
        E 0 90 64 60
        E 60 80 26 60
        E 0 80 64 60
        E 60 90 26 60
        E 0 90 40 60
        E 0 90 4c 60
        E 0 90 58 60
        E 0 90 64 60
        E 60 80 26 60
        E 0 80 40 60
        E 0 80 4c 60
        E 0 80 58 60
        E 0 80 64 60
        E 180 90 26 60
        E 0 90 58 60
        E 0 90 64 60
        E 60 80 26 60
        E 0 80 58 60
        E 0 80 64 60
        E 180 80 78 60
        E 0 80 79 60
        E 0 80 7a 60
        E 0 80 7b 60
        E 0 80 7c 60
        E 0 90 18 75
        E 0 90 26 60
        E 0 90 40 60
        E 0 90 48 75
        E 0 90 4c 60
        E 0 90 54 75
        E 0 90 58 60
        E 0 90 60 75
        E 0 90 64 60
        E 60 80 18 60
        E 0 80 26 60
        E 0 80 40 60
        E 0 80 48 60
        E 0 80 4c 60
        E 0 80 54 60
        E 0 80 58 60
        E 0 80 60 60
        E 0 80 64 60
        E 180 90 1f 60
        E 0 90 56 60
        E 0 90 62 60
        E 120 80 1f 60
        E 0 80 56 60
        E 0 80 62 60
        E 120 90 1a 60
        E 0 90 1f 60
        E 0 90 3d 60
        E 0 90 3e 60
        E 0 90 49 60
        E 0 90 4a 60
        E 0 90 55 60
        E 0 90 56 60
        E 0 90 61 60
        E 0 90 62 60
        E 120 80 1a 60
        E 0 80 1f 60
        E 0 80 3d 60
        E 0 80 3e 60
        E 0 80 49 60
        E 0 80 4a 60
        E 0 80 55 60
        E 0 80 56 60
        E 0 80 61 60
        E 0 80 62 60
        E 120 90 1f 60
        E 0 90 56 60
        E 0 90 62 60
        E 120 80 1f 60
        E 0 80 56 60
        E 0 80 62 60
        E 120 90 18 75
        E 0 90 1f 60
        E 0 90 3e 60
        E 0 90 48 75
        E 0 90 4a 60
        E 0 90 54 75
        E 0 90 56 60
        E 0 90 60 75
        E 0 90 62 60
        E 120 80 18 60
        E 0 80 1f 60
        E 0 80 3e 60
        E 0 80 48 60
        E 0 80 4a 60
        E 0 80 54 60
        E 0 80 56 60
        E 0 80 60 60
        E 0 80 62 60
        E 120 90 1f 60
        E 0 90 56 60
        E 0 90 62 60
        E 120 80 1f 60
        E 0 80 56 60
        E 0 80 62 60
        E 120 90 1a 60
        E 0 90 1f 60
        E 0 90 3d 60
        E 0 90 3e 60
        E 0 90 49 60
        E 0 90 4a 60
        E 0 90 55 60
        E 0 90 56 60
        E 0 90 61 60
        E 0 90 62 60
        E 120 80 1a 60
        E 0 80 1f 60
        E 0 80 3d 60
        E 0 80 3e 60
        E 0 80 49 60
        E 0 80 4a 60
        E 0 80 55 60
        E 0 80 56 60
        E 0 80 61 60
        E 0 80 62 60
        E 120 90 1f 60
        E 0 90 56 60
        E 0 90 62 60
        E 120 80 1f 60
        E 0 80 56 60
        E 0 80 62 60
        E 120 90 18 75
        E 0 90 26 60
        E 0 90 40 60
        E 0 90 48 75
        E 0 90 4c 60
        E 0 90 54 75
        E 0 90 58 60
        E 0 90 60 75
        E 0 90 64 60
        E 120 80 18 60
        E 0 80 26 60
        E 0 80 40 60
        E 0 80 48 60
        E 0 80 4c 60
        E 0 80 54 60
        E 0 80 58 60
        E 0 80 60 60
        E 0 80 64 60
        E 360 90 1a 60
        E 0 90 26 60
        E 0 90 3d 60
        E 0 90 40 60
        E 0 90 49 60
        E 0 90 4c 60
        E 0 90 55 60
        E 0 90 58 60
        E 0 90 61 60
        E 0 90 64 60
        E 120 80 1a 60
        E 0 80 26 60
        E 0 80 3d 60
        E 0 80 40 60
        E 0 80 49 60
        E 0 80 4c 60
        E 0 80 55 60
        E 0 80 58 60
        E 0 80 61 60
        E 0 80 64 60
        E 120 90 18 75
        E 0 90 54 75
        E 0 90 60 75
        E 120 80 18 60
        E 0 80 54 60
        E 0 80 60 60
        E 120 90 1a 60
        E 0 90 26 60
        E 0 90 3d 60
        E 0 90 40 60
        E 0 90 49 60
        E 0 90 4c 60
        E 0 90 55 60
        E 0 90 58 60
        E 0 90 61 60
        E 0 90 64 60
        E 120 80 1a 60
        E 0 80 26 60
        E 0 80 3d 60
        E 0 80 40 60
        E 0 80 49 60
        E 0 80 4c 60
        E 0 80 55 60
        E 0 80 58 60
        E 0 80 61 60
        E 0 80 64 60
        E 120 90 18 75
        E 0 90 54 75
        E 0 90 60 75
        E 120 80 18 60
        E 0 80 54 60
        E 0 80 60 60
        E 120 90 1a 60
        E 0 90 26 60
        E 0 90 3d 60
        E 0 90 40 60
        E 0 90 49 60
        E 0 90 4c 60
        E 0 90 55 60
        E 0 90 58 60
        E 0 90 61 60
        E 0 90 64 60
        E 120 80 1a 60
        E 0 80 26 60
        E 0 80 3d 60
        E 0 80 40 60
        E 0 80 49 60
        E 0 80 4c 60
        E 0 80 55 60
        E 0 80 58 60
        E 0 80 61 60
        E 0 80 64 60
        E 120 90 18 75
        E 0 90 54 75
        E 0 90 60 75
        E 120 80 18 60
        E 0 80 54 60
        E 0 80 60 60
        E 120 90 1a 60
        E 0 90 26 60
        E 0 90 3d 60
        E 0 90 40 60
        E 0 90 49 60
        E 0 90 4c 60
        E 0 90 55 60
        E 0 90 58 60
        E 0 90 61 60
        E 0 90 64 60
        E 120 80 1a 60
        E 0 80 26 60
        E 0 80 3d 60
        E 0 80 40 60
        E 0 80 49 60
        E 0 80 4c 60
        E 0 80 55 60
        E 0 80 58 60
        E 0 80 61 60
        E 0 80 64 60
        E 120 90 18 75
        E 0 90 54 75
        E 0 90 60 75
        E 120 80 18 60
        E 0 80 54 60
        E 0 80 60 60
        E 120 90 1a 60
        E 0 90 26 60
        E 0 90 3d 60
        E 0 90 40 60
        E 0 90 49 60
        E 0 90 4c 60
        E 0 90 55 60
        E 0 90 58 60
        E 0 90 61 60
        E 0 90 64 60
        E 120 80 1a 60
        E 0 80 26 60
        E 0 80 3d 60
        E 0 80 40 60
        E 0 80 49 60
        E 0 80 4c 60
        E 0 80 55 60
        E 0 80 58 60
        E 0 80 61 60
        E 0 80 64 60
        E 120 90 18 75
        E 0 90 54 75
        E 0 90 60 75
        E 120 80 18 60
        E 0 80 54 60
        E 0 80 60 60
        E 120 90 1a 60
        E 0 90 26 60
        E 0 90 3d 60
        E 0 90 40 60
        E 0 90 49 60
        E 0 90 4c 60
        E 0 90 55 60
        E 0 90 58 60
        E 0 90 61 60
        E 0 90 64 60
        E 120 80 1a 60
        E 0 80 26 60
        E 0 80 3d 60
        E 0 80 40 60
        E 0 80 49 60
        E 0 80 4c 60
        E 0 80 55 60
        E 0 80 58 60
        E 0 80 61 60
        E 0 80 64 60
        E 120 90 18 75
        E 0 90 54 75
        E 0 90 60 75
        E 120 80 18 60
        E 0 80 54 60
        E 0 80 60 60
        E 120 90 1a 60
        E 0 90 26 60
        E 0 90 3d 60
        E 0 90 40 60
        E 0 90 49 60
        E 0 90 4c 60
        E 0 90 55 60
        E 0 90 58 60
        E 0 90 61 60
        E 0 90 64 60
        E 120 80 1a 60
        E 0 80 26 60
        E 0 80 3d 60
        E 0 80 40 60
        E 0 80 49 60
        E 0 80 4c 60
        E 0 80 55 60
        E 0 80 58 60
        E 0 80 61 60
        E 0 80 64 60
        E 120 90 18 75
        E 0 90 54 75
        E 0 90 60 75
        E 120 80 18 60
        E 0 80 54 60
        E 0 80 60 60
        E 120 90 18 75
        E 0 90 22 60
        E 0 90 26 60
        E 0 90 3e 60
        E 0 90 40 60
        E 0 90 48 75
        E 0 90 4a 60
        E 0 90 4c 60
        E 0 90 54 75
        E 0 90 56 60
        E 0 90 58 60
        E 0 90 60 75
        E 0 90 62 60
        E 0 90 64 60
        E 120 80 18 60
        E 0 80 22 60
        E 0 80 26 60
        E 0 80 3e 60
        E 0 80 40 60
        E 0 80 48 60
        E 0 80 4a 60
        E 0 80 4c 60
        E 0 80 54 60
        E 0 80 56 60
        E 0 80 58 60
        E 0 80 60 60
        E 0 80 62 60
        E 0 80 64 60
        <X 480 0 0 0 1 [idle_realtime]
          /wFbaWRsZV9yZWFsdGltZV0=
        >
        E 10715 b0 7b 00
        CCINTERP 32
        GUID {B011F59B-1C8F-4492-BA34-1948DB1EF234}
        IGNTEMPO 0 120 4 4
        SRCCOLOR 54
        VELLANE 132 128 60
        CFGEDITVIEW 0 0 -1 12 0 0 0 0 0 0.5
        KEYSNAP 0
        TRACKSEL 0
        EVTFILTER 0 -1 -1 -1 -1 0 0 0 0 -1 -1 -1 -1 0 -1 0 -1 -1
        CFGEDIT 1 1 0 0 0 1 1 1 1 1 1 0.25 100 100 1200 800 0 2 2 2 0 0 0 0 0 0.5 1 0 1 64
      >
    >
  >
  <TRACK {49D039C8-A69E-40AE-A9F7-CFEB306344A7}
    NAME "PART BASS"
    PEAKCOL 20119807
    BEAT -1
    AUTOMODE 0
    VOLPAN 1 0 -1 -1 1
    MUTESOLO 0 0 0
    IPHASE 0
    PLAYOFFS 0 1
    ISBUS 0 0
    BUSCOMP 0 0 0 0 0
    SHOWINMIX 1 0.6667 0.5 1 0.5 -1 -1 -1
    SEL 0
    REC 0 0 1 0 0 0 0 0
    TRACKHEIGHT 0 0 0 0 0 0
    INQ 0 0 0 0.5 100 0 0 100
    NCHAN 2
    FX 1
    TRACKID {49D039C8-A69E-40AE-A9F7-CFEB306344A7}
    PERF 0
    MIDIOUT -1
    <MIDINOTENAMES
      0 40 "Left Hand Lowest" 0 40
      0 41 "- (1)" 0 41
      0 42 - 0 42
      0 43 "- (2)" 0 43
      0 44 - 0 44
      0 45 "- (3)" 0 45
      0 46 - 0 46
      0 47 "- (4)" 0 47
      0 48 - 0 48
      0 49 "- (5)" 0 49
      0 50 "- (6)" 0 50
      0 51 - 0 51
      0 52 "- (7)" 0 52
      0 53 "- (8)" 0 53
      0 54 - 0 54
      0 55 "- (9)" 0 55
      0 56 "- (10)" 0 56
      0 57 "- (11)" 0 57
      0 58 "- (12)" 0 58
      0 59 "Left Hand Highest" 0 59
      0 60 "EASY Green" 0 60
      0 61 "EASY Red" 0 61
      0 62 "EASY Yellow" 0 62
      0 63 "EASY Blue" 0 63
      0 64 "EASY Orange" 0 64
      0 65 ---- 0 65
      0 72 "MEDIUM Green" 0 72
      0 73 "MEDIUM Red" 0 73
      0 74 "MEDIUM Yellow" 0 74
      0 75 "MEDIUM Blue" 0 75
      0 76 "MEDIUM Orange" 0 76
      0 77 ---- 0 77
      0 84 "HARD Green" 0 84
      0 85 "HARD Red" 0 85
      0 86 "HARD Yellow" 0 86
      0 87 "HARD Blue" 0 87
      0 88 "HARD Orange" 0 88
      0 89 "Force HOPO On" 0 89
      0 90 "Force HOPO Off" 0 90
      0 95 ---- 0 95
      0 96 "EXPERT Green" 0 96
      0 97 "EXPERT Red" 0 97
      0 98 "EXPERT Yellow" 0 98
      0 99 "EXPERT Blue" 0 99
      0 100 "EXPERT Orange" 0 100
      0 101 "Force HOPO On" 0 101
      0 102 "Force HOPO Off" 0 102
      0 103 "Solo Marker" 0 103
      0 115 ---- 0 115
      0 116 OVERDRIVE 0 116
      0 118 ---- 0 118
      0 120 "BRE (use all 5)" 0 120
      0 121 BRE 0 121
      0 122 BRE 0 122
      0 123 BRE 0 123
      0 124 BRE 0 124
      0 125 ---- 0 125
      0 126 "Tremolo Marker" 0 126
      0 127 "Trill Marker" 0 127
    >
    MAINSEND 1 0
    <FXCHAIN
      SHOW 0
      LASTSEL 0
      DOCKED 0
      BYPASS 0 0 0
      <VST "VSTi: RBN Preview (RBN)" rbprev_vst.dll 0 "VSTi: RBN Preview (RBN)" 1919053942 ""
        dnBicu5e7f4AAAAAAgAAAAEAAAAAAAAAAgAAAAAAAAAEAAAAAQAAAAAAEAADAKoAAAAQAAAA
      >
      FLOATPOS 0 0 0 0
      FXID {D94DC6C8-B526-48C6-BBB0-9A8A671407E0}
      WAK 0 0
      BYPASS 0 0 0
      <JS "IX/MIDI_Tool II" ""
        0 0 94 0 0 0 100 0 0 127 0 0 1 0 0 - - - - - - - - - - - - - - - - - - - - - - - - - - - - - - - - - - - - - - - - - - - - - - - - - 
      >
      FLOATPOS 0 0 0 0
      FXID {6FD196A8-8E63-4DD5-BF3B-C8F3AECF933E}
      WAK 0 0
      BYPASS 0 0 0
      <JS "IX/MIDI_Tool II" ""
        0 101 127 0 0 0 100 0 0 127 0 0 1 0 0 - - - - - - - - - - - - - - - - - - - - - - - - - - - - - - - - - - - - - - - - - - - - - - - - - 
      >
      FLOATPOS 0 0 0 0
      FXID {B91B580E-8993-4537-9F28-53909ACF0BDF}
      WAK 0 0
      BYPASS 1 0 0
      <VST "VSTi: ReaSynth (Cockos)" reasynth.dll 0 "VSTi: ReaSynth (Cockos)" 1919251321<5653547265737972656173796E746800> ""
        eXNlcu9e7f4AAAAAAgAAAAEAAAAAAAAAAgAAAAAAAABEAAAAAAAAAAAAEAA=
        776t3g3wrd6mm8Q7F7fROgAAAAAAAAAAAAAAAFmzJj8BTB06AAAAAAAAAD8AAAAAAACAPwAAAAAAAAAAAAAAAAAAgD8=
        AFByb2dyYW0gMQAQAAAA
      >
      PRESETNAME "Program 1"
      FLOATPOS 0 0 0 0
      FXID {EE50A043-523C-4B45-910F-8FB587DE5948}
      WAK 0 0
    >
    <ITEM
      POSITION 0
      SNAPOFFS 0
      LENGTH 165.05873578958332
      LOOP 0
      ALLTAKES 0
      FADEIN 1 0 0 1 0 0 0
      FADEOUT 1 0 0 1 0 0 0
      MUTE 0 0
      SEL 0
      IGUID {C7981C92-1C54-4E27-89D3-EB81C6B6E009}
      IID 6
      NAME "PART BASS"
      VOLPAN 1 0 1 -1
      SOFFS 0 0
      PLAYRATE 1 1 0 -1 0 0.0025
      CHANMODE 0
      GUID {5E0008B7-B477-46BD-95CE-6034CBB03F08}
      <SOURCE MIDI
        HASDATA 1 480 QN
        CCINTERP 32
        POOLEDEVTS {BEFAAB9C-B7EC-457A-9969-95BEE368222F}
        <X 0 0 0 0 3 "PART BASS"
          /wNQQVJUIEJBU1M=
        >
        <X 3840 0 0 0 1 [play]
          /wFbcGxheV0=
        >
        E 1680 90 57 60
        E 0 90 63 60
        E 120 80 57 60
        E 0 80 63 60
        E 120 90 3c 60
        E 0 90 48 60
        E 0 90 54 60
        E 0 90 60 60
        E 120 80 3c 60
        E 0 80 48 60
        E 0 80 54 60
        E 0 80 60 60
        E 120 90 48 60
        E 0 90 54 60
        E 0 90 60 60
        E 120 80 48 60
        E 0 80 54 60
        E 0 80 60 60
        E 120 90 3c 60
        E 0 90 48 60
        E 0 90 54 60
        E 0 90 60 60
        E 120 80 3c 60
        E 0 80 48 60
        E 0 80 54 60
        E 0 80 60 60
        E 120 90 48 60
        E 0 90 54 60
        E 0 90 60 60
        E 120 80 48 60
        E 0 80 54 60
        E 0 80 60 60
        E 120 90 3c 60
        E 0 90 48 60
        E 0 90 54 60
        E 0 90 60 60
        E 120 80 3c 60
        E 0 80 48 60
        E 0 80 54 60
        E 0 80 60 60
        E 120 90 48 60
        E 0 90 54 60
        E 0 90 60 60
        E 120 80 48 60
        E 0 80 54 60
        E 0 80 60 60
        E 120 90 3c 60
        E 0 90 48 60
        E 0 90 54 60
        E 0 90 60 60
        E 120 80 3c 60
        E 0 80 48 60
        E 0 80 54 60
        E 0 80 60 60
        E 120 90 48 60
        E 0 90 54 60
        E 0 90 60 60
        E 120 80 48 60
        E 0 80 54 60
        E 0 80 60 60
        E 120 90 3c 60
        E 0 90 48 60
        E 0 90 54 60
        E 0 90 60 60
        E 120 80 3c 60
        E 0 80 48 60
        E 0 80 54 60
        E 0 80 60 60
        E 120 90 48 60
        E 0 90 54 60
        E 0 90 60 60
        E 120 80 48 60
        E 0 80 54 60
        E 0 80 60 60
        E 120 90 3c 60
        E 0 90 48 60
        E 0 90 54 60
        E 0 90 60 60
        E 120 80 3c 60
        E 0 80 48 60
        E 0 80 54 60
        E 0 80 60 60
        E 120 90 48 60
        E 0 90 54 60
        E 0 90 60 60
        E 120 80 48 60
        E 0 80 54 60
        E 0 80 60 60
        E 120 90 3c 60
        E 0 90 48 60
        E 0 90 54 60
        E 0 90 60 60
        E 120 80 3c 60
        E 0 80 48 60
        E 0 80 54 60
        E 0 80 60 60
        E 120 90 48 60
        E 0 90 54 60
        E 0 90 60 60
        E 120 80 48 60
        E 0 80 54 60
        E 0 80 60 60
        E 120 90 3c 60
        E 0 90 48 60
        E 0 90 54 60
        E 0 90 60 60
        E 120 80 3c 60
        E 0 80 48 60
        E 0 80 54 60
        E 0 80 60 60
        E 120 90 48 60
        E 0 90 54 60
        E 0 90 60 60
        E 120 80 48 60
        E 0 80 54 60
        E 0 80 60 60
        E 120 90 3c 60
        E 0 90 48 60
        E 0 90 54 60
        E 0 90 60 60
        E 120 80 3c 60
        E 0 80 48 60
        E 0 80 54 60
        E 0 80 60 60
        E 120 90 48 60
        E 0 90 54 60
        E 0 90 60 60
        E 120 80 48 60
        E 0 80 54 60
        E 0 80 60 60
        E 120 90 3c 60
        E 0 90 48 60
        E 0 90 54 60
        E 0 90 60 60
        E 120 80 3c 60
        E 0 80 48 60
        E 0 80 54 60
        E 0 80 60 60
        E 120 90 48 60
        E 0 90 54 60
        E 0 90 60 60
        E 120 80 48 60
        E 0 80 54 60
        E 0 80 60 60
        E 120 90 3c 60
        E 0 90 48 60
        E 0 90 54 60
        E 0 90 60 60
        E 120 80 3c 60
        E 0 80 48 60
        E 0 80 54 60
        E 0 80 60 60
        E 120 90 48 60
        E 0 90 54 60
        E 0 90 60 60
        E 120 80 48 60
        E 0 80 54 60
        E 0 80 60 60
        E 120 90 48 60
        E 0 90 54 60
        E 0 90 60 60
        E 120 80 48 60
        E 0 80 54 60
        E 0 80 60 60
        E 120 90 54 60
        E 0 90 60 60
        E 120 80 54 60
        E 0 80 60 60
        E 120 90 3d 60
        E 0 90 4a 60
        E 0 90 56 60
        E 0 90 62 60
        E 120 80 3d 60
        E 0 80 4a 60
        E 0 80 56 60
        E 0 80 62 60
        E 120 90 4a 60
        E 0 90 56 60
        E 0 90 62 60
        E 120 80 4a 60
        E 0 80 56 60
        E 0 80 62 60
        E 120 90 3d 60
        E 0 90 4a 60
        E 0 90 56 60
        E 0 90 62 60
        E 120 80 3d 60
        E 0 80 4a 60
        E 0 80 56 60
        E 0 80 62 60
        E 120 90 4a 60
        E 0 90 56 60
        E 0 90 62 60
        E 120 80 4a 60
        E 0 80 56 60
        E 0 80 62 60
        E 120 90 3d 60
        E 0 90 4a 60
        E 0 90 56 60
        E 0 90 62 60
        E 120 80 3d 60
        E 0 80 4a 60
        E 0 80 56 60
        E 0 80 62 60
        E 120 90 4a 60
        E 0 90 56 60
        E 0 90 62 60
        E 120 80 4a 60
        E 0 80 56 60
        E 0 80 62 60
        E 120 90 4a 60
        E 0 90 56 60
        E 0 90 62 60
        E 120 80 4a 60
        E 0 80 56 60
        E 0 80 62 60
        E 120 90 56 60
        E 0 90 62 60
        E 120 80 56 60
        E 0 80 62 60
        E 120 90 3e 60
        E 0 90 4b 60
        E 0 90 57 60
        E 0 90 63 60
        E 0 90 74 60
        E 120 80 3e 60
        E 0 80 4b 60
        E 0 80 57 60
        E 0 80 63 60
        E 120 90 4b 60
        E 0 90 57 60
        E 0 90 63 60
        E 120 80 4b 60
        E 0 80 57 60
        E 0 80 63 60
        E 120 90 3e 60
        E 0 90 4b 60
        E 0 90 57 60
        E 0 90 63 60
        E 120 80 3e 60
        E 0 80 4b 60
        E 0 80 57 60
        E 0 80 63 60
        E 120 90 4b 60
        E 0 90 57 60
        E 0 90 63 60
        E 120 80 4b 60
        E 0 80 57 60
        E 0 80 63 60
        E 120 90 3e 60
        E 0 90 4b 60
        E 0 90 57 60
        E 0 90 63 60
        E 120 80 3e 60
        E 0 80 4b 60
        E 0 80 57 60
        E 0 80 63 60
        E 120 90 4b 60
        E 0 90 57 60
        E 0 90 63 60
        E 120 80 4b 60
        E 0 80 57 60
        E 0 80 63 60
        E 120 90 4b 60
        E 0 90 57 60
        E 0 90 63 60
        E 120 80 4b 60
        E 0 80 57 60
        E 0 80 63 60
        E 120 90 57 60
        E 0 90 63 60
        E 120 80 57 60
        E 0 80 63 60
        E 120 80 74 60
        E 0 90 3c 60
        E 0 90 48 60
        E 0 90 54 60
        E 0 90 60 60
        E 120 80 3c 60
        E 0 80 48 60
        E 0 80 54 60
        E 0 80 60 60
        E 120 90 48 60
        E 0 90 54 60
        E 0 90 60 60
        E 120 80 48 60
        E 0 80 54 60
        E 0 80 60 60
        E 120 90 3c 60
        E 0 90 48 60
        E 0 90 54 60
        E 0 90 60 60
        E 120 80 3c 60
        E 0 80 48 60
        E 0 80 54 60
        E 0 80 60 60
        E 120 90 48 60
        E 0 90 54 60
        E 0 90 60 60
        E 120 80 48 60
        E 0 80 54 60
        E 0 80 60 60
        E 120 90 3c 60
        E 0 90 48 60
        E 0 90 54 60
        E 0 90 60 60
        E 120 80 3c 60
        E 0 80 48 60
        E 0 80 54 60
        E 0 80 60 60
        E 120 90 48 60
        E 0 90 54 60
        E 0 90 60 60
        E 120 80 48 60
        E 0 80 54 60
        E 0 80 60 60
        E 120 90 3c 60
        E 0 90 48 60
        E 0 90 54 60
        E 0 90 60 60
        E 120 80 3c 60
        E 0 80 48 60
        E 0 80 54 60
        E 0 80 60 60
        E 120 90 57 60
        E 0 90 63 60
        E 120 80 57 60
        E 0 80 63 60
        E 120 90 3c 60
        E 0 90 48 60
        E 0 90 54 60
        E 0 90 60 60
        E 120 80 3c 60
        E 0 80 48 60
        E 0 80 54 60
        E 0 80 60 60
        E 120 90 48 60
        E 0 90 54 60
        E 0 90 60 60
        E 120 80 48 60
        E 0 80 54 60
        E 0 80 60 60
        E 120 90 3c 60
        E 0 90 48 60
        E 0 90 54 60
        E 0 90 60 60
        E 120 80 3c 60
        E 0 80 48 60
        E 0 80 54 60
        E 0 80 60 60
        E 120 90 48 60
        E 0 90 54 60
        E 0 90 60 60
        E 120 80 48 60
        E 0 80 54 60
        E 0 80 60 60
        E 120 90 3c 60
        E 0 90 48 60
        E 0 90 54 60
        E 0 90 60 60
        E 120 80 3c 60
        E 0 80 48 60
        E 0 80 54 60
        E 0 80 60 60
        E 120 90 48 60
        E 0 90 54 60
        E 0 90 60 60
        E 120 80 48 60
        E 0 80 54 60
        E 0 80 60 60
        E 120 90 48 60
        E 0 90 54 60
        E 0 90 60 60
        E 120 80 48 60
        E 0 80 54 60
        E 0 80 60 60
        E 120 90 54 60
        E 0 90 60 60
        E 120 80 54 60
        E 0 80 60 60
        E 120 90 3d 60
        E 0 90 4a 60
        E 0 90 56 60
        E 0 90 62 60
        E 120 80 3d 60
        E 0 80 4a 60
        E 0 80 56 60
        E 0 80 62 60
        E 120 90 4a 60
        E 0 90 56 60
        E 0 90 62 60
        E 120 80 4a 60
        E 0 80 56 60
        E 0 80 62 60
        E 120 90 3d 60
        E 0 90 4a 60
        E 0 90 56 60
        E 0 90 62 60
        E 120 80 3d 60
        E 0 80 4a 60
        E 0 80 56 60
        E 0 80 62 60
        E 120 90 4a 60
        E 0 90 56 60
        E 0 90 62 60
        E 120 80 4a 60
        E 0 80 56 60
        E 0 80 62 60
        E 120 90 3d 60
        E 0 90 4a 60
        E 0 90 56 60
        E 0 90 62 60
        E 120 80 3d 60
        E 0 80 4a 60
        E 0 80 56 60
        E 0 80 62 60
        E 120 90 4a 60
        E 0 90 56 60
        E 0 90 62 60
        E 120 80 4a 60
        E 0 80 56 60
        E 0 80 62 60
        E 120 90 4a 60
        E 0 90 56 60
        E 0 90 62 60
        E 120 80 4a 60
        E 0 80 56 60
        E 0 80 62 60
        E 120 90 56 60
        E 0 90 62 60
        E 120 80 56 60
        E 0 80 62 60
        E 120 90 3e 60
        E 0 90 4b 60
        E 0 90 57 60
        E 0 90 63 60
        E 120 80 3e 60
        E 0 80 4b 60
        E 0 80 57 60
        E 0 80 63 60
        E 120 90 4b 60
        E 0 90 57 60
        E 0 90 63 60
        E 120 80 4b 60
        E 0 80 57 60
        E 0 80 63 60
        E 120 90 3e 60
        E 0 90 4b 60
        E 0 90 57 60
        E 0 90 63 60
        E 120 80 3e 60
        E 0 80 4b 60
        E 0 80 57 60
        E 0 80 63 60
        E 120 90 4b 60
        E 0 90 57 60
        E 0 90 63 60
        E 120 80 4b 60
        E 0 80 57 60
        E 0 80 63 60
        E 120 90 3e 60
        E 0 90 4b 60
        E 0 90 57 60
        E 0 90 63 60
        E 120 80 3e 60
        E 0 80 4b 60
        E 0 80 57 60
        E 0 80 63 60
        E 120 90 4b 60
        E 0 90 57 60
        E 0 90 63 60
        E 120 80 4b 60
        E 0 80 57 60
        E 0 80 63 60
        E 120 90 3e 60
        E 0 90 4b 60
        E 0 90 57 60
        E 0 90 63 60
        E 120 80 3e 60
        E 0 80 4b 60
        E 0 80 57 60
        E 0 80 63 60
        E 120 90 4b 60
        E 0 90 57 60
        E 0 90 63 60
        E 120 80 4b 60
        E 0 80 57 60
        E 0 80 63 60
        E 120 90 3e 60
        E 0 90 4b 60
        E 0 90 58 60
        E 0 90 64 60
        E 120 80 3e 60
        E 0 80 4b 60
        E 0 80 58 60
        E 0 80 64 60
        E 120 90 4b 60
        E 0 90 58 60
        E 0 90 64 60
        E 120 80 4b 60
        E 0 80 58 60
        E 0 80 64 60
        E 120 90 3e 60
        E 0 90 4b 60
        E 0 90 58 60
        E 0 90 64 60
        E 120 80 3e 60
        E 0 80 4b 60
        E 0 80 58 60
        E 0 80 64 60
        E 120 90 4b 60
        E 0 90 58 60
        E 0 90 64 60
        E 120 80 4b 60
        E 0 80 58 60
        E 0 80 64 60
        E 120 90 3e 60
        E 0 90 4b 60
        E 0 90 58 60
        E 0 90 64 60
        E 120 80 3e 60
        E 0 80 4b 60
        E 0 80 58 60
        E 0 80 64 60
        E 120 90 4b 60
        E 0 90 58 60
        E 0 90 64 60
        E 120 80 4b 60
        E 0 80 58 60
        E 0 80 64 60
        E 120 90 4b 60
        E 0 90 58 60
        E 0 90 64 60
        E 120 80 4b 60
        E 0 80 58 60
        E 0 80 64 60
        E 120 90 58 60
        E 0 90 64 60
        E 120 80 58 60
        E 0 80 64 60
        E 120 90 3c 60
        E 0 90 48 60
        E 0 90 54 60
        E 0 90 60 60
        E 120 80 3c 60
        E 0 80 48 60
        E 0 80 54 60
        E 0 80 60 60
        E 120 90 48 60
        E 0 90 54 60
        E 0 90 60 60
        E 120 80 48 60
        E 0 80 54 60
        E 0 80 60 60
        E 120 90 3c 60
        E 0 90 48 60
        E 0 90 54 60
        E 0 90 60 60
        E 120 80 3c 60
        E 0 80 48 60
        E 0 80 54 60
        E 0 80 60 60
        E 120 90 48 60
        E 0 90 54 60
        E 0 90 60 60
        E 120 80 48 60
        E 0 80 54 60
        E 0 80 60 60
        E 120 90 3c 60
        E 0 90 48 60
        E 0 90 54 60
        E 0 90 60 60
        E 120 80 3c 60
        E 0 80 48 60
        E 0 80 54 60
        E 0 80 60 60
        E 120 90 48 60
        E 0 90 54 60
        E 0 90 60 60
        E 120 80 48 60
        E 0 80 54 60
        E 0 80 60 60
        E 120 90 48 60
        E 0 90 54 60
        E 0 90 60 60
        E 120 80 48 60
        E 0 80 54 60
        E 0 80 60 60
        E 120 90 54 60
        E 0 90 60 60
        E 120 80 54 60
        E 0 80 60 60
        E 120 90 3d 60
        E 0 90 49 60
        E 0 90 55 60
        E 0 90 61 60
        E 120 80 3d 60
        E 0 80 49 60
        E 0 80 55 60
        E 0 80 61 60
        E 120 90 49 60
        E 0 90 55 60
        E 0 90 61 60
        E 120 80 49 60
        E 0 80 55 60
        E 0 80 61 60
        E 120 90 3d 60
        E 0 90 49 60
        E 0 90 55 60
        E 0 90 61 60
        E 120 80 3d 60
        E 0 80 49 60
        E 0 80 55 60
        E 0 80 61 60
        E 120 90 49 60
        E 0 90 55 60
        E 0 90 61 60
        E 120 80 49 60
        E 0 80 55 60
        E 0 80 61 60
        E 120 90 3d 60
        E 0 90 49 60
        E 0 90 55 60
        E 0 90 61 60
        E 120 80 3d 60
        E 0 80 49 60
        E 0 80 55 60
        E 0 80 61 60
        E 120 90 49 60
        E 0 90 55 60
        E 0 90 61 60
        E 120 80 49 60
        E 0 80 55 60
        E 0 80 61 60
        E 120 90 49 60
        E 0 90 55 60
        E 0 90 61 60
        E 120 80 49 60
        E 0 80 55 60
        E 0 80 61 60
        E 120 90 55 60
        E 0 90 61 60
        E 120 80 55 60
        E 0 80 61 60
        E 120 90 3c 60
        E 0 90 48 60
        E 0 90 54 60
        E 0 90 60 60
        E 0 90 74 60
        E 120 80 3c 60
        E 0 80 48 60
        E 0 80 54 60
        E 0 80 60 60
        E 120 90 55 60
        E 0 90 61 60
        E 120 80 55 60
        E 0 80 61 60
        E 120 90 56 60
        E 0 90 62 60
        E 120 80 56 60
        E 0 80 62 60
        E 120 90 3c 60
        E 0 90 4a 60
        E 0 90 57 60
        E 0 90 63 60
        E 60 80 3c 60
        E 1140 80 74 60
        E 1440 80 4a 60
        E 0 80 57 60
        E 0 80 63 60
        E 240 90 57 60
        E 0 90 63 60
        E 120 80 57 60
        E 0 80 63 60
        E 120 90 3c 60
        E 0 90 48 60
        E 0 90 54 60
        E 0 90 60 60
        E 120 80 3c 60
        E 0 80 48 60
        E 0 80 54 60
        E 0 80 60 60
        E 120 90 48 60
        E 0 90 54 60
        E 0 90 60 60
        E 120 80 48 60
        E 0 80 54 60
        E 0 80 60 60
        E 120 90 3c 60
        E 0 90 48 60
        E 0 90 54 60
        E 0 90 60 60
        E 120 80 3c 60
        E 0 80 48 60
        E 0 80 54 60
        E 0 80 60 60
        E 120 90 48 60
        E 0 90 54 60
        E 0 90 60 60
        E 120 80 48 60
        E 0 80 54 60
        E 0 80 60 60
        E 120 90 3c 60
        E 0 90 48 60
        E 0 90 54 60
        E 0 90 60 60
        E 120 80 3c 60
        E 0 80 48 60
        E 0 80 54 60
        E 0 80 60 60
        E 120 90 48 60
        E 0 90 54 60
        E 0 90 60 60
        E 120 80 48 60
        E 0 80 54 60
        E 0 80 60 60
        E 120 90 3c 60
        E 0 90 48 60
        E 0 90 54 60
        E 0 90 60 60
        E 120 80 3c 60
        E 0 80 48 60
        E 0 80 54 60
        E 0 80 60 60
        E 120 90 48 60
        E 0 90 54 60
        E 0 90 60 60
        E 120 80 48 60
        E 0 80 54 60
        E 0 80 60 60
        E 120 90 3c 60
        E 0 90 48 60
        E 0 90 54 60
        E 0 90 60 60
        E 120 80 3c 60
        E 0 80 48 60
        E 0 80 54 60
        E 0 80 60 60
        E 120 90 48 60
        E 0 90 54 60
        E 0 90 60 60
        E 120 80 48 60
        E 0 80 54 60
        E 0 80 60 60
        E 120 90 3c 60
        E 0 90 48 60
        E 0 90 54 60
        E 0 90 60 60
        E 120 80 3c 60
        E 0 80 48 60
        E 0 80 54 60
        E 0 80 60 60
        E 120 90 48 60
        E 0 90 54 60
        E 0 90 60 60
        E 120 80 48 60
        E 0 80 54 60
        E 0 80 60 60
        E 120 90 3c 60
        E 0 90 48 60
        E 0 90 54 60
        E 0 90 60 60
        E 120 80 3c 60
        E 0 80 48 60
        E 0 80 54 60
        E 0 80 60 60
        E 120 90 48 60
        E 0 90 54 60
        E 0 90 60 60
        E 120 80 48 60
        E 0 80 54 60
        E 0 80 60 60
        E 120 90 48 60
        E 0 90 54 60
        E 0 90 60 60
        E 120 80 48 60
        E 0 80 54 60
        E 0 80 60 60
        E 120 90 57 60
        E 0 90 63 60
        E 120 80 57 60
        E 0 80 63 60
        E 120 90 3d 60
        E 0 90 4a 60
        E 0 90 56 60
        E 0 90 62 60
        E 120 80 3d 60
        E 0 80 4a 60
        E 0 80 56 60
        E 0 80 62 60
        E 120 90 4a 60
        E 0 90 56 60
        E 0 90 62 60
        E 120 80 4a 60
        E 0 80 56 60
        E 0 80 62 60
        E 120 90 4a 60
        E 0 90 56 60
        E 0 90 62 60
        E 120 80 4a 60
        E 0 80 56 60
        E 0 80 62 60
        E 120 90 56 60
        E 0 90 62 60
        E 120 80 56 60
        E 0 80 62 60
        E 120 90 3e 60
        E 0 90 4b 60
        E 0 90 57 60
        E 0 90 63 60
        E 120 80 3e 60
        E 0 80 4b 60
        E 0 80 57 60
        E 0 80 63 60
        E 120 90 4b 60
        E 0 90 57 60
        E 0 90 63 60
        E 120 80 4b 60
        E 0 80 57 60
        E 0 80 63 60
        E 120 90 4b 60
        E 0 90 57 60
        E 0 90 63 60
        E 120 80 4b 60
        E 0 80 57 60
        E 0 80 63 60
        E 120 90 57 60
        E 0 90 63 60
        E 120 80 57 60
        E 0 80 63 60
        E 120 90 3c 60
        E 0 90 48 60
        E 0 90 54 60
        E 0 90 60 60
        E 120 80 3c 60
        E 0 80 48 60
        E 0 80 54 60
        E 0 80 60 60
        E 120 90 48 60
        E 0 90 54 60
        E 0 90 60 60
        E 120 80 48 60
        E 0 80 54 60
        E 0 80 60 60
        E 120 90 3c 60
        E 0 90 48 60
        E 0 90 54 60
        E 0 90 60 60
        E 120 80 3c 60
        E 0 80 48 60
        E 0 80 54 60
        E 0 80 60 60
        E 120 90 48 60
        E 0 90 54 60
        E 0 90 60 60
        E 120 80 48 60
        E 0 80 54 60
        E 0 80 60 60
        E 120 90 3c 60
        E 0 90 48 60
        E 0 90 54 60
        E 0 90 60 60
        E 120 80 3c 60
        E 0 80 48 60
        E 0 80 54 60
        E 0 80 60 60
        E 120 90 48 60
        E 0 90 54 60
        E 0 90 60 60
        E 120 80 48 60
        E 0 80 54 60
        E 0 80 60 60
        E 120 90 3c 60
        E 0 90 48 60
        E 0 90 54 60
        E 0 90 60 60
        E 120 80 3c 60
        E 0 80 48 60
        E 0 80 54 60
        E 0 80 60 60
        E 120 90 48 60
        E 0 90 54 60
        E 0 90 60 60
        E 120 80 48 60
        E 0 80 54 60
        E 0 80 60 60
        E 120 90 3c 60
        E 0 90 48 60
        E 0 90 54 60
        E 0 90 60 60
        E 120 80 3c 60
        E 0 80 48 60
        E 0 80 54 60
        E 0 80 60 60
        E 120 90 57 60
        E 0 90 63 60
        E 120 80 57 60
        E 0 80 63 60
        E 120 90 4b 60
        E 0 90 57 60
        E 0 90 63 60
        E 120 80 4b 60
        E 0 80 57 60
        E 0 80 63 60
        E 120 90 4b 60
        E 0 90 57 60
        E 0 90 63 60
        E 120 80 4b 60
        E 0 80 57 60
        E 0 80 63 60
        E 120 90 3e 60
        E 0 90 4b 60
        E 0 90 57 60
        E 0 90 63 60
        E 120 80 3e 60
        E 0 80 4b 60
        E 0 80 57 60
        E 0 80 63 60
        E 120 90 4b 60
        E 0 90 57 60
        E 0 90 63 60
        E 120 80 4b 60
        E 0 80 57 60
        E 0 80 63 60
        E 120 90 4b 60
        E 0 90 57 60
        E 0 90 63 60
        E 120 80 4b 60
        E 0 80 57 60
        E 0 80 63 60
        E 120 90 57 60
        E 0 90 63 60
        E 120 80 57 60
        E 0 80 63 60
        E 120 90 3c 60
        E 0 90 48 60
        E 0 90 54 60
        E 0 90 60 60
        E 120 80 3c 60
        E 0 80 48 60
        E 0 80 54 60
        E 0 80 60 60
        E 120 90 48 60
        E 0 90 54 60
        E 0 90 60 60
        E 120 80 48 60
        E 0 80 54 60
        E 0 80 60 60
        E 120 90 3c 60
        E 0 90 48 60
        E 0 90 54 60
        E 0 90 60 60
        E 120 80 3c 60
        E 0 80 48 60
        E 0 80 54 60
        E 0 80 60 60
        E 120 90 48 60
        E 0 90 54 60
        E 0 90 60 60
        E 120 80 48 60
        E 0 80 54 60
        E 0 80 60 60
        E 120 90 3c 60
        E 0 90 48 60
        E 0 90 54 60
        E 0 90 60 60
        E 120 80 3c 60
        E 0 80 48 60
        E 0 80 54 60
        E 0 80 60 60
        E 120 90 48 60
        E 0 90 54 60
        E 0 90 60 60
        E 120 80 48 60
        E 0 80 54 60
        E 0 80 60 60
        E 120 90 3c 60
        E 0 90 48 60
        E 0 90 54 60
        E 0 90 60 60
        E 120 80 3c 60
        E 0 80 48 60
        E 0 80 54 60
        E 0 80 60 60
        E 120 90 57 60
        E 0 90 63 60
        E 120 80 57 60
        E 0 80 63 60
        E 120 90 3c 60
        E 0 90 48 60
        E 0 90 54 60
        E 0 90 60 60
        E 0 90 74 60
        E 120 80 3c 60
        E 0 80 48 60
        E 0 80 54 60
        E 0 80 60 60
        E 120 90 48 60
        E 0 90 54 60
        E 0 90 60 60
        E 120 80 48 60
        E 0 80 54 60
        E 0 80 60 60
        E 120 90 3c 60
        E 0 90 48 60
        E 0 90 54 60
        E 0 90 60 60
        E 120 80 3c 60
        E 0 80 48 60
        E 0 80 54 60
        E 0 80 60 60
        E 120 90 48 60
        E 0 90 54 60
        E 0 90 60 60
        E 120 80 48 60
        E 0 80 54 60
        E 0 80 60 60
        E 120 90 3c 60
        E 0 90 48 60
        E 0 90 54 60
        E 0 90 60 60
        E 120 80 3c 60
        E 0 80 48 60
        E 0 80 54 60
        E 0 80 60 60
        E 120 90 48 60
        E 0 90 54 60
        E 0 90 60 60
        E 120 80 48 60
        E 0 80 54 60
        E 0 80 60 60
        E 120 90 48 60
        E 0 90 54 60
        E 0 90 60 60
        E 120 80 48 60
        E 0 80 54 60
        E 0 80 60 60
        E 120 90 54 60
        E 0 90 60 60
        E 120 80 54 60
        E 0 80 60 60
        E 120 80 74 60
        E 0 90 3d 60
        E 0 90 4a 60
        E 0 90 56 60
        E 0 90 62 60
        E 120 80 3d 60
        E 0 80 4a 60
        E 0 80 56 60
        E 0 80 62 60
        E 120 90 4a 60
        E 0 90 56 60
        E 0 90 62 60
        E 120 80 4a 60
        E 0 80 56 60
        E 0 80 62 60
        E 120 90 3d 60
        E 0 90 4a 60
        E 0 90 56 60
        E 0 90 62 60
        E 120 80 3d 60
        E 0 80 4a 60
        E 0 80 56 60
        E 0 80 62 60
        E 120 90 4a 60
        E 0 90 56 60
        E 0 90 62 60
        E 120 80 4a 60
        E 0 80 56 60
        E 0 80 62 60
        E 120 90 3d 60
        E 0 90 4a 60
        E 0 90 56 60
        E 0 90 62 60
        E 120 80 3d 60
        E 0 80 4a 60
        E 0 80 56 60
        E 0 80 62 60
        E 120 90 4a 60
        E 0 90 56 60
        E 0 90 62 60
        E 120 80 4a 60
        E 0 80 56 60
        E 0 80 62 60
        E 120 90 4a 60
        E 0 90 56 60
        E 0 90 62 60
        E 120 80 4a 60
        E 0 80 56 60
        E 0 80 62 60
        E 120 90 56 60
        E 0 90 62 60
        E 120 80 56 60
        E 0 80 62 60
        E 120 90 3e 60
        E 0 90 4b 60
        E 0 90 57 60
        E 0 90 63 60
        E 120 80 3e 60
        E 0 80 4b 60
        E 0 80 57 60
        E 0 80 63 60
        E 120 90 4b 60
        E 0 90 57 60
        E 0 90 63 60
        E 120 80 4b 60
        E 0 80 57 60
        E 0 80 63 60
        E 120 90 3e 60
        E 0 90 4b 60
        E 0 90 57 60
        E 0 90 63 60
        E 120 80 3e 60
        E 0 80 4b 60
        E 0 80 57 60
        E 0 80 63 60
        E 120 90 4b 60
        E 0 90 57 60
        E 0 90 63 60
        E 120 80 4b 60
        E 0 80 57 60
        E 0 80 63 60
        E 120 90 3e 60
        E 0 90 4b 60
        E 0 90 57 60
        E 0 90 63 60
        E 120 80 3e 60
        E 0 80 4b 60
        E 0 80 57 60
        E 0 80 63 60
        E 120 90 4b 60
        E 0 90 57 60
        E 0 90 63 60
        E 120 80 4b 60
        E 0 80 57 60
        E 0 80 63 60
        E 120 90 4b 60
        E 0 90 57 60
        E 0 90 63 60
        E 120 80 4b 60
        E 0 80 57 60
        E 0 80 63 60
        E 120 90 57 60
        E 0 90 63 60
        E 120 80 57 60
        E 0 80 63 60
        E 120 90 3c 60
        E 0 90 48 60
        E 0 90 54 60
        E 0 90 60 60
        E 120 80 3c 60
        E 0 80 48 60
        E 0 80 54 60
        E 0 80 60 60
        E 120 90 48 60
        E 0 90 54 60
        E 0 90 60 60
        E 120 80 48 60
        E 0 80 54 60
        E 0 80 60 60
        E 120 90 3c 60
        E 0 90 48 60
        E 0 90 54 60
        E 0 90 60 60
        E 120 80 3c 60
        E 0 80 48 60
        E 0 80 54 60
        E 0 80 60 60
        E 120 90 48 60
        E 0 90 54 60
        E 0 90 60 60
        E 120 80 48 60
        E 0 80 54 60
        E 0 80 60 60
        E 120 90 3c 60
        E 0 90 48 60
        E 0 90 54 60
        E 0 90 60 60
        E 120 80 3c 60
        E 0 80 48 60
        E 0 80 54 60
        E 0 80 60 60
        E 120 90 48 60
        E 0 90 54 60
        E 0 90 60 60
        E 120 80 48 60
        E 0 80 54 60
        E 0 80 60 60
        E 120 90 3c 60
        E 0 90 48 60
        E 0 90 54 60
        E 0 90 60 60
        E 120 80 3c 60
        E 0 80 48 60
        E 0 80 54 60
        E 0 80 60 60
        E 120 90 57 60
        E 0 90 63 60
        E 120 80 57 60
        E 0 80 63 60
        E 120 90 3c 60
        E 0 90 48 60
        E 0 90 54 60
        E 0 90 60 60
        E 120 80 3c 60
        E 0 80 48 60
        E 0 80 54 60
        E 0 80 60 60
        E 120 90 48 60
        E 0 90 54 60
        E 0 90 60 60
        E 120 80 48 60
        E 0 80 54 60
        E 0 80 60 60
        E 120 90 3c 60
        E 0 90 48 60
        E 0 90 54 60
        E 0 90 60 60
        E 120 80 3c 60
        E 0 80 48 60
        E 0 80 54 60
        E 0 80 60 60
        E 120 90 48 60
        E 0 90 54 60
        E 0 90 60 60
        E 120 80 48 60
        E 0 80 54 60
        E 0 80 60 60
        E 120 90 3c 60
        E 0 90 48 60
        E 0 90 54 60
        E 0 90 60 60
        E 120 80 3c 60
        E 0 80 48 60
        E 0 80 54 60
        E 0 80 60 60
        E 120 90 48 60
        E 0 90 54 60
        E 0 90 60 60
        E 120 80 48 60
        E 0 80 54 60
        E 0 80 60 60
        E 120 90 48 60
        E 0 90 54 60
        E 0 90 60 60
        E 120 80 48 60
        E 240 80 54 60
        E 0 80 60 60
        E 120 90 3d 60
        E 0 90 4a 60
        E 0 90 56 60
        E 0 90 62 60
        E 120 80 3d 60
        E 0 80 4a 60
        E 0 80 56 60
        E 0 80 62 60
        E 120 90 4a 60
        E 0 90 56 60
        E 0 90 62 60
        E 120 80 4a 60
        E 0 80 56 60
        E 0 80 62 60
        E 120 90 3d 60
        E 0 90 4a 60
        E 0 90 56 60
        E 0 90 62 60
        E 120 80 3d 60
        E 0 80 4a 60
        E 0 80 56 60
        E 0 80 62 60
        E 120 90 4a 60
        E 0 90 56 60
        E 0 90 62 60
        E 120 80 4a 60
        E 0 80 56 60
        E 0 80 62 60
        E 120 90 3d 60
        E 0 90 4a 60
        E 0 90 56 60
        E 0 90 62 60
        E 120 80 3d 60
        E 0 80 4a 60
        E 0 80 56 60
        E 0 80 62 60
        E 120 90 4a 60
        E 0 90 56 60
        E 0 90 62 60
        E 120 80 4a 60
        E 0 80 56 60
        E 0 80 62 60
        E 120 90 4a 60
        E 0 90 56 60
        E 0 90 62 60
        E 120 80 4a 60
        E 0 80 56 60
        E 0 80 62 60
        E 120 90 56 60
        E 0 90 62 60
        E 120 80 56 60
        E 0 80 62 60
        E 120 90 3e 60
        E 0 90 4b 60
        E 0 90 57 60
        E 0 90 63 60
        E 120 80 3e 60
        E 0 80 4b 60
        E 0 80 57 60
        E 0 80 63 60
        E 120 90 4b 60
        E 0 90 57 60
        E 0 90 63 60
        E 120 80 4b 60
        E 0 80 57 60
        E 0 80 63 60
        E 120 90 3e 60
        E 0 90 4b 60
        E 0 90 57 60
        E 0 90 63 60
        E 120 80 3e 60
        E 0 80 4b 60
        E 0 80 57 60
        E 0 80 63 60
        E 120 90 4b 60
        E 0 90 57 60
        E 0 90 63 60
        E 120 80 4b 60
        E 0 80 57 60
        E 0 80 63 60
        E 120 90 3e 60
        E 0 90 4b 60
        E 0 90 57 60
        E 0 90 63 60
        E 120 80 3e 60
        E 0 80 4b 60
        E 0 80 57 60
        E 0 80 63 60
        E 120 90 4b 60
        E 0 90 57 60
        E 0 90 63 60
        E 60 80 4b 60
        E 60 80 57 60
        E 0 80 63 60
        E 120 90 3e 60
        E 0 90 4b 60
        E 0 90 57 60
        E 0 90 63 60
        E 60 80 3e 60
        E 60 80 4b 60
        E 0 80 57 60
        E 0 80 63 60
        E 120 90 57 60
        E 0 90 63 60
        E 120 80 57 60
        E 0 80 63 60
        E 120 90 3e 60
        E 0 90 4b 60
        E 0 90 58 60
        E 0 90 64 60
        E 120 80 3e 60
        E 0 80 4b 60
        E 0 80 58 60
        E 0 80 64 60
        E 120 90 4b 60
        E 0 90 58 60
        E 0 90 64 60
        E 120 80 4b 60
        E 0 80 58 60
        E 0 80 64 60
        E 120 90 3e 60
        E 0 90 4b 60
        E 0 90 58 60
        E 0 90 64 60
        E 120 80 3e 60
        E 0 80 4b 60
        E 0 80 58 60
        E 0 80 64 60
        E 120 90 4b 60
        E 0 90 58 60
        E 0 90 64 60
        E 120 80 4b 60
        E 0 80 58 60
        E 0 80 64 60
        E 120 90 3e 60
        E 0 90 4b 60
        E 0 90 58 60
        E 0 90 64 60
        E 120 80 3e 60
        E 0 80 4b 60
        E 0 80 58 60
        E 0 80 64 60
        E 120 90 4b 60
        E 0 90 58 60
        E 0 90 64 60
        E 120 80 4b 60
        E 0 80 58 60
        E 0 80 64 60
        E 120 90 4b 60
        E 0 90 58 60
        E 0 90 64 60
        E 120 80 4b 60
        E 0 80 58 60
        E 0 80 64 60
        E 120 90 58 60
        E 0 90 64 60
        E 120 80 58 60
        E 0 80 64 60
        E 120 90 3c 60
        E 0 90 48 60
        E 0 90 54 60
        E 0 90 60 60
        E 120 80 3c 60
        E 0 80 48 60
        E 0 80 54 60
        E 0 80 60 60
        E 120 90 48 60
        E 0 90 54 60
        E 0 90 60 60
        E 120 80 48 60
        E 0 80 54 60
        E 0 80 60 60
        E 120 90 3c 60
        E 0 90 48 60
        E 0 90 54 60
        E 0 90 60 60
        E 120 80 3c 60
        E 0 80 48 60
        E 0 80 54 60
        E 0 80 60 60
        E 120 90 48 60
        E 0 90 54 60
        E 0 90 60 60
        E 120 80 48 60
        E 0 80 54 60
        E 0 80 60 60
        E 120 90 3c 60
        E 0 90 48 60
        E 0 90 54 60
        E 0 90 60 60
        E 120 80 3c 60
        E 0 80 48 60
        E 0 80 54 60
        E 0 80 60 60
        E 120 90 48 60
        E 0 90 54 60
        E 0 90 60 60
        E 120 80 48 60
        E 0 80 54 60
        E 0 80 60 60
        E 120 90 4a 60
        E 0 90 56 60
        E 0 90 62 60
        E 120 80 4a 60
        E 0 80 56 60
        E 0 80 62 60
        E 120 90 54 60
        E 0 90 60 60
        E 120 80 54 60
        E 0 80 60 60
        E 120 90 3d 60
        E 0 90 49 60
        E 0 90 55 60
        E 0 90 61 60
        E 0 90 74 60
        E 120 80 3d 60
        E 0 80 49 60
        E 0 80 55 60
        E 0 80 61 60
        E 120 90 49 60
        E 0 90 55 60
        E 0 90 61 60
        E 120 80 49 60
        E 0 80 55 60
        E 0 80 61 60
        E 120 90 3d 60
        E 0 90 49 60
        E 0 90 55 60
        E 0 90 61 60
        E 120 80 3d 60
        E 0 80 49 60
        E 0 80 55 60
        E 0 80 61 60
        E 120 90 49 60
        E 0 90 55 60
        E 0 90 61 60
        E 120 80 49 60
        E 0 80 55 60
        E 0 80 61 60
        E 120 90 3d 60
        E 0 90 49 60
        E 0 90 55 60
        E 0 90 61 60
        E 120 80 3d 60
        E 0 80 49 60
        E 0 80 55 60
        E 0 80 61 60
        E 120 90 49 60
        E 0 90 55 60
        E 0 90 61 60
        E 120 80 49 60
        E 0 80 55 60
        E 0 80 61 60
        E 120 90 49 60
        E 0 90 55 60
        E 0 90 61 60
        E 120 80 49 60
        E 0 80 55 60
        E 0 80 61 60
        E 120 90 55 60
        E 0 90 61 60
        E 120 80 55 60
        E 0 80 61 60
        E 120 90 3c 60
        E 0 90 48 60
        E 0 90 54 60
        E 0 90 60 60
        E 120 80 3c 60
        E 0 80 48 60
        E 0 80 54 60
        E 0 80 60 60
        E 120 90 55 60
        E 0 90 61 60
        E 120 80 55 60
        E 0 80 61 60
        E 120 90 56 60
        E 0 90 62 60
        E 120 80 56 60
        E 0 80 62 60
        E 120 90 3c 60
        E 0 90 4a 60
        E 0 90 57 60
        E 0 90 63 60
        E 60 80 3c 60
        E 180 80 74 60
        E 1920 80 4a 60
        E 0 80 57 60
        E 0 80 63 60
        E 720 90 57 60
        E 0 90 63 60
        E 120 80 57 60
        E 0 80 63 60
        E 120 90 3c 60
        E 0 90 48 60
        E 0 90 54 60
        E 0 90 60 60
        E 120 80 3c 60
        E 0 80 48 60
        E 0 80 54 60
        E 0 80 60 60
        E 120 90 48 60
        E 0 90 54 60
        E 0 90 60 60
        E 120 80 48 60
        E 0 80 54 60
        E 0 80 60 60
        E 120 90 3c 60
        E 0 90 48 60
        E 0 90 54 60
        E 0 90 60 60
        E 120 80 3c 60
        E 0 80 48 60
        E 0 80 54 60
        E 0 80 60 60
        E 120 90 48 60
        E 0 90 54 60
        E 0 90 60 60
        E 120 80 48 60
        E 0 80 54 60
        E 0 80 60 60
        E 120 90 3c 60
        E 0 90 48 60
        E 0 90 54 60
        E 0 90 60 60
        E 120 80 3c 60
        E 0 80 48 60
        E 0 80 54 60
        E 0 80 60 60
        E 120 90 48 60
        E 0 90 54 60
        E 0 90 60 60
        E 120 80 48 60
        E 0 80 54 60
        E 0 80 60 60
        E 120 90 3c 60
        E 0 90 48 60
        E 0 90 54 60
        E 0 90 60 60
        E 120 80 3c 60
        E 0 80 48 60
        E 0 80 54 60
        E 0 80 60 60
        E 120 90 57 60
        E 0 90 63 60
        E 120 80 57 60
        E 0 80 63 60
        E 120 90 3c 60
        E 0 90 48 60
        E 0 90 54 60
        E 0 90 60 60
        E 120 80 3c 60
        E 0 80 48 60
        E 0 80 54 60
        E 0 80 60 60
        E 120 90 48 60
        E 0 90 54 60
        E 0 90 60 60
        E 120 80 48 60
        E 0 80 54 60
        E 0 80 60 60
        E 120 90 3c 60
        E 0 90 48 60
        E 0 90 54 60
        E 0 90 60 60
        E 120 80 3c 60
        E 0 80 48 60
        E 0 80 54 60
        E 0 80 60 60
        E 120 90 48 60
        E 0 90 54 60
        E 0 90 60 60
        E 120 80 48 60
        E 0 80 54 60
        E 0 80 60 60
        E 120 90 3c 60
        E 0 90 48 60
        E 0 90 54 60
        E 0 90 60 60
        E 120 80 3c 60
        E 0 80 48 60
        E 0 80 54 60
        E 0 80 60 60
        E 120 90 48 60
        E 0 90 54 60
        E 0 90 60 60
        E 120 80 48 60
        E 0 80 54 60
        E 0 80 60 60
        E 120 90 48 60
        E 0 90 54 60
        E 0 90 60 60
        E 120 80 48 60
        E 0 80 54 60
        E 0 80 60 60
        E 120 90 57 60
        E 0 90 63 60
        E 120 80 57 60
        E 0 80 63 60
        E 120 90 3d 60
        E 0 90 4a 60
        E 0 90 56 60
        E 0 90 62 60
        E 120 80 3d 60
        E 0 80 4a 60
        E 0 80 56 60
        E 0 80 62 60
        E 120 90 4a 60
        E 0 90 56 60
        E 0 90 62 60
        E 120 80 4a 60
        E 0 80 56 60
        E 0 80 62 60
        E 120 90 4a 60
        E 0 90 56 60
        E 0 90 62 60
        E 120 80 4a 60
        E 0 80 56 60
        E 0 80 62 60
        E 120 90 56 60
        E 0 90 62 60
        E 120 80 56 60
        E 0 80 62 60
        E 120 90 3e 60
        E 0 90 4b 60
        E 0 90 57 60
        E 0 90 63 60
        E 120 80 3e 60
        E 0 80 4b 60
        E 0 80 57 60
        E 0 80 63 60
        E 120 90 4b 60
        E 0 90 57 60
        E 0 90 63 60
        E 120 80 4b 60
        E 0 80 57 60
        E 0 80 63 60
        E 120 90 4b 60
        E 0 90 57 60
        E 0 90 63 60
        E 120 80 4b 60
        E 0 80 57 60
        E 0 80 63 60
        E 120 90 57 60
        E 0 90 63 60
        E 120 80 57 60
        E 0 80 63 60
        E 120 90 3c 60
        E 0 90 48 60
        E 0 90 54 60
        E 0 90 60 60
        E 120 80 3c 60
        E 0 80 48 60
        E 0 80 54 60
        E 0 80 60 60
        E 120 90 48 60
        E 0 90 54 60
        E 0 90 60 60
        E 120 80 48 60
        E 0 80 54 60
        E 0 80 60 60
        E 120 90 3c 60
        E 0 90 48 60
        E 0 90 54 60
        E 0 90 60 60
        E 120 80 3c 60
        E 0 80 48 60
        E 0 80 54 60
        E 0 80 60 60
        E 120 90 48 60
        E 0 90 54 60
        E 0 90 60 60
        E 120 80 48 60
        E 0 80 54 60
        E 0 80 60 60
        E 120 90 3c 60
        E 0 90 48 60
        E 0 90 54 60
        E 0 90 60 60
        E 120 80 3c 60
        E 0 80 48 60
        E 0 80 54 60
        E 0 80 60 60
        E 120 90 48 60
        E 0 90 54 60
        E 0 90 60 60
        E 120 80 48 60
        E 0 80 54 60
        E 0 80 60 60
        E 120 90 48 60
        E 0 90 54 60
        E 0 90 60 60
        E 120 80 48 60
        E 0 80 54 60
        E 0 80 60 60
        E 120 90 54 60
        E 0 90 60 60
        E 120 80 54 60
        E 0 80 60 60
        E 120 90 3d 60
        E 0 90 4a 60
        E 0 90 56 60
        E 0 90 62 60
        E 120 80 3d 60
        E 0 80 4a 60
        E 0 80 56 60
        E 0 80 62 60
        E 120 90 4a 60
        E 0 90 56 60
        E 0 90 62 60
        E 120 80 4a 60
        E 0 80 56 60
        E 0 80 62 60
        E 120 90 4a 60
        E 0 90 56 60
        E 0 90 62 60
        E 120 80 4a 60
        E 0 80 56 60
        E 0 80 62 60
        E 120 90 56 60
        E 0 90 62 60
        E 120 80 56 60
        E 0 80 62 60
        E 120 90 3e 60
        E 0 90 4b 60
        E 0 90 57 60
        E 0 90 63 60
        E 120 80 3e 60
        E 0 80 4b 60
        E 0 80 57 60
        E 0 80 63 60
        E 120 90 4b 60
        E 0 90 57 60
        E 0 90 63 60
        E 120 80 4b 60
        E 0 80 57 60
        E 0 80 63 60
        E 120 90 3e 60
        E 0 90 4b 60
        E 0 90 57 60
        E 0 90 63 60
        E 120 80 3e 60
        E 0 80 4b 60
        E 0 80 57 60
        E 0 80 63 60
        E 120 90 4b 60
        E 0 90 57 60
        E 0 90 63 60
        E 120 80 4b 60
        E 0 80 57 60
        E 0 80 63 60
        E 120 90 3e 60
        E 0 90 4b 60
        E 0 90 58 60
        E 0 90 64 60
        E 0 90 74 60
        E 120 80 3e 60
        E 0 80 4b 60
        E 0 80 58 60
        E 0 80 64 60
        E 120 90 4b 60
        E 0 90 58 60
        E 0 90 64 60
        E 120 80 4b 60
        E 0 80 58 60
        E 0 80 64 60
        E 120 90 3e 60
        E 0 90 4b 60
        E 0 90 58 60
        E 0 90 64 60
        E 120 80 3e 60
        E 0 80 4b 60
        E 0 80 58 60
        E 0 80 64 60
        E 120 90 4b 60
        E 0 90 58 60
        E 0 90 64 60
        E 120 80 4b 60
        E 0 80 58 60
        E 0 80 64 60
        E 120 90 3e 60
        E 0 90 4b 60
        E 0 90 58 60
        E 0 90 64 60
        E 120 80 3e 60
        E 0 80 4b 60
        E 0 80 58 60
        E 0 80 64 60
        E 120 90 4a 60
        E 0 90 57 60
        E 0 90 63 60
        E 120 80 4a 60
        E 0 80 57 60
        E 0 80 63 60
        E 120 90 49 60
        E 0 90 56 60
        E 0 90 62 60
        E 120 80 49 60
        E 0 80 56 60
        E 0 80 62 60
        E 120 90 55 60
        E 0 90 61 60
        E 120 80 55 60
        E 0 80 61 60
        E 120 80 74 60
        E 0 90 3c 60
        E 0 90 48 60
        E 0 90 54 60
        E 0 90 60 60
        E 120 80 3c 60
        E 0 80 48 60
        E 0 80 54 60
        E 0 80 60 60
        E 120 90 48 60
        E 0 90 54 60
        E 0 90 60 60
        E 120 80 48 60
        E 0 80 54 60
        E 0 80 60 60
        E 120 90 3c 60
        E 0 90 48 60
        E 0 90 54 60
        E 0 90 60 60
        E 120 80 3c 60
        E 0 80 48 60
        E 0 80 54 60
        E 0 80 60 60
        E 120 90 48 60
        E 0 90 54 60
        E 0 90 60 60
        E 120 80 48 60
        E 0 80 54 60
        E 0 80 60 60
        E 120 90 3c 60
        E 0 90 48 60
        E 0 90 54 60
        E 0 90 60 60
        E 120 80 3c 60
        E 0 80 48 60
        E 0 80 54 60
        E 0 80 60 60
        E 120 90 4a 60
        E 0 90 56 60
        E 0 90 62 60
        E 120 80 4a 60
        E 0 80 56 60
        E 0 80 62 60
        E 120 90 48 60
        E 0 90 54 60
        E 0 90 60 60
        E 120 80 48 60
        E 0 80 54 60
        E 0 80 60 60
        E 120 90 54 60
        E 0 90 60 60
        E 120 80 54 60
        E 0 80 60 60
        E 120 90 3d 60
        E 0 90 49 60
        E 0 90 55 60
        E 0 90 61 60
        E 120 80 3d 60
        E 0 80 49 60
        E 0 80 55 60
        E 0 80 61 60
        E 120 90 49 60
        E 0 90 55 60
        E 0 90 61 60
        E 120 80 49 60
        E 0 80 55 60
        E 0 80 61 60
        E 120 90 3d 60
        E 0 90 49 60
        E 0 90 55 60
        E 0 90 61 60
        E 120 80 3d 60
        E 0 80 49 60
        E 0 80 55 60
        E 0 80 61 60
        E 120 90 49 60
        E 0 90 55 60
        E 0 90 61 60
        E 120 80 49 60
        E 0 80 55 60
        E 0 80 61 60
        E 120 90 3d 60
        E 0 90 49 60
        E 0 90 55 60
        E 0 90 61 60
        E 120 80 3d 60
        E 0 80 49 60
        E 0 80 55 60
        E 0 80 61 60
        E 120 90 49 60
        E 0 90 55 60
        E 0 90 61 60
        E 120 80 49 60
        E 0 80 55 60
        E 0 80 61 60
        E 120 90 49 60
        E 0 90 55 60
        E 0 90 61 60
        E 120 80 49 60
        E 0 80 55 60
        E 0 80 61 60
        E 120 90 55 60
        E 0 90 61 60
        E 120 80 55 60
        E 0 80 61 60
        E 120 90 3c 60
        E 0 90 48 60
        E 0 90 54 60
        E 0 90 60 60
        E 120 80 3c 60
        E 0 80 48 60
        E 0 80 54 60
        E 0 80 60 60
        E 120 90 54 60
        E 0 90 60 60
        E 120 80 54 60
        E 0 80 60 60
        E 120 90 48 60
        E 0 90 54 60
        E 0 90 60 60
        E 120 80 48 60
        E 0 80 54 60
        E 0 80 60 60
        E 120 90 54 60
        E 0 90 60 60
        E 120 80 54 60
        E 0 80 60 60
        E 120 90 3d 60
        E 0 90 49 60
        E 0 90 56 60
        E 0 90 62 60
        E 1920 80 3d 60
        E 0 80 49 60
        E 0 80 56 60
        E 0 80 62 60
        E 480 90 4b 60
        E 0 90 57 60
        E 0 90 63 60
        E 240 80 4b 60
        E 120 80 57 60
        E 0 80 63 60
        E 120 90 3c 60
        E 0 90 48 60
        E 0 90 54 60
        E 0 90 60 60
        E 120 80 3c 60
        E 0 80 48 60
        E 0 80 54 60
        E 0 80 60 60
        E 120 90 48 60
        E 0 90 54 60
        E 0 90 60 60
        E 120 80 48 60
        E 0 80 54 60
        E 0 80 60 60
        E 120 90 3c 60
        E 0 90 48 60
        E 0 90 54 60
        E 0 90 60 60
        E 120 80 3c 60
        E 0 80 48 60
        E 0 80 54 60
        E 0 80 60 60
        E 120 90 48 60
        E 0 90 54 60
        E 0 90 60 60
        E 120 80 48 60
        E 0 80 54 60
        E 0 80 60 60
        E 120 90 3c 60
        E 0 90 48 60
        E 0 90 54 60
        E 0 90 60 60
        E 120 80 3c 60
        E 0 80 48 60
        E 0 80 54 60
        E 0 80 60 60
        E 120 90 48 60
        E 0 90 54 60
        E 0 90 60 60
        E 120 80 48 60
        E 0 80 54 60
        E 0 80 60 60
        E 120 90 3c 60
        E 0 90 48 60
        E 0 90 54 60
        E 0 90 60 60
        E 120 80 3c 60
        E 0 80 48 60
        E 0 80 54 60
        E 0 80 60 60
        E 120 90 57 60
        E 0 90 63 60
        E 120 80 57 60
        E 0 80 63 60
        E 120 90 3c 60
        E 0 90 48 60
        E 0 90 54 60
        E 0 90 60 60
        E 120 80 3c 60
        E 0 80 48 60
        E 0 80 54 60
        E 0 80 60 60
        E 120 90 48 60
        E 0 90 54 60
        E 0 90 60 60
        E 120 80 48 60
        E 0 80 54 60
        E 0 80 60 60
        E 120 90 3c 60
        E 0 90 48 60
        E 0 90 54 60
        E 0 90 60 60
        E 120 80 3c 60
        E 0 80 48 60
        E 0 80 54 60
        E 0 80 60 60
        E 120 90 48 60
        E 0 90 54 60
        E 0 90 60 60
        E 120 80 48 60
        E 0 80 54 60
        E 0 80 60 60
        E 120 90 3c 60
        E 0 90 48 60
        E 0 90 54 60
        E 0 90 60 60
        E 120 80 3c 60
        E 0 80 48 60
        E 0 80 54 60
        E 0 80 60 60
        E 120 90 48 60
        E 0 90 54 60
        E 0 90 60 60
        E 120 80 48 60
        E 0 80 54 60
        E 0 80 60 60
        E 120 90 48 60
        E 0 90 54 60
        E 0 90 60 60
        E 120 80 48 60
        E 0 80 54 60
        E 0 80 60 60
        E 120 90 54 60
        E 0 90 60 60
        E 120 80 54 60
        E 0 80 60 60
        E 120 90 3d 60
        E 0 90 4a 60
        E 0 90 56 60
        E 0 90 62 60
        E 120 80 3d 60
        E 0 80 4a 60
        E 0 80 56 60
        E 0 80 62 60
        E 120 90 4a 60
        E 0 90 56 60
        E 0 90 62 60
        E 120 80 4a 60
        E 0 80 56 60
        E 0 80 62 60
        E 120 90 4a 60
        E 0 90 56 60
        E 0 90 62 60
        E 120 80 4a 60
        E 0 80 56 60
        E 0 80 62 60
        E 120 90 56 60
        E 0 90 62 60
        E 120 80 56 60
        E 0 80 62 60
        E 120 90 3e 60
        E 0 90 4b 60
        E 0 90 57 60
        E 0 90 63 60
        E 120 80 3e 60
        E 0 80 4b 60
        E 0 80 57 60
        E 0 80 63 60
        E 120 90 4b 60
        E 0 90 57 60
        E 0 90 63 60
        E 120 80 4b 60
        E 0 80 57 60
        E 0 80 63 60
        E 120 90 4b 60
        E 0 90 57 60
        E 0 90 63 60
        E 120 80 4b 60
        E 0 80 57 60
        E 0 80 63 60
        E 120 90 57 60
        E 0 90 63 60
        E 120 80 57 60
        E 0 80 63 60
        E 120 90 3c 60
        E 0 90 48 60
        E 0 90 54 60
        E 0 90 60 60
        E 0 90 74 60
        E 120 80 3c 60
        E 0 80 48 60
        E 0 80 54 60
        E 0 80 60 60
        E 120 90 48 60
        E 0 90 54 60
        E 0 90 60 60
        E 120 80 48 60
        E 0 80 54 60
        E 0 80 60 60
        E 120 90 3c 60
        E 0 90 48 60
        E 0 90 54 60
        E 0 90 60 60
        E 120 80 3c 60
        E 0 80 48 60
        E 0 80 54 60
        E 0 80 60 60
        E 120 90 48 60
        E 0 90 54 60
        E 0 90 60 60
        E 120 80 48 60
        E 0 80 54 60
        E 0 80 60 60
        E 120 90 3c 60
        E 0 90 48 60
        E 0 90 54 60
        E 0 90 60 60
        E 120 80 3c 60
        E 0 80 48 60
        E 0 80 54 60
        E 0 80 60 60
        E 120 90 48 60
        E 0 90 54 60
        E 0 90 60 60
        E 120 80 48 60
        E 0 80 54 60
        E 0 80 60 60
        E 120 90 48 60
        E 0 90 54 60
        E 0 90 60 60
        E 120 80 48 60
        E 0 80 54 60
        E 0 80 60 60
        E 120 90 55 60
        E 0 90 61 60
        E 120 80 55 60
        E 0 80 61 60
        E 120 80 74 60
        E 0 90 3d 60
        E 0 90 4a 60
        E 0 90 56 60
        E 0 90 62 60
        E 120 80 3d 60
        E 0 80 4a 60
        E 0 80 56 60
        E 0 80 62 60
        E 120 90 4a 60
        E 0 90 56 60
        E 0 90 62 60
        E 120 80 4a 60
        E 0 80 56 60
        E 0 80 62 60
        E 120 90 4a 60
        E 0 90 56 60
        E 0 90 62 60
        E 120 80 4a 60
        E 0 80 56 60
        E 0 80 62 60
        E 120 90 56 60
        E 0 90 62 60
        E 120 80 56 60
        E 0 80 62 60
        E 120 90 3e 60
        E 0 90 4b 60
        E 0 90 57 60
        E 0 90 63 60
        E 120 80 3e 60
        E 0 80 4b 60
        E 0 80 57 60
        E 0 80 63 60
        E 120 90 4b 60
        E 0 90 57 60
        E 0 90 63 60
        E 120 80 4b 60
        E 0 80 57 60
        E 0 80 63 60
        E 120 90 4b 60
        E 0 90 57 60
        E 0 90 63 60
        E 120 80 4b 60
        E 0 80 57 60
        E 0 80 63 60
        E 120 90 57 60
        E 0 90 63 60
        E 120 80 57 60
        E 0 80 63 60
        E 120 90 3c 60
        E 0 90 48 60
        E 0 90 54 60
        E 0 90 60 60
        E 120 80 3c 60
        E 0 80 48 60
        E 0 80 54 60
        E 0 80 60 60
        E 120 90 48 60
        E 0 90 54 60
        E 0 90 60 60
        E 120 80 48 60
        E 0 80 54 60
        E 0 80 60 60
        E 120 90 3c 60
        E 0 90 48 60
        E 0 90 54 60
        E 0 90 60 60
        E 120 80 3c 60
        E 0 80 48 60
        E 0 80 54 60
        E 0 80 60 60
        E 120 90 48 60
        E 0 90 54 60
        E 0 90 60 60
        E 120 80 48 60
        E 0 80 54 60
        E 0 80 60 60
        E 120 90 3c 60
        E 0 90 48 60
        E 0 90 54 60
        E 0 90 60 60
        E 120 80 3c 60
        E 0 80 48 60
        E 0 80 54 60
        E 0 80 60 60
        E 120 90 48 60
        E 0 90 54 60
        E 0 90 60 60
        E 120 80 48 60
        E 0 80 54 60
        E 0 80 60 60
        E 120 90 48 60
        E 0 90 54 60
        E 0 90 60 60
        E 120 80 48 60
        E 0 80 54 60
        E 0 80 60 60
        E 120 90 54 60
        E 0 90 60 60
        E 120 80 54 60
        E 0 80 60 60
        E 120 90 3d 60
        E 0 90 4a 60
        E 0 90 56 60
        E 0 90 62 60
        E 120 80 3d 60
        E 0 80 4a 60
        E 0 80 56 60
        E 0 80 62 60
        E 120 90 4a 60
        E 0 90 56 60
        E 0 90 62 60
        E 120 80 4a 60
        E 0 80 56 60
        E 0 80 62 60
        E 120 90 4a 60
        E 0 90 56 60
        E 0 90 62 60
        E 120 80 4a 60
        E 0 80 56 60
        E 0 80 62 60
        E 120 90 56 60
        E 0 90 62 60
        E 120 80 56 60
        E 0 80 62 60
        E 120 90 3e 60
        E 0 90 4b 60
        E 0 90 57 60
        E 0 90 63 60
        E 120 80 3e 60
        E 0 80 4b 60
        E 0 80 57 60
        E 0 80 63 60
        E 120 90 4b 60
        E 0 90 57 60
        E 0 90 63 60
        E 120 80 4b 60
        E 0 80 57 60
        E 0 80 63 60
        E 120 90 3e 60
        E 0 90 4b 60
        E 0 90 57 60
        E 0 90 63 60
        E 120 80 3e 60
        E 0 80 4b 60
        E 0 80 57 60
        E 0 80 63 60
        E 120 90 4b 60
        E 0 90 57 60
        E 0 90 63 60
        E 120 80 4b 60
        E 0 80 57 60
        E 0 80 63 60
        E 120 90 3e 60
        E 0 90 4b 60
        E 0 90 58 60
        E 0 90 64 60
        E 120 80 3e 60
        E 0 80 4b 60
        E 0 80 58 60
        E 0 80 64 60
        E 120 90 4b 60
        E 0 90 58 60
        E 0 90 64 60
        E 120 80 4b 60
        E 0 80 58 60
        E 0 80 64 60
        E 120 90 3e 60
        E 0 90 4b 60
        E 0 90 58 60
        E 0 90 64 60
        E 120 80 3e 60
        E 0 80 4b 60
        E 0 80 58 60
        E 0 80 64 60
        E 120 90 4b 60
        E 0 90 58 60
        E 0 90 64 60
        E 120 80 4b 60
        E 0 80 58 60
        E 0 80 64 60
        E 120 90 3e 60
        E 0 90 4b 60
        E 0 90 58 60
        E 0 90 64 60
        E 120 80 3e 60
        E 0 80 4b 60
        E 0 80 58 60
        E 0 80 64 60
        E 120 90 4b 60
        E 0 90 58 60
        E 0 90 64 60
        E 120 80 4b 60
        E 0 80 58 60
        E 0 80 64 60
        E 120 90 3e 60
        E 0 90 4b 60
        E 0 90 58 60
        E 0 90 64 60
        E 120 80 3e 60
        E 0 80 4b 60
        E 0 80 58 60
        E 0 80 64 60
        E 120 90 4b 60
        E 0 90 58 60
        E 0 90 64 60
        E 120 80 4b 60
        E 0 80 58 60
        E 0 80 64 60
        E 120 90 3e 60
        E 0 90 4b 60
        E 0 90 58 60
        E 0 90 64 60
        E 120 80 3e 60
        E 0 80 4b 60
        E 0 80 58 60
        E 0 80 64 60
        E 120 90 4b 60
        E 0 90 58 60
        E 0 90 64 60
        E 60 80 4b 60
        E 60 80 58 60
        E 0 80 64 60
        E 120 90 3e 60
        E 0 90 4b 60
        E 0 90 58 60
        E 0 90 64 60
        E 60 80 3e 60
        E 60 80 4b 60
        E 0 80 58 60
        E 0 80 64 60
        E 120 90 4b 60
        E 0 90 58 60
        E 0 90 64 60
        E 60 80 4b 60
        E 60 80 58 60
        E 0 80 64 60
        E 120 90 3e 60
        E 0 90 4b 60
        E 0 90 58 60
        E 0 90 64 60
        E 120 80 3e 60
        E 0 80 4b 60
        E 0 80 58 60
        E 0 80 64 60
        E 120 90 4b 60
        E 0 90 58 60
        E 0 90 64 60
        E 60 80 4b 60
        E 60 80 58 60
        E 0 80 64 60
        E 120 90 4b 60
        E 0 90 58 60
        E 0 90 64 60
        E 120 80 4b 60
        E 0 80 58 60
        E 0 80 64 60
        E 120 90 58 60
        E 0 90 64 60
        E 120 80 58 60
        E 0 80 64 60
        E 120 90 3c 60
        E 0 90 48 60
        E 0 90 54 60
        E 0 90 60 60
        E 2880 80 3c 60
        E 0 80 48 60
        E 0 80 54 60
        E 0 80 60 60
        <X 479 0 0 0 1 [idle_realtime]
          /wFbaWRsZV9yZWFsdGltZV0=
        >
        E 7956 b0 7b 00
        CCINTERP 32
        GUID {D62CA0F4-A642-4738-A186-D7F39591A8E0}
        IGNTEMPO 0 120 4 4
        SRCCOLOR 55
        VELLANE 132 128 60
        CFGEDITVIEW 0 0 -1 12 0 0 0 0 0 0.5
        KEYSNAP 0
        TRACKSEL 0
        EVTFILTER 0 -1 -1 -1 -1 0 0 0 0 -1 -1 -1 -1 0 -1 0 -1 -1
        CFGEDIT 1 1 0 0 0 1 1 1 1 1 1 0.25 100 100 1200 800 0 2 2 2 0 0 0 0 0 0.5 1 0 1 64
      >
    >
  >
  <TRACK {A190F470-D8C5-45A9-9986-A573E305C173}
    NAME "PART GUITAR"
    PEAKCOL 33523712
    BEAT -1
    AUTOMODE 0
    VOLPAN 1 0 -1 -1 1
    MUTESOLO 0 0 0
    IPHASE 0
    PLAYOFFS 0 1
    ISBUS 0 0
    BUSCOMP 0 0 0 0 0
    SHOWINMIX 1 0.6667 0.5 1 0.5 -1 -1 -1
    SEL 0
    REC 0 0 1 0 0 0 0 0
    TRACKHEIGHT 0 0 0 0 0 0
    INQ 0 0 0 0.5 100 0 0 100
    NCHAN 2
    FX 1
    TRACKID {A190F470-D8C5-45A9-9986-A573E305C173}
    PERF 0
    MIDIOUT -1
    <MIDINOTENAMES
      0 40 "Left Hand Lowest" 0 40
      0 41 "- (1)" 0 41
      0 42 - 0 42
      0 43 "- (2)" 0 43
      0 44 - 0 44
      0 45 "- (3)" 0 45
      0 46 - 0 46
      0 47 "- (4)" 0 47
      0 48 - 0 48
      0 49 "- (5)" 0 49
      0 50 "- (6)" 0 50
      0 51 - 0 51
      0 52 "- (7)" 0 52
      0 53 "- (8)" 0 53
      0 54 - 0 54
      0 55 "- (9)" 0 55
      0 56 "- (10)" 0 56
      0 57 "- (11)" 0 57
      0 58 "- (12)" 0 58
      0 59 "Left Hand Highest" 0 59
      0 60 "EASY Green" 0 60
      0 61 "EASY Red" 0 61
      0 62 "EASY Yellow" 0 62
      0 63 "EASY Blue" 0 63
      0 64 "EASY Orange" 0 64
      0 65 ---- 0 65
      0 72 "MEDIUM Green" 0 72
      0 73 "MEDIUM Red" 0 73
      0 74 "MEDIUM Yellow" 0 74
      0 75 "MEDIUM Blue" 0 75
      0 76 "MEDIUM Orange" 0 76
      0 77 ---- 0 77
      0 84 "HARD Green" 0 84
      0 85 "HARD Red" 0 85
      0 86 "HARD Yellow" 0 86
      0 87 "HARD Blue" 0 87
      0 88 "HARD Orange" 0 88
      0 89 "Force HOPO On" 0 89
      0 90 "Force HOPO Off" 0 90
      0 95 ---- 0 95
      0 96 "EXPERT Green" 0 96
      0 97 "EXPERT Red" 0 97
      0 98 "EXPERT Yellow" 0 98
      0 99 "EXPERT Blue" 0 99
      0 100 "EXPERT Orange" 0 100
      0 101 "Force HOPO On" 0 101
      0 102 "Force HOPO Off" 0 102
      0 103 "Solo Marker" 0 103
      0 115 ---- 0 115
      0 116 OVERDRIVE 0 116
      0 118 ---- 0 118
      0 120 "BRE (use all 5)" 0 120
      0 121 BRE 0 121
      0 122 BRE 0 122
      0 123 BRE 0 123
      0 124 BRE 0 124
      0 125 ---- 0 125
      0 126 "Tremolo Marker" 0 126
      0 127 "Trill Marker" 0 127
    >
    MAINSEND 1 0
    <FXCHAIN
      SHOW 0
      LASTSEL 0
      DOCKED 0
      BYPASS 0 0 0
      <VST "VSTi: RBN Preview (RBN)" rbprev_vst.dll 0 "VSTi: RBN Preview (RBN)" 1919053942 ""
        dnBicu5e7f4AAAAAAgAAAAEAAAAAAAAAAgAAAAAAAAAEAAAAAQAAAAAAEAADAKoAAAAQAAAA
      >
      FLOATPOS 0 0 0 0
      FXID {C192AC15-1C9A-4AE6-8937-121A4D729239}
      WAK 0 0
      BYPASS 0 0 0
      <JS "IX/MIDI_Tool II" ""
        0 0 94 0 0 0 100 0 0 127 0 0 1 0 0 - - - - - - - - - - - - - - - - - - - - - - - - - - - - - - - - - - - - - - - - - - - - - - - - - 
      >
      FLOATPOS 0 0 0 0
      FXID {D1DFA666-008A-4447-B5B9-DDC1EA49AFD6}
      WAK 0 0
      BYPASS 0 0 0
      <JS "IX/MIDI_Tool II" ""
        0 101 127 0 0 0 100 0 0 127 0 0 1 0 0 - - - - - - - - - - - - - - - - - - - - - - - - - - - - - - - - - - - - - - - - - - - - - - - - - 
      >
      FLOATPOS 0 0 0 0
      FXID {A70FBE6A-7E99-4529-B8EA-5781D5C68D81}
      WAK 0 0
      BYPASS 1 0 0
      <VST "VSTi: ReaSynth (Cockos)" reasynth.dll 0 "VSTi: ReaSynth (Cockos)" 1919251321<5653547265737972656173796E746800> ""
        eXNlcu9e7f4AAAAAAgAAAAEAAAAAAAAAAgAAAAAAAABEAAAAAAAAAAAAEAA=
        776t3g3wrd6mm8Q7F7fROgAAAAAAAAAAAAAAAFmzJj8BTB06AAAAAAAAAD8AAAAAAACAPwAAAAAAAAAAAAAAAAAAgD8=
        AFByb2dyYW0gMQAQAAAA
      >
      PRESETNAME "Program 1"
      FLOATPOS 0 0 0 0
      FXID {964BC016-AF38-436B-A660-DDCE384990FD}
      WAK 0 0
    >
    <ITEM
      POSITION 0
      SNAPOFFS 0
      LENGTH 165.05873578958332
      LOOP 0
      ALLTAKES 0
      FADEIN 1 0 0 1 0 0 0
      FADEOUT 1 0 0 1 0 0 0
      MUTE 0 0
      SEL 0
      IGUID {B8B340B3-22C3-48F7-A411-505DF65DA7F2}
      IID 7
      NAME "PART GUITAR"
      VOLPAN 1 0 1 -1
      SOFFS 0 0
      PLAYRATE 1 1 0 -1 0 0.0025
      CHANMODE 0
      GUID {88430335-7ED1-46CF-9901-474CFCC38DF0}
      <SOURCE MIDI
        HASDATA 1 480 QN
        CCINTERP 32
        POOLEDEVTS {446E3D06-1189-4612-AE9D-025B2C027BC4}
        <X 0 0 0 0 3 "PART GUITAR"
          /wNQQVJUIEdVSVRBUg==
        >
        <X 3840 0 0 0 1 [play]
          /wFbcGxheV0=
        >
        E 0 90 3d 60
        E 0 90 48 60
        E 0 90 4a 60
        E 0 90 54 60
        E 0 90 56 60
        E 0 90 60 60
        E 0 90 61 60
        E 0 90 63 60
        E 120 80 3d 60
        E 0 80 48 60
        E 0 80 4a 60
        E 240 80 54 60
        E 0 80 56 60
        E 0 80 60 60
        E 0 80 61 60
        E 0 80 63 60
        E 120 90 3d 60
        E 0 90 48 60
        E 0 90 4a 60
        E 0 90 54 60
        E 0 90 56 60
        E 0 90 60 60
        E 0 90 61 60
        E 0 90 63 60
        E 120 80 3d 60
        E 0 80 48 60
        E 0 80 4a 60
        E 240 80 54 60
        E 0 80 56 60
        E 0 80 60 60
        E 0 80 61 60
        E 0 80 63 60
        E 120 90 3d 60
        E 0 90 48 60
        E 0 90 4a 60
        E 0 90 54 60
        E 0 90 56 60
        E 0 90 60 60
        E 0 90 61 60
        E 0 90 63 60
        E 120 80 3d 60
        E 0 80 48 60
        E 0 80 4a 60
        E 240 80 54 60
        E 0 80 56 60
        E 0 80 60 60
        E 0 80 61 60
        E 0 80 63 60
        E 120 90 3d 60
        E 0 90 48 60
        E 0 90 4a 60
        E 0 90 54 60
        E 0 90 56 60
        E 0 90 60 60
        E 0 90 61 60
        E 0 90 63 60
        E 120 80 3d 60
        E 0 80 48 60
        E 0 80 4a 60
        E 240 80 54 60
        E 0 80 56 60
        E 0 80 60 60
        E 0 80 61 60
        E 0 80 63 60
        E 120 90 3d 60
        E 0 90 48 60
        E 0 90 4a 60
        E 0 90 54 60
        E 0 90 56 60
        E 0 90 60 60
        E 0 90 61 60
        E 0 90 63 60
        E 120 80 3d 60
        E 0 80 48 60
        E 0 80 4a 60
        E 240 80 54 60
        E 0 80 56 60
        E 0 80 60 60
        E 0 80 61 60
        E 0 80 63 60
        E 120 90 3d 60
        E 0 90 48 60
        E 0 90 4a 60
        E 0 90 54 60
        E 0 90 56 60
        E 0 90 60 60
        E 0 90 61 60
        E 0 90 63 60
        E 120 80 3d 60
        E 0 80 48 60
        E 0 80 4a 60
        E 240 80 54 60
        E 0 80 56 60
        E 0 80 60 60
        E 0 80 61 60
        E 0 80 63 60
        E 120 90 3d 60
        E 0 90 48 60
        E 0 90 4a 60
        E 0 90 54 60
        E 0 90 56 60
        E 0 90 60 60
        E 0 90 61 60
        E 0 90 63 60
        E 120 80 3d 60
        E 0 80 48 60
        E 0 80 4a 60
        E 240 80 54 60
        E 0 80 56 60
        E 0 80 60 60
        E 0 80 61 60
        E 0 80 63 60
        E 120 90 3d 60
        E 0 90 48 60
        E 0 90 4a 60
        E 0 90 54 60
        E 0 90 56 60
        E 0 90 60 60
        E 0 90 61 60
        E 0 90 63 60
        E 120 80 3d 60
        E 0 80 48 60
        E 0 80 4a 60
        E 240 80 54 60
        E 0 80 56 60
        E 0 80 60 60
        E 0 80 61 60
        E 0 80 63 60
        E 120 90 3d 60
        E 0 90 48 60
        E 0 90 4a 60
        E 0 90 54 60
        E 0 90 56 60
        E 0 90 60 60
        E 0 90 61 60
        E 0 90 63 60
        E 120 80 3d 60
        E 0 80 48 60
        E 0 80 4a 60
        E 240 80 54 60
        E 0 80 56 60
        E 0 80 60 60
        E 0 80 61 60
        E 0 80 63 60
        E 120 90 3d 60
        E 0 90 48 60
        E 0 90 4a 60
        E 0 90 54 60
        E 0 90 56 60
        E 0 90 60 60
        E 0 90 61 60
        E 0 90 63 60
        E 120 80 3d 60
        E 0 80 48 60
        E 0 80 4a 60
        E 240 80 54 60
        E 0 80 56 60
        E 0 80 60 60
        E 0 80 61 60
        E 0 80 63 60
        E 120 90 3d 60
        E 0 90 48 60
        E 0 90 4a 60
        E 0 90 54 60
        E 0 90 56 60
        E 0 90 60 60
        E 0 90 61 60
        E 0 90 63 60
        E 120 80 3d 60
        E 0 80 48 60
        E 0 80 4a 60
        E 240 80 54 60
        E 0 80 56 60
        E 0 80 60 60
        E 0 80 61 60
        E 0 80 63 60
        E 120 90 3d 60
        E 0 90 48 60
        E 0 90 4a 60
        E 0 90 54 60
        E 0 90 56 60
        E 0 90 60 60
        E 0 90 61 60
        E 0 90 63 60
        E 120 80 3d 60
        E 0 80 48 60
        E 0 80 4a 60
        E 240 80 54 60
        E 0 80 56 60
        E 0 80 60 60
        E 0 80 61 60
        E 0 80 63 60
        E 120 90 3d 60
        E 0 90 48 60
        E 0 90 4a 60
        E 0 90 54 60
        E 0 90 56 60
        E 0 90 60 60
        E 0 90 61 60
        E 0 90 63 60
        E 120 80 3d 60
        E 0 80 48 60
        E 0 80 4a 60
        E 240 80 54 60
        E 0 80 56 60
        E 0 80 60 60
        E 0 80 61 60
        E 0 80 63 60
        E 120 90 3d 60
        E 0 90 48 60
        E 0 90 4a 60
        E 0 90 54 60
        E 0 90 56 60
        E 0 90 60 60
        E 0 90 61 60
        E 0 90 63 60
        E 120 80 3d 60
        E 0 80 48 60
        E 0 80 4a 60
        E 240 80 54 60
        E 0 80 56 60
        E 0 80 60 60
        E 0 80 61 60
        E 0 80 63 60
        E 120 90 3d 60
        E 0 90 48 60
        E 0 90 4a 60
        E 0 90 54 60
        E 0 90 56 60
        E 0 90 60 60
        E 0 90 61 60
        E 0 90 63 60
        E 120 80 3d 60
        E 0 80 48 60
        E 0 80 4a 60
        E 240 80 54 60
        E 0 80 56 60
        E 0 80 60 60
        E 0 80 61 60
        E 0 80 63 60
        E 120 90 48 60
        E 0 90 4a 60
        E 0 90 54 60
        E 0 90 56 60
        E 0 90 60 60
        E 0 90 61 60
        E 0 90 63 60
        E 120 80 48 60
        E 0 80 4a 60
        E 240 80 54 60
        E 0 80 56 60
        E 0 80 60 60
        E 0 80 61 60
        E 0 80 63 60
        E 120 90 40 60
        E 0 90 4a 60
        E 0 90 4b 60
        E 0 90 56 60
        E 0 90 58 60
        E 0 90 61 60
        E 0 90 63 60
        E 0 90 64 60
        E 120 80 40 60
        E 0 80 4a 60
        E 0 80 4b 60
        E 240 80 56 60
        E 0 80 58 60
        E 0 80 61 60
        E 0 80 63 60
        E 0 80 64 60
        E 120 90 40 60
        E 0 90 4a 60
        E 0 90 4b 60
        E 0 90 56 60
        E 0 90 58 60
        E 0 90 61 60
        E 0 90 63 60
        E 0 90 64 60
        E 120 80 40 60
        E 0 80 4a 60
        E 0 80 4b 60
        E 240 80 56 60
        E 0 80 58 60
        E 0 80 61 60
        E 0 80 63 60
        E 0 80 64 60
        E 120 90 40 60
        E 0 90 4a 60
        E 0 90 4b 60
        E 0 90 56 60
        E 0 90 58 60
        E 0 90 61 60
        E 0 90 63 60
        E 0 90 64 60
        E 120 80 40 60
        E 0 80 4a 60
        E 0 80 4b 60
        E 240 80 56 60
        E 0 80 58 60
        E 0 80 61 60
        E 0 80 63 60
        E 0 80 64 60
        E 120 90 40 60
        E 0 90 4a 60
        E 0 90 4b 60
        E 0 90 56 60
        E 0 90 58 60
        E 0 90 61 60
        E 0 90 63 60
        E 0 90 64 60
        E 120 80 40 60
        E 0 80 4a 60
        E 0 80 4b 60
        E 240 80 56 60
        E 0 80 58 60
        E 0 80 61 60
        E 0 80 63 60
        E 0 80 64 60
        E 120 90 40 60
        E 0 90 4a 60
        E 0 90 4b 60
        E 0 90 55 60
        E 0 90 58 60
        E 0 90 61 60
        E 0 90 62 60
        E 0 90 64 60
        E 0 90 74 60
        E 120 80 40 60
        E 0 80 4a 60
        E 0 80 4b 60
        E 240 80 55 60
        E 0 80 58 60
        E 0 80 61 60
        E 0 80 62 60
        E 0 80 64 60
        E 120 90 40 60
        E 0 90 4a 60
        E 0 90 4b 60
        E 0 90 55 60
        E 0 90 58 60
        E 0 90 61 60
        E 0 90 62 60
        E 0 90 64 60
        E 120 80 40 60
        E 0 80 4a 60
        E 0 80 4b 60
        E 240 80 55 60
        E 0 80 58 60
        E 0 80 61 60
        E 0 80 62 60
        E 0 80 64 60
        E 120 90 40 60
        E 0 90 4a 60
        E 0 90 4b 60
        E 0 90 55 60
        E 0 90 58 60
        E 0 90 61 60
        E 0 90 62 60
        E 0 90 64 60
        E 120 80 40 60
        E 0 80 4a 60
        E 0 80 4b 60
        E 240 80 55 60
        E 0 80 58 60
        E 0 80 61 60
        E 0 80 62 60
        E 0 80 64 60
        E 120 90 4a 60
        E 0 90 4b 60
        E 0 90 55 60
        E 0 90 58 60
        E 0 90 61 60
        E 0 90 62 60
        E 0 90 64 60
        E 120 80 4a 60
        E 0 80 4b 60
        E 240 80 55 60
        E 0 80 58 60
        E 0 80 61 60
        E 0 80 62 60
        E 0 80 64 60
        E 120 80 74 60
        E 0 90 3d 60
        E 0 90 48 60
        E 0 90 4a 60
        E 0 90 54 60
        E 0 90 56 60
        E 0 90 60 60
        E 0 90 61 60
        E 0 90 63 60
        E 120 80 3d 60
        E 0 80 48 60
        E 0 80 4a 60
        E 240 80 54 60
        E 0 80 56 60
        E 0 80 60 60
        E 0 80 61 60
        E 0 80 63 60
        E 120 90 3d 60
        E 0 90 48 60
        E 0 90 4a 60
        E 0 90 54 60
        E 0 90 56 60
        E 0 90 60 60
        E 0 90 61 60
        E 0 90 63 60
        E 120 80 3d 60
        E 0 80 48 60
        E 0 80 4a 60
        E 240 80 54 60
        E 0 80 56 60
        E 0 80 60 60
        E 0 80 61 60
        E 0 80 63 60
        E 120 90 3d 60
        E 0 90 48 60
        E 0 90 4a 60
        E 0 90 54 60
        E 0 90 56 60
        E 0 90 60 60
        E 0 90 61 60
        E 0 90 63 60
        E 120 80 3d 60
        E 0 80 48 60
        E 0 80 4a 60
        E 240 80 54 60
        E 0 80 56 60
        E 0 80 60 60
        E 0 80 61 60
        E 0 80 63 60
        E 120 90 3d 60
        E 0 90 48 60
        E 0 90 4a 60
        E 0 90 54 60
        E 0 90 56 60
        E 0 90 60 60
        E 0 90 61 60
        E 0 90 63 60
        E 120 80 3d 60
        E 0 80 48 60
        E 0 80 4a 60
        E 240 80 54 60
        E 0 80 56 60
        E 0 80 60 60
        E 0 80 61 60
        E 0 80 63 60
        E 120 90 3d 60
        E 0 90 48 60
        E 0 90 4a 60
        E 0 90 54 60
        E 0 90 56 60
        E 0 90 60 60
        E 0 90 61 60
        E 0 90 63 60
        E 120 80 3d 60
        E 0 80 48 60
        E 0 80 4a 60
        E 240 80 54 60
        E 0 80 56 60
        E 0 80 60 60
        E 0 80 61 60
        E 0 80 63 60
        E 120 90 3d 60
        E 0 90 48 60
        E 0 90 4a 60
        E 0 90 54 60
        E 0 90 56 60
        E 0 90 60 60
        E 0 90 61 60
        E 0 90 63 60
        E 120 80 3d 60
        E 0 80 48 60
        E 0 80 4a 60
        E 240 80 54 60
        E 0 80 56 60
        E 0 80 60 60
        E 0 80 61 60
        E 0 80 63 60
        E 120 90 3d 60
        E 0 90 48 60
        E 0 90 4a 60
        E 0 90 54 60
        E 0 90 56 60
        E 0 90 60 60
        E 0 90 61 60
        E 0 90 63 60
        E 120 80 3d 60
        E 0 80 48 60
        E 0 80 4a 60
        E 240 80 54 60
        E 0 80 56 60
        E 0 80 60 60
        E 0 80 61 60
        E 0 80 63 60
        E 120 90 48 60
        E 0 90 4a 60
        E 0 90 54 60
        E 0 90 56 60
        E 0 90 60 60
        E 0 90 61 60
        E 0 90 63 60
        E 120 80 48 60
        E 0 80 4a 60
        E 240 80 54 60
        E 0 80 56 60
        E 0 80 60 60
        E 0 80 61 60
        E 0 80 63 60
        E 120 90 40 60
        E 0 90 4a 60
        E 0 90 4b 60
        E 0 90 56 60
        E 0 90 58 60
        E 0 90 61 60
        E 0 90 63 60
        E 0 90 64 60
        E 120 80 40 60
        E 0 80 4a 60
        E 0 80 4b 60
        E 240 80 56 60
        E 0 80 58 60
        E 0 80 61 60
        E 0 80 63 60
        E 0 80 64 60
        E 120 90 40 60
        E 0 90 4a 60
        E 0 90 4b 60
        E 0 90 56 60
        E 0 90 58 60
        E 0 90 61 60
        E 0 90 63 60
        E 0 90 64 60
        E 120 80 40 60
        E 0 80 4a 60
        E 0 80 4b 60
        E 240 80 56 60
        E 0 80 58 60
        E 0 80 61 60
        E 0 80 63 60
        E 0 80 64 60
        E 120 90 40 60
        E 0 90 4a 60
        E 0 90 4b 60
        E 0 90 56 60
        E 0 90 58 60
        E 0 90 61 60
        E 0 90 63 60
        E 0 90 64 60
        E 120 80 40 60
        E 0 80 4a 60
        E 0 80 4b 60
        E 240 80 56 60
        E 0 80 58 60
        E 0 80 61 60
        E 0 80 63 60
        E 0 80 64 60
        E 120 90 40 60
        E 0 90 4a 60
        E 0 90 4b 60
        E 0 90 56 60
        E 0 90 58 60
        E 0 90 61 60
        E 0 90 63 60
        E 0 90 64 60
        E 120 80 40 60
        E 0 80 4a 60
        E 0 80 4b 60
        E 240 80 56 60
        E 0 80 58 60
        E 0 80 61 60
        E 0 80 63 60
        E 0 80 64 60
        E 120 90 40 60
        E 0 90 4a 60
        E 0 90 4b 60
        E 0 90 55 60
        E 0 90 58 60
        E 0 90 61 60
        E 0 90 62 60
        E 0 90 64 60
        E 120 80 40 60
        E 0 80 4a 60
        E 0 80 4b 60
        E 240 80 55 60
        E 0 80 58 60
        E 0 80 61 60
        E 0 80 62 60
        E 0 80 64 60
        E 120 90 40 60
        E 0 90 4a 60
        E 0 90 4b 60
        E 0 90 55 60
        E 0 90 58 60
        E 0 90 61 60
        E 0 90 62 60
        E 0 90 64 60
        E 120 80 40 60
        E 0 80 4a 60
        E 0 80 4b 60
        E 240 80 55 60
        E 0 80 58 60
        E 0 80 61 60
        E 0 80 62 60
        E 0 80 64 60
        E 120 90 40 60
        E 0 90 4a 60
        E 0 90 4b 60
        E 0 90 55 60
        E 0 90 58 60
        E 0 90 61 60
        E 0 90 62 60
        E 0 90 64 60
        E 120 80 40 60
        E 0 80 4a 60
        E 0 80 4b 60
        E 240 80 55 60
        E 0 80 58 60
        E 0 80 61 60
        E 0 80 62 60
        E 0 80 64 60
        E 120 90 4a 60
        E 0 90 4b 60
        E 0 90 55 60
        E 0 90 58 60
        E 0 90 61 60
        E 0 90 62 60
        E 0 90 64 60
        E 120 80 4a 60
        E 0 80 4b 60
        E 240 80 55 60
        E 0 80 58 60
        E 0 80 61 60
        E 0 80 62 60
        E 0 80 64 60
        E 120 90 3e 60
        E 0 90 49 60
        E 0 90 4a 60
        E 0 90 54 60
        E 0 90 57 60
        E 0 90 60 60
        E 0 90 62 60
        E 0 90 63 60
        E 0 90 74 60
        E 120 80 3e 60
        E 0 80 49 60
        E 0 80 4a 60
        E 240 80 54 60
        E 0 80 57 60
        E 0 80 60 60
        E 0 80 62 60
        E 0 80 63 60
        E 120 90 3e 60
        E 0 90 49 60
        E 0 90 4a 60
        E 0 90 54 60
        E 0 90 57 60
        E 0 90 60 60
        E 0 90 62 60
        E 0 90 63 60
        E 120 80 3e 60
        E 0 80 49 60
        E 0 80 4a 60
        E 240 80 54 60
        E 0 80 57 60
        E 0 80 60 60
        E 0 80 62 60
        E 0 80 63 60
        E 120 90 3e 60
        E 0 90 49 60
        E 0 90 4a 60
        E 0 90 54 60
        E 0 90 57 60
        E 0 90 60 60
        E 0 90 62 60
        E 0 90 63 60
        E 120 80 3e 60
        E 0 80 49 60
        E 0 80 4a 60
        E 240 80 54 60
        E 0 80 57 60
        E 0 80 60 60
        E 0 80 62 60
        E 0 80 63 60
        E 120 90 49 60
        E 0 90 4a 60
        E 0 90 54 60
        E 0 90 57 60
        E 0 90 60 60
        E 0 90 62 60
        E 0 90 63 60
        E 120 80 49 60
        E 0 80 4a 60
        E 240 80 54 60
        E 0 80 57 60
        E 0 80 60 60
        E 0 80 62 60
        E 0 80 63 60
        E 120 80 74 60
        E 0 90 3d 60
        E 0 90 48 60
        E 0 90 4a 60
        E 0 90 54 60
        E 0 90 56 60
        E 0 90 60 60
        E 0 90 61 60
        E 0 90 63 60
        E 120 80 3d 60
        E 0 80 48 60
        E 0 80 4a 60
        E 240 80 54 60
        E 0 80 56 60
        E 0 80 60 60
        E 0 80 61 60
        E 0 80 63 60
        E 120 90 3d 60
        E 0 90 48 60
        E 0 90 4a 60
        E 0 90 54 60
        E 0 90 56 60
        E 0 90 60 60
        E 0 90 61 60
        E 0 90 63 60
        E 120 80 3d 60
        E 0 80 48 60
        E 0 80 4a 60
        E 240 80 54 60
        E 0 80 56 60
        E 0 80 60 60
        E 0 80 61 60
        E 0 80 63 60
        E 120 90 3d 60
        E 0 90 48 60
        E 0 90 4a 60
        E 0 90 54 60
        E 0 90 56 60
        E 0 90 60 60
        E 0 90 61 60
        E 0 90 63 60
        E 120 80 3d 60
        E 0 80 48 60
        E 0 80 4a 60
        E 240 80 54 60
        E 0 80 56 60
        E 0 80 60 60
        E 0 80 61 60
        E 0 80 63 60
        E 120 90 48 60
        E 0 90 4a 60
        E 0 90 54 60
        E 0 90 56 60
        E 0 90 60 60
        E 0 90 61 60
        E 0 90 63 60
        E 120 80 48 60
        E 0 80 4a 60
        E 240 80 54 60
        E 0 80 56 60
        E 0 80 60 60
        E 0 80 61 60
        E 0 80 63 60
        E 120 90 3c 60
        E 0 90 48 60
        E 0 90 49 60
        E 0 90 54 60
        E 0 90 55 60
        E 0 90 60 60
        E 0 90 61 60
        E 0 90 62 60
        E 120 80 3c 60
        E 0 80 48 60
        E 0 80 49 60
        E 240 80 54 60
        E 0 80 55 60
        E 0 80 60 60
        E 0 80 61 60
        E 0 80 62 60
        E 120 90 3c 60
        E 0 90 48 60
        E 0 90 49 60
        E 0 90 54 60
        E 0 90 55 60
        E 0 90 60 60
        E 0 90 61 60
        E 0 90 62 60
        E 120 80 3c 60
        E 0 80 48 60
        E 0 80 49 60
        E 240 80 54 60
        E 0 80 55 60
        E 0 80 60 60
        E 0 80 61 60
        E 0 80 62 60
        E 120 90 3c 60
        E 0 90 48 60
        E 0 90 49 60
        E 0 90 54 60
        E 0 90 55 60
        E 0 90 60 60
        E 0 90 61 60
        E 0 90 62 60
        E 120 80 3c 60
        E 0 80 48 60
        E 0 80 49 60
        E 240 80 54 60
        E 0 80 55 60
        E 0 80 60 60
        E 0 80 61 60
        E 0 80 62 60
        E 120 90 48 60
        E 0 90 49 60
        E 0 90 54 60
        E 0 90 55 60
        E 0 90 60 60
        E 0 90 61 60
        E 0 90 62 60
        E 120 80 48 60
        E 0 80 49 60
        E 240 80 54 60
        E 0 80 55 60
        E 0 80 60 60
        E 0 80 61 60
        E 0 80 62 60
        E 120 90 3d 60
        E 0 90 48 60
        E 0 90 4a 60
        E 0 90 54 60
        E 0 90 56 60
        E 0 90 60 60
        E 0 90 61 60
        E 0 90 63 60
        E 120 80 3d 60
        E 0 80 48 60
        E 0 80 4a 60
        E 480 80 54 60
        E 0 80 56 60
        E 0 80 60 60
        E 0 80 61 60
        E 0 80 63 60
        E 120 90 49 60
        E 0 90 4b 60
        E 0 90 55 60
        E 0 90 57 60
        E 0 90 61 60
        E 0 90 62 60
        E 0 90 63 60
        E 720 80 49 60
        E 0 80 4b 60
        E 360 80 55 60
        E 0 80 57 60
        E 0 80 61 60
        E 0 80 62 60
        E 0 80 63 60
        E 120 90 3f 60
        E 0 90 49 60
        E 0 90 4b 60
        E 0 90 55 60
        E 0 90 57 60
        E 0 90 61 60
        E 0 90 62 60
        E 0 90 63 60
        E 60 80 3f 60
        E 0 80 49 60
        E 0 80 4b 60
        E 0 80 55 60
        E 0 80 57 60
        E 0 80 61 60
        E 0 80 62 60
        E 0 80 63 60
        E 180 90 49 60
        E 0 90 4b 60
        E 0 90 55 60
        E 0 90 57 60
        E 0 90 61 60
        E 0 90 62 60
        E 0 90 63 60
        E 60 80 49 60
        E 0 80 4b 60
        E 0 80 55 60
        E 0 80 57 60
        E 0 80 61 60
        E 0 80 62 60
        E 0 80 63 60
        E 180 90 3f 60
        E 0 90 49 60
        E 0 90 4b 60
        E 0 90 55 60
        E 0 90 57 60
        E 0 90 61 60
        E 0 90 62 60
        E 0 90 63 60
        E 60 80 3f 60
        E 0 80 49 60
        E 0 80 4b 60
        E 0 80 55 60
        E 0 80 57 60
        E 0 80 61 60
        E 0 80 62 60
        E 0 80 63 60
        E 180 90 49 60
        E 0 90 4b 60
        E 0 90 55 60
        E 0 90 57 60
        E 0 90 61 60
        E 0 90 62 60
        E 0 90 63 60
        E 60 80 49 60
        E 0 80 4b 60
        E 0 80 55 60
        E 0 80 57 60
        E 0 80 61 60
        E 0 80 62 60
        E 0 80 63 60
        E 180 90 3f 60
        E 0 90 49 60
        E 0 90 4b 60
        E 0 90 55 60
        E 0 90 57 60
        E 0 90 61 60
        E 0 90 62 60
        E 0 90 63 60
        E 60 80 3f 60
        E 0 80 49 60
        E 0 80 4b 60
        E 0 80 55 60
        E 0 80 57 60
        E 0 80 61 60
        E 0 80 62 60
        E 0 80 63 60
        E 180 90 49 60
        E 0 90 4b 60
        E 0 90 55 60
        E 0 90 57 60
        E 0 90 61 60
        E 0 90 62 60
        E 0 90 63 60
        E 60 80 49 60
        E 0 80 4b 60
        E 0 80 55 60
        E 0 80 57 60
        E 0 80 61 60
        E 0 80 62 60
        E 0 80 63 60
        E 180 90 49 60
        E 0 90 4b 60
        E 0 90 55 60
        E 0 90 57 60
        E 0 90 61 60
        E 0 90 62 60
        E 0 90 63 60
        E 60 80 49 60
        E 0 80 4b 60
        E 0 80 55 60
        E 0 80 57 60
        E 0 80 61 60
        E 0 80 62 60
        E 0 80 63 60
        E 180 90 55 60
        E 0 90 57 60
        E 0 90 61 60
        E 0 90 62 60
        E 0 90 63 60
        E 60 80 55 60
        E 0 80 57 60
        E 0 80 61 60
        E 0 80 62 60
        E 0 80 63 60
        E 180 90 3d 60
        E 0 90 48 60
        E 0 90 4a 60
        E 0 90 54 60
        E 0 90 56 60
        E 0 90 60 60
        E 0 90 61 60
        E 0 90 63 60
        E 120 80 3d 60
        E 0 80 48 60
        E 0 80 4a 60
        E 240 80 54 60
        E 0 80 56 60
        E 0 80 60 60
        E 0 80 61 60
        E 0 80 63 60
        E 120 90 3d 60
        E 0 90 48 60
        E 0 90 4a 60
        E 0 90 54 60
        E 0 90 56 60
        E 0 90 60 60
        E 0 90 61 60
        E 0 90 63 60
        E 120 80 3d 60
        E 0 80 48 60
        E 0 80 4a 60
        E 240 80 54 60
        E 0 80 56 60
        E 0 80 60 60
        E 0 80 61 60
        E 0 80 63 60
        E 120 90 3d 60
        E 0 90 48 60
        E 0 90 4a 60
        E 0 90 54 60
        E 0 90 56 60
        E 0 90 60 60
        E 0 90 61 60
        E 0 90 63 60
        E 120 80 3d 60
        E 0 80 48 60
        E 0 80 4a 60
        E 240 80 54 60
        E 0 80 56 60
        E 0 80 60 60
        E 0 80 61 60
        E 0 80 63 60
        E 120 90 3d 60
        E 0 90 48 60
        E 0 90 4a 60
        E 0 90 54 60
        E 0 90 56 60
        E 0 90 60 60
        E 0 90 61 60
        E 0 90 63 60
        E 120 80 3d 60
        E 0 80 48 60
        E 0 80 4a 60
        E 240 80 54 60
        E 0 80 56 60
        E 0 80 60 60
        E 0 80 61 60
        E 0 80 63 60
        E 120 90 3d 60
        E 0 90 48 60
        E 0 90 4a 60
        E 0 90 54 60
        E 0 90 56 60
        E 0 90 60 60
        E 0 90 61 60
        E 0 90 63 60
        E 120 80 3d 60
        E 0 80 48 60
        E 0 80 4a 60
        E 240 80 54 60
        E 0 80 56 60
        E 0 80 60 60
        E 0 80 61 60
        E 0 80 63 60
        E 120 90 3d 60
        E 0 90 48 60
        E 0 90 4a 60
        E 0 90 54 60
        E 0 90 56 60
        E 0 90 60 60
        E 0 90 61 60
        E 0 90 63 60
        E 120 80 3d 60
        E 0 80 48 60
        E 0 80 4a 60
        E 240 80 54 60
        E 0 80 56 60
        E 0 80 60 60
        E 0 80 61 60
        E 0 80 63 60
        E 120 90 3d 60
        E 0 90 48 60
        E 0 90 4a 60
        E 0 90 54 60
        E 0 90 56 60
        E 0 90 60 60
        E 0 90 61 60
        E 0 90 63 60
        E 120 80 3d 60
        E 0 80 48 60
        E 0 80 4a 60
        E 240 80 54 60
        E 0 80 56 60
        E 0 80 60 60
        E 0 80 61 60
        E 0 80 63 60
        E 120 90 48 60
        E 0 90 4a 60
        E 0 90 54 60
        E 0 90 56 60
        E 0 90 60 60
        E 0 90 61 60
        E 0 90 63 60
        E 120 80 48 60
        E 0 80 4a 60
        E 240 80 54 60
        E 0 80 56 60
        E 0 80 60 60
        E 0 80 61 60
        E 0 80 63 60
        E 120 90 40 60
        E 0 90 4a 60
        E 0 90 4b 60
        E 0 90 55 60
        E 0 90 58 60
        E 0 90 61 60
        E 0 90 62 60
        E 0 90 64 60
        E 120 80 40 60
        E 0 80 4a 60
        E 0 80 4b 60
        E 240 80 55 60
        E 0 80 58 60
        E 0 80 61 60
        E 0 80 62 60
        E 0 80 64 60
        E 120 90 4a 60
        E 0 90 4b 60
        E 0 90 55 60
        E 0 90 58 60
        E 0 90 61 60
        E 0 90 62 60
        E 0 90 64 60
        E 120 80 4a 60
        E 0 80 4b 60
        E 240 80 55 60
        E 0 80 58 60
        E 0 80 61 60
        E 0 80 62 60
        E 0 80 64 60
        E 120 90 3f 60
        E 0 90 49 60
        E 0 90 4b 60
        E 0 90 55 60
        E 0 90 57 60
        E 0 90 61 60
        E 0 90 62 60
        E 0 90 63 60
        E 120 80 3f 60
        E 0 80 49 60
        E 0 80 4b 60
        E 240 80 55 60
        E 0 80 57 60
        E 0 80 61 60
        E 0 80 62 60
        E 0 80 63 60
        E 120 90 49 60
        E 0 90 4b 60
        E 0 90 55 60
        E 0 90 57 60
        E 0 90 61 60
        E 0 90 62 60
        E 0 90 63 60
        E 120 80 49 60
        E 0 80 4b 60
        E 240 80 55 60
        E 0 80 57 60
        E 0 80 61 60
        E 0 80 62 60
        E 0 80 63 60
        E 120 90 3d 60
        E 0 90 48 60
        E 0 90 4a 60
        E 0 90 54 60
        E 0 90 56 60
        E 0 90 60 60
        E 0 90 61 60
        E 0 90 63 60
        E 120 80 3d 60
        E 0 80 48 60
        E 0 80 4a 60
        E 240 80 54 60
        E 0 80 56 60
        E 0 80 60 60
        E 0 80 61 60
        E 0 80 63 60
        E 120 90 3d 60
        E 0 90 48 60
        E 0 90 4a 60
        E 0 90 54 60
        E 0 90 56 60
        E 0 90 60 60
        E 0 90 61 60
        E 0 90 63 60
        E 120 80 3d 60
        E 0 80 48 60
        E 0 80 4a 60
        E 240 80 54 60
        E 0 80 56 60
        E 0 80 60 60
        E 0 80 61 60
        E 0 80 63 60
        E 120 90 3d 60
        E 0 90 48 60
        E 0 90 4a 60
        E 0 90 54 60
        E 0 90 56 60
        E 0 90 60 60
        E 0 90 61 60
        E 0 90 63 60
        E 120 80 3d 60
        E 0 80 48 60
        E 0 80 4a 60
        E 240 80 54 60
        E 0 80 56 60
        E 0 80 60 60
        E 0 80 61 60
        E 0 80 63 60
        E 120 90 3d 60
        E 0 90 48 60
        E 0 90 4a 60
        E 0 90 54 60
        E 0 90 56 60
        E 0 90 60 60
        E 0 90 61 60
        E 0 90 63 60
        E 120 80 3d 60
        E 0 80 48 60
        E 0 80 4a 60
        E 240 80 54 60
        E 0 80 56 60
        E 0 80 60 60
        E 0 80 61 60
        E 0 80 63 60
        E 360 90 4a 60
        E 0 90 4b 60
        E 0 90 55 60
        E 0 90 58 60
        E 0 90 61 60
        E 0 90 62 60
        E 0 90 64 60
        E 120 80 4a 60
        E 0 80 4b 60
        E 0 80 55 60
        E 0 80 58 60
        E 0 80 61 60
        E 0 80 62 60
        E 0 80 64 60
        E 120 90 40 60
        E 0 90 4a 60
        E 0 90 4b 60
        E 0 90 55 60
        E 0 90 58 60
        E 0 90 61 60
        E 0 90 62 60
        E 0 90 64 60
        E 120 80 40 60
        E 0 80 4a 60
        E 0 80 4b 60
        E 0 80 55 60
        E 0 80 58 60
        E 0 80 61 60
        E 0 80 62 60
        E 0 80 64 60
        E 120 90 4a 60
        E 0 90 4b 60
        E 0 90 55 60
        E 0 90 58 60
        E 0 90 61 60
        E 0 90 62 60
        E 0 90 64 60
        E 120 80 4a 60
        E 0 80 4b 60
        E 0 80 55 60
        E 0 80 58 60
        E 0 80 61 60
        E 0 80 62 60
        E 0 80 64 60
        E 120 90 40 60
        E 0 90 4a 60
        E 0 90 4b 60
        E 0 90 55 60
        E 0 90 58 60
        E 0 90 61 60
        E 0 90 62 60
        E 0 90 64 60
        E 120 80 40 60
        E 0 80 4a 60
        E 0 80 4b 60
        E 0 80 55 60
        E 0 80 58 60
        E 0 80 61 60
        E 0 80 62 60
        E 0 80 64 60
        E 120 90 4a 60
        E 0 90 4b 60
        E 0 90 55 60
        E 0 90 58 60
        E 0 90 61 60
        E 0 90 62 60
        E 0 90 64 60
        E 120 80 4a 60
        E 0 80 4b 60
        E 0 80 55 60
        E 0 80 58 60
        E 0 80 61 60
        E 0 80 62 60
        E 0 80 64 60
        E 120 90 4a 60
        E 0 90 4b 60
        E 0 90 55 60
        E 0 90 58 60
        E 0 90 61 60
        E 0 90 62 60
        E 0 90 64 60
        E 120 80 4a 60
        E 0 80 4b 60
        E 0 80 55 60
        E 0 80 58 60
        E 0 80 61 60
        E 0 80 62 60
        E 0 80 64 60
        E 120 90 55 60
        E 0 90 58 60
        E 0 90 61 60
        E 0 90 62 60
        E 0 90 64 60
        E 120 80 55 60
        E 0 80 58 60
        E 0 80 61 60
        E 0 80 62 60
        E 0 80 64 60
        E 120 90 3d 60
        E 0 90 48 60
        E 0 90 4a 60
        E 0 90 54 60
        E 0 90 56 60
        E 0 90 60 60
        E 0 90 61 60
        E 0 90 63 60
        E 120 80 3d 60
        E 0 80 48 60
        E 0 80 4a 60
        E 240 80 54 60
        E 0 80 56 60
        E 0 80 60 60
        E 0 80 61 60
        E 0 80 63 60
        E 120 90 3d 60
        E 0 90 48 60
        E 0 90 4a 60
        E 0 90 54 60
        E 0 90 56 60
        E 0 90 60 60
        E 0 90 61 60
        E 0 90 63 60
        E 120 80 3d 60
        E 0 80 48 60
        E 0 80 4a 60
        E 240 80 54 60
        E 0 80 56 60
        E 0 80 60 60
        E 0 80 61 60
        E 0 80 63 60
        E 120 90 3d 60
        E 0 90 48 60
        E 0 90 4a 60
        E 0 90 54 60
        E 0 90 56 60
        E 0 90 60 60
        E 0 90 61 60
        E 0 90 63 60
        E 120 80 3d 60
        E 0 80 48 60
        E 0 80 4a 60
        E 240 80 54 60
        E 0 80 56 60
        E 0 80 60 60
        E 0 80 61 60
        E 0 80 63 60
        E 120 90 3d 60
        E 0 90 48 60
        E 0 90 4a 60
        E 0 90 54 60
        E 0 90 56 60
        E 0 90 60 60
        E 0 90 61 60
        E 0 90 63 60
        E 120 80 3d 60
        E 0 80 48 60
        E 0 80 4a 60
        E 240 80 54 60
        E 0 80 56 60
        E 0 80 60 60
        E 0 80 61 60
        E 0 80 63 60
        E 120 90 3d 60
        E 0 90 48 60
        E 0 90 4a 60
        E 0 90 54 60
        E 0 90 56 60
        E 0 90 60 60
        E 0 90 61 60
        E 0 90 63 60
        E 0 90 74 60
        E 120 80 3d 60
        E 0 80 48 60
        E 0 80 4a 60
        E 240 80 54 60
        E 0 80 56 60
        E 0 80 60 60
        E 0 80 61 60
        E 0 80 63 60
        E 120 90 3d 60
        E 0 90 48 60
        E 0 90 4a 60
        E 0 90 54 60
        E 0 90 56 60
        E 0 90 60 60
        E 0 90 61 60
        E 0 90 63 60
        E 120 80 3d 60
        E 0 80 48 60
        E 0 80 4a 60
        E 240 80 54 60
        E 0 80 56 60
        E 0 80 60 60
        E 0 80 61 60
        E 0 80 63 60
        E 120 90 3d 60
        E 0 90 48 60
        E 0 90 4a 60
        E 0 90 54 60
        E 0 90 56 60
        E 0 90 60 60
        E 0 90 61 60
        E 0 90 63 60
        E 120 80 3d 60
        E 0 80 48 60
        E 0 80 4a 60
        E 240 80 54 60
        E 0 80 56 60
        E 0 80 60 60
        E 0 80 61 60
        E 0 80 63 60
        E 120 90 48 60
        E 0 90 4a 60
        E 0 90 54 60
        E 0 90 56 60
        E 0 90 60 60
        E 0 90 61 60
        E 0 90 63 60
        E 120 80 48 60
        E 0 80 4a 60
        E 240 80 54 60
        E 0 80 56 60
        E 0 80 60 60
        E 0 80 61 60
        E 0 80 63 60
        E 120 80 74 60
        E 0 90 40 60
        E 0 90 4a 60
        E 0 90 4b 60
        E 0 90 56 60
        E 0 90 58 60
        E 0 90 61 60
        E 0 90 63 60
        E 0 90 64 60
        E 120 80 40 60
        E 0 80 4a 60
        E 0 80 4b 60
        E 240 80 56 60
        E 0 80 58 60
        E 0 80 61 60
        E 0 80 63 60
        E 0 80 64 60
        E 120 90 40 60
        E 0 90 4a 60
        E 0 90 4b 60
        E 0 90 56 60
        E 0 90 58 60
        E 0 90 61 60
        E 0 90 63 60
        E 0 90 64 60
        E 120 80 40 60
        E 0 80 4a 60
        E 0 80 4b 60
        E 240 80 56 60
        E 0 80 58 60
        E 0 80 61 60
        E 0 80 63 60
        E 0 80 64 60
        E 120 90 40 60
        E 0 90 4a 60
        E 0 90 4b 60
        E 0 90 56 60
        E 0 90 58 60
        E 0 90 61 60
        E 0 90 63 60
        E 0 90 64 60
        E 120 80 40 60
        E 0 80 4a 60
        E 0 80 4b 60
        E 240 80 56 60
        E 0 80 58 60
        E 0 80 61 60
        E 0 80 63 60
        E 0 80 64 60
        E 120 90 40 60
        E 0 90 4a 60
        E 0 90 4b 60
        E 0 90 56 60
        E 0 90 58 60
        E 0 90 61 60
        E 0 90 63 60
        E 0 90 64 60
        E 120 80 40 60
        E 0 80 4a 60
        E 0 80 4b 60
        E 240 80 56 60
        E 0 80 58 60
        E 0 80 61 60
        E 0 80 63 60
        E 0 80 64 60
        E 120 90 40 60
        E 0 90 4a 60
        E 0 90 4b 60
        E 0 90 55 60
        E 0 90 58 60
        E 0 90 61 60
        E 0 90 62 60
        E 0 90 64 60
        E 120 80 40 60
        E 0 80 4a 60
        E 0 80 4b 60
        E 240 80 55 60
        E 0 80 58 60
        E 0 80 61 60
        E 0 80 62 60
        E 0 80 64 60
        E 120 90 40 60
        E 0 90 4a 60
        E 0 90 4b 60
        E 0 90 55 60
        E 0 90 58 60
        E 0 90 61 60
        E 0 90 62 60
        E 0 90 64 60
        E 120 80 40 60
        E 0 80 4a 60
        E 0 80 4b 60
        E 240 80 55 60
        E 0 80 58 60
        E 0 80 61 60
        E 0 80 62 60
        E 0 80 64 60
        E 120 90 40 60
        E 0 90 4a 60
        E 0 90 4b 60
        E 0 90 55 60
        E 0 90 58 60
        E 0 90 61 60
        E 0 90 62 60
        E 0 90 64 60
        E 120 80 40 60
        E 0 80 4a 60
        E 0 80 4b 60
        E 240 80 55 60
        E 0 80 58 60
        E 0 80 61 60
        E 0 80 62 60
        E 0 80 64 60
        E 120 90 4a 60
        E 0 90 4b 60
        E 0 90 55 60
        E 0 90 58 60
        E 0 90 61 60
        E 0 90 62 60
        E 0 90 64 60
        E 120 80 4a 60
        E 0 80 4b 60
        E 240 80 55 60
        E 0 80 58 60
        E 0 80 61 60
        E 0 80 62 60
        E 0 80 64 60
        E 120 90 3d 60
        E 0 90 48 60
        E 0 90 4a 60
        E 0 90 54 60
        E 0 90 56 60
        E 0 90 60 60
        E 0 90 61 60
        E 0 90 63 60
        E 120 80 3d 60
        E 0 80 48 60
        E 0 80 4a 60
        E 240 80 54 60
        E 0 80 56 60
        E 0 80 60 60
        E 0 80 61 60
        E 0 80 63 60
        E 120 90 3d 60
        E 0 90 48 60
        E 0 90 4a 60
        E 0 90 54 60
        E 0 90 56 60
        E 0 90 60 60
        E 0 90 61 60
        E 0 90 63 60
        E 120 80 3d 60
        E 0 80 48 60
        E 0 80 4a 60
        E 240 80 54 60
        E 0 80 56 60
        E 0 80 60 60
        E 0 80 61 60
        E 0 80 63 60
        E 120 90 3d 60
        E 0 90 48 60
        E 0 90 4a 60
        E 0 90 54 60
        E 0 90 56 60
        E 0 90 60 60
        E 0 90 61 60
        E 0 90 63 60
        E 120 80 3d 60
        E 0 80 48 60
        E 0 80 4a 60
        E 240 80 54 60
        E 0 80 56 60
        E 0 80 60 60
        E 0 80 61 60
        E 0 80 63 60
        E 120 90 3d 60
        E 0 90 48 60
        E 0 90 4a 60
        E 0 90 54 60
        E 0 90 56 60
        E 0 90 60 60
        E 0 90 61 60
        E 0 90 63 60
        E 120 80 3d 60
        E 0 80 48 60
        E 0 80 4a 60
        E 240 80 54 60
        E 0 80 56 60
        E 0 80 60 60
        E 0 80 61 60
        E 0 80 63 60
        E 120 90 3d 60
        E 0 90 48 60
        E 0 90 4a 60
        E 0 90 54 60
        E 0 90 56 60
        E 0 90 60 60
        E 0 90 61 60
        E 0 90 63 60
        E 120 80 3d 60
        E 0 80 48 60
        E 0 80 4a 60
        E 240 80 54 60
        E 0 80 56 60
        E 0 80 60 60
        E 0 80 61 60
        E 0 80 63 60
        E 120 90 3d 60
        E 0 90 48 60
        E 0 90 4a 60
        E 0 90 54 60
        E 0 90 56 60
        E 0 90 60 60
        E 0 90 61 60
        E 0 90 63 60
        E 120 80 3d 60
        E 0 80 48 60
        E 0 80 4a 60
        E 240 80 54 60
        E 0 80 56 60
        E 0 80 60 60
        E 0 80 61 60
        E 0 80 63 60
        E 120 90 3d 60
        E 0 90 48 60
        E 0 90 4a 60
        E 0 90 54 60
        E 0 90 56 60
        E 0 90 60 60
        E 0 90 61 60
        E 0 90 63 60
        E 120 80 3d 60
        E 0 80 48 60
        E 0 80 4a 60
        E 240 80 54 60
        E 0 80 56 60
        E 0 80 60 60
        E 0 80 61 60
        E 0 80 63 60
        E 120 90 48 60
        E 0 90 4a 60
        E 0 90 54 60
        E 0 90 56 60
        E 0 90 60 60
        E 0 90 61 60
        E 0 90 63 60
        E 120 80 48 60
        E 0 80 4a 60
        E 240 80 54 60
        E 0 80 56 60
        E 0 80 60 60
        E 0 80 61 60
        E 0 80 63 60
        E 120 90 40 60
        E 0 90 4a 60
        E 0 90 4b 60
        E 0 90 56 60
        E 0 90 58 60
        E 0 90 61 60
        E 0 90 63 60
        E 0 90 64 60
        E 120 80 40 60
        E 0 80 4a 60
        E 0 80 4b 60
        E 240 80 56 60
        E 0 80 58 60
        E 0 80 61 60
        E 0 80 63 60
        E 0 80 64 60
        E 120 90 40 60
        E 0 90 4a 60
        E 0 90 4b 60
        E 0 90 56 60
        E 0 90 58 60
        E 0 90 61 60
        E 0 90 63 60
        E 0 90 64 60
        E 120 80 40 60
        E 0 80 4a 60
        E 0 80 4b 60
        E 240 80 56 60
        E 0 80 58 60
        E 0 80 61 60
        E 0 80 63 60
        E 0 80 64 60
        E 120 90 40 60
        E 0 90 4a 60
        E 0 90 4b 60
        E 0 90 56 60
        E 0 90 58 60
        E 0 90 61 60
        E 0 90 63 60
        E 0 90 64 60
        E 120 80 40 60
        E 0 80 4a 60
        E 0 80 4b 60
        E 240 80 56 60
        E 0 80 58 60
        E 0 80 61 60
        E 0 80 63 60
        E 0 80 64 60
        E 120 90 40 60
        E 0 90 4a 60
        E 0 90 4b 60
        E 0 90 56 60
        E 0 90 58 60
        E 0 90 61 60
        E 0 90 63 60
        E 0 90 64 60
        E 120 80 40 60
        E 0 80 4a 60
        E 0 80 4b 60
        E 240 80 56 60
        E 0 80 58 60
        E 0 80 61 60
        E 0 80 63 60
        E 0 80 64 60
        E 120 90 40 60
        E 0 90 4a 60
        E 0 90 4b 60
        E 0 90 55 60
        E 0 90 58 60
        E 0 90 61 60
        E 0 90 62 60
        E 0 90 64 60
        E 0 90 74 60
        E 120 80 40 60
        E 0 80 4a 60
        E 0 80 4b 60
        E 240 80 55 60
        E 0 80 58 60
        E 0 80 61 60
        E 0 80 62 60
        E 0 80 64 60
        E 120 90 40 60
        E 0 90 4a 60
        E 0 90 4b 60
        E 0 90 55 60
        E 0 90 58 60
        E 0 90 61 60
        E 0 90 62 60
        E 0 90 64 60
        E 120 80 40 60
        E 0 80 4a 60
        E 0 80 4b 60
        E 240 80 55 60
        E 0 80 58 60
        E 0 80 61 60
        E 0 80 62 60
        E 0 80 64 60
        E 120 90 40 60
        E 0 90 4a 60
        E 0 90 4b 60
        E 0 90 55 60
        E 0 90 58 60
        E 0 90 61 60
        E 0 90 62 60
        E 0 90 64 60
        E 120 80 40 60
        E 0 80 4a 60
        E 0 80 4b 60
        E 240 80 55 60
        E 0 80 58 60
        E 0 80 61 60
        E 0 80 62 60
        E 0 80 64 60
        E 120 90 4a 60
        E 0 90 4b 60
        E 0 90 55 60
        E 0 90 58 60
        E 0 90 61 60
        E 0 90 62 60
        E 0 90 64 60
        E 120 80 4a 60
        E 0 80 4b 60
        E 240 80 55 60
        E 0 80 58 60
        E 0 80 61 60
        E 0 80 62 60
        E 0 80 64 60
        E 120 80 74 60
        E 0 90 3e 60
        E 0 90 49 60
        E 0 90 4a 60
        E 0 90 54 60
        E 0 90 57 60
        E 0 90 60 60
        E 0 90 62 60
        E 0 90 63 60
        E 120 80 3e 60
        E 0 80 49 60
        E 0 80 4a 60
        E 240 80 54 60
        E 0 80 57 60
        E 0 80 60 60
        E 0 80 62 60
        E 0 80 63 60
        E 120 90 3e 60
        E 0 90 49 60
        E 0 90 4a 60
        E 0 90 54 60
        E 0 90 57 60
        E 0 90 60 60
        E 0 90 62 60
        E 0 90 63 60
        E 120 80 3e 60
        E 0 80 49 60
        E 0 80 4a 60
        E 240 80 54 60
        E 0 80 57 60
        E 0 80 60 60
        E 0 80 62 60
        E 0 80 63 60
        E 120 90 3e 60
        E 0 90 49 60
        E 0 90 4a 60
        E 0 90 54 60
        E 0 90 57 60
        E 0 90 60 60
        E 0 90 62 60
        E 0 90 63 60
        E 120 80 3e 60
        E 0 80 49 60
        E 0 80 4a 60
        E 240 80 54 60
        E 0 80 57 60
        E 0 80 60 60
        E 0 80 62 60
        E 0 80 63 60
        E 120 90 49 60
        E 0 90 4a 60
        E 0 90 54 60
        E 0 90 57 60
        E 0 90 60 60
        E 0 90 62 60
        E 0 90 63 60
        E 120 80 49 60
        E 0 80 4a 60
        E 240 80 54 60
        E 0 80 57 60
        E 0 80 60 60
        E 0 80 62 60
        E 0 80 63 60
        E 120 90 3d 60
        E 0 90 48 60
        E 0 90 4a 60
        E 0 90 54 60
        E 0 90 56 60
        E 0 90 60 60
        E 0 90 61 60
        E 0 90 63 60
        E 120 80 3d 60
        E 0 80 48 60
        E 0 80 4a 60
        E 240 80 54 60
        E 0 80 56 60
        E 0 80 60 60
        E 0 80 61 60
        E 0 80 63 60
        E 120 90 3d 60
        E 0 90 48 60
        E 0 90 4a 60
        E 0 90 54 60
        E 0 90 56 60
        E 0 90 60 60
        E 0 90 61 60
        E 0 90 63 60
        E 120 80 3d 60
        E 0 80 48 60
        E 0 80 4a 60
        E 240 80 54 60
        E 0 80 56 60
        E 0 80 60 60
        E 0 80 61 60
        E 0 80 63 60
        E 120 90 3d 60
        E 0 90 48 60
        E 0 90 4a 60
        E 0 90 54 60
        E 0 90 56 60
        E 0 90 60 60
        E 0 90 61 60
        E 0 90 63 60
        E 120 80 3d 60
        E 0 80 48 60
        E 0 80 4a 60
        E 240 80 54 60
        E 0 80 56 60
        E 0 80 60 60
        E 0 80 61 60
        E 0 80 63 60
        E 120 90 48 60
        E 0 90 4a 60
        E 0 90 54 60
        E 0 90 56 60
        E 0 90 60 60
        E 0 90 61 60
        E 0 90 63 60
        E 120 80 48 60
        E 0 80 4a 60
        E 240 80 54 60
        E 0 80 56 60
        E 0 80 60 60
        E 0 80 61 60
        E 0 80 63 60
        E 120 90 3c 60
        E 0 90 48 60
        E 0 90 49 60
        E 0 90 54 60
        E 0 90 55 60
        E 0 90 60 60
        E 0 90 61 60
        E 0 90 62 60
        E 120 80 3c 60
        E 0 80 48 60
        E 0 80 49 60
        E 240 80 54 60
        E 0 80 55 60
        E 0 80 60 60
        E 0 80 61 60
        E 0 80 62 60
        E 120 90 3c 60
        E 0 90 48 60
        E 0 90 49 60
        E 0 90 54 60
        E 0 90 55 60
        E 0 90 60 60
        E 0 90 61 60
        E 0 90 62 60
        E 120 80 3c 60
        E 0 80 48 60
        E 0 80 49 60
        E 240 80 54 60
        E 0 80 55 60
        E 0 80 60 60
        E 0 80 61 60
        E 0 80 62 60
        E 120 90 3c 60
        E 0 90 48 60
        E 0 90 49 60
        E 0 90 54 60
        E 0 90 55 60
        E 0 90 60 60
        E 0 90 61 60
        E 0 90 62 60
        E 120 80 3c 60
        E 0 80 48 60
        E 0 80 49 60
        E 240 80 54 60
        E 0 80 55 60
        E 0 80 60 60
        E 0 80 61 60
        E 0 80 62 60
        E 120 90 48 60
        E 0 90 49 60
        E 0 90 54 60
        E 0 90 55 60
        E 0 90 60 60
        E 0 90 61 60
        E 0 90 62 60
        E 120 80 48 60
        E 0 80 49 60
        E 240 80 54 60
        E 0 80 55 60
        E 0 80 60 60
        E 0 80 61 60
        E 0 80 62 60
        E 120 90 3d 60
        E 0 90 48 60
        E 0 90 4a 60
        E 0 90 54 60
        E 0 90 56 60
        E 0 90 60 60
        E 0 90 61 60
        E 0 90 63 60
        E 120 80 3d 60
        E 0 80 48 60
        E 0 80 4a 60
        E 480 80 54 60
        E 0 80 56 60
        E 0 80 60 60
        E 0 80 61 60
        E 0 80 63 60
        E 120 90 49 60
        E 0 90 4b 60
        E 0 90 55 60
        E 0 90 57 60
        E 0 90 61 60
        E 0 90 62 60
        E 0 90 63 60
        E 2040 80 49 60
        E 0 80 4b 60
        E 0 80 55 60
        E 0 80 57 60
        E 0 80 61 60
        E 0 80 62 60
        E 0 80 63 60
        E 1080 90 3d 60
        E 0 90 48 60
        E 0 90 4a 60
        E 0 90 54 60
        E 0 90 56 60
        E 0 90 60 60
        E 0 90 61 60
        E 0 90 63 60
        E 120 80 3d 60
        E 0 80 48 60
        E 0 80 4a 60
        E 240 80 54 60
        E 0 80 56 60
        E 0 80 60 60
        E 0 80 61 60
        E 0 80 63 60
        E 120 90 3d 60
        E 0 90 48 60
        E 0 90 4a 60
        E 0 90 54 60
        E 0 90 56 60
        E 0 90 60 60
        E 0 90 61 60
        E 0 90 63 60
        E 120 80 3d 60
        E 0 80 48 60
        E 0 80 4a 60
        E 240 80 54 60
        E 0 80 56 60
        E 0 80 60 60
        E 0 80 61 60
        E 0 80 63 60
        E 120 90 3d 60
        E 0 90 48 60
        E 0 90 4a 60
        E 0 90 54 60
        E 0 90 56 60
        E 0 90 60 60
        E 0 90 61 60
        E 0 90 63 60
        E 120 80 3d 60
        E 0 80 48 60
        E 0 80 4a 60
        E 240 80 54 60
        E 0 80 56 60
        E 0 80 60 60
        E 0 80 61 60
        E 0 80 63 60
        E 120 90 3d 60
        E 0 90 48 60
        E 0 90 4a 60
        E 0 90 54 60
        E 0 90 56 60
        E 0 90 60 60
        E 0 90 61 60
        E 0 90 63 60
        E 120 80 3d 60
        E 0 80 48 60
        E 0 80 4a 60
        E 240 80 54 60
        E 0 80 56 60
        E 0 80 60 60
        E 0 80 61 60
        E 0 80 63 60
        E 120 90 3d 60
        E 0 90 48 60
        E 0 90 4a 60
        E 0 90 54 60
        E 0 90 56 60
        E 0 90 60 60
        E 0 90 61 60
        E 0 90 63 60
        E 120 80 3d 60
        E 0 80 48 60
        E 0 80 4a 60
        E 240 80 54 60
        E 0 80 56 60
        E 0 80 60 60
        E 0 80 61 60
        E 0 80 63 60
        E 120 90 3d 60
        E 0 90 48 60
        E 0 90 4a 60
        E 0 90 54 60
        E 0 90 56 60
        E 0 90 60 60
        E 0 90 61 60
        E 0 90 63 60
        E 120 80 3d 60
        E 0 80 48 60
        E 0 80 4a 60
        E 240 80 54 60
        E 0 80 56 60
        E 0 80 60 60
        E 0 80 61 60
        E 0 80 63 60
        E 120 90 3d 60
        E 0 90 48 60
        E 0 90 4a 60
        E 0 90 54 60
        E 0 90 56 60
        E 0 90 60 60
        E 0 90 61 60
        E 0 90 63 60
        E 120 80 3d 60
        E 0 80 48 60
        E 0 80 4a 60
        E 240 80 54 60
        E 0 80 56 60
        E 0 80 60 60
        E 0 80 61 60
        E 0 80 63 60
        E 120 90 48 60
        E 0 90 4a 60
        E 0 90 54 60
        E 0 90 56 60
        E 0 90 60 60
        E 0 90 61 60
        E 0 90 63 60
        E 120 80 48 60
        E 0 80 4a 60
        E 240 80 54 60
        E 0 80 56 60
        E 0 80 60 60
        E 0 80 61 60
        E 0 80 63 60
        E 120 90 40 60
        E 0 90 4a 60
        E 0 90 4b 60
        E 0 90 55 60
        E 0 90 58 60
        E 0 90 61 60
        E 0 90 62 60
        E 0 90 64 60
        E 120 80 40 60
        E 0 80 4a 60
        E 0 80 4b 60
        E 240 80 55 60
        E 0 80 58 60
        E 0 80 61 60
        E 0 80 62 60
        E 0 80 64 60
        E 120 90 4a 60
        E 0 90 4b 60
        E 0 90 55 60
        E 0 90 58 60
        E 0 90 61 60
        E 0 90 62 60
        E 0 90 64 60
        E 120 80 4a 60
        E 0 80 4b 60
        E 240 80 55 60
        E 0 80 58 60
        E 0 80 61 60
        E 0 80 62 60
        E 0 80 64 60
        E 120 90 3f 60
        E 0 90 49 60
        E 0 90 4b 60
        E 0 90 55 60
        E 0 90 57 60
        E 0 90 61 60
        E 0 90 62 60
        E 0 90 63 60
        E 120 80 3f 60
        E 0 80 49 60
        E 0 80 4b 60
        E 240 80 55 60
        E 0 80 57 60
        E 0 80 61 60
        E 0 80 62 60
        E 0 80 63 60
        E 120 90 49 60
        E 0 90 4b 60
        E 0 90 55 60
        E 0 90 57 60
        E 0 90 61 60
        E 0 90 62 60
        E 0 90 63 60
        E 120 80 49 60
        E 0 80 4b 60
        E 240 80 55 60
        E 0 80 57 60
        E 0 80 61 60
        E 0 80 62 60
        E 0 80 63 60
        E 120 90 3d 60
        E 0 90 48 60
        E 0 90 4a 60
        E 0 90 54 60
        E 0 90 56 60
        E 0 90 60 60
        E 0 90 61 60
        E 0 90 63 60
        E 120 80 3d 60
        E 0 80 48 60
        E 0 80 4a 60
        E 240 80 54 60
        E 0 80 56 60
        E 0 80 60 60
        E 0 80 61 60
        E 0 80 63 60
        E 120 90 3d 60
        E 0 90 48 60
        E 0 90 4a 60
        E 0 90 54 60
        E 0 90 56 60
        E 0 90 60 60
        E 0 90 61 60
        E 0 90 63 60
        E 120 80 3d 60
        E 0 80 48 60
        E 0 80 4a 60
        E 240 80 54 60
        E 0 80 56 60
        E 0 80 60 60
        E 0 80 61 60
        E 0 80 63 60
        E 120 90 3d 60
        E 0 90 48 60
        E 0 90 4a 60
        E 0 90 54 60
        E 0 90 56 60
        E 0 90 60 60
        E 0 90 61 60
        E 0 90 63 60
        E 120 80 3d 60
        E 0 80 48 60
        E 0 80 4a 60
        E 240 80 54 60
        E 0 80 56 60
        E 0 80 60 60
        E 0 80 61 60
        E 0 80 63 60
        E 120 90 48 60
        E 0 90 4a 60
        E 0 90 54 60
        E 0 90 56 60
        E 0 90 60 60
        E 0 90 61 60
        E 0 90 63 60
        E 120 80 48 60
        E 0 80 4a 60
        E 240 80 54 60
        E 0 80 56 60
        E 0 80 60 60
        E 0 80 61 60
        E 0 80 63 60
        E 120 90 40 60
        E 0 90 4a 60
        E 0 90 4b 60
        E 0 90 55 60
        E 0 90 58 60
        E 0 90 61 60
        E 0 90 62 60
        E 0 90 64 60
        E 120 80 40 60
        E 0 80 4a 60
        E 0 80 4b 60
        E 240 80 55 60
        E 0 80 58 60
        E 0 80 61 60
        E 0 80 62 60
        E 0 80 64 60
        E 120 90 4a 60
        E 0 90 4b 60
        E 0 90 55 60
        E 0 90 58 60
        E 0 90 61 60
        E 0 90 62 60
        E 0 90 64 60
        E 120 80 4a 60
        E 0 80 4b 60
        E 240 80 55 60
        E 0 80 58 60
        E 0 80 61 60
        E 0 80 62 60
        E 0 80 64 60
        E 120 90 3f 60
        E 0 90 49 60
        E 0 90 4b 60
        E 0 90 55 60
        E 0 90 57 60
        E 0 90 61 60
        E 0 90 62 60
        E 0 90 63 60
        E 120 80 3f 60
        E 0 80 49 60
        E 0 80 4b 60
        E 240 80 55 60
        E 0 80 57 60
        E 0 80 61 60
        E 0 80 62 60
        E 0 80 63 60
        E 120 90 49 60
        E 0 90 4b 60
        E 0 90 55 60
        E 0 90 57 60
        E 0 90 61 60
        E 0 90 62 60
        E 0 90 63 60
        E 120 80 49 60
        E 0 80 4b 60
        E 240 80 55 60
        E 0 80 57 60
        E 0 80 61 60
        E 0 80 62 60
        E 0 80 63 60
        E 120 90 3e 60
        E 0 90 49 60
        E 0 90 4a 60
        E 0 90 54 60
        E 0 90 57 60
        E 0 90 60 60
        E 0 90 62 60
        E 0 90 63 60
        E 0 90 74 60
        E 120 80 3e 60
        E 0 80 49 60
        E 0 80 4a 60
        E 240 80 54 60
        E 0 80 57 60
        E 0 80 60 60
        E 0 80 62 60
        E 0 80 63 60
        E 120 90 3e 60
        E 0 90 49 60
        E 0 90 4a 60
        E 0 90 54 60
        E 0 90 57 60
        E 0 90 60 60
        E 0 90 62 60
        E 0 90 63 60
        E 120 80 3e 60
        E 0 80 49 60
        E 0 80 4a 60
        E 240 80 54 60
        E 0 80 57 60
        E 0 80 60 60
        E 0 80 62 60
        E 0 80 63 60
        E 120 90 3e 60
        E 0 90 49 60
        E 0 90 4a 60
        E 0 90 54 60
        E 0 90 57 60
        E 0 90 60 60
        E 0 90 62 60
        E 0 90 63 60
        E 120 80 3e 60
        E 0 80 49 60
        E 0 80 4a 60
        E 240 80 54 60
        E 0 80 57 60
        E 0 80 60 60
        E 0 80 62 60
        E 0 80 63 60
        E 120 90 49 60
        E 0 90 4a 60
        E 0 90 54 60
        E 0 90 57 60
        E 0 90 60 60
        E 0 90 62 60
        E 0 90 63 60
        E 120 80 49 60
        E 0 80 4a 60
        E 240 80 54 60
        E 0 80 57 60
        E 0 80 60 60
        E 0 80 62 60
        E 0 80 63 60
        E 120 80 74 60
        E 0 90 3d 60
        E 0 90 48 60
        E 0 90 4a 60
        E 0 90 54 60
        E 0 90 56 60
        E 0 90 60 60
        E 0 90 61 60
        E 0 90 63 60
        E 120 80 3d 60
        E 0 80 48 60
        E 0 80 4a 60
        E 240 80 54 60
        E 0 80 56 60
        E 0 80 60 60
        E 0 80 61 60
        E 0 80 63 60
        E 120 90 3d 60
        E 0 90 48 60
        E 0 90 4a 60
        E 0 90 54 60
        E 0 90 56 60
        E 0 90 60 60
        E 0 90 61 60
        E 0 90 63 60
        E 120 80 3d 60
        E 0 80 48 60
        E 0 80 4a 60
        E 240 80 54 60
        E 0 80 56 60
        E 0 80 60 60
        E 0 80 61 60
        E 0 80 63 60
        E 120 90 3d 60
        E 0 90 48 60
        E 0 90 4a 60
        E 0 90 54 60
        E 0 90 56 60
        E 0 90 60 60
        E 0 90 61 60
        E 0 90 63 60
        E 120 80 3d 60
        E 0 80 48 60
        E 0 80 4a 60
        E 240 80 54 60
        E 0 80 56 60
        E 0 80 60 60
        E 0 80 61 60
        E 0 80 63 60
        E 120 90 48 60
        E 0 90 4a 60
        E 0 90 54 60
        E 0 90 56 60
        E 0 90 60 60
        E 0 90 61 60
        E 0 90 63 60
        E 120 80 48 60
        E 0 80 4a 60
        E 240 80 54 60
        E 0 80 56 60
        E 0 80 60 60
        E 0 80 61 60
        E 0 80 63 60
        E 120 90 3c 60
        E 0 90 48 60
        E 0 90 49 60
        E 0 90 54 60
        E 0 90 55 60
        E 0 90 60 60
        E 0 90 61 60
        E 0 90 62 60
        E 120 80 3c 60
        E 0 80 48 60
        E 0 80 49 60
        E 240 80 54 60
        E 0 80 55 60
        E 0 80 60 60
        E 0 80 61 60
        E 0 80 62 60
        E 120 90 3c 60
        E 0 90 48 60
        E 0 90 49 60
        E 0 90 54 60
        E 0 90 55 60
        E 0 90 60 60
        E 0 90 61 60
        E 0 90 62 60
        E 120 80 3c 60
        E 0 80 48 60
        E 0 80 49 60
        E 240 80 54 60
        E 0 80 55 60
        E 0 80 60 60
        E 0 80 61 60
        E 0 80 62 60
        E 120 90 3c 60
        E 0 90 48 60
        E 0 90 49 60
        E 0 90 54 60
        E 0 90 55 60
        E 0 90 60 60
        E 0 90 61 60
        E 0 90 62 60
        E 120 80 3c 60
        E 0 80 48 60
        E 0 80 49 60
        E 240 80 54 60
        E 0 80 55 60
        E 0 80 60 60
        E 0 80 61 60
        E 0 80 62 60
        E 120 90 48 60
        E 0 90 49 60
        E 0 90 54 60
        E 0 90 55 60
        E 0 90 60 60
        E 0 90 61 60
        E 0 90 62 60
        E 120 80 48 60
        E 0 80 49 60
        E 240 80 54 60
        E 0 80 55 60
        E 0 80 60 60
        E 0 80 61 60
        E 0 80 62 60
        E 120 90 3d 60
        E 0 90 48 60
        E 0 90 4a 60
        E 0 90 54 60
        E 0 90 56 60
        E 0 90 60 60
        E 0 90 61 60
        E 0 90 63 60
        E 240 80 3d 60
        E 0 80 48 60
        E 0 80 4a 60
        E 120 80 54 60
        E 0 80 56 60
        E 60 80 60 60
        E 0 80 61 60
        E 0 80 63 60
        E 60 90 48 60
        E 0 90 4a 60
        E 0 90 54 60
        E 0 90 56 60
        E 0 90 60 60
        E 0 90 61 60
        E 0 90 63 60
        E 240 80 48 60
        E 0 80 4a 60
        E 120 80 54 60
        E 0 80 56 60
        E 60 80 60 60
        E 0 80 61 60
        E 0 80 63 60
        E 60 90 3f 60
        E 0 90 49 60
        E 0 90 4b 60
        E 0 90 55 60
        E 0 90 57 60
        E 0 90 61 60
        E 0 90 62 60
        E 0 90 63 60
        E 2400 80 3f 60
        E 0 80 49 60
        E 0 80 4b 60
        E 0 80 55 60
        E 0 80 57 60
        E 0 80 61 60
        E 0 80 62 60
        E 0 80 63 60
        E 480 90 3d 60
        E 0 90 48 60
        E 0 90 4a 60
        E 0 90 54 60
        E 0 90 56 60
        E 0 90 60 60
        E 0 90 61 60
        E 0 90 63 60
        E 120 80 3d 60
        E 0 80 48 60
        E 0 80 4a 60
        E 240 80 54 60
        E 0 80 56 60
        E 0 80 60 60
        E 0 80 61 60
        E 0 80 63 60
        E 120 90 3d 60
        E 0 90 48 60
        E 0 90 4a 60
        E 0 90 54 60
        E 0 90 56 60
        E 0 90 60 60
        E 0 90 61 60
        E 0 90 63 60
        E 120 80 3d 60
        E 0 80 48 60
        E 0 80 4a 60
        E 240 80 54 60
        E 0 80 56 60
        E 0 80 60 60
        E 0 80 61 60
        E 0 80 63 60
        E 120 90 3d 60
        E 0 90 48 60
        E 0 90 4a 60
        E 0 90 54 60
        E 0 90 56 60
        E 0 90 60 60
        E 0 90 61 60
        E 0 90 63 60
        E 120 80 3d 60
        E 0 80 48 60
        E 0 80 4a 60
        E 240 80 54 60
        E 0 80 56 60
        E 0 80 60 60
        E 0 80 61 60
        E 0 80 63 60
        E 120 90 3d 60
        E 0 90 48 60
        E 0 90 4a 60
        E 0 90 54 60
        E 0 90 56 60
        E 0 90 60 60
        E 0 90 61 60
        E 0 90 63 60
        E 120 80 3d 60
        E 0 80 48 60
        E 0 80 4a 60
        E 240 80 54 60
        E 0 80 56 60
        E 0 80 60 60
        E 0 80 61 60
        E 0 80 63 60
        E 120 90 3d 60
        E 0 90 48 60
        E 0 90 4a 60
        E 0 90 54 60
        E 0 90 56 60
        E 0 90 60 60
        E 0 90 61 60
        E 0 90 63 60
        E 120 80 3d 60
        E 0 80 48 60
        E 0 80 4a 60
        E 240 80 54 60
        E 0 80 56 60
        E 0 80 60 60
        E 0 80 61 60
        E 0 80 63 60
        E 120 90 3d 60
        E 0 90 48 60
        E 0 90 4a 60
        E 0 90 54 60
        E 0 90 56 60
        E 0 90 60 60
        E 0 90 61 60
        E 0 90 63 60
        E 120 80 3d 60
        E 0 80 48 60
        E 0 80 4a 60
        E 240 80 54 60
        E 0 80 56 60
        E 0 80 60 60
        E 0 80 61 60
        E 0 80 63 60
        E 120 90 3d 60
        E 0 90 48 60
        E 0 90 4a 60
        E 0 90 54 60
        E 0 90 56 60
        E 0 90 60 60
        E 0 90 61 60
        E 0 90 63 60
        E 120 80 3d 60
        E 0 80 48 60
        E 0 80 4a 60
        E 240 80 54 60
        E 0 80 56 60
        E 0 80 60 60
        E 0 80 61 60
        E 0 80 63 60
        E 120 90 48 60
        E 0 90 4a 60
        E 0 90 54 60
        E 0 90 56 60
        E 0 90 60 60
        E 0 90 61 60
        E 0 90 63 60
        E 120 80 48 60
        E 0 80 4a 60
        E 240 80 54 60
        E 0 80 56 60
        E 0 80 60 60
        E 0 80 61 60
        E 0 80 63 60
        E 120 90 40 60
        E 0 90 4a 60
        E 0 90 4b 60
        E 0 90 55 60
        E 0 90 58 60
        E 0 90 61 60
        E 0 90 62 60
        E 0 90 64 60
        E 120 80 40 60
        E 0 80 4a 60
        E 0 80 4b 60
        E 240 80 55 60
        E 0 80 58 60
        E 0 80 61 60
        E 0 80 62 60
        E 0 80 64 60
        E 120 90 4a 60
        E 0 90 4b 60
        E 0 90 55 60
        E 0 90 58 60
        E 0 90 61 60
        E 0 90 62 60
        E 0 90 64 60
        E 120 80 4a 60
        E 0 80 4b 60
        E 240 80 55 60
        E 0 80 58 60
        E 0 80 61 60
        E 0 80 62 60
        E 0 80 64 60
        E 120 90 3f 60
        E 0 90 49 60
        E 0 90 4b 60
        E 0 90 55 60
        E 0 90 57 60
        E 0 90 61 60
        E 0 90 62 60
        E 0 90 63 60
        E 120 80 3f 60
        E 0 80 49 60
        E 0 80 4b 60
        E 240 80 55 60
        E 0 80 57 60
        E 0 80 61 60
        E 0 80 62 60
        E 0 80 63 60
        E 120 90 3f 60
        E 0 90 49 60
        E 0 90 4b 60
        E 0 90 55 60
        E 0 90 57 60
        E 0 90 61 60
        E 0 90 62 60
        E 0 90 63 60
        E 120 80 3f 60
        E 0 80 49 60
        E 0 80 4b 60
        E 240 80 55 60
        E 0 80 57 60
        E 0 80 61 60
        E 0 80 62 60
        E 0 80 63 60
        E 360 90 48 60
        E 0 90 4a 60
        E 0 90 54 60
        E 0 90 56 60
        E 0 90 60 60
        E 0 90 61 60
        E 0 90 63 60
        E 120 80 48 60
        E 0 80 4a 60
        E 0 80 54 60
        E 0 80 56 60
        E 0 80 60 60
        E 0 80 61 60
        E 0 80 63 60
        E 120 90 3d 60
        E 0 90 48 60
        E 0 90 4a 60
        E 0 90 54 60
        E 0 90 56 60
        E 0 90 60 60
        E 0 90 61 60
        E 0 90 63 60
        E 120 80 3d 60
        E 0 80 48 60
        E 0 80 4a 60
        E 0 80 54 60
        E 0 80 56 60
        E 0 80 60 60
        E 0 80 61 60
        E 0 80 63 60
        E 120 90 48 60
        E 0 90 4a 60
        E 0 90 54 60
        E 0 90 56 60
        E 0 90 60 60
        E 0 90 61 60
        E 0 90 63 60
        E 120 80 48 60
        E 0 80 4a 60
        E 0 80 54 60
        E 0 80 56 60
        E 0 80 60 60
        E 0 80 61 60
        E 0 80 63 60
        E 120 90 3d 60
        E 0 90 48 60
        E 0 90 4a 60
        E 0 90 54 60
        E 0 90 56 60
        E 0 90 60 60
        E 0 90 61 60
        E 0 90 63 60
        E 120 80 3d 60
        E 0 80 48 60
        E 0 80 4a 60
        E 0 80 54 60
        E 0 80 56 60
        E 0 80 60 60
        E 0 80 61 60
        E 0 80 63 60
        E 120 90 48 60
        E 0 90 4a 60
        E 0 90 54 60
        E 0 90 56 60
        E 0 90 60 60
        E 0 90 61 60
        E 0 90 63 60
        E 120 80 48 60
        E 0 80 4a 60
        E 0 80 54 60
        E 0 80 56 60
        E 0 80 60 60
        E 0 80 61 60
        E 0 80 63 60
        E 120 90 48 60
        E 0 90 4a 60
        E 0 90 54 60
        E 0 90 56 60
        E 0 90 60 60
        E 0 90 61 60
        E 0 90 63 60
        E 120 80 48 60
        E 0 80 4a 60
        E 0 80 54 60
        E 0 80 56 60
        E 0 80 60 60
        E 0 80 61 60
        E 0 80 63 60
        E 360 90 40 60
        E 0 90 4a 60
        E 0 90 4b 60
        E 0 90 55 60
        E 0 90 58 60
        E 0 90 61 60
        E 0 90 62 60
        E 0 90 64 60
        E 0 90 74 60
        E 120 80 40 60
        E 0 80 4a 60
        E 0 80 4b 60
        E 240 80 55 60
        E 0 80 58 60
        E 0 80 61 60
        E 0 80 62 60
        E 0 80 64 60
        E 120 90 4a 60
        E 0 90 4b 60
        E 0 90 55 60
        E 0 90 58 60
        E 0 90 61 60
        E 0 90 62 60
        E 0 90 64 60
        E 120 80 4a 60
        E 0 80 4b 60
        E 240 80 55 60
        E 0 80 58 60
        E 0 80 61 60
        E 0 80 62 60
        E 0 80 64 60
        E 120 90 3f 60
        E 0 90 49 60
        E 0 90 4b 60
        E 0 90 55 60
        E 0 90 57 60
        E 0 90 61 60
        E 0 90 62 60
        E 0 90 63 60
        E 120 80 3f 60
        E 0 80 49 60
        E 0 80 4b 60
        E 240 80 55 60
        E 0 80 57 60
        E 0 80 61 60
        E 0 80 62 60
        E 0 80 63 60
        E 120 90 49 60
        E 0 90 4b 60
        E 0 90 55 60
        E 0 90 57 60
        E 0 90 61 60
        E 0 90 62 60
        E 0 90 63 60
        E 120 80 49 60
        E 0 80 4b 60
        E 240 80 55 60
        E 0 80 57 60
        E 0 80 61 60
        E 0 80 62 60
        E 0 80 63 60
        E 120 80 74 60
        E 0 90 3d 60
        E 0 90 48 60
        E 0 90 4a 60
        E 0 90 54 60
        E 0 90 56 60
        E 0 90 60 60
        E 0 90 61 60
        E 0 90 63 60
        E 120 80 3d 60
        E 0 80 48 60
        E 0 80 4a 60
        E 240 80 54 60
        E 0 80 56 60
        E 0 80 60 60
        E 0 80 61 60
        E 0 80 63 60
        E 120 90 3d 60
        E 0 90 48 60
        E 0 90 4a 60
        E 0 90 54 60
        E 0 90 56 60
        E 0 90 60 60
        E 0 90 61 60
        E 0 90 63 60
        E 120 80 3d 60
        E 0 80 48 60
        E 0 80 4a 60
        E 240 80 54 60
        E 0 80 56 60
        E 0 80 60 60
        E 0 80 61 60
        E 0 80 63 60
        E 120 90 3d 60
        E 0 90 48 60
        E 0 90 4a 60
        E 0 90 54 60
        E 0 90 56 60
        E 0 90 60 60
        E 0 90 61 60
        E 0 90 63 60
        E 120 80 3d 60
        E 0 80 48 60
        E 0 80 4a 60
        E 240 80 54 60
        E 0 80 56 60
        E 0 80 60 60
        E 0 80 61 60
        E 0 80 63 60
        E 120 90 48 60
        E 0 90 4a 60
        E 0 90 54 60
        E 0 90 56 60
        E 0 90 60 60
        E 0 90 61 60
        E 0 90 63 60
        E 120 80 48 60
        E 0 80 4a 60
        E 240 80 54 60
        E 0 80 56 60
        E 0 80 60 60
        E 0 80 61 60
        E 0 80 63 60
        E 120 90 40 60
        E 0 90 4a 60
        E 0 90 4b 60
        E 0 90 55 60
        E 0 90 58 60
        E 0 90 61 60
        E 0 90 62 60
        E 0 90 64 60
        E 120 80 40 60
        E 0 80 4a 60
        E 0 80 4b 60
        E 240 80 55 60
        E 0 80 58 60
        E 0 80 61 60
        E 0 80 62 60
        E 0 80 64 60
        E 120 90 4a 60
        E 0 90 4b 60
        E 0 90 55 60
        E 0 90 58 60
        E 0 90 61 60
        E 0 90 62 60
        E 0 90 64 60
        E 120 80 4a 60
        E 0 80 4b 60
        E 240 80 55 60
        E 0 80 58 60
        E 0 80 61 60
        E 0 80 62 60
        E 0 80 64 60
        E 120 90 3f 60
        E 0 90 49 60
        E 0 90 4b 60
        E 0 90 55 60
        E 0 90 57 60
        E 0 90 61 60
        E 0 90 62 60
        E 0 90 63 60
        E 120 80 3f 60
        E 0 80 49 60
        E 0 80 4b 60
        E 240 80 55 60
        E 0 80 57 60
        E 0 80 61 60
        E 0 80 62 60
        E 0 80 63 60
        E 120 90 49 60
        E 0 90 4b 60
        E 0 90 55 60
        E 0 90 57 60
        E 0 90 61 60
        E 0 90 62 60
        E 0 90 63 60
        E 120 80 49 60
        E 0 80 4b 60
        E 240 80 55 60
        E 0 80 57 60
        E 0 80 61 60
        E 0 80 62 60
        E 0 80 63 60
        E 120 90 3e 60
        E 0 90 49 60
        E 0 90 4a 60
        E 0 90 54 60
        E 0 90 57 60
        E 0 90 60 60
        E 0 90 62 60
        E 0 90 63 60
        E 120 80 3e 60
        E 0 80 49 60
        E 0 80 4a 60
        E 480 80 54 60
        E 0 80 57 60
        E 0 80 60 60
        E 0 80 62 60
        E 0 80 63 60
        E 120 90 49 60
        E 0 90 4a 60
        E 0 90 54 60
        E 0 90 57 60
        E 0 90 60 60
        E 0 90 62 60
        E 0 90 63 60
        E 120 80 49 60
        E 0 80 4a 60
        E 480 80 54 60
        E 0 80 57 60
        E 0 80 60 60
        E 0 80 62 60
        E 0 80 63 60
        E 120 90 3e 60
        E 0 90 49 60
        E 0 90 4a 60
        E 0 90 54 60
        E 0 90 57 60
        E 0 90 60 60
        E 0 90 62 60
        E 0 90 63 60
        E 120 80 3e 60
        E 0 80 49 60
        E 0 80 4a 60
        E 240 80 54 60
        E 0 80 57 60
        E 0 80 60 60
        E 0 80 62 60
        E 0 80 63 60
        E 120 90 3e 60
        E 0 90 49 60
        E 0 90 4a 60
        E 0 90 54 60
        E 0 90 57 60
        E 0 90 60 60
        E 0 90 62 60
        E 0 90 63 60
        E 120 80 3e 60
        E 0 80 49 60
        E 0 80 4a 60
        E 480 80 54 60
        E 0 80 57 60
        E 0 80 60 60
        E 0 80 62 60
        E 0 80 63 60
        E 120 90 49 60
        E 0 90 4a 60
        E 0 90 54 60
        E 0 90 57 60
        E 0 90 60 60
        E 0 90 62 60
        E 0 90 63 60
        E 120 80 49 60
        E 0 80 4a 60
        E 480 80 54 60
        E 0 80 57 60
        E 0 80 60 60
        E 0 80 62 60
        E 0 80 63 60
        E 120 90 49 60
        E 0 90 4a 60
        E 0 90 54 60
        E 0 90 57 60
        E 0 90 60 60
        E 0 90 62 60
        E 0 90 63 60
        E 120 80 49 60
        E 0 80 4a 60
        E 240 80 54 60
        E 0 80 57 60
        E 0 80 60 60
        E 0 80 62 60
        E 0 80 63 60
        E 120 90 3d 60
        E 0 90 48 60
        E 0 90 4a 60
        E 0 90 54 60
        E 0 90 56 60
        E 0 90 60 60
        E 0 90 61 60
        E 0 90 63 60
        E 2880 80 3d 60
        E 0 80 48 60
        E 0 80 4a 60
        E 0 80 54 60
        E 0 80 56 60
        E 0 80 60 60
        E 0 80 61 60
        E 0 80 63 60
        <X 479 0 0 0 1 [idle_realtime]
          /wFbaWRsZV9yZWFsdGltZV0=
        >
        E 7956 b0 7b 00
        CCINTERP 32
        GUID {739A992C-EE05-4ED3-80F5-8321FC57C856}
        IGNTEMPO 0 120 4 4
        SRCCOLOR 56
        VELLANE 132 128 60
        CFGEDITVIEW 0 0 -1 12 0 0 0 0 0 0.5
        KEYSNAP 0
        TRACKSEL 0
        EVTFILTER 0 -1 -1 -1 -1 0 0 0 0 -1 -1 -1 -1 0 -1 0 -1 -1
        CFGEDIT 1 1 0 0 0 1 1 1 1 1 1 0.25 100 100 1200 800 0 2 2 2 0 0 0 0 0 0.5 1 0 1 64
      >
    >
  >
  <TRACK {BA1A3798-BEEE-4AD7-BABF-8C2DD58C2B19}
    NAME "PART VOCALS"
    PEAKCOL 16807935
    BEAT -1
    AUTOMODE 0
    VOLPAN 1 0 -1 -1 1
    MUTESOLO 0 0 0
    IPHASE 0
    PLAYOFFS 0 1
    ISBUS 0 0
    BUSCOMP 0 0 0 0 0
    SHOWINMIX 1 0.6667 0.5 1 0.5 -1 -1 -1
    SEL 0
    REC 0 0 1 0 0 0 0 0
    TRACKHEIGHT 0 0 0 0 0 0
    INQ 0 0 0 0.5 100 0 0 100
    NCHAN 2
    FX 0
    TRACKID {BA1A3798-BEEE-4AD7-BABF-8C2DD58C2B19}
    PERF 0
    MIDIOUT -1
    <MIDINOTENAMES
      0 0 "Range Shift" 0 0
      0 1 "Lyric Shift" 0 1
      0 35 ---- 0 35
      0 36 "C (lowest)" 0 36
      0 37 C# 0 37
      0 38 D 0 38
      0 39 D# 0 39
      0 40 E 0 40
      0 41 F 0 41
      0 42 F# 0 42
      0 43 G 0 43
      0 44 G# 0 44
      0 45 A 0 45
      0 46 A# 0 46
      0 47 B 0 47
      0 48 C 0 48
      0 49 C# 0 49
      0 50 D 0 50
      0 51 D# 0 51
      0 52 E 0 52
      0 53 F 0 53
      0 54 F# 0 54
      0 55 G 0 55
      0 56 G# 0 56
      0 57 A 0 57
      0 58 A# 0 58
      0 59 B 0 59
      0 60 C 0 60
      0 61 C# 0 61
      0 62 D 0 62
      0 63 D# 0 63
      0 64 E 0 64
      0 65 F 0 65
      0 66 F# 0 66
      0 67 G 0 67
      0 68 G# 0 68
      0 69 A 0 69
      0 70 A# 0 70
      0 71 B 0 71
      0 72 C 0 72
      0 73 C# 0 73
      0 74 D 0 74
      0 75 D# 0 75
      0 76 E 0 76
      0 77 F 0 77
      0 78 F# 0 78
      0 79 G 0 79
      0 80 G# 0 80
      0 81 A 0 81
      0 82 A# 0 82
      0 83 B 0 83
      0 84 "C (highest) (bugged)" 0 84
      0 85 ---- 0 85
      0 96 Percussion 0 96
      0 97 "Percussion Sound" 0 97
      0 104 ---- 0 104
      0 105 Phrase 0 105
      0 106 "Phrase (Face-Off P2)" 0 106
      0 116 OVERDRIVE 0 116
    >
    MAINSEND 1 0
    <FXCHAIN
      SHOW 0
      LASTSEL 0
      DOCKED 0
      BYPASS 0 0 0
      <JS "IX/MIDI_Tool II" ""
        0 0 35 0 0 0 100 0 0 127 0 0 1 0 0 - - - - - - - - - - - - - - - - - - - - - - - - - - - - - - - - - - - - - - - - - - - - - - - - - 
      >
      FLOATPOS 0 0 0 0
      FXID {4528C09A-EEE8-41FD-8563-F236EEEFF070}
      WAK 0 0
      BYPASS 0 0 0
      <JS "IX/MIDI_Tool II" ""
        0 85 127 0 0 0 100 0 0 127 0 0 1 0 0 - - - - - - - - - - - - - - - - - - - - - - - - - - - - - - - - - - - - - - - - - - - - - - - - - 
      >
      FLOATPOS 0 0 0 0
      FXID {A95420AD-1943-45CD-8D7F-F3B519C5AE6D}
      WAK 0 0
      BYPASS 0 0 0
      <VST "VSTi: ReaSynth (Cockos)" reasynth.dll 0 "VSTi: ReaSynth (Cockos)" 1919251321<5653547265737972656173796E746800> ""
        eXNlcu9e7f4AAAAAAgAAAAEAAAAAAAAAAgAAAAAAAABEAAAAAAAAAAAAEAA=
        776t3g3wrd6mm8Q7F7fROjMzEz8AAAAAAAAAAAAAgD/pZ4g9AAAAAAAAAD8AAIA/AACAPwAAAD8AAIA/AAAAAAAAgD8=
        AFByb2dyYW0gMQAQAAAA
      >
      PRESETNAME "Program 1"
      FLOATPOS 0 0 0 0
      FXID {948673BA-75E5-40F4-AF7D-7417E30FCED8}
      WAK 0 0
    >
    <ITEM
      POSITION 0
      SNAPOFFS 0
      LENGTH 165.05873578958332
      LOOP 0
      ALLTAKES 0
      FADEIN 1 0 0 1 0 0 0
      FADEOUT 1 0 0 1 0 0 0
      MUTE 0 0
      SEL 0
      IGUID {D762D8B1-0F89-4F49-A125-2931DDB2BE12}
      IID 8
      NAME "PART VOCALS"
      VOLPAN 1 0 1 -1
      SOFFS 0 0
      PLAYRATE 1 1 0 -1 0 0.0025
      CHANMODE 0
      GUID {0069C52E-6199-4D75-AC26-078FCA6CDFE0}
      <SOURCE MIDI
        HASDATA 1 480 QN
        CCINTERP 32
        POOLEDEVTS {95A252F0-8CCA-4B38-9025-264DF86BF1FF}
        <X 0 0 0 0 3 "PART VOCALS"
          /wNQQVJUIFZPQ0FMUw==
        >
        <X 3840 0 0 0 1 [idle]
          /wFbaWRsZV0=
        >
        <X 1920 0 0 0 1 [play]
          /wFbcGxheV0=
        >
        E 960 90 69 60
        <X 510 0 0 0 5 If
          /wVJZg==
        >
        E 0 90 44 60
        E 90 80 44 60
        <X 120 0 0 0 5 you
          /wV5b3U=
        >
        E 0 90 45 60
        E 180 80 45 60
        <X 99 0 0 0 5 want
          /wV3YW50
        >
        E 0 90 47 60
        E 210 80 47 60
        <X 60 0 0 0 5 it
          /wVpdA==
        >
        E 0 90 47 60
        E 90 80 47 60
        <X 420 0 0 0 5 here
          /wVoZXJl
        >
        E 0 90 4b 60
        E 30 80 4b 60
        <X 30 0 0 0 5 +
          /wUr
        >
        E 0 90 4c 60
        E 291 80 4c 60
        <X 60 0 0 0 5 it
          /wVpdA==
        >
        E 0 90 4c 60
        E 210 80 4c 60
        <X 50 0 0 0 5 is
          /wVpcw==
        >
        E 0 90 4c 60
        E 109 80 4c 60
        E 81 80 69 60
        E 210 90 69 60
        <X 30 0 0 0 5 Come
          /wVDb21l
        >
        E 0 90 44 60
        E 180 80 44 60
        <X 100 0 0 0 5 and
          /wVhbmQ=
        >
        E 0 90 45 60
        E 130 80 45 60
        <X 100 0 0 0 5 get
          /wVnZXQ=
        >
        E 0 90 47 60
        E 190 80 47 60
        <X 70 0 0 0 5 it
          /wVpdA==
        >
        E 0 90 40 60
        E 100 80 40 60
        E 90 80 69 60
        E 0 90 69 60
        <X 270 0 0 0 5 Mmm
          /wVNbW0=
        >
        E 0 90 40 60
        E 180 80 40 60
        <X 60 0 0 0 5 mmm
          /wVtbW0=
        >
        E 0 90 42 60
        E 180 80 42 60
        <X 60 0 0 0 5 mmm
          /wVtbW0=
        >
        E 0 90 44 60
        E 180 80 44 60
        <X 60 0 0 0 5 mmm
          /wVtbW0=
        >
        E 0 90 45 60
        E 180 80 45 60
        <X 90 0 0 0 5 +
          /wUr
        >
        E 0 90 42 60
        E 120 80 42 60
        E 60 80 69 60
        E 0 90 69 60
        E 0 90 74 60
        <X 60 0 0 0 5 Make
          /wVNYWtl
        >
        E 0 90 45 60
        E 90 80 45 60
        <X 90 0 0 0 5 your
          /wV5b3Vy
        >
        E 0 90 47 60
        E 120 80 47 60
        <X 120 0 0 0 5 mind
          /wVtaW5k
        >
        E 0 90 43 60
        E 30 80 43 60
        <X 30 0 0 0 5 +
          /wUr
        >
        E 0 90 44 60
        E 90 80 44 60
        <X 120 0 0 0 5 up
          /wV1cA==
        >
        E 0 90 40 60
        E 209 80 40 60
        <X 270 0 0 0 5 fast
          /wVmYXN0
        >
        E 0 90 42 60
        E 851 80 42 60
        E 80 80 69 60
        E 0 80 74 60
        E 240 90 69 60
        <X 510 0 0 0 5 If
          /wVJZg==
        >
        E 0 90 44 60
        E 90 80 44 60
        <X 150 0 0 0 5 you
          /wV5b3U=
        >
        E 0 90 45 60
        E 180 80 45 60
        <X 60 0 0 0 5 want
          /wV3YW50
        >
        E 0 90 47 60
        E 180 80 47 60
        <X 60 0 0 0 5 it
          /wVpdA==
        >
        E 0 90 47 60
        E 100 80 47 60
        <X 380 0 0 0 5 an-
          /wVhbi0=
        >
        E 0 90 4b 60
        E 30 80 4b 60
        <X 60 0 0 0 5 +
          /wUr
        >
        E 0 90 4c 60
        E 340 80 4c 60
        <X 40 0 0 0 5 y
          /wV5
        >
        E 0 90 4c 60
        E 110 80 4c 60
        <X 110 0 0 0 5 time
          /wV0aW1l
        >
        E 0 90 4c 60
        E 230 80 4c 60
        E 40 80 69 60
        E 210 90 69 60
        <X 30 0 0 0 5 I
          /wVJ
        >
        E 0 90 44 60
        E 110 80 44 60
        <X 100 0 0 0 5 can
          /wVjYW4=
        >
        E 0 90 45 60
        E 90 80 45 60
        <X 180 0 0 0 5 give
          /wVnaXZl
        >
        E 0 90 47 60
        E 170 80 47 60
        <X 70 0 0 0 5 it
          /wVpdA==
        >
        E 0 90 40 60
        E 120 80 40 60
        E 90 80 69 60
        E 0 90 69 60
        <X 240 0 0 0 5 But
          /wVCdXQ=
        >
        E 0 90 40 60
        E 60 80 40 60
        <X 60 0 0 0 5 you'd
          /wV5b3UnZA==
        >
        E 0 90 40 60
        E 60 80 40 60
        <X 90 0 0 0 5 bet-
          /wViZXQt
        >
        E 0 90 42 60
        E 150 80 42 60
        <X 60 0 0 0 5 ter
          /wV0ZXI=
        >
        E 0 90 44 60
        E 150 80 44 60
        <X 120 0 0 0 5 hur-
          /wVodXIt
        >
        E 0 90 45 60
        E 180 80 45 60
        <X 30 0 0 0 5 ry
          /wVyeQ==
        >
        E 0 90 45 60
        E 120 80 45 60
        E 120 80 69 60
        E 0 90 69 60
        E 0 90 74 60
        <X 30 0 0 0 5 "'Cause"
          /wUnQ2F1c2U=
        >
        E 0 90 45 60
        E 180 80 45 60
        <X 60 0 0 0 5 it
          /wVpdA==
        >
        E 0 90 47 60
        E 60 80 47 60
        <X 180 0 0 0 5 may
          /wVtYXk=
        >
        E 0 90 42 60
        E 30 80 42 60
        <X 60 0 0 0 5 +
          /wUr
        >
        E 0 90 44 60
        E 90 80 44 60
        <X 60 0 0 0 5 not
          /wVub3Q=
        >
        E 0 90 40 60
        E 300 80 40 60
        <X 180 0 0 0 5 last
          /wVsYXN0
        >
        E 0 90 42 60
        E 807 80 42 60
        E 363 80 69 60
        E 8 80 74 60
        E 472 90 69 60
        <X 510 0 0 0 5 Did
          /wVEaWQ=
        >
        E 0 90 4c 60
        E 180 80 4c 60
        <X 30 0 0 0 5 I
          /wVJ
        >
        E 0 90 4c 60
        E 210 80 4c 60
        <X 30 0 0 0 5 hear
          /wVoZWFy
        >
        E 0 90 4c 60
        E 210 80 4c 60
        <X 30 0 0 0 5 you
          /wV5b3U=
        >
        E 0 90 4c 60
        E 100 80 4c 60
        <X 170 0 0 0 5 say
          /wVzYXk=
        >
        E 0 90 4c 60
        E 180 80 4c 60
        <X 90 0 0 0 5 +
          /wUr
        >
        E 0 90 4a 60
        E 120 80 4a 60
        <X 90 0 0 0 5 that
          /wV0aGF0
        >
        E 0 90 4a 60
        E 120 80 4a 60
        <X 150 0 0 0 5 there
          /wV0aGVyZQ==
        >
        E 0 90 48 60
        E 120 80 48 60
        <X 130 0 0 0 5 must
          /wVtdXN0
        >
        E 0 90 47 60
        E 60 80 47 60
        <X 160 0 0 0 5 be
          /wViZQ==
        >
        E 0 90 43 60
        E 210 80 43 60
        <X 30 0 0 0 5 a
          /wVh
        >
        E 0 90 45 60
        E 90 80 45 60
        <X 160 0 0 0 5 catch?
          /wVjYXRjaD8=
        >
        E 0 90 47 60
        E 370 80 47 60
        E 290 80 69 60
        E 480 90 69 60
        <X 69 0 0 0 5 Will
          /wVXaWxs
        >
        E 0 90 48 60
        E 161 80 48 60
        <X 79 0 0 0 5 you
          /wV5b3U=
        >
        E 0 90 48 60
        E 141 80 48 60
        <X 80 0 0 0 5 walk
          /wV3YWxr
        >
        E 0 90 48 60
        E 120 80 48 60
        <X 139 0 0 0 5 a-
          /wVhLQ==
        >
        E 0 90 48 60
        E 131 80 48 60
        <X 79 0 0 0 5 way
          /wV3YXk=
        >
        E 0 90 48 60
        E 240 80 48 60
        <X 60 0 0 0 5 +
          /wUr
        >
        E 0 90 47 60
        E 60 80 47 60
        <X 150 0 0 0 5 from
          /wVmcm9t
        >
        E 0 90 47 60
        E 150 80 47 60
        <X 90 0 0 0 5 a
          /wVh
        >
        E 0 90 45 60
        E 60 80 45 60
        <X 180 0 0 0 5 fool
          /wVmb29s
        >
        E 0 90 47 60
        E 161 80 47 60
        <X 79 0 0 0 5 and
          /wVhbmQ=
        >
        E 0 90 47 60
        E 180 80 47 60
        <X 60 0 0 0 5 his
          /wVoaXM=
        >
        E 0 90 48 60
        E 60 80 48 60
        <X 210 0 0 0 5 mon-
          /wVtb24t
        >
        E 0 90 44 60
        E 90 80 44 60
        <X 90 0 0 0 5 ey?
          /wVleT8=
        >
        E 0 90 42 60
        E 918 80 42 60
        E 3 80 69 60
        E 960 90 69 60
        <X 480 0 0 0 5 If
          /wVJZg==
        >
        E 0 90 44 60
        E 90 80 44 60
        <X 199 0 0 0 5 you
          /wV5b3U=
        >
        E 0 90 45 60
        E 180 80 45 60
        <X 41 0 0 0 5 want
          /wV3YW50
        >
        E 0 90 47 60
        E 210 80 47 60
        <X 30 0 0 0 5 it
          /wVpdA==
        >
        E 0 90 47 60
        E 90 80 47 60
        <X 390 0 0 0 5 here
          /wVoZXJl
        >
        E 0 90 4b 60
        E 30 80 4b 60
        <X 30 0 0 0 5 +
          /wUr
        >
        E 0 90 4c 60
        E 309 80 4c 60
        <X 81 0 0 0 5 it
          /wVpdA==
        >
        E 0 90 4c 60
        E 210 80 4c 60
        <X 60 0 0 0 5 is
          /wVpcw==
        >
        E 0 90 4c 60
        E 180 80 4c 60
        E 30 80 69 60
        E 240 90 69 60
        E 0 90 74 60
        <X 30 0 0 0 5 Come
          /wVDb21l
        >
        E 0 90 44 60
        E 180 80 44 60
        <X 60 0 0 0 5 and
          /wVhbmQ=
        >
        E 0 90 45 60
        E 130 80 45 60
        <X 110 0 0 0 5 get
          /wVnZXQ=
        >
        E 0 90 47 60
        E 180 80 47 60
        <X 100 0 0 0 5 it
          /wVpdA==
        >
        E 0 90 40 60
        E 60 80 40 60
        E 110 80 69 60
        E 0 80 74 60
        E 0 90 69 60
        <X 240 0 0 0 5 But
          /wVCdXQ=
        >
        E 0 90 40 60
        E 60 80 40 60
        <X 90 0 0 0 5 you'd
          /wV5b3UnZA==
        >
        E 0 90 40 60
        E 60 80 40 60
        <X 60 0 0 0 5 bet-
          /wViZXQt
        >
        E 0 90 42 60
        E 180 80 42 60
        <X 30 0 0 0 5 ter
          /wV0ZXI=
        >
        E 0 90 44 60
        E 210 80 44 60
        <X 60 0 0 0 5 hur-
          /wVodXIt
        >
        E 0 90 45 60
        E 180 80 45 60
        <X 30 0 0 0 5 ry
          /wVyeQ==
        >
        E 0 90 45 60
        E 170 80 45 60
        E 70 80 69 60
        E 0 90 69 60
        <X 30 0 0 0 5 "'Cause"
          /wUnQ2F1c2U=
        >
        E 0 90 45 60
        E 180 80 45 60
        <X 90 0 0 0 5 it's
          /wVpdCdz
        >
        E 0 90 47 60
        E 60 80 47 60
        <X 150 0 0 0 5 go-
          /wVnby0=
        >
        E 0 90 42 60
        E 30 80 42 60
        <X 60 0 0 0 5 +
          /wUr
        >
        E 0 90 44 60
        E 90 80 44 60
        <X 70 0 0 0 5 in'
          /wVpbic=
        >
        E 0 90 42 60
        E 330 80 42 60
        <X 200 0 0 0 5 fast
          /wVmYXN0
        >
        E 0 90 40 60
        E 711 80 40 60
        E 399 80 69 60
        E 1920 90 69 60
        <X 540 0 0 0 5 If
          /wVJZg==
        >
        E 0 90 44 60
        E 90 80 44 60
        <X 180 0 0 0 5 you
          /wV5b3U=
        >
        E 0 90 45 60
        E 150 80 45 60
        <X 90 0 0 0 5 want
          /wV3YW50
        >
        E 0 90 47 60
        E 180 80 47 60
        <X 50 0 0 0 5 it
          /wVpdA==
        >
        E 0 90 47 60
        E 110 80 47 60
        <X 340 0 0 0 5 here
          /wVoZXJl
        >
        E 0 90 4b 60
        E 30 80 4b 60
        <X 30 0 0 0 5 +
          /wUr
        >
        E 0 90 4c 60
        E 390 80 4c 60
        <X 30 0 0 0 5 it
          /wVpdA==
        >
        E 0 90 4c 60
        E 210 80 4c 60
        <X 60 0 0 0 5 is
          /wVpcw==
        >
        E 0 90 4c 60
        E 150 80 4c 60
        E 130 80 69 60
        E 120 90 69 60
        E 0 90 74 60
        <X 60 0 0 0 5 Come
          /wVDb21l
        >
        E 0 90 44 60
        E 180 80 44 60
        <X 60 0 0 0 5 and
          /wVhbmQ=
        >
        E 0 90 45 60
        E 90 80 45 60
        <X 150 0 0 0 5 get
          /wVnZXQ=
        >
        E 0 90 47 60
        E 180 80 47 60
        <X 60 0 0 0 5 it
          /wVpdA==
        >
        E 0 90 40 60
        E 90 80 40 60
        E 90 80 69 60
        E 0 80 74 60
        E 0 90 69 60
        <X 240 0 0 0 5 Mmm
          /wVNbW0=
        >
        E 0 90 40 60
        E 210 80 40 60
        <X 60 0 0 0 5 mmm
          /wVtbW0=
        >
        E 0 90 42 60
        E 180 80 42 60
        <X 60 0 0 0 5 mmm
          /wVtbW0=
        >
        E 0 90 44 60
        E 180 80 44 60
        <X 60 0 0 0 5 mmm
          /wVtbW0=
        >
        E 0 90 45 60
        E 180 80 45 60
        <X 60 0 0 0 5 +
          /wUr
        >
        E 0 90 42 60
        E 150 80 42 60
        E 30 80 69 60
        E 0 90 69 60
        <X 30 0 0 0 5 Make
          /wVNYWtl
        >
        E 0 90 45 60
        E 120 80 45 60
        <X 150 0 0 0 5 your
          /wV5b3Vy
        >
        E 0 90 47 60
        E 90 80 47 60
        <X 120 0 0 0 5 mind
          /wVtaW5k
        >
        E 0 90 43 60
        E 30 80 43 60
        <X 30 0 0 0 5 +
          /wUr
        >
        E 0 90 44 60
        E 120 80 44 60
        <X 120 0 0 0 5 up
          /wV1cA==
        >
        E 0 90 40 60
        E 210 80 40 60
        <X 261 0 0 0 5 fast
          /wVmYXN0
        >
        E 0 90 42 60
        E 848 80 42 60
        E 61 80 69 60
        E 240 90 69 60
        <X 520 0 0 0 5 If
          /wVJZg==
        >
        E 0 90 44 60
        E 60 80 44 60
        <X 180 0 0 0 5 you
          /wV5b3U=
        >
        E 0 90 45 60
        E 150 80 45 60
        <X 90 0 0 0 5 want
          /wV3YW50
        >
        E 0 90 47 60
        E 210 80 47 60
        <X 30 0 0 0 5 it
          /wVpdA==
        >
        E 0 90 47 60
        E 90 80 47 60
        <X 421 0 0 0 5 an-
          /wVhbi0=
        >
        E 0 90 4b 60
        E 30 80 4b 60
        <X 30 0 0 0 5 +
          /wUr
        >
        E 0 90 4c 60
        E 420 80 4c 60
        <X 30 0 0 0 5 y
          /wV5
        >
        E 0 90 4c 60
        E 90 80 4c 60
        <X 120 0 0 0 5 time
          /wV0aW1l
        >
        E 0 90 4c 60
        E 180 80 4c 60
        E 229 80 69 60
        E 0 90 69 60
        E 0 90 74 60
        <X 60 0 0 0 5 I
          /wVJ
        >
        E 0 90 44 60
        E 90 80 44 60
        <X 150 0 0 0 5 can
          /wVjYW4=
        >
        E 0 90 45 60
        E 90 80 45 60
        <X 150 0 0 0 5 give
          /wVnaXZl
        >
        E 0 90 47 60
        E 180 80 47 60
        <X 90 0 0 0 5 it
          /wVpdA==
        >
        E 0 90 40 60
        E 60 80 40 60
        E 90 80 69 60
        E 0 80 74 60
        E 241 90 69 60
        <X 60 0 0 0 5 But
          /wVCdXQ=
        >
        E 0 90 40 60
        E 60 80 40 60
        <X 90 0 0 0 5 you'd
          /wV5b3UnZA==
        >
        E 0 90 40 60
        E 60 80 40 60
        <X 60 0 0 0 5 bet-
          /wViZXQt
        >
        E 0 90 42 60
        E 210 80 42 60
        <X 30 0 0 0 5 ter
          /wV0ZXI=
        >
        E 0 90 44 60
        E 150 80 44 60
        <X 90 0 0 0 5 hur-
          /wVodXIt
        >
        E 0 90 45 60
        E 210 80 45 60
        <X 30 0 0 0 5 ry
          /wVyeQ==
        >
        E 0 90 45 60
        E 120 80 45 60
        E 29 80 69 60
        E 0 90 69 60
        <X 91 0 0 0 5 "'Cause"
          /wUnQ2F1c2U=
        >
        E 0 90 45 60
        E 180 80 45 60
        <X 39 0 0 0 5 it
          /wVpdA==
        >
        E 0 90 47 60
        E 60 80 47 60
        <X 201 0 0 0 5 may
          /wVtYXk=
        >
        E 0 90 42 60
        E 30 80 42 60
        <X 60 0 0 0 5 +
          /wUr
        >
        E 0 90 44 60
        E 90 80 44 60
        <X 49 0 0 0 5 not
          /wVub3Q=
        >
        E 0 90 40 60
        E 270 80 40 60
        <X 210 0 0 0 5 last
          /wVsYXN0
        >
        E 0 90 42 60
        E 930 80 42 60
        E 190 80 69 60
        E 480 90 69 60
        <X 540 0 0 0 5 Did
          /wVEaWQ=
        >
        E 0 90 4c 60
        E 180 80 4c 60
        <X 30 0 0 0 5 I
          /wVJ
        >
        E 0 90 4c 60
        E 210 80 4c 60
        <X 60 0 0 0 5 hear
          /wVoZWFy
        >
        E 0 90 4c 60
        E 210 80 4c 60
        <X 30 0 0 0 5 you
          /wV5b3U=
        >
        E 0 90 4c 60
        E 90 80 4c 60
        <X 150 0 0 0 5 say
          /wVzYXk=
        >
        E 0 90 4c 60
        E 401 80 4c 60
        <X 49 0 0 0 5 that
          /wV0aGF0
        >
        E 0 90 4a 60
        E 131 80 4a 60
        <X 139 0 0 0 5 there
          /wV0aGVyZQ==
        >
        E 0 90 48 60
        E 120 80 48 60
        <X 90 0 0 0 5 must
          /wVtdXN0
        >
        E 0 90 47 60
        E 111 80 47 60
        <X 159 0 0 0 5 be
          /wViZQ==
        >
        E 0 90 43 60
        E 150 80 43 60
        <X 60 0 0 0 5 a
          /wVh
        >
        E 0 90 45 60
        E 60 80 45 60
        <X 210 0 0 0 5 catch?
          /wVjYXRjaD8=
        >
        E 0 90 46 60
        E 30 80 46 60
        <X 30 0 0 0 5 +
          /wUr
        >
        E 0 90 47 60
        E 390 80 47 60
        E 210 80 69 60
        E 0 90 69 60
        E 0 90 74 60
        <X 547 0 0 0 5 Will
          /wVXaWxs
        >
        E 0 90 48 60
        E 210 80 48 60
        <X 30 0 0 0 5 you
          /wV5b3U=
        >
        E 0 90 48 60
        E 150 80 48 60
        <X 60 0 0 0 5 walk
          /wV3YWxr
        >
        E 0 90 48 60
        E 150 80 48 60
        <X 120 0 0 0 5 a-
          /wVhLQ==
        >
        E 0 90 48 60
        E 150 80 48 60
        <X 60 0 0 0 5 way
          /wV3YXk=
        >
        E 0 90 48 60
        E 250 80 48 60
        <X 50 0 0 0 5 +
          /wUr
        >
        E 0 90 47 60
        E 70 80 47 60
        <X 130 0 0 0 5 from
          /wVmcm9t
        >
        E 0 90 47 60
        E 180 80 47 60
        <X 40 0 0 0 5 a
          /wVh
        >
        E 0 90 45 60
        E 60 80 45 60
        <X 208 0 0 0 5 fool
          /wVmb29s
        >
        E 0 90 47 60
        E 182 80 47 60
        <X 30 0 0 0 5 and
          /wVhbmQ=
        >
        E 0 90 47 60
        E 180 80 47 60
        <X 90 0 0 0 5 his
          /wVoaXM=
        >
        E 0 90 4c 60
        E 60 80 4c 60
        <X 150 0 0 0 5 mon-
          /wVtb24t
        >
        E 0 90 44 60
        E 120 80 44 60
        <X 60 0 0 0 5 ey?
          /wVleT8=
        >
        E 0 90 42 60
        E 602 80 42 60
        E 141 80 69 60
        E 0 80 74 60
        E 0 90 69 60
        <X 240 0 0 0 5 Son-
          /wVTb24t
        >
        E 0 90 4e 60
        E 60 80 4e 60
        <X 90 0 0 0 5 +
          /wUr
        >
        E 0 90 50 60
        E 270 80 50 60
        <X 60 0 0 0 5 ny!
          /wVueSE=
        >
        E 0 90 4e 60
        E 232 80 4e 60
        E 248 80 69 60
        E 0 90 69 60
        <X 30 0 0 0 5 If
          /wVJZg==
        >
        E 0 90 4c 60
        E 171 80 4c 60
        <X 279 0 0 0 5 you
          /wV5b3U=
        >
        E 0 90 48 60
        E 30 80 48 60
        <X 30 0 0 0 5 +
          /wUr
        >
        E 0 90 49 60
        E 170 80 49 60
        <X 280 0 0 0 5 want
          /wV3YW50
        >
        E 0 90 47 60
        E 210 80 47 60
        <X 59 0 0 0 5 it
          /wVpdA==
        >
        E 0 90 47 60
        E 90 80 47 60
        <X 390 0 0 0 5 here
          /wVoZXJl
        >
        E 0 90 4b 60
        E 30 80 4b 60
        <X 30 0 0 0 5 +
          /wUr
        >
        E 0 90 4c 60
        E 390 80 4c 60
        <X 30 0 0 0 5 it
          /wVpdA==
        >
        E 0 90 4c 60
        E 210 80 4c 60
        <X 30 0 0 0 5 is
          /wVpcw==
        >
        E 0 90 4c 60
        E 120 80 4c 60
        E 70 80 69 60
        E 231 90 69 60
        <X 60 0 0 0 5 Come
          /wVDb21l
        >
        E 0 90 44 60
        E 150 80 44 60
        <X 60 0 0 0 5 and
          /wVhbmQ=
        >
        E 0 90 45 60
        E 90 80 45 60
        <X 150 0 0 0 5 get
          /wVnZXQ=
        >
        E 0 90 47 60
        E 180 80 47 60
        <X 90 0 0 0 5 it
          /wVpdA==
        >
        E 0 90 40 60
        E 60 80 40 60
        E 120 80 69 60
        E 0 90 69 60
        E 0 90 74 60
        <X 280 0 0 0 5 But
          /wVCdXQ=
        >
        E 0 90 40 60
        E 60 80 40 60
        <X 60 0 0 0 5 you'd
          /wV5b3UnZA==
        >
        E 0 90 40 60
        E 60 80 40 60
        <X 60 0 0 0 5 bet-
          /wViZXQt
        >
        E 0 90 42 60
        E 180 80 42 60
        <X 50 0 0 0 5 ter
          /wV0ZXI=
        >
        E 0 90 44 60
        E 150 80 44 60
        <X 90 0 0 0 5 hur-
          /wVodXIt
        >
        E 0 90 45 60
        E 210 80 45 60
        <X 30 0 0 0 5 ry
          /wVyeQ==
        >
        E 0 90 45 60
        E 150 80 45 60
        E 60 80 69 60
        E 0 80 74 60
        E 0 90 69 60
        <X 30 0 0 0 5 "'Cause"
          /wUnQ2F1c2U=
        >
        E 0 90 45 60
        E 180 80 45 60
        <X 60 0 0 0 5 it's
          /wVpdCdz
        >
        E 0 90 47 60
        E 60 80 47 60
        <X 180 0 0 0 5 go-
          /wVnby0=
        >
        E 0 90 42 60
        E 60 80 42 60
        <X 60 0 0 0 5 +
          /wUr
        >
        E 0 90 44 60
        E 90 80 44 60
        <X 60 0 0 0 5 in'
          /wVpbic=
        >
        E 0 90 42 60
        E 240 80 42 60
        <X 240 0 0 0 5 fast
          /wVmYXN0
        >
        E 0 90 40 60
        E 690 80 40 60
        E 210 80 69 60
        E 240 90 69 60
        <X 240 0 0 0 5 You'd
          /wVZb3UnZA==
        >
        E 0 90 47 60
        E 120 80 47 60
        <X 140 0 0 0 5 bet-
          /wViZXQt
        >
        E 0 90 49 60
        E 210 80 49 60
        <X 50 0 0 0 5 ter
          /wV0ZXI=
        >
        E 0 90 4c 60
        E 120 80 4c 60
        <X 80 0 0 0 5 hur-
          /wVodXIt
        >
        E 0 90 4e 60
        E 30 80 4e 60
        <X 30 0 0 0 5 +
          /wUr
        >
        E 0 90 4f 60
        E 180 80 4f 60
        <X 61 0 0 0 5 ry
          /wVyeQ==
        >
        E 0 90 4e 60
        E 120 80 4e 60
        E 59 80 69 60
        E 0 90 69 60
        <X 31 0 0 0 5 "'Cause"
          /wUnQ2F1c2U=
        >
        E 0 90 4c 60
        E 180 80 4c 60
        <X 60 0 0 0 5 it's
          /wVpdCdz
        >
        E 0 90 49 60
        E 60 80 49 60
        <X 180 0 0 0 5 go-
          /wVnby0=
        >
        E 0 90 4e 60
        E 60 80 4e 60
        <X 90 0 0 0 5 +
          /wUr
        >
        E 0 90 4f 60
        E 90 80 4f 60
        <X 60 0 0 0 5 in'
          /wVpbic=
        >
        E 0 90 4e 60
        E 271 80 4e 60
        <X 148 0 0 0 5 fast
          /wVmYXN0
        >
        E 0 90 4c 60
        E 2070 80 4c 60
        <X 151 0 0 0 5 +
          /wUr
        >
        E 0 90 4a 60
        E 1159 80 4a 60
        E 190 80 69 60
        E 0 90 69 60
        E 0 90 74 60
        <X 586 0 0 0 5 Ooh
          /wVPb2g=
        >
        E 0 90 4c 60
        E 1756 80 4c 60
        <X 99 0 0 0 5 fool
          /wVmb29s
        >
        E 0 90 4b 60
        E 30 80 4b 60
        <X 30 0 0 0 5 +
          /wUr
        >
        E 0 90 4c 60
        E 150 80 4c 60
        <X 30 0 0 0 5 and
          /wVhbmQ=
        >
        E 0 90 4c 60
        E 105 80 4c 60
        <X 106 0 0 0 5 his
          /wVoaXM=
        >
        E 0 90 44 60
        E 75 80 44 60
        <X 107 0 0 0 5 mon-
          /wVtb24t
        >
        E 0 90 47 60
        E 60 80 47 60
        <X 45 0 0 0 5 ey
          /wVleQ==
        >
        E 0 90 47 60
        E 345 80 47 60
        E 316 80 74 60
        E 7 80 69 60
        E 473 90 69 60
        <X 21 0 0 0 5 Son-
          /wVTb24t
        >
        E 0 90 4e 60
        E 45 80 4e 60
        <X 61 0 0 0 5 +
          /wUr
        >
        E 0 90 50 60
        E 343 80 50 60
        <X 50 0 0 0 5 ny!
          /wVueSE=
        >
        E 0 90 4e 60
        E 150 80 4e 60
        E 50 80 69 60
        E 240 90 69 60
        <X 24 0 0 0 5 If
          /wVJZg==
        >
        E 0 90 4c 60
        E 145 80 4c 60
        <X 326 0 0 0 5 you
          /wV5b3U=
        >
        E 0 90 49 60
        E 180 80 49 60
        <X 334 0 0 0 5 want
          /wV3YW50
        >
        E 0 90 47 60
        E 225 80 47 60
        <X 30 0 0 0 5 it
          /wVpdA==
        >
        E 0 90 47 60
        E 90 80 47 60
        <X 401 0 0 0 5 here
          /wVoZXJl
        >
        E 0 90 4b 60
        E 15 80 4b 60
        <X 15 0 0 0 5 +
          /wUr
        >
        E 0 90 4c 60
        E 326 80 4c 60
        <X 109 0 0 0 5 it
          /wVpdA==
        >
        E 0 90 4c 60
        E 195 80 4c 60
        <X 45 0 0 0 5 is
          /wVpcw==
        >
        E 0 90 4c 60
        E 135 80 4c 60
        E 285 80 69 60
        E 0 90 69 60
        <X 30 0 0 0 5 Come
          /wVDb21l
        >
        E 0 90 44 60
        E 180 80 44 60
        <X 60 0 0 0 5 and
          /wVhbmQ=
        >
        E 0 90 45 60
        E 60 80 45 60
        <X 180 0 0 0 5 get
          /wVnZXQ=
        >
        E 0 90 47 60
        E 180 80 47 60
        <X 60 0 0 0 5 it
          /wVpdA==
        >
        E 0 90 40 60
        E 90 80 40 60
        E 120 80 69 60
        E 0 90 69 60
        E 0 90 74 60
        <X 255 0 0 0 5 But
          /wVCdXQ=
        >
        E 0 90 40 60
        E 45 80 40 60
        <X 75 0 0 0 5 you'd
          /wV5b3UnZA==
        >
        E 0 90 40 60
        E 45 80 40 60
        <X 75 0 0 0 5 bet-
          /wViZXQt
        >
        E 0 90 42 60
        E 180 80 42 60
        <X 60 0 0 0 5 ter
          /wV0ZXI=
        >
        E 0 90 44 60
        E 120 80 44 60
        <X 135 0 0 0 5 hur-
          /wVodXIt
        >
        E 0 90 45 60
        E 180 80 45 60
        <X 30 0 0 0 5 ry
          /wVyeQ==
        >
        E 0 90 45 60
        E 120 80 45 60
        E 120 80 69 60
        E 0 80 74 60
        E 0 90 69 60
        <X 15 0 0 0 5 "'Cause"
          /wUnQ2F1c2U=
        >
        E 0 90 45 60
        E 165 80 45 60
        <X 85 0 0 0 5 it's
          /wVpdCdz
        >
        E 0 90 47 60
        E 76 80 47 60
        <X 154 0 0 0 5 go-
          /wVnby0=
        >
        E 0 90 42 60
        E 75 80 42 60
        <X 45 0 0 0 5 +
          /wUr
        >
        E 0 90 44 60
        E 105 80 44 60
        <X 45 0 0 0 5 in'
          /wVpbic=
        >
        E 0 90 42 60
        E 270 80 42 60
        <X 195 0 0 0 5 fast
          /wVmYXN0
        >
        E 0 90 40 60
        E 908 80 40 60
        E 22 80 69 60
        E 240 90 69 60
        <X 271 0 0 0 5 You'd
          /wVZb3UnZA==
        >
        E 0 90 47 60
        E 90 80 47 60
        <X 150 0 0 0 5 bet-
          /wViZXQt
        >
        E 0 90 49 60
        E 195 80 49 60
        <X 45 0 0 0 5 ter
          /wV0ZXI=
        >
        E 0 90 4c 60
        E 135 80 4c 60
        <X 120 0 0 0 5 hur-
          /wVodXIt
        >
        E 0 90 4e 60
        E 15 80 4e 60
        <X 15 0 0 0 5 +
          /wUr
        >
        E 0 90 4f 60
        E 165 80 4f 60
        <X 45 0 0 0 5 ry
          /wVyeQ==
        >
        E 0 90 4e 60
        E 120 80 4e 60
        E 74 80 69 60
        E 0 90 69 60
        <X 46 0 0 0 5 "'Cause"
          /wUnQ2F1c2U=
        >
        E 0 90 4c 60
        E 180 80 4c 60
        <X 75 0 0 0 5 it's
          /wVpdCdz
        >
        E 0 90 49 60
        E 45 80 49 60
        <X 180 0 0 0 5 go-
          /wVnby0=
        >
        E 0 90 4e 60
        E 45 80 4e 60
        <X 30 0 0 0 5 +
          /wUr
        >
        E 0 90 4f 60
        E 165 80 4f 60
        <X 45 0 0 0 5 in'
          /wVpbic=
        >
        E 0 90 4e 60
        E 240 80 4e 60
        <X 225 0 0 0 5 fast
          /wVmYXN0
        >
        E 0 90 4c 60
        E 915 80 4c 60
        E 209 80 69 60
        E 0 90 69 60
        <X 255 0 0 0 5 You'd
          /wVZb3UnZA==
        >
        E 0 90 47 60
        E 105 80 47 60
        <X 135 0 0 0 5 bet-
          /wViZXQt
        >
        E 0 90 49 60
        E 210 80 49 60
        <X 30 0 0 0 5 ter
          /wV0ZXI=
        >
        E 0 90 4c 60
        E 150 80 4c 60
        <X 90 0 0 0 5 hur-
          /wVodXIt
        >
        E 0 90 4e 60
        E 60 80 4e 60
        <X 45 0 0 0 5 +
          /wUr
        >
        E 0 90 4f 60
        E 120 80 4f 60
        <X 30 0 0 0 5 ry
          /wVyeQ==
        >
        E 0 90 4e 60
        E 120 80 4e 60
        E 60 80 69 60
        E 0 90 69 60
        <X 30 0 0 0 5 "'Cause"
          /wUnQ2F1c2U=
        >
        E 0 90 4c 60
        E 165 80 4c 60
        <X 90 0 0 0 5 it's
          /wVpdCdz
        >
        E 0 90 49 60
        E 45 80 49 60
        <X 195 0 0 0 5 go-
          /wVnby0=
        >
        E 0 90 4e 60
        E 75 80 4e 60
        <X 75 0 0 0 5 +
          /wUr
        >
        E 0 90 4f 60
        E 120 80 4f 60
        <X 30 0 0 0 5 in'
          /wVpbic=
        >
        E 0 90 4e 60
        E 211 80 4e 60
        <X 235 0 0 0 5 fast
          /wVmYXN0
        >
        E 0 90 4c 60
        E 5520 80 4c 60
        E 197 80 69 60
        <X 283 0 0 0 1 [idle_realtime]
          /wFbaWRsZV9yZWFsdGltZV0=
        >
        E 9354 b0 7b 00
        CCINTERP 32
        GUID {80B79BE9-AE82-4673-949A-ECBF75D9C1F3}
        IGNTEMPO 0 120 4 4
        SRCCOLOR 57
        VELLANE 132 128 60
        CFGEDITVIEW 0 0 -1 12 0 0 0 0 0 0.5
        KEYSNAP 0
        TRACKSEL 0
        EVTFILTER 0 -1 -1 -1 -1 0 0 0 0 -1 -1 -1 -1 0 -1 0 -1 -1
        CFGEDIT 1 1 0 0 0 1 1 1 1 1 1 0.25 100 100 1200 800 0 2 2 2 0 0 0 0 0 0.5 1 0 1 64
      >
    >
  >
  <TRACK {9BA58C3D-4A63-4D3D-BF53-2A7D6E328577}
    NAME HARM1
    PEAKCOL 16807935
    BEAT -1
    AUTOMODE 0
    VOLPAN 1 0 -1 -1 1
    MUTESOLO 0 0 0
    IPHASE 0
    PLAYOFFS 0 1
    ISBUS 0 0
    BUSCOMP 0 0 0 0 0
    SHOWINMIX 1 0.6667 0.5 1 0.5 -1 -1 -1
    SEL 0
    REC 0 0 1 0 0 0 0 0
    TRACKHEIGHT 0 0 0 0 0 0
    INQ 0 0 0 0.5 100 0 0 100
    NCHAN 2
    FX 0
    TRACKID {9BA58C3D-4A63-4D3D-BF53-2A7D6E328577}
    PERF 0
    MIDIOUT -1
    <MIDINOTENAMES
      0 0 "Range Shift" 0 0
      0 1 "Lyric Shift" 0 1
      0 35 ---- 0 35
      0 36 "C (lowest)" 0 36
      0 37 C# 0 37
      0 38 D 0 38
      0 39 D# 0 39
      0 40 E 0 40
      0 41 F 0 41
      0 42 F# 0 42
      0 43 G 0 43
      0 44 G# 0 44
      0 45 A 0 45
      0 46 A# 0 46
      0 47 B 0 47
      0 48 C 0 48
      0 49 C# 0 49
      0 50 D 0 50
      0 51 D# 0 51
      0 52 E 0 52
      0 53 F 0 53
      0 54 F# 0 54
      0 55 G 0 55
      0 56 G# 0 56
      0 57 A 0 57
      0 58 A# 0 58
      0 59 B 0 59
      0 60 C 0 60
      0 61 C# 0 61
      0 62 D 0 62
      0 63 D# 0 63
      0 64 E 0 64
      0 65 F 0 65
      0 66 F# 0 66
      0 67 G 0 67
      0 68 G# 0 68
      0 69 A 0 69
      0 70 A# 0 70
      0 71 B 0 71
      0 72 C 0 72
      0 73 C# 0 73
      0 74 D 0 74
      0 75 D# 0 75
      0 76 E 0 76
      0 77 F 0 77
      0 78 F# 0 78
      0 79 G 0 79
      0 80 G# 0 80
      0 81 A 0 81
      0 82 A# 0 82
      0 83 B 0 83
      0 84 "C (highest) (bugged)" 0 84
      0 85 ---- 0 85
      0 96 Percussion 0 96
      0 97 "Percussion Sound" 0 97
      0 104 ---- 0 104
      0 105 Phrase 0 105
      0 106 "Phrase (Face-Off P2)" 0 106
      0 116 OVERDRIVE 0 116
    >
    MAINSEND 1 0
    <FXCHAIN
      SHOW 0
      LASTSEL 0
      DOCKED 0
      BYPASS 0 0 0
      <JS "IX/MIDI_Tool II" ""
        0 0 35 0 0 0 100 0 0 127 0 0 1 0 0 - - - - - - - - - - - - - - - - - - - - - - - - - - - - - - - - - - - - - - - - - - - - - - - - - 
      >
      FLOATPOS 0 0 0 0
      FXID {5B4C7465-9DAD-4AA1-876A-6FE955B35956}
      WAK 0 0
      BYPASS 0 0 0
      <JS "IX/MIDI_Tool II" ""
        0 85 127 0 0 0 100 0 0 127 0 0 1 0 0 - - - - - - - - - - - - - - - - - - - - - - - - - - - - - - - - - - - - - - - - - - - - - - - - - 
      >
      FLOATPOS 0 0 0 0
      FXID {92363788-F0DD-4B8D-96C5-C5C9B7FC6517}
      WAK 0 0
      BYPASS 0 0 0
      <VST "VSTi: ReaSynth (Cockos)" reasynth.dll 0 "VSTi: ReaSynth (Cockos)" 1919251321<5653547265737972656173796E746800> ""
        eXNlcu9e7f4AAAAAAgAAAAEAAAAAAAAAAgAAAAAAAABEAAAAAAAAAAAAEAA=
        776t3g3wrd6mm8Q7F7fROjMzEz8AAAAAAAAAAAAAgD/pZ4g9AAAAAAAAAD8AAIA/AACAPwAAAD8AAIA/AAAAAAAAgD8=
        AFByb2dyYW0gMQAQAAAA
      >
      PRESETNAME "Program 1"
      FLOATPOS 0 0 0 0
      FXID {9537805E-9CCA-4FF5-B519-64415BC23CF2}
      WAK 0 0
    >
    <ITEM
      POSITION 0
      SNAPOFFS 0
      LENGTH 165.05873578958332
      LOOP 0
      ALLTAKES 0
      FADEIN 1 0 0 1 0 0 0
      FADEOUT 1 0 0 1 0 0 0
      MUTE 0 0
      SEL 0
      IGUID {55C5028F-0831-41F3-B9F4-A8739B214C22}
      IID 9
      NAME HARM1
      VOLPAN 1 0 1 -1
      SOFFS 0 0
      PLAYRATE 1 1 0 -1 0 0.0025
      CHANMODE 0
      GUID {D66CA95E-08E8-421C-97A3-845F93BC5BE4}
      <SOURCE MIDI
        HASDATA 1 480 QN
        CCINTERP 32
        POOLEDEVTS {07109804-C8FC-49E6-8E28-223859CE7B14}
        <X 0 0 0 0 3 HARM1
          /wNIQVJNMQ==
        >
        <X 3840 0 0 0 1 [idle]
          /wFbaWRsZV0=
        >
        <X 1920 0 0 0 1 [play]
          /wFbcGxheV0=
        >
        E 960 90 69 60
        <X 510 0 0 0 5 If
          /wVJZg==
        >
        E 0 90 44 60
        E 90 80 44 60
        <X 120 0 0 0 5 you
          /wV5b3U=
        >
        E 0 90 45 60
        E 180 80 45 60
        <X 99 0 0 0 5 want
          /wV3YW50
        >
        E 0 90 47 60
        E 210 80 47 60
        <X 60 0 0 0 5 it
          /wVpdA==
        >
        E 0 90 47 60
        E 90 80 47 60
        <X 420 0 0 0 5 here
          /wVoZXJl
        >
        E 0 90 4b 60
        E 30 80 4b 60
        <X 30 0 0 0 5 +
          /wUr
        >
        E 0 90 4c 60
        E 291 80 4c 60
        <X 60 0 0 0 5 it
          /wVpdA==
        >
        E 0 90 4c 60
        E 210 80 4c 60
        <X 50 0 0 0 5 is
          /wVpcw==
        >
        E 0 90 4c 60
        E 109 80 4c 60
        E 81 80 69 60
        E 210 90 69 60
        <X 30 0 0 0 5 Come
          /wVDb21l
        >
        E 0 90 44 60
        E 180 80 44 60
        <X 100 0 0 0 5 and
          /wVhbmQ=
        >
        E 0 90 45 60
        E 130 80 45 60
        <X 100 0 0 0 5 get
          /wVnZXQ=
        >
        E 0 90 47 60
        E 190 80 47 60
        <X 70 0 0 0 5 it
          /wVpdA==
        >
        E 0 90 40 60
        E 100 80 40 60
        E 90 80 69 60
        E 0 90 69 60
        <X 270 0 0 0 5 Mmm
          /wVNbW0=
        >
        E 0 90 40 60
        E 180 80 40 60
        <X 60 0 0 0 5 mmm
          /wVtbW0=
        >
        E 0 90 42 60
        E 180 80 42 60
        <X 60 0 0 0 5 mmm
          /wVtbW0=
        >
        E 0 90 44 60
        E 180 80 44 60
        <X 60 0 0 0 5 mmm
          /wVtbW0=
        >
        E 0 90 45 60
        E 180 80 45 60
        <X 90 0 0 0 5 +
          /wUr
        >
        E 0 90 42 60
        E 120 80 42 60
        E 60 80 69 60
        E 0 90 69 60
        E 0 90 74 60
        <X 60 0 0 0 5 Make
          /wVNYWtl
        >
        E 0 90 45 60
        E 90 80 45 60
        <X 90 0 0 0 5 your
          /wV5b3Vy
        >
        E 0 90 47 60
        E 120 80 47 60
        <X 120 0 0 0 5 mind
          /wVtaW5k
        >
        E 0 90 43 60
        E 30 80 43 60
        <X 30 0 0 0 5 +
          /wUr
        >
        E 0 90 44 60
        E 90 80 44 60
        <X 120 0 0 0 5 up
          /wV1cA==
        >
        E 0 90 40 60
        E 209 80 40 60
        <X 270 0 0 0 5 fast
          /wVmYXN0
        >
        E 0 90 42 60
        E 851 80 42 60
        E 80 80 69 60
        E 0 80 74 60
        E 240 90 69 60
        <X 510 0 0 0 5 If
          /wVJZg==
        >
        E 0 90 44 60
        E 90 80 44 60
        <X 150 0 0 0 5 you
          /wV5b3U=
        >
        E 0 90 45 60
        E 180 80 45 60
        <X 60 0 0 0 5 want
          /wV3YW50
        >
        E 0 90 47 60
        E 180 80 47 60
        <X 60 0 0 0 5 it
          /wVpdA==
        >
        E 0 90 47 60
        E 100 80 47 60
        <X 380 0 0 0 5 an-
          /wVhbi0=
        >
        E 0 90 4b 60
        E 30 80 4b 60
        <X 60 0 0 0 5 +
          /wUr
        >
        E 0 90 4c 60
        E 340 80 4c 60
        <X 40 0 0 0 5 y
          /wV5
        >
        E 0 90 4c 60
        E 110 80 4c 60
        <X 110 0 0 0 5 time
          /wV0aW1l
        >
        E 0 90 4c 60
        E 230 80 4c 60
        E 40 80 69 60
        E 210 90 69 60
        <X 30 0 0 0 5 I
          /wVJ
        >
        E 0 90 44 60
        E 110 80 44 60
        <X 100 0 0 0 5 can
          /wVjYW4=
        >
        E 0 90 45 60
        E 90 80 45 60
        <X 180 0 0 0 5 give
          /wVnaXZl
        >
        E 0 90 47 60
        E 170 80 47 60
        <X 70 0 0 0 5 it
          /wVpdA==
        >
        E 0 90 40 60
        E 120 80 40 60
        E 90 80 69 60
        E 0 90 69 60
        <X 240 0 0 0 5 But
          /wVCdXQ=
        >
        E 0 90 40 60
        E 60 80 40 60
        <X 60 0 0 0 5 you'd
          /wV5b3UnZA==
        >
        E 0 90 40 60
        E 60 80 40 60
        <X 90 0 0 0 5 bet-
          /wViZXQt
        >
        E 0 90 42 60
        E 150 80 42 60
        <X 60 0 0 0 5 ter
          /wV0ZXI=
        >
        E 0 90 44 60
        E 150 80 44 60
        <X 120 0 0 0 5 hur-
          /wVodXIt
        >
        E 0 90 45 60
        E 180 80 45 60
        <X 30 0 0 0 5 ry
          /wVyeQ==
        >
        E 0 90 45 60
        E 120 80 45 60
        E 120 80 69 60
        E 0 90 69 60
        E 0 90 74 60
        <X 30 0 0 0 5 "'Cause"
          /wUnQ2F1c2U=
        >
        E 0 90 45 60
        E 180 80 45 60
        <X 60 0 0 0 5 it
          /wVpdA==
        >
        E 0 90 47 60
        E 60 80 47 60
        <X 180 0 0 0 5 may
          /wVtYXk=
        >
        E 0 90 42 60
        E 30 80 42 60
        <X 60 0 0 0 5 +
          /wUr
        >
        E 0 90 44 60
        E 90 80 44 60
        <X 60 0 0 0 5 not
          /wVub3Q=
        >
        E 0 90 40 60
        E 300 80 40 60
        <X 180 0 0 0 5 last
          /wVsYXN0
        >
        E 0 90 42 60
        E 807 80 42 60
        E 363 80 69 60
        E 8 80 74 60
        E 472 90 69 60
        <X 510 0 0 0 5 Did
          /wVEaWQ=
        >
        E 0 90 4c 60
        E 180 80 4c 60
        <X 30 0 0 0 5 I
          /wVJ
        >
        E 0 90 4c 60
        E 210 80 4c 60
        <X 30 0 0 0 5 hear
          /wVoZWFy
        >
        E 0 90 4c 60
        E 210 80 4c 60
        <X 30 0 0 0 5 you
          /wV5b3U=
        >
        E 0 90 4c 60
        E 100 80 4c 60
        <X 170 0 0 0 5 say
          /wVzYXk=
        >
        E 0 90 4c 60
        E 180 80 4c 60
        <X 90 0 0 0 5 +
          /wUr
        >
        E 0 90 4a 60
        E 120 80 4a 60
        <X 90 0 0 0 5 that
          /wV0aGF0
        >
        E 0 90 4a 60
        E 120 80 4a 60
        <X 150 0 0 0 5 there
          /wV0aGVyZQ==
        >
        E 0 90 48 60
        E 120 80 48 60
        <X 130 0 0 0 5 must
          /wVtdXN0
        >
        E 0 90 47 60
        E 60 80 47 60
        <X 160 0 0 0 5 be
          /wViZQ==
        >
        E 0 90 43 60
        E 210 80 43 60
        <X 30 0 0 0 5 a
          /wVh
        >
        E 0 90 45 60
        E 90 80 45 60
        <X 160 0 0 0 5 catch?
          /wVjYXRjaD8=
        >
        E 0 90 47 60
        E 370 80 47 60
        E 290 80 69 60
        E 480 90 69 60
        <X 69 0 0 0 5 Will
          /wVXaWxs
        >
        E 0 90 48 60
        E 161 80 48 60
        <X 79 0 0 0 5 you
          /wV5b3U=
        >
        E 0 90 48 60
        E 141 80 48 60
        <X 80 0 0 0 5 walk
          /wV3YWxr
        >
        E 0 90 48 60
        E 120 80 48 60
        <X 139 0 0 0 5 a-
          /wVhLQ==
        >
        E 0 90 48 60
        E 131 80 48 60
        <X 79 0 0 0 5 way
          /wV3YXk=
        >
        E 0 90 48 60
        E 240 80 48 60
        <X 60 0 0 0 5 +
          /wUr
        >
        E 0 90 47 60
        E 60 80 47 60
        <X 150 0 0 0 5 from
          /wVmcm9t
        >
        E 0 90 47 60
        E 150 80 47 60
        <X 90 0 0 0 5 a
          /wVh
        >
        E 0 90 45 60
        E 60 80 45 60
        <X 180 0 0 0 5 fool
          /wVmb29s
        >
        E 0 90 47 60
        E 161 80 47 60
        <X 79 0 0 0 5 and
          /wVhbmQ=
        >
        E 0 90 47 60
        E 180 80 47 60
        <X 60 0 0 0 5 his
          /wVoaXM=
        >
        E 0 90 48 60
        E 60 80 48 60
        <X 210 0 0 0 5 mon-
          /wVtb24t
        >
        E 0 90 44 60
        E 90 80 44 60
        <X 90 0 0 0 5 ey?
          /wVleT8=
        >
        E 0 90 42 60
        E 918 80 42 60
        E 3 80 69 60
        E 960 90 69 60
        <X 480 0 0 0 5 If
          /wVJZg==
        >
        E 0 90 44 60
        E 90 80 44 60
        <X 199 0 0 0 5 you
          /wV5b3U=
        >
        E 0 90 45 60
        E 180 80 45 60
        <X 41 0 0 0 5 want
          /wV3YW50
        >
        E 0 90 47 60
        E 210 80 47 60
        <X 30 0 0 0 5 it
          /wVpdA==
        >
        E 0 90 47 60
        E 90 80 47 60
        <X 390 0 0 0 5 here
          /wVoZXJl
        >
        E 0 90 4b 60
        E 30 80 4b 60
        <X 30 0 0 0 5 +
          /wUr
        >
        E 0 90 4c 60
        E 309 80 4c 60
        <X 81 0 0 0 5 it
          /wVpdA==
        >
        E 0 90 4c 60
        E 210 80 4c 60
        <X 60 0 0 0 5 is
          /wVpcw==
        >
        E 0 90 4c 60
        E 180 80 4c 60
        E 30 80 69 60
        E 240 90 69 60
        E 0 90 74 60
        <X 30 0 0 0 5 Come
          /wVDb21l
        >
        E 0 90 44 60
        E 180 80 44 60
        <X 60 0 0 0 5 and
          /wVhbmQ=
        >
        E 0 90 45 60
        E 130 80 45 60
        <X 110 0 0 0 5 get
          /wVnZXQ=
        >
        E 0 90 47 60
        E 180 80 47 60
        <X 100 0 0 0 5 it
          /wVpdA==
        >
        E 0 90 40 60
        E 60 80 40 60
        E 110 80 69 60
        E 0 80 74 60
        E 0 90 69 60
        <X 240 0 0 0 5 But
          /wVCdXQ=
        >
        E 0 90 40 60
        E 60 80 40 60
        <X 90 0 0 0 5 you'd
          /wV5b3UnZA==
        >
        E 0 90 40 60
        E 60 80 40 60
        <X 60 0 0 0 5 bet-
          /wViZXQt
        >
        E 0 90 42 60
        E 180 80 42 60
        <X 30 0 0 0 5 ter
          /wV0ZXI=
        >
        E 0 90 44 60
        E 210 80 44 60
        <X 60 0 0 0 5 hur-
          /wVodXIt
        >
        E 0 90 45 60
        E 180 80 45 60
        <X 30 0 0 0 5 ry
          /wVyeQ==
        >
        E 0 90 45 60
        E 170 80 45 60
        E 70 80 69 60
        E 0 90 69 60
        <X 30 0 0 0 5 "'Cause"
          /wUnQ2F1c2U=
        >
        E 0 90 45 60
        E 180 80 45 60
        <X 90 0 0 0 5 it's
          /wVpdCdz
        >
        E 0 90 47 60
        E 60 80 47 60
        <X 150 0 0 0 5 go-
          /wVnby0=
        >
        E 0 90 42 60
        E 30 80 42 60
        <X 60 0 0 0 5 +
          /wUr
        >
        E 0 90 44 60
        E 90 80 44 60
        <X 70 0 0 0 5 in'
          /wVpbic=
        >
        E 0 90 42 60
        E 330 80 42 60
        <X 200 0 0 0 5 fast
          /wVmYXN0
        >
        E 0 90 40 60
        E 711 80 40 60
        E 399 80 69 60
        E 1920 90 69 60
        <X 540 0 0 0 5 If
          /wVJZg==
        >
        E 0 90 44 60
        E 90 80 44 60
        <X 180 0 0 0 5 you
          /wV5b3U=
        >
        E 0 90 45 60
        E 150 80 45 60
        <X 90 0 0 0 5 want
          /wV3YW50
        >
        E 0 90 47 60
        E 180 80 47 60
        <X 50 0 0 0 5 it
          /wVpdA==
        >
        E 0 90 47 60
        E 110 80 47 60
        <X 340 0 0 0 5 here
          /wVoZXJl
        >
        E 0 90 4b 60
        E 30 80 4b 60
        <X 30 0 0 0 5 +
          /wUr
        >
        E 0 90 4c 60
        E 390 80 4c 60
        <X 30 0 0 0 5 it
          /wVpdA==
        >
        E 0 90 4c 60
        E 210 80 4c 60
        <X 60 0 0 0 5 is
          /wVpcw==
        >
        E 0 90 4c 60
        E 150 80 4c 60
        E 130 80 69 60
        E 120 90 69 60
        E 0 90 74 60
        <X 60 0 0 0 5 Come
          /wVDb21l
        >
        E 0 90 44 60
        E 180 80 44 60
        <X 60 0 0 0 5 and
          /wVhbmQ=
        >
        E 0 90 45 60
        E 90 80 45 60
        <X 150 0 0 0 5 get
          /wVnZXQ=
        >
        E 0 90 47 60
        E 180 80 47 60
        <X 60 0 0 0 5 it
          /wVpdA==
        >
        E 0 90 40 60
        E 90 80 40 60
        E 90 80 69 60
        E 0 80 74 60
        E 0 90 69 60
        <X 240 0 0 0 5 Mmm
          /wVNbW0=
        >
        E 0 90 40 60
        E 210 80 40 60
        <X 60 0 0 0 5 mmm
          /wVtbW0=
        >
        E 0 90 42 60
        E 180 80 42 60
        <X 60 0 0 0 5 mmm
          /wVtbW0=
        >
        E 0 90 44 60
        E 180 80 44 60
        <X 60 0 0 0 5 mmm
          /wVtbW0=
        >
        E 0 90 45 60
        E 180 80 45 60
        <X 60 0 0 0 5 +
          /wUr
        >
        E 0 90 42 60
        E 150 80 42 60
        E 30 80 69 60
        E 0 90 69 60
        <X 30 0 0 0 5 Make
          /wVNYWtl
        >
        E 0 90 45 60
        E 120 80 45 60
        <X 150 0 0 0 5 your
          /wV5b3Vy
        >
        E 0 90 47 60
        E 90 80 47 60
        <X 120 0 0 0 5 mind
          /wVtaW5k
        >
        E 0 90 43 60
        E 30 80 43 60
        <X 30 0 0 0 5 +
          /wUr
        >
        E 0 90 44 60
        E 120 80 44 60
        <X 120 0 0 0 5 up
          /wV1cA==
        >
        E 0 90 40 60
        E 210 80 40 60
        <X 261 0 0 0 5 fast
          /wVmYXN0
        >
        E 0 90 42 60
        E 848 80 42 60
        E 61 80 69 60
        E 240 90 69 60
        <X 520 0 0 0 5 If
          /wVJZg==
        >
        E 0 90 44 60
        E 60 80 44 60
        <X 180 0 0 0 5 you
          /wV5b3U=
        >
        E 0 90 45 60
        E 150 80 45 60
        <X 90 0 0 0 5 want
          /wV3YW50
        >
        E 0 90 47 60
        E 210 80 47 60
        <X 30 0 0 0 5 it
          /wVpdA==
        >
        E 0 90 47 60
        E 90 80 47 60
        <X 421 0 0 0 5 an-
          /wVhbi0=
        >
        E 0 90 4b 60
        E 30 80 4b 60
        <X 30 0 0 0 5 +
          /wUr
        >
        E 0 90 4c 60
        E 420 80 4c 60
        <X 30 0 0 0 5 y
          /wV5
        >
        E 0 90 4c 60
        E 90 80 4c 60
        <X 120 0 0 0 5 time
          /wV0aW1l
        >
        E 0 90 4c 60
        E 180 80 4c 60
        E 229 80 69 60
        E 0 90 69 60
        E 0 90 74 60
        <X 60 0 0 0 5 I
          /wVJ
        >
        E 0 90 44 60
        E 90 80 44 60
        <X 150 0 0 0 5 can
          /wVjYW4=
        >
        E 0 90 45 60
        E 90 80 45 60
        <X 150 0 0 0 5 give
          /wVnaXZl
        >
        E 0 90 47 60
        E 180 80 47 60
        <X 90 0 0 0 5 it
          /wVpdA==
        >
        E 0 90 40 60
        E 60 80 40 60
        E 90 80 69 60
        E 0 80 74 60
        E 241 90 69 60
        <X 60 0 0 0 5 But
          /wVCdXQ=
        >
        E 0 90 40 60
        E 60 80 40 60
        <X 90 0 0 0 5 you'd
          /wV5b3UnZA==
        >
        E 0 90 40 60
        E 60 80 40 60
        <X 60 0 0 0 5 bet-
          /wViZXQt
        >
        E 0 90 42 60
        E 210 80 42 60
        <X 30 0 0 0 5 ter
          /wV0ZXI=
        >
        E 0 90 44 60
        E 150 80 44 60
        <X 90 0 0 0 5 hur-
          /wVodXIt
        >
        E 0 90 45 60
        E 210 80 45 60
        <X 30 0 0 0 5 ry
          /wVyeQ==
        >
        E 0 90 45 60
        E 120 80 45 60
        E 29 80 69 60
        E 0 90 69 60
        <X 91 0 0 0 5 "'Cause"
          /wUnQ2F1c2U=
        >
        E 0 90 45 60
        E 180 80 45 60
        <X 39 0 0 0 5 it
          /wVpdA==
        >
        E 0 90 47 60
        E 60 80 47 60
        <X 201 0 0 0 5 may
          /wVtYXk=
        >
        E 0 90 42 60
        E 30 80 42 60
        <X 60 0 0 0 5 +
          /wUr
        >
        E 0 90 44 60
        E 90 80 44 60
        <X 49 0 0 0 5 not
          /wVub3Q=
        >
        E 0 90 40 60
        E 270 80 40 60
        <X 210 0 0 0 5 last
          /wVsYXN0
        >
        E 0 90 42 60
        E 930 80 42 60
        E 190 80 69 60
        E 480 90 69 60
        <X 540 0 0 0 5 Did
          /wVEaWQ=
        >
        E 0 90 4c 60
        E 180 80 4c 60
        <X 30 0 0 0 5 I
          /wVJ
        >
        E 0 90 4c 60
        E 210 80 4c 60
        <X 60 0 0 0 5 hear
          /wVoZWFy
        >
        E 0 90 4c 60
        E 210 80 4c 60
        <X 30 0 0 0 5 you
          /wV5b3U=
        >
        E 0 90 4c 60
        E 90 80 4c 60
        <X 150 0 0 0 5 say
          /wVzYXk=
        >
        E 0 90 4c 60
        E 401 80 4c 60
        <X 49 0 0 0 5 that
          /wV0aGF0
        >
        E 0 90 4a 60
        E 131 80 4a 60
        <X 139 0 0 0 5 there
          /wV0aGVyZQ==
        >
        E 0 90 48 60
        E 120 80 48 60
        <X 90 0 0 0 5 must
          /wVtdXN0
        >
        E 0 90 47 60
        E 111 80 47 60
        <X 159 0 0 0 5 be
          /wViZQ==
        >
        E 0 90 43 60
        E 150 80 43 60
        <X 60 0 0 0 5 a
          /wVh
        >
        E 0 90 45 60
        E 60 80 45 60
        <X 210 0 0 0 5 catch?
          /wVjYXRjaD8=
        >
        E 0 90 46 60
        E 30 80 46 60
        <X 30 0 0 0 5 +
          /wUr
        >
        E 0 90 47 60
        E 390 80 47 60
        E 210 80 69 60
        E 0 90 69 60
        E 0 90 74 60
        <X 547 0 0 0 5 Will
          /wVXaWxs
        >
        E 0 90 48 60
        E 210 80 48 60
        <X 30 0 0 0 5 you
          /wV5b3U=
        >
        E 0 90 48 60
        E 150 80 48 60
        <X 60 0 0 0 5 walk
          /wV3YWxr
        >
        E 0 90 48 60
        E 150 80 48 60
        <X 120 0 0 0 5 a-
          /wVhLQ==
        >
        E 0 90 48 60
        E 150 80 48 60
        <X 60 0 0 0 5 way
          /wV3YXk=
        >
        E 0 90 48 60
        E 250 80 48 60
        <X 50 0 0 0 5 +
          /wUr
        >
        E 0 90 47 60
        E 70 80 47 60
        <X 130 0 0 0 5 from
          /wVmcm9t
        >
        E 0 90 47 60
        E 180 80 47 60
        <X 40 0 0 0 5 a
          /wVh
        >
        E 0 90 45 60
        E 60 80 45 60
        <X 208 0 0 0 5 fool
          /wVmb29s
        >
        E 0 90 47 60
        E 182 80 47 60
        <X 30 0 0 0 5 and
          /wVhbmQ=
        >
        E 0 90 47 60
        E 180 80 47 60
        <X 90 0 0 0 5 his
          /wVoaXM=
        >
        E 0 90 4c 60
        E 60 80 4c 60
        <X 150 0 0 0 5 mon-
          /wVtb24t
        >
        E 0 90 44 60
        E 120 80 44 60
        <X 60 0 0 0 5 ey?
          /wVleT8=
        >
        E 0 90 42 60
        E 602 80 42 60
        E 141 80 69 60
        E 0 80 74 60
        E 0 90 69 60
        <X 240 0 0 0 5 Son-
          /wVTb24t
        >
        E 0 90 4e 60
        E 60 80 4e 60
        <X 90 0 0 0 5 +
          /wUr
        >
        E 0 90 50 60
        E 270 80 50 60
        <X 60 0 0 0 5 ny!
          /wVueSE=
        >
        E 0 90 4e 60
        E 232 80 4e 60
        E 248 80 69 60
        E 0 90 69 60
        <X 30 0 0 0 5 If
          /wVJZg==
        >
        E 0 90 4c 60
        E 171 80 4c 60
        <X 279 0 0 0 5 you
          /wV5b3U=
        >
        E 0 90 48 60
        E 30 80 48 60
        <X 30 0 0 0 5 +
          /wUr
        >
        E 0 90 49 60
        E 170 80 49 60
        <X 280 0 0 0 5 want
          /wV3YW50
        >
        E 0 90 47 60
        E 210 80 47 60
        <X 59 0 0 0 5 it
          /wVpdA==
        >
        E 0 90 47 60
        E 90 80 47 60
        <X 390 0 0 0 5 here
          /wVoZXJl
        >
        E 0 90 4b 60
        E 30 80 4b 60
        <X 30 0 0 0 5 +
          /wUr
        >
        E 0 90 4c 60
        E 390 80 4c 60
        <X 30 0 0 0 5 it
          /wVpdA==
        >
        E 0 90 4c 60
        E 210 80 4c 60
        <X 30 0 0 0 5 is
          /wVpcw==
        >
        E 0 90 4c 60
        E 120 80 4c 60
        E 70 80 69 60
        E 231 90 69 60
        <X 60 0 0 0 5 Come
          /wVDb21l
        >
        E 0 90 44 60
        E 150 80 44 60
        <X 60 0 0 0 5 and
          /wVhbmQ=
        >
        E 0 90 45 60
        E 90 80 45 60
        <X 150 0 0 0 5 get
          /wVnZXQ=
        >
        E 0 90 47 60
        E 180 80 47 60
        <X 90 0 0 0 5 it
          /wVpdA==
        >
        E 0 90 40 60
        E 60 80 40 60
        E 120 80 69 60
        E 0 90 69 60
        E 0 90 74 60
        <X 280 0 0 0 5 But
          /wVCdXQ=
        >
        E 0 90 40 60
        E 60 80 40 60
        <X 60 0 0 0 5 you'd
          /wV5b3UnZA==
        >
        E 0 90 40 60
        E 60 80 40 60
        <X 60 0 0 0 5 bet-
          /wViZXQt
        >
        E 0 90 42 60
        E 180 80 42 60
        <X 50 0 0 0 5 ter
          /wV0ZXI=
        >
        E 0 90 44 60
        E 150 80 44 60
        <X 90 0 0 0 5 hur-
          /wVodXIt
        >
        E 0 90 45 60
        E 210 80 45 60
        <X 30 0 0 0 5 ry
          /wVyeQ==
        >
        E 0 90 45 60
        E 150 80 45 60
        E 60 80 69 60
        E 0 80 74 60
        E 0 90 69 60
        <X 30 0 0 0 5 "'Cause"
          /wUnQ2F1c2U=
        >
        E 0 90 45 60
        E 180 80 45 60
        <X 60 0 0 0 5 it's
          /wVpdCdz
        >
        E 0 90 47 60
        E 60 80 47 60
        <X 180 0 0 0 5 go-
          /wVnby0=
        >
        E 0 90 42 60
        E 60 80 42 60
        <X 60 0 0 0 5 +
          /wUr
        >
        E 0 90 44 60
        E 90 80 44 60
        <X 60 0 0 0 5 in'
          /wVpbic=
        >
        E 0 90 42 60
        E 240 80 42 60
        <X 240 0 0 0 5 fast
          /wVmYXN0
        >
        E 0 90 40 60
        E 690 80 40 60
        E 210 80 69 60
        E 240 90 69 60
        <X 240 0 0 0 5 You'd
          /wVZb3UnZA==
        >
        E 0 90 47 60
        E 120 80 47 60
        <X 140 0 0 0 5 bet-
          /wViZXQt
        >
        E 0 90 49 60
        E 210 80 49 60
        <X 50 0 0 0 5 ter
          /wV0ZXI=
        >
        E 0 90 4c 60
        E 120 80 4c 60
        <X 80 0 0 0 5 hur-
          /wVodXIt
        >
        E 0 90 4e 60
        E 30 80 4e 60
        <X 30 0 0 0 5 +
          /wUr
        >
        E 0 90 4f 60
        E 180 80 4f 60
        <X 61 0 0 0 5 ry
          /wVyeQ==
        >
        E 0 90 4e 60
        E 120 80 4e 60
        E 59 80 69 60
        E 0 90 69 60
        <X 31 0 0 0 5 "'Cause"
          /wUnQ2F1c2U=
        >
        E 0 90 4c 60
        E 180 80 4c 60
        <X 60 0 0 0 5 it's
          /wVpdCdz
        >
        E 0 90 49 60
        E 60 80 49 60
        <X 180 0 0 0 5 go-
          /wVnby0=
        >
        E 0 90 4e 60
        E 60 80 4e 60
        <X 90 0 0 0 5 +
          /wUr
        >
        E 0 90 4f 60
        E 90 80 4f 60
        <X 60 0 0 0 5 in'
          /wVpbic=
        >
        E 0 90 4e 60
        E 271 80 4e 60
        <X 148 0 0 0 5 fast
          /wVmYXN0
        >
        E 0 90 4c 60
        E 2070 80 4c 60
        <X 151 0 0 0 5 +
          /wUr
        >
        E 0 90 4a 60
        E 1159 80 4a 60
        E 190 80 69 60
        E 0 90 69 60
        E 0 90 74 60
        <X 586 0 0 0 5 Ooh
          /wVPb2g=
        >
        E 0 90 4c 60
        E 1756 80 4c 60
        <X 99 0 0 0 5 fool
          /wVmb29s
        >
        E 0 90 4b 60
        E 30 80 4b 60
        <X 30 0 0 0 5 +
          /wUr
        >
        E 0 90 4c 60
        E 150 80 4c 60
        <X 30 0 0 0 5 and
          /wVhbmQ=
        >
        E 0 90 4c 60
        E 105 80 4c 60
        <X 106 0 0 0 5 his
          /wVoaXM=
        >
        E 0 90 44 60
        E 75 80 44 60
        <X 107 0 0 0 5 mon-
          /wVtb24t
        >
        E 0 90 47 60
        E 60 80 47 60
        <X 45 0 0 0 5 ey
          /wVleQ==
        >
        E 0 90 47 60
        E 345 80 47 60
        E 316 80 74 60
        E 7 80 69 60
        E 473 90 69 60
        <X 21 0 0 0 5 Son-
          /wVTb24t
        >
        E 0 90 4e 60
        E 45 80 4e 60
        <X 61 0 0 0 5 +
          /wUr
        >
        E 0 90 50 60
        E 343 80 50 60
        <X 50 0 0 0 5 ny!
          /wVueSE=
        >
        E 0 90 4e 60
        E 150 80 4e 60
        E 50 80 69 60
        E 240 90 69 60
        <X 24 0 0 0 5 If
          /wVJZg==
        >
        E 0 90 4c 60
        E 145 80 4c 60
        <X 326 0 0 0 5 you
          /wV5b3U=
        >
        E 0 90 49 60
        E 180 80 49 60
        <X 334 0 0 0 5 want
          /wV3YW50
        >
        E 0 90 47 60
        E 225 80 47 60
        <X 30 0 0 0 5 it
          /wVpdA==
        >
        E 0 90 47 60
        E 90 80 47 60
        <X 401 0 0 0 5 here
          /wVoZXJl
        >
        E 0 90 4b 60
        E 15 80 4b 60
        <X 15 0 0 0 5 +
          /wUr
        >
        E 0 90 4c 60
        E 326 80 4c 60
        <X 109 0 0 0 5 it
          /wVpdA==
        >
        E 0 90 4c 60
        E 195 80 4c 60
        <X 45 0 0 0 5 is
          /wVpcw==
        >
        E 0 90 4c 60
        E 135 80 4c 60
        E 285 80 69 60
        E 0 90 69 60
        <X 30 0 0 0 5 Come
          /wVDb21l
        >
        E 0 90 44 60
        E 180 80 44 60
        <X 60 0 0 0 5 and
          /wVhbmQ=
        >
        E 0 90 45 60
        E 60 80 45 60
        <X 180 0 0 0 5 get
          /wVnZXQ=
        >
        E 0 90 47 60
        E 180 80 47 60
        <X 60 0 0 0 5 it
          /wVpdA==
        >
        E 0 90 40 60
        E 90 80 40 60
        E 120 80 69 60
        E 0 90 69 60
        E 0 90 74 60
        <X 255 0 0 0 5 But
          /wVCdXQ=
        >
        E 0 90 40 60
        E 45 80 40 60
        <X 75 0 0 0 5 you'd
          /wV5b3UnZA==
        >
        E 0 90 40 60
        E 45 80 40 60
        <X 75 0 0 0 5 bet-
          /wViZXQt
        >
        E 0 90 42 60
        E 180 80 42 60
        <X 60 0 0 0 5 ter
          /wV0ZXI=
        >
        E 0 90 44 60
        E 120 80 44 60
        <X 135 0 0 0 5 hur-
          /wVodXIt
        >
        E 0 90 45 60
        E 180 80 45 60
        <X 30 0 0 0 5 ry
          /wVyeQ==
        >
        E 0 90 45 60
        E 120 80 45 60
        E 120 80 69 60
        E 0 80 74 60
        E 0 90 69 60
        <X 15 0 0 0 5 "'Cause"
          /wUnQ2F1c2U=
        >
        E 0 90 45 60
        E 165 80 45 60
        <X 85 0 0 0 5 it's
          /wVpdCdz
        >
        E 0 90 47 60
        E 76 80 47 60
        <X 154 0 0 0 5 go-
          /wVnby0=
        >
        E 0 90 42 60
        E 75 80 42 60
        <X 45 0 0 0 5 +
          /wUr
        >
        E 0 90 44 60
        E 105 80 44 60
        <X 45 0 0 0 5 in'
          /wVpbic=
        >
        E 0 90 42 60
        E 270 80 42 60
        <X 195 0 0 0 5 fast
          /wVmYXN0
        >
        E 0 90 40 60
        E 908 80 40 60
        E 22 80 69 60
        E 240 90 69 60
        <X 271 0 0 0 5 You'd
          /wVZb3UnZA==
        >
        E 0 90 47 60
        E 90 80 47 60
        <X 150 0 0 0 5 bet-
          /wViZXQt
        >
        E 0 90 49 60
        E 195 80 49 60
        <X 45 0 0 0 5 ter
          /wV0ZXI=
        >
        E 0 90 4c 60
        E 135 80 4c 60
        <X 120 0 0 0 5 hur-
          /wVodXIt
        >
        E 0 90 4e 60
        E 15 80 4e 60
        <X 15 0 0 0 5 +
          /wUr
        >
        E 0 90 4f 60
        E 165 80 4f 60
        <X 45 0 0 0 5 ry
          /wVyeQ==
        >
        E 0 90 4e 60
        E 120 80 4e 60
        E 74 80 69 60
        E 0 90 69 60
        <X 46 0 0 0 5 "'Cause"
          /wUnQ2F1c2U=
        >
        E 0 90 4c 60
        E 180 80 4c 60
        <X 75 0 0 0 5 it's
          /wVpdCdz
        >
        E 0 90 49 60
        E 45 80 49 60
        <X 180 0 0 0 5 go-
          /wVnby0=
        >
        E 0 90 4e 60
        E 45 80 4e 60
        <X 30 0 0 0 5 +
          /wUr
        >
        E 0 90 4f 60
        E 165 80 4f 60
        <X 45 0 0 0 5 in'
          /wVpbic=
        >
        E 0 90 4e 60
        E 240 80 4e 60
        <X 225 0 0 0 5 fast
          /wVmYXN0
        >
        E 0 90 4c 60
        E 915 80 4c 60
        E 209 80 69 60
        E 0 90 69 60
        <X 255 0 0 0 5 You'd
          /wVZb3UnZA==
        >
        E 0 90 47 60
        E 105 80 47 60
        <X 135 0 0 0 5 bet-
          /wViZXQt
        >
        E 0 90 49 60
        E 210 80 49 60
        <X 30 0 0 0 5 ter
          /wV0ZXI=
        >
        E 0 90 4c 60
        E 150 80 4c 60
        <X 90 0 0 0 5 hur-
          /wVodXIt
        >
        E 0 90 4e 60
        E 60 80 4e 60
        <X 45 0 0 0 5 +
          /wUr
        >
        E 0 90 4f 60
        E 120 80 4f 60
        <X 30 0 0 0 5 ry
          /wVyeQ==
        >
        E 0 90 4e 60
        E 120 80 4e 60
        E 60 80 69 60
        E 0 90 69 60
        <X 30 0 0 0 5 "'Cause"
          /wUnQ2F1c2U=
        >
        E 0 90 4c 60
        E 165 80 4c 60
        <X 90 0 0 0 5 it's
          /wVpdCdz
        >
        E 0 90 49 60
        E 45 80 49 60
        <X 195 0 0 0 5 go-
          /wVnby0=
        >
        E 0 90 4e 60
        E 75 80 4e 60
        <X 75 0 0 0 5 +
          /wUr
        >
        E 0 90 4f 60
        E 120 80 4f 60
        <X 30 0 0 0 5 in'
          /wVpbic=
        >
        E 0 90 4e 60
        E 211 80 4e 60
        <X 235 0 0 0 5 fast
          /wVmYXN0
        >
        E 0 90 4c 60
        E 5520 80 4c 60
        E 197 80 69 60
        <X 283 0 0 0 1 [idle_realtime]
          /wFbaWRsZV9yZWFsdGltZV0=
        >
        E 9354 b0 7b 00
        CCINTERP 32
        GUID {A7B3B349-6B15-4849-9C8E-87CC7638278A}
        IGNTEMPO 0 120 4 4
        SRCCOLOR 58
        VELLANE 132 128 60
        CFGEDITVIEW 0 0 -1 12 0 0 0 0 0 0.5
        KEYSNAP 0
        TRACKSEL 0
        EVTFILTER 0 -1 -1 -1 -1 0 0 0 0 -1 -1 -1 -1 0 -1 0 -1 -1
        CFGEDIT 1 1 0 0 0 1 1 1 1 1 1 0.25 100 100 1200 800 0 2 2 2 0 0 0 0 0 0.5 1 0 1 64
      >
    >
  >
  <TRACK {8EA4082E-AC04-4694-A257-39D4E9A8B854}
    NAME HARM2
    PEAKCOL 16807935
    BEAT -1
    AUTOMODE 0
    VOLPAN 1 0 -1 -1 1
    MUTESOLO 0 0 0
    IPHASE 0
    PLAYOFFS 0 1
    ISBUS 0 0
    BUSCOMP 0 0 0 0 0
    SHOWINMIX 1 0.6667 0.5 1 0.5 -1 -1 -1
    SEL 0
    REC 0 0 1 0 0 0 0 0
    TRACKHEIGHT 0 0 0 0 0 0
    INQ 0 0 0 0.5 100 0 0 100
    NCHAN 2
    FX 0
    TRACKID {8EA4082E-AC04-4694-A257-39D4E9A8B854}
    PERF 0
    MIDIOUT -1
    <MIDINOTENAMES
      0 0 "Range Shift" 0 0
      0 1 "Lyric Shift" 0 1
      0 35 ---- 0 35
      0 36 "C (lowest)" 0 36
      0 37 C# 0 37
      0 38 D 0 38
      0 39 D# 0 39
      0 40 E 0 40
      0 41 F 0 41
      0 42 F# 0 42
      0 43 G 0 43
      0 44 G# 0 44
      0 45 A 0 45
      0 46 A# 0 46
      0 47 B 0 47
      0 48 C 0 48
      0 49 C# 0 49
      0 50 D 0 50
      0 51 D# 0 51
      0 52 E 0 52
      0 53 F 0 53
      0 54 F# 0 54
      0 55 G 0 55
      0 56 G# 0 56
      0 57 A 0 57
      0 58 A# 0 58
      0 59 B 0 59
      0 60 C 0 60
      0 61 C# 0 61
      0 62 D 0 62
      0 63 D# 0 63
      0 64 E 0 64
      0 65 F 0 65
      0 66 F# 0 66
      0 67 G 0 67
      0 68 G# 0 68
      0 69 A 0 69
      0 70 A# 0 70
      0 71 B 0 71
      0 72 C 0 72
      0 73 C# 0 73
      0 74 D 0 74
      0 75 D# 0 75
      0 76 E 0 76
      0 77 F 0 77
      0 78 F# 0 78
      0 79 G 0 79
      0 80 G# 0 80
      0 81 A 0 81
      0 82 A# 0 82
      0 83 B 0 83
      0 84 "C (highest) (bugged)" 0 84
      0 85 ---- 0 85
      0 96 Percussion 0 96
      0 97 "Percussion Sound" 0 97
      0 104 ---- 0 104
      0 105 Phrase 0 105
      0 106 "Phrase (Face-Off P2)" 0 106
      0 116 OVERDRIVE 0 116
    >
    MAINSEND 1 0
    <FXCHAIN
      SHOW 0
      LASTSEL 0
      DOCKED 0
      BYPASS 0 0 0
      <JS "IX/MIDI_Tool II" ""
        0 0 35 0 0 0 100 0 0 127 0 0 1 0 0 - - - - - - - - - - - - - - - - - - - - - - - - - - - - - - - - - - - - - - - - - - - - - - - - - 
      >
      FLOATPOS 0 0 0 0
      FXID {8DCE5A32-AE4F-46A9-AE62-0F7DF7811FD5}
      WAK 0 0
      BYPASS 0 0 0
      <JS "IX/MIDI_Tool II" ""
        0 85 127 0 0 0 100 0 0 127 0 0 1 0 0 - - - - - - - - - - - - - - - - - - - - - - - - - - - - - - - - - - - - - - - - - - - - - - - - - 
      >
      FLOATPOS 0 0 0 0
      FXID {9A2F2FEA-0913-4B05-B6C9-1DEA976CD51A}
      WAK 0 0
      BYPASS 0 0 0
      <VST "VSTi: ReaSynth (Cockos)" reasynth.dll 0 "VSTi: ReaSynth (Cockos)" 1919251321<5653547265737972656173796E746800> ""
        eXNlcu9e7f4AAAAAAgAAAAEAAAAAAAAAAgAAAAAAAABEAAAAAAAAAAAAEAA=
        776t3g3wrd6mm8Q7F7fROjMzEz8AAAAAAAAAAAAAgD/pZ4g9AAAAAAAAAD8AAIA/AACAPwAAAD8AAIA/AAAAAAAAgD8=
        AFByb2dyYW0gMQAQAAAA
      >
      PRESETNAME "Program 1"
      FLOATPOS 0 0 0 0
      FXID {F4923ACF-3273-4FC1-8791-2CA2F3D6AD0E}
      WAK 0 0
    >
    <ITEM
      POSITION 0
      SNAPOFFS 0
      LENGTH 165.05873578958332
      LOOP 0
      ALLTAKES 0
      FADEIN 1 0 0 1 0 0 0
      FADEOUT 1 0 0 1 0 0 0
      MUTE 0 0
      SEL 0
      IGUID {CDA3BE6A-005C-40D0-9D1F-C0656D96F1F0}
      IID 10
      NAME HARM2
      VOLPAN 1 0 1 -1
      SOFFS 0 0
      PLAYRATE 1 1 0 -1 0 0.0025
      CHANMODE 0
      GUID {798807A5-4FA6-457C-A3D9-D213075F828B}
      <SOURCE MIDI
        HASDATA 1 480 QN
        CCINTERP 32
        POOLEDEVTS {57A8AB22-24AF-4D53-B135-08460E4ACC28}
        <X 0 0 0 0 3 HARM2
          /wNIQVJNMg==
        >
        E 9120 90 69 60
        <X 482 0 0 0 5 Come
          /wVDb21l
        >
        E 0 90 44 60
        E 180 80 44 60
        <X 100 0 0 0 5 and
          /wVhbmQ=
        >
        E 0 90 45 60
        E 130 80 45 60
        <X 100 0 0 0 5 get
          /wVnZXQ=
        >
        E 0 90 47 60
        E 190 80 47 60
        <X 70 0 0 0 5 it
          /wVpdA==
        >
        E 0 90 40 60
        E 70 80 69 60
        E 30 80 40 60
        E 90 90 69 60
        <X 270 0 0 0 5 Mmm
          /wVNbW0=
        >
        E 0 90 40 60
        E 180 80 40 60
        <X 60 0 0 0 5 mmm
          /wVtbW0=
        >
        E 0 90 42 60
        E 180 80 42 60
        <X 60 0 0 0 5 mmm
          /wVtbW0=
        >
        E 0 90 44 60
        E 180 80 44 60
        <X 60 0 0 0 5 mmm
          /wVtbW0=
        >
        E 0 90 45 60
        E 180 80 45 60
        <X 90 0 0 0 5 +
          /wUr
        >
        E 0 90 42 60
        E 120 80 42 60
        E 58 90 74 60
        E 2 80 69 60
        E 0 90 69 60
        <X 60 0 0 0 5 Make
          /wVNYWtl
        >
        E 0 90 45 60
        E 90 80 45 60
        <X 90 0 0 0 5 your
          /wV5b3Vy
        >
        E 0 90 47 60
        E 120 80 47 60
        <X 120 0 0 0 5 mind
          /wVtaW5k
        >
        E 0 90 43 60
        E 30 80 43 60
        <X 30 0 0 0 5 +
          /wUr
        >
        E 0 90 44 60
        E 90 80 44 60
        <X 120 0 0 0 5 up
          /wV1cA==
        >
        E 0 90 40 60
        E 209 80 40 60
        <X 270 0 0 0 5 fast
          /wVmYXN0
        >
        E 0 90 42 60
        E 851 80 42 60
        E 78 80 74 60
        E 2 80 69 60
        E 240 90 69 60
        <X 510 0 0 0 5 If
          /wVJZg==
        >
        E 0 90 44 60
        E 90 80 44 60
        <X 150 0 0 0 5 you
          /wV5b3U=
        >
        E 0 90 45 60
        E 180 80 45 60
        <X 60 0 0 0 5 want
          /wV3YW50
        >
        E 0 90 47 60
        E 180 80 47 60
        <X 60 0 0 0 5 it
          /wVpdA==
        >
        E 0 90 47 60
        E 100 80 47 60
        <X 380 0 0 0 5 an-
          /wVhbi0=
        >
        E 0 90 4b 60
        E 30 80 4b 60
        <X 60 0 0 0 5 +
          /wUr
        >
        E 0 90 4c 60
        E 340 80 4c 60
        <X 40 0 0 0 5 y
          /wV5
        >
        E 0 90 4c 60
        E 110 80 4c 60
        <X 110 0 0 0 5 time
          /wV0aW1l
        >
        E 0 90 4c 60
        E 230 80 4c 60
        E 40 80 69 60
        E 210 90 69 60
        <X 30 0 0 0 5 I
          /wVJ
        >
        E 0 90 44 60
        E 110 80 44 60
        <X 100 0 0 0 5 can
          /wVjYW4=
        >
        E 0 90 45 60
        E 90 80 45 60
        <X 180 0 0 0 5 give
          /wVnaXZl
        >
        E 0 90 47 60
        E 170 80 47 60
        <X 70 0 0 0 5 it
          /wVpdA==
        >
        E 0 90 40 60
        E 120 80 40 60
        E 90 80 69 60
        E 0 90 69 60
        <X 240 0 0 0 5 But
          /wVCdXQ=
        >
        E 0 90 40 60
        E 60 80 40 60
        <X 60 0 0 0 5 you'd
          /wV5b3UnZA==
        >
        E 0 90 40 60
        E 60 80 40 60
        <X 90 0 0 0 5 bet-
          /wViZXQt
        >
        E 0 90 42 60
        E 150 80 42 60
        <X 60 0 0 0 5 ter
          /wV0ZXI=
        >
        E 0 90 44 60
        E 150 80 44 60
        <X 120 0 0 0 5 hur-
          /wVodXIt
        >
        E 0 90 45 60
        E 180 80 45 60
        <X 30 0 0 0 5 ry
          /wVyeQ==
        >
        E 0 90 45 60
        E 120 80 45 60
        E 118 90 74 60
        E 2 80 69 60
        E 0 90 69 60
        <X 30 0 0 0 5 "'Cause"
          /wUnQ2F1c2U=
        >
        E 0 90 45 60
        E 180 80 45 60
        <X 60 0 0 0 5 it
          /wVpdA==
        >
        E 0 90 47 60
        E 60 80 47 60
        <X 180 0 0 0 5 may
          /wVtYXk=
        >
        E 0 90 42 60
        E 30 80 42 60
        <X 60 0 0 0 5 +
          /wUr
        >
        E 0 90 44 60
        E 90 80 44 60
        <X 60 0 0 0 5 not
          /wVub3Q=
        >
        E 0 90 40 60
        E 300 80 40 60
        <X 180 0 0 0 5 last
          /wVsYXN0
        >
        E 0 90 42 60
        E 807 80 42 60
        E 363 80 69 60
        E 6 80 74 60
        E 474 90 69 60
        <X 510 0 0 0 5 Did
          /wVEaWQ=
        >
        E 0 90 4c 60
        E 180 80 4c 60
        <X 30 0 0 0 5 I
          /wVJ
        >
        E 0 90 4c 60
        E 210 80 4c 60
        <X 30 0 0 0 5 hear
          /wVoZWFy
        >
        E 0 90 4c 60
        E 210 80 4c 60
        <X 30 0 0 0 5 you
          /wV5b3U=
        >
        E 0 90 4c 60
        E 100 80 4c 60
        <X 170 0 0 0 5 say
          /wVzYXk=
        >
        E 0 90 4c 60
        E 180 80 4c 60
        <X 90 0 0 0 5 +
          /wUr
        >
        E 0 90 4a 60
        E 120 80 4a 60
        <X 90 0 0 0 5 that
          /wV0aGF0
        >
        E 0 90 4a 60
        E 120 80 4a 60
        <X 150 0 0 0 5 there
          /wV0aGVyZQ==
        >
        E 0 90 48 60
        E 120 80 48 60
        <X 130 0 0 0 5 must
          /wVtdXN0
        >
        E 0 90 47 60
        E 60 80 47 60
        <X 160 0 0 0 5 be
          /wViZQ==
        >
        E 0 90 43 60
        E 210 80 43 60
        <X 30 0 0 0 5 a
          /wVh
        >
        E 0 90 45 60
        E 90 80 45 60
        <X 160 0 0 0 5 catch?
          /wVjYXRjaD8=
        >
        E 0 90 47 60
        E 370 80 47 60
        E 290 80 69 60
        E 480 90 69 60
        <X 69 0 0 0 5 Will
          /wVXaWxs
        >
        E 0 90 48 60
        E 161 80 48 60
        <X 79 0 0 0 5 you
          /wV5b3U=
        >
        E 0 90 48 60
        E 141 80 48 60
        <X 80 0 0 0 5 walk
          /wV3YWxr
        >
        E 0 90 48 60
        E 120 80 48 60
        <X 139 0 0 0 5 a-
          /wVhLQ==
        >
        E 0 90 48 60
        E 131 80 48 60
        <X 79 0 0 0 5 way
          /wV3YXk=
        >
        E 0 90 48 60
        E 240 80 48 60
        <X 60 0 0 0 5 +
          /wUr
        >
        E 0 90 47 60
        E 60 80 47 60
        <X 150 0 0 0 5 from
          /wVmcm9t
        >
        E 0 90 47 60
        E 150 80 47 60
        <X 90 0 0 0 5 a
          /wVh
        >
        E 0 90 45 60
        E 60 80 45 60
        <X 180 0 0 0 5 fool
          /wVmb29s
        >
        E 0 90 47 60
        E 161 80 47 60
        <X 79 0 0 0 5 and
          /wVhbmQ=
        >
        E 0 90 47 60
        E 180 80 47 60
        <X 60 0 0 0 5 his
          /wVoaXM=
        >
        E 0 90 48 60
        E 60 80 48 60
        <X 210 0 0 0 5 mon-
          /wVtb24t
        >
        E 0 90 44 60
        E 90 80 44 60
        <X 90 0 0 0 5 ey?
          /wVleT8=
        >
        E 0 90 42 60
        E 918 80 42 60
        E 3 80 69 60
        E 960 90 69 60
        <X 480 0 0 0 5 If
          /wVJZg==
        >
        E 0 90 44 60
        E 90 80 44 60
        <X 199 0 0 0 5 you
          /wV5b3U=
        >
        E 0 90 45 60
        E 180 80 45 60
        <X 41 0 0 0 5 want
          /wV3YW50
        >
        E 0 90 47 60
        E 210 80 47 60
        <X 30 0 0 0 5 it
          /wVpdA==
        >
        E 0 90 47 60
        E 90 80 47 60
        <X 390 0 0 0 5 here
          /wVoZXJl
        >
        E 0 90 4b 60
        E 30 80 4b 60
        <X 30 0 0 0 5 +
          /wUr
        >
        E 0 90 4c 60
        E 309 80 4c 60
        <X 81 0 0 0 5 it
          /wVpdA==
        >
        E 0 90 4c 60
        E 210 80 4c 60
        <X 60 0 0 0 5 is
          /wVpcw==
        >
        E 0 90 4c 60
        E 180 80 4c 60
        E 30 80 69 60
        E 238 90 74 60
        E 2 90 69 60
        <X 30 0 0 0 5 Come
          /wVDb21l
        >
        E 0 90 44 60
        E 180 80 44 60
        <X 60 0 0 0 5 and
          /wVhbmQ=
        >
        E 0 90 45 60
        E 130 80 45 60
        <X 110 0 0 0 5 get
          /wVnZXQ=
        >
        E 0 90 47 60
        E 180 80 47 60
        <X 100 0 0 0 5 it
          /wVpdA==
        >
        E 0 90 40 60
        E 60 80 40 60
        E 108 80 74 60
        E 2 80 69 60
        E 0 90 69 60
        <X 240 0 0 0 5 But
          /wVCdXQ=
        >
        E 0 90 40 60
        E 60 80 40 60
        <X 90 0 0 0 5 you'd
          /wV5b3UnZA==
        >
        E 0 90 40 60
        E 60 80 40 60
        <X 60 0 0 0 5 bet-
          /wViZXQt
        >
        E 0 90 42 60
        E 180 80 42 60
        <X 30 0 0 0 5 ter
          /wV0ZXI=
        >
        E 0 90 44 60
        E 210 80 44 60
        <X 60 0 0 0 5 hur-
          /wVodXIt
        >
        E 0 90 45 60
        E 180 80 45 60
        <X 30 0 0 0 5 ry
          /wVyeQ==
        >
        E 0 90 45 60
        E 170 80 45 60
        E 70 80 69 60
        E 0 90 69 60
        <X 30 0 0 0 5 "'Cause"
          /wUnQ2F1c2U=
        >
        E 0 90 45 60
        E 180 80 45 60
        <X 90 0 0 0 5 it's
          /wVpdCdz
        >
        E 0 90 47 60
        E 60 80 47 60
        <X 150 0 0 0 5 go-
          /wVnby0=
        >
        E 0 90 42 60
        E 30 80 42 60
        <X 60 0 0 0 5 +
          /wUr
        >
        E 0 90 44 60
        E 90 80 44 60
        <X 70 0 0 0 5 in'
          /wVpbic=
        >
        E 0 90 42 60
        E 330 80 42 60
        <X 200 0 0 0 5 fast
          /wVmYXN0
        >
        E 0 90 40 60
        E 711 80 40 60
        E 399 80 69 60
        E 1920 90 69 60
        <X 540 0 0 0 5 If
          /wVJZg==
        >
        E 0 90 44 60
        E 90 80 44 60
        <X 180 0 0 0 5 you
          /wV5b3U=
        >
        E 0 90 45 60
        E 150 80 45 60
        <X 90 0 0 0 5 want
          /wV3YW50
        >
        E 0 90 47 60
        E 180 80 47 60
        <X 50 0 0 0 5 it
          /wVpdA==
        >
        E 0 90 47 60
        E 110 80 47 60
        <X 340 0 0 0 5 here
          /wVoZXJl
        >
        E 0 90 4b 60
        E 30 80 4b 60
        <X 30 0 0 0 5 +
          /wUr
        >
        E 0 90 4c 60
        E 390 80 4c 60
        <X 30 0 0 0 5 it
          /wVpdA==
        >
        E 0 90 4c 60
        E 210 80 4c 60
        <X 60 0 0 0 5 is
          /wVpcw==
        >
        E 0 90 4c 60
        E 150 80 4c 60
        E 130 80 69 60
        E 118 90 74 60
        E 2 90 69 60
        <X 60 0 0 0 5 Come
          /wVDb21l
        >
        E 0 90 44 60
        E 180 80 44 60
        <X 60 0 0 0 5 and
          /wVhbmQ=
        >
        E 0 90 45 60
        E 90 80 45 60
        <X 150 0 0 0 5 get
          /wVnZXQ=
        >
        E 0 90 47 60
        E 180 80 47 60
        <X 60 0 0 0 5 it
          /wVpdA==
        >
        E 0 90 40 60
        E 90 80 40 60
        E 88 80 74 60
        E 2 80 69 60
        E 0 90 69 60
        <X 240 0 0 0 5 Mmm
          /wVNbW0=
        >
        E 0 90 40 60
        E 210 80 40 60
        <X 60 0 0 0 5 mmm
          /wVtbW0=
        >
        E 0 90 42 60
        E 180 80 42 60
        <X 60 0 0 0 5 mmm
          /wVtbW0=
        >
        E 0 90 44 60
        E 180 80 44 60
        <X 60 0 0 0 5 mmm
          /wVtbW0=
        >
        E 0 90 45 60
        E 180 80 45 60
        <X 60 0 0 0 5 +
          /wUr
        >
        E 0 90 42 60
        E 150 80 42 60
        E 30 80 69 60
        E 0 90 69 60
        <X 30 0 0 0 5 Make
          /wVNYWtl
        >
        E 0 90 45 60
        E 120 80 45 60
        <X 150 0 0 0 5 your
          /wV5b3Vy
        >
        E 0 90 47 60
        E 90 80 47 60
        <X 120 0 0 0 5 mind
          /wVtaW5k
        >
        E 0 90 43 60
        E 30 80 43 60
        <X 30 0 0 0 5 +
          /wUr
        >
        E 0 90 44 60
        E 120 80 44 60
        <X 120 0 0 0 5 up
          /wV1cA==
        >
        E 0 90 40 60
        E 210 80 40 60
        <X 261 0 0 0 5 fast
          /wVmYXN0
        >
        E 0 90 42 60
        E 848 80 42 60
        E 61 80 69 60
        E 240 90 69 60
        <X 520 0 0 0 5 If
          /wVJZg==
        >
        E 0 90 44 60
        E 60 80 44 60
        <X 180 0 0 0 5 you
          /wV5b3U=
        >
        E 0 90 45 60
        E 150 80 45 60
        <X 90 0 0 0 5 want
          /wV3YW50
        >
        E 0 90 47 60
        E 210 80 47 60
        <X 30 0 0 0 5 it
          /wVpdA==
        >
        E 0 90 47 60
        E 90 80 47 60
        <X 421 0 0 0 5 an-
          /wVhbi0=
        >
        E 0 90 4b 60
        E 30 80 4b 60
        <X 30 0 0 0 5 +
          /wUr
        >
        E 0 90 4c 60
        E 420 80 4c 60
        <X 30 0 0 0 5 y
          /wV5
        >
        E 0 90 4c 60
        E 90 80 4c 60
        <X 120 0 0 0 5 time
          /wV0aW1l
        >
        E 0 90 4c 60
        E 180 80 4c 60
        E 227 90 74 60
        E 2 80 69 60
        E 0 90 69 60
        <X 60 0 0 0 5 I
          /wVJ
        >
        E 0 90 44 60
        E 90 80 44 60
        <X 150 0 0 0 5 can
          /wVjYW4=
        >
        E 0 90 45 60
        E 90 80 45 60
        <X 150 0 0 0 5 give
          /wVnaXZl
        >
        E 0 90 47 60
        E 180 80 47 60
        <X 90 0 0 0 5 it
          /wVpdA==
        >
        E 0 90 40 60
        E 60 80 40 60
        E 88 80 74 60
        E 2 80 69 60
        E 241 90 69 60
        <X 60 0 0 0 5 But
          /wVCdXQ=
        >
        E 0 90 40 60
        E 60 80 40 60
        <X 90 0 0 0 5 you'd
          /wV5b3UnZA==
        >
        E 0 90 40 60
        E 60 80 40 60
        <X 60 0 0 0 5 bet-
          /wViZXQt
        >
        E 0 90 42 60
        E 210 80 42 60
        <X 30 0 0 0 5 ter
          /wV0ZXI=
        >
        E 0 90 44 60
        E 150 80 44 60
        <X 90 0 0 0 5 hur-
          /wVodXIt
        >
        E 0 90 45 60
        E 210 80 45 60
        <X 30 0 0 0 5 ry
          /wVyeQ==
        >
        E 0 90 45 60
        E 120 80 45 60
        E 29 80 69 60
        E 0 90 69 60
        <X 91 0 0 0 5 "'Cause"
          /wUnQ2F1c2U=
        >
        E 0 90 45 60
        E 180 80 45 60
        <X 39 0 0 0 5 it
          /wVpdA==
        >
        E 0 90 47 60
        E 60 80 47 60
        <X 201 0 0 0 5 may
          /wVtYXk=
        >
        E 0 90 42 60
        E 30 80 42 60
        <X 60 0 0 0 5 +
          /wUr
        >
        E 0 90 44 60
        E 90 80 44 60
        <X 49 0 0 0 5 not
          /wVub3Q=
        >
        E 0 90 40 60
        E 270 80 40 60
        <X 210 0 0 0 5 last
          /wVsYXN0
        >
        E 0 90 42 60
        E 930 80 42 60
        E 190 80 69 60
        E 480 90 69 60
        <X 540 0 0 0 5 Did
          /wVEaWQ=
        >
        E 0 90 4c 60
        E 180 80 4c 60
        <X 30 0 0 0 5 I
          /wVJ
        >
        E 0 90 4c 60
        E 210 80 4c 60
        <X 60 0 0 0 5 hear
          /wVoZWFy
        >
        E 0 90 4c 60
        E 210 80 4c 60
        <X 30 0 0 0 5 you
          /wV5b3U=
        >
        E 0 90 4c 60
        E 90 80 4c 60
        <X 150 0 0 0 5 say
          /wVzYXk=
        >
        E 0 90 4c 60
        E 401 80 4c 60
        <X 49 0 0 0 5 that
          /wV0aGF0
        >
        E 0 90 4a 60
        E 131 80 4a 60
        <X 139 0 0 0 5 there
          /wV0aGVyZQ==
        >
        E 0 90 48 60
        E 120 80 48 60
        <X 90 0 0 0 5 must
          /wVtdXN0
        >
        E 0 90 47 60
        E 111 80 47 60
        <X 159 0 0 0 5 be
          /wViZQ==
        >
        E 0 90 43 60
        E 150 80 43 60
        <X 60 0 0 0 5 a
          /wVh
        >
        E 0 90 45 60
        E 60 80 45 60
        <X 210 0 0 0 5 catch?
          /wVjYXRjaD8=
        >
        E 0 90 46 60
        E 30 80 46 60
        <X 30 0 0 0 5 +
          /wUr
        >
        E 0 90 47 60
        E 390 80 47 60
        E 208 90 74 60
        E 2 80 69 60
        E 0 90 69 60
        <X 547 0 0 0 5 Will
          /wVXaWxs
        >
        E 0 90 48 60
        E 210 80 48 60
        <X 30 0 0 0 5 you
          /wV5b3U=
        >
        E 0 90 48 60
        E 150 80 48 60
        <X 60 0 0 0 5 walk
          /wV3YWxr
        >
        E 0 90 48 60
        E 150 80 48 60
        <X 120 0 0 0 5 a-
          /wVhLQ==
        >
        E 0 90 48 60
        E 150 80 48 60
        <X 60 0 0 0 5 way
          /wV3YXk=
        >
        E 0 90 48 60
        E 250 80 48 60
        <X 50 0 0 0 5 +
          /wUr
        >
        E 0 90 47 60
        E 70 80 47 60
        <X 130 0 0 0 5 from
          /wVmcm9t
        >
        E 0 90 47 60
        E 180 80 47 60
        <X 40 0 0 0 5 a
          /wVh
        >
        E 0 90 45 60
        E 60 80 45 60
        <X 208 0 0 0 5 fool
          /wVmb29s
        >
        E 0 90 47 60
        E 182 80 47 60
        <X 30 0 0 0 5 and
          /wVhbmQ=
        >
        E 0 90 47 60
        E 180 80 47 60
        <X 90 0 0 0 5 his
          /wVoaXM=
        >
        E 0 90 4c 60
        E 60 80 4c 60
        <X 150 0 0 0 5 mon-
          /wVtb24t
        >
        E 0 90 44 60
        E 120 80 44 60
        <X 60 0 0 0 5 ey?
          /wVleT8=
        >
        E 0 90 42 60
        E 602 80 42 60
        E 139 80 74 60
        E 2 80 69 60
        E 0 90 69 60
        <X 240 0 0 0 5 Son-
          /wVTb24t
        >
        E 0 90 4e 60
        E 60 80 4e 60
        <X 90 0 0 0 5 +
          /wUr
        >
        E 0 90 50 60
        E 270 80 50 60
        <X 60 0 0 0 5 ny!
          /wVueSE=
        >
        E 0 90 4e 60
        E 232 80 4e 60
        E 248 80 69 60
        E 0 90 69 60
        <X 30 0 0 0 5 If
          /wVJZg==
        >
        E 0 90 4c 60
        E 171 80 4c 60
        <X 279 0 0 0 5 you
          /wV5b3U=
        >
        E 0 90 48 60
        E 30 80 48 60
        <X 30 0 0 0 5 +
          /wUr
        >
        E 0 90 49 60
        E 170 80 49 60
        <X 280 0 0 0 5 want
          /wV3YW50
        >
        E 0 90 47 60
        E 210 80 47 60
        <X 59 0 0 0 5 it
          /wVpdA==
        >
        E 0 90 47 60
        E 90 80 47 60
        <X 390 0 0 0 5 here
          /wVoZXJl
        >
        E 0 90 4b 60
        E 30 80 4b 60
        <X 30 0 0 0 5 +
          /wUr
        >
        E 0 90 4c 60
        E 390 80 4c 60
        <X 30 0 0 0 5 it
          /wVpdA==
        >
        E 0 90 4c 60
        E 210 80 4c 60
        <X 30 0 0 0 5 is
          /wVpcw==
        >
        E 0 90 4c 60
        E 120 80 4c 60
        E 70 80 69 60
        E 231 90 69 60
        <X 60 0 0 0 5 Come
          /wVDb21l
        >
        E 0 90 44 60
        E 150 80 44 60
        <X 60 0 0 0 5 and
          /wVhbmQ=
        >
        E 0 90 45 60
        E 90 80 45 60
        <X 150 0 0 0 5 get
          /wVnZXQ=
        >
        E 0 90 47 60
        E 180 80 47 60
        <X 88 0 0 0 5 it
          /wVpdA==
        >
        E 0 90 40 60
        E 62 80 40 60
        E 118 90 74 60
        E 2 80 69 60
        E 0 90 69 60
        <X 280 0 0 0 5 But
          /wVCdXQ=
        >
        E 0 90 40 60
        E 60 80 40 60
        <X 60 0 0 0 5 you'd
          /wV5b3UnZA==
        >
        E 0 90 40 60
        E 60 80 40 60
        <X 60 0 0 0 5 bet-
          /wViZXQt
        >
        E 0 90 42 60
        E 180 80 42 60
        <X 50 0 0 0 5 ter
          /wV0ZXI=
        >
        E 0 90 44 60
        E 150 80 44 60
        <X 90 0 0 0 5 hur-
          /wVodXIt
        >
        E 0 90 45 60
        E 210 80 45 60
        <X 30 0 0 0 5 ry
          /wVyeQ==
        >
        E 0 90 45 60
        E 150 80 45 60
        E 58 80 74 60
        E 2 80 69 60
        E 0 90 69 60
        <X 30 0 0 0 5 "'Cause"
          /wUnQ2F1c2U=
        >
        E 0 90 45 60
        E 180 80 45 60
        <X 60 0 0 0 5 it's
          /wVpdCdz
        >
        E 0 90 47 60
        E 60 80 47 60
        <X 180 0 0 0 5 go-
          /wVnby0=
        >
        E 0 90 42 60
        E 60 80 42 60
        <X 60 0 0 0 5 +
          /wUr
        >
        E 0 90 44 60
        E 90 80 44 60
        <X 60 0 0 0 5 in'
          /wVpbic=
        >
        E 0 90 42 60
        E 240 80 42 60
        <X 240 0 0 0 5 fast
          /wVmYXN0
        >
        E 0 90 40 60
        E 690 80 40 60
        E 208 80 69 60
        E 242 90 69 60
        <X 240 0 0 0 5 You'd
          /wVZb3UnZA==
        >
        E 0 90 47 60
        E 120 80 47 60
        <X 140 0 0 0 5 bet-
          /wViZXQt
        >
        E 0 90 49 60
        E 210 80 49 60
        <X 50 0 0 0 5 ter
          /wV0ZXI=
        >
        E 0 90 4c 60
        E 120 80 4c 60
        <X 80 0 0 0 5 hur-
          /wVodXIt
        >
        E 0 90 4e 60
        E 30 80 4e 60
        <X 30 0 0 0 5 +
          /wUr
        >
        E 0 90 4f 60
        E 180 80 4f 60
        <X 61 0 0 0 5 ry
          /wVyeQ==
        >
        E 0 90 4e 60
        E 120 80 4e 60
        E 59 80 69 60
        E 0 90 69 60
        <X 31 0 0 0 5 "'Cause"
          /wUnQ2F1c2U=
        >
        E 0 90 4c 60
        E 180 80 4c 60
        <X 60 0 0 0 5 it's
          /wVpdCdz
        >
        E 0 90 49 60
        E 60 80 49 60
        <X 180 0 0 0 5 go-
          /wVnby0=
        >
        E 0 90 4e 60
        E 60 80 4e 60
        <X 90 0 0 0 5 +
          /wUr
        >
        E 0 90 4f 60
        E 90 80 4f 60
        <X 60 0 0 0 5 in'
          /wVpbic=
        >
        E 0 90 4e 60
        E 271 80 4e 60
        <X 148 0 0 0 5 fast
          /wVmYXN0
        >
        E 0 90 4c 60
        E 2070 80 4c 60
        <X 151 0 0 0 5 +
          /wUr
        >
        E 0 90 4a 60
        E 1159 80 4a 60
        E 188 90 74 60
        E 2 80 69 60
        E 0 90 69 60
        <X 586 0 0 0 5 Ooh
          /wVPb2g=
        >
        E 0 90 4c 60
        E 2652 80 4c 60
        E 600 80 74 60
        E 9 80 69 60
        E 473 90 69 60
        <X 21 0 0 0 5 Son-
          /wVTb24t
        >
        E 0 90 4e 60
        E 45 80 4e 60
        <X 61 0 0 0 5 +
          /wUr
        >
        E 0 90 50 60
        E 343 80 50 60
        <X 50 0 0 0 5 ny!
          /wVueSE=
        >
        E 0 90 4e 60
        E 150 80 4e 60
        E 50 80 69 60
        E 240 90 69 60
        <X 24 0 0 0 5 If
          /wVJZg==
        >
        E 0 90 4c 60
        E 145 80 4c 60
        <X 326 0 0 0 5 you
          /wV5b3U=
        >
        E 0 90 49 60
        E 180 80 49 60
        <X 334 0 0 0 5 want
          /wV3YW50
        >
        E 0 90 47 60
        E 225 80 47 60
        <X 30 0 0 0 5 it
          /wVpdA==
        >
        E 0 90 47 60
        E 90 80 47 60
        <X 401 0 0 0 5 here
          /wVoZXJl
        >
        E 0 90 4b 60
        E 15 80 4b 60
        <X 15 0 0 0 5 +
          /wUr
        >
        E 0 90 4c 60
        E 326 80 4c 60
        <X 109 0 0 0 5 it
          /wVpdA==
        >
        E 0 90 4c 60
        E 195 80 4c 60
        <X 45 0 0 0 5 is
          /wVpcw==
        >
        E 0 90 4c 60
        E 135 80 4c 60
        E 285 80 69 60
        E 0 90 69 60
        <X 30 0 0 0 5 Come
          /wVDb21l
        >
        E 0 90 44 60
        E 180 80 44 60
        <X 60 0 0 0 5 and
          /wVhbmQ=
        >
        E 0 90 45 60
        E 60 80 45 60
        <X 180 0 0 0 5 get
          /wVnZXQ=
        >
        E 0 90 47 60
        E 180 80 47 60
        <X 60 0 0 0 5 it
          /wVpdA==
        >
        E 0 90 40 60
        E 90 80 40 60
        E 118 90 74 60
        E 2 80 69 60
        E 0 90 69 60
        <X 255 0 0 0 5 But
          /wVCdXQ=
        >
        E 0 90 40 60
        E 45 80 40 60
        <X 75 0 0 0 5 you'd
          /wV5b3UnZA==
        >
        E 0 90 40 60
        E 45 80 40 60
        <X 75 0 0 0 5 bet-
          /wViZXQt
        >
        E 0 90 42 60
        E 180 80 42 60
        <X 60 0 0 0 5 ter
          /wV0ZXI=
        >
        E 0 90 44 60
        E 120 80 44 60
        <X 135 0 0 0 5 hur-
          /wVodXIt
        >
        E 0 90 45 60
        E 180 80 45 60
        <X 30 0 0 0 5 ry
          /wVyeQ==
        >
        E 0 90 45 60
        E 120 80 45 60
        E 118 80 74 60
        E 2 80 69 60
        E 0 90 69 60
        <X 15 0 0 0 5 "'Cause"
          /wUnQ2F1c2U=
        >
        E 0 90 45 60
        E 165 80 45 60
        <X 85 0 0 0 5 it's
          /wVpdCdz
        >
        E 0 90 47 60
        E 76 80 47 60
        <X 154 0 0 0 5 go-
          /wVnby0=
        >
        E 0 90 42 60
        E 75 80 42 60
        <X 45 0 0 0 5 +
          /wUr
        >
        E 0 90 44 60
        E 105 80 44 60
        <X 45 0 0 0 5 in'
          /wVpbic=
        >
        E 0 90 42 60
        E 270 80 42 60
        <X 195 0 0 0 5 fast
          /wVmYXN0
        >
        E 0 90 40 60
        E 908 80 40 60
        E 22 80 69 60
        E 240 90 69 60
        <X 271 0 0 0 5 You'd
          /wVZb3UnZA==
        >
        E 0 90 47 60
        E 90 80 47 60
        <X 150 0 0 0 5 bet-
          /wViZXQt
        >
        E 0 90 49 60
        E 195 80 49 60
        <X 45 0 0 0 5 ter
          /wV0ZXI=
        >
        E 0 90 4c 60
        E 135 80 4c 60
        <X 120 0 0 0 5 hur-
          /wVodXIt
        >
        E 0 90 4e 60
        E 15 80 4e 60
        <X 15 0 0 0 5 +
          /wUr
        >
        E 0 90 4f 60
        E 165 80 4f 60
        <X 45 0 0 0 5 ry
          /wVyeQ==
        >
        E 0 90 4e 60
        E 120 80 4e 60
        E 74 80 69 60
        E 0 90 69 60
        <X 46 0 0 0 5 "'Cause"
          /wUnQ2F1c2U=
        >
        E 0 90 4c 60
        E 180 80 4c 60
        <X 75 0 0 0 5 it's
          /wVpdCdz
        >
        E 0 90 49 60
        E 45 80 49 60
        <X 180 0 0 0 5 go-
          /wVnby0=
        >
        E 0 90 4e 60
        E 45 80 4e 60
        <X 30 0 0 0 5 +
          /wUr
        >
        E 0 90 4f 60
        E 165 80 4f 60
        <X 45 0 0 0 5 in'
          /wVpbic=
        >
        E 0 90 4e 60
        E 240 80 4e 60
        <X 225 0 0 0 5 fast
          /wVmYXN0
        >
        E 0 90 4c 60
        E 915 80 4c 60
        E 209 80 69 60
        E 0 90 69 60
        <X 255 0 0 0 5 You'd
          /wVZb3UnZA==
        >
        E 0 90 47 60
        E 105 80 47 60
        <X 135 0 0 0 5 bet-
          /wViZXQt
        >
        E 0 90 49 60
        E 210 80 49 60
        <X 30 0 0 0 5 ter
          /wV0ZXI=
        >
        E 0 90 4c 60
        E 150 80 4c 60
        <X 90 0 0 0 5 hur-
          /wVodXIt
        >
        E 0 90 4e 60
        E 60 80 4e 60
        <X 45 0 0 0 5 +
          /wUr
        >
        E 0 90 4f 60
        E 120 80 4f 60
        <X 30 0 0 0 5 ry
          /wVyeQ==
        >
        E 0 90 4e 60
        E 120 80 4e 60
        E 60 80 69 60
        E 0 90 69 60
        <X 30 0 0 0 5 "'Cause"
          /wUnQ2F1c2U=
        >
        E 0 90 4c 60
        E 165 80 4c 60
        <X 90 0 0 0 5 it's
          /wVpdCdz
        >
        E 0 90 49 60
        E 45 80 49 60
        <X 195 0 0 0 5 go-
          /wVnby0=
        >
        E 0 90 4e 60
        E 75 80 4e 60
        <X 75 0 0 0 5 +
          /wUr
        >
        E 0 90 4f 60
        E 120 80 4f 60
        <X 30 0 0 0 5 in'
          /wVpbic=
        >
        E 0 90 4e 60
        E 211 80 4e 60
        <X 235 0 0 0 5 fast
          /wVmYXN0
        >
        E 0 90 4c 60
        E 3737 80 4c 60
        <X 60 0 0 0 5 +
          /wUr
        >
        E 0 90 4e 60
        E 210 80 4e 60
        <X 120 0 0 0 5 +
          /wUr
        >
        E 0 90 50 60
        E 1290 80 50 60
        E 300 80 69 60
        E 9635 b0 7b 00
        CCINTERP 32
        GUID {5E82B2A1-9081-4805-8133-A465F5034A45}
        IGNTEMPO 0 120 4 4
        SRCCOLOR 59
        VELLANE 132 128 60
        CFGEDITVIEW 0 0 -1 12 0 0 0 0 0 0.5
        KEYSNAP 0
        TRACKSEL 0
        EVTFILTER 0 -1 -1 -1 -1 0 0 0 0 -1 -1 -1 -1 0 -1 0 -1 -1
        CFGEDIT 1 1 0 0 0 1 1 1 1 1 1 0.25 100 100 1200 800 0 2 2 2 0 0 0 0 0 0.5 1 0 1 64
      >
    >
  >
  <TRACK {80469119-6F1D-4FE5-A2F2-E446C864A2D8}
    NAME EVENTS
    PEAKCOL 16576
    BEAT -1
    AUTOMODE 0
    VOLPAN 1 0 -1 -1 1
    MUTESOLO 0 0 0
    IPHASE 0
    PLAYOFFS 0 1
    ISBUS 0 0
    BUSCOMP 0 0 0 0 0
    SHOWINMIX 1 0.6667 0.5 1 0.5 -1 -1 -1
    SEL 0
    REC 0 0 1 0 0 0 0 0
    TRACKHEIGHT 0 0 0 0 0 0
    INQ 0 0 0 0.5 100 0 0 100
    NCHAN 2
    FX 0
    TRACKID {80469119-6F1D-4FE5-A2F2-E446C864A2D8}
    PERF 0
    MIDIOUT -1
    MAINSEND 1 0
    <FXCHAIN
      SHOW 0
      LASTSEL 0
      DOCKED 0
    >
    <ITEM
      POSITION 0
      SNAPOFFS 0
      LENGTH 165.05873578958332
      LOOP 0
      ALLTAKES 0
      FADEIN 1 0 0 1 0 0 0
      FADEOUT 1 0 0 1 0 0 0
      MUTE 0 0
      SEL 0
      IGUID {7EEB94F3-3596-46C8-8671-285C77FD7239}
      IID 11
      NAME EVENTS
      VOLPAN 1 0 1 -1
      SOFFS 0 0
      PLAYRATE 1 1 0 -1 0 0.0025
      CHANMODE 0
      GUID {6DD6CF0B-7DC8-468A-82E3-C1C6F883568C}
      <SOURCE MIDI
        HASDATA 1 480 QN
        CCINTERP 32
        POOLEDEVTS {D52F75B7-11C7-46B1-8CC9-16D4FBD4752E}
        <X 0 0 0 0 3 EVENTS
          /wNFVkVOVFM=
        >
        <X 0 0 0 0 1 [crowd_normal]
          /wFbY3Jvd2Rfbm9ybWFsXQ==
        >
        <X 0 0 0 0 1 [prc_chorus_1a]
          /wFbcHJjX2Nob3J1c18xYV0=
        >
        <X 3840 0 0 0 1 [music_start]
          /wFbbXVzaWNfc3RhcnRd
        >
        <X 11040 0 0 0 1 "[section chorus_1b]"
          /wFbc2VjdGlvbiBjaG9ydXNfMWJd
        >
        <X 8160 0 0 0 1 "[section verse_1]"
          /wFbc2VjdGlvbiB2ZXJzZV8xXQ==
        >
        <X 9120 0 0 0 1 "[section chorus_2a]"
          /wFbc2VjdGlvbiBjaG9ydXNfMmFd
        >
        <X 9600 0 0 0 1 "[section chorus_2b]"
          /wFbc2VjdGlvbiBjaG9ydXNfMmJd
        >
        <X 7680 0 0 0 1 "[section chorus_2c]"
          /wFbc2VjdGlvbiBjaG9ydXNfMmNd
        >
        <X 8160 0 0 0 1 "[section verse_2]"
          /wFbc2VjdGlvbiB2ZXJzZV8yXQ==
        >
        <X 8640 0 0 0 1 "[section chorus_3a]"
          /wFbc2VjdGlvbiBjaG9ydXNfM2Fd
        >
        <X 8160 0 0 0 1 "[section chorus_3b]"
          /wFbc2VjdGlvbiBjaG9ydXNfM2Jd
        >
        <X 11520 0 0 0 1 "[section chorus_4a]"
          /wFbc2VjdGlvbiBjaG9ydXNfNGFd
        >
        <X 7680 0 0 0 1 "[section chorus_4b]"
          /wFbc2VjdGlvbiBjaG9ydXNfNGJd
        >
        <X 12960 0 0 0 1 [music_end]
          /wFbbXVzaWNfZW5kXQ==
        >
        <X 4799 0 0 0 1 [end]
          /wFbZW5kXQ==
        >
        E 3636 b0 7b 00
        CCINTERP 32
        GUID {9B28FEAF-7658-4067-AE86-2495CCD2FF73}
        IGNTEMPO 0 120 4 4
        SRCCOLOR 60
        VELLANE 132 128 60
        CFGEDITVIEW 0 4.143979 61 12 0 -1 0 0 0 0.5
        KEYSNAP 0
        TRACKSEL 0
        EVTFILTER 0 -1 -1 -1 -1 0 0 0 0 -1 -1 -1 -1 0 -1 0 -1 -1
        CFGEDIT 1 1 0 0 0 1 1 1 1 1 1 0.25 100 100 1200 800 0 0 2 2 0 0 0 0 0 0.5 1 0 1 64
      >
    >
  >
  <TRACK {B1221E10-A563-47BF-81B1-22A40C328EBC}
    NAME VENUE
    PEAKCOL 16576
    BEAT -1
    AUTOMODE 0
    VOLPAN 1 0 -1 -1 1
    MUTESOLO 0 0 0
    IPHASE 0
    PLAYOFFS 0 1
    ISBUS 0 0
    BUSCOMP 0 0 0 0 0
    SHOWINMIX 1 0.6667 0.5 1 0.5 -1 -1 -1
    SEL 1
    REC 0 0 1 0 0 0 0 0
    TRACKHEIGHT 0 0 0 0 0 0
    INQ 0 0 0 0.5 100 0 0 100
    NCHAN 2
    FX 0
    TRACKID {B1221E10-A563-47BF-81B1-22A40C328EBC}
    PERF 0
    MIDIOUT -1
    <MIDINOTENAMES
      0 37 "Spot Bass" 0 37
      0 38 "Spot Drums" 0 38
      0 39 "Spot Gtr" 0 39
      0 40 "Spot Vocal" 0 40
      0 41 "Spot Keys" 0 41
      0 47 ---- 0 47
      0 48 "RB2 Next" 0 48
      0 49 "RB2 Prev" 0 49
      0 50 "RB2 First" 0 50
      0 59 ---- 0 59
      0 60 "RB2 Cut" 0 60
      0 61 "RB2 Focus Bass" 0 61
      0 62 "RB2 Focus Drums" 0 62
      0 63 "RB2 Focus Gtr" 0 63
      0 64 "RB2 Focus Vocal" 0 64
      0 69 ---- 0 69
      0 70 "RB2 No Behind" 0 70
      0 71 "RB2 Only Far" 0 71
      0 72 "RB2 Only Close" 0 72
      0 73 "RB2 No Close" 0 73
      0 84 ---- 0 84
      0 85 "Sing Bass" 0 85
      0 86 "Sing Drums" 0 86
      0 87 "Sing Gtr" 0 87
      0 95 ---- 0 95
      0 96 "RB2 Default" 0 96
      0 97 "RB2 contrast_a" 0 97
      0 98 "RB2 film_16mm" 0 98
      0 99 "RB2 film_sepia_ink" 0 99
      0 100 "RB2 film_silvertone" 0 100
      0 101 "RB2 photo_negative" 0 101
      0 102 "RB2 photocopy" 0 102
      0 103 "RB2 ProFilm_a" 0 103
      0 104 "RB2 ProFilm_b" 0 104
      0 105 "RB2 ProFilm_mirror_a" 0 105
      0 106 "RB2 BlueTint" 0 106
      0 107 "RB2 video_a" 0 107
      0 108 "RB2 video_bw" 0 108
      0 109 "RB2 video_security" 0 109
      0 110 "RB2 video_trails" 0 110
    >
    MAINSEND 1 0
    <FXCHAIN
      SHOW 0
      LASTSEL 0
      DOCKED 0
    >
    <ITEM
      POSITION 0
      SNAPOFFS 0
      LENGTH 165.05873578958332
      LOOP 0
      ALLTAKES 0
      FADEIN 1 0 0 1 0 0 0
      FADEOUT 1 0 0 1 0 0 0
      MUTE 0 0
      SEL 1
      IGUID {BFAD9F5E-B85C-417F-ADDA-E27ACA35FD27}
      IID 12
      NAME VENUE
      VOLPAN 1 0 1 -1
      SOFFS 0 0
      PLAYRATE 1 1 0 -1 0 0.0025
      CHANMODE 0
      GUID {50007C4D-597A-4DD1-929B-185BC43A0715}
      <SOURCE MIDI
        HASDATA 1 480 QN
        CCINTERP 32
        POOLEDEVTS {912D162C-7F55-4C53-9D80-6A660139B15C}
        <x 0 0 0 0 3 VENUE
          /wNWRU5VRQ==
        >
        <x 0 0 0 0 1 "[lighting ()]"
          /wFbbGlnaHRpbmcgKCld
        >
        <x 0 0 0 0 1 [coop_all_far]
          /wFbY29vcF9hbGxfZmFyXQ==
        >
        <x 3840 0 0 0 1 [coop_bk_near]
          /wFbY29vcF9ia19uZWFyXQ==
        >
        <x 2850 0 0 0 1 [coop_gv_behind]
          /wFbY29vcF9ndl9iZWhpbmRd
        >
        <x 990 0 0 0 1 [coop_v_near]
          /wFbY29vcF92X25lYXJd
        >
        <x 960 0 0 0 1 [coop_b_near]
          /wFbY29vcF9iX25lYXJd
        >
        <x 945 0 0 0 1 [coop_v_near]
          /wFbY29vcF92X25lYXJd
        >
        <x 960 0 0 0 1 [coop_v_closeup]
          /wFbY29vcF92X2Nsb3NldXBd
        >
        <x 1440 0 0 0 1 [coop_v_near]
          /wFbY29vcF92X25lYXJd
        >
        <x 960 0 0 0 1 [coop_front_near]
          /wFbY29vcF9mcm9udF9uZWFyXQ==
        >
        <x 1440 0 0 0 1 [coop_v_near]
          /wFbY29vcF92X25lYXJd
        >
        <x 1440 0 0 0 1 [coop_front_near]
          /wFbY29vcF9mcm9udF9uZWFyXQ==
        >
        <x 1455 0 0 0 1 [coop_v_near]
          /wFbY29vcF92X25lYXJd
        >
        <x 2370 0 0 0 1 [coop_v_closeup]
          /wFbY29vcF92X2Nsb3NldXBd
        >
        <x 990 0 0 0 1 [coop_kv_behind]
          /wFbY29vcF9rdl9iZWhpbmRd
        >
        <x 1905 0 0 0 1 [coop_v_near]
          /wFbY29vcF92X25lYXJd
        >
        <x 1905 0 0 0 1 [coop_v_near]
          /wFbY29vcF92X25lYXJd
        >
        <x 960 0 0 0 1 [coop_d_near]
          /wFbY29vcF9kX25lYXJd
        >
        <x 1440 0 0 0 1 [coop_v_closeup]
          /wFbY29vcF92X2Nsb3NldXBd
        >
        <x 975 0 0 0 1 [coop_all_far]
          /wFbY29vcF9hbGxfZmFyXQ==
        >
        <x 2895 0 0 0 1 [coop_k_near]
          /wFbY29vcF9rX25lYXJd
        >
        <x 930 0 0 0 1 [coop_v_closeup]
          /wFbY29vcF92X2Nsb3NldXBd
        >
        <x 990 0 0 0 1 [coop_k_near]
          /wFbY29vcF9rX25lYXJd
        >
        <x 1890 0 0 0 1 [coop_bv_near]
          /wFbY29vcF9idl9uZWFyXQ==
        >
        <x 975 0 0 0 1 [coop_all_near]
          /wFbY29vcF9hbGxfbmVhcl0=
        >
        <x 1425 0 0 0 1 [coop_v_closeup]
          /wFbY29vcF92X2Nsb3NldXBd
        >
        <x 975 0 0 0 1 [coop_k_near]
          /wFbY29vcF9rX25lYXJd
        >
        <x 1905 0 0 0 1 [coop_v_near]
          /wFbY29vcF92X25lYXJd
        >
        <x 1440 0 0 0 1 [coop_v_near]
          /wFbY29vcF92X25lYXJd
        >
        <x 975 0 0 0 1 [coop_all_near]
          /wFbY29vcF9hbGxfbmVhcl0=
        >
        <x 1935 0 0 0 1 [coop_v_near]
          /wFbY29vcF92X25lYXJd
        >
        <x 960 0 0 0 1 [coop_v_closeup]
          /wFbY29vcF92X2Nsb3NldXBd
        >
        <x 1410 0 0 0 1 [coop_v_near]
          /wFbY29vcF92X25lYXJd
        >
        <x 975 0 0 0 1 [coop_k_near]
          /wFbY29vcF9rX25lYXJd
        >
        <x 1440 0 0 0 1 [coop_v_closeup]
          /wFbY29vcF92X2Nsb3NldXBd
        >
        <x 1425 0 0 0 1 [coop_b_near]
          /wFbY29vcF9iX25lYXJd
        >
        <x 1440 0 0 0 1 [coop_v_closeup]
          /wFbY29vcF92X2Nsb3NldXBd
        >
        <x 1470 0 0 0 1 [coop_v_closeup]
          /wFbY29vcF92X2Nsb3NldXBd
        >
        <x 2400 0 0 0 1 [coop_front_near]
          /wFbY29vcF9mcm9udF9uZWFyXQ==
        >
        <x 1410 0 0 0 1 [coop_gv_near]
          /wFbY29vcF9ndl9uZWFyXQ==
        >
        <x 975 0 0 0 1 [coop_v_near]
          /wFbY29vcF92X25lYXJd
        >
        <x 1920 0 0 0 1 [coop_front_near]
          /wFbY29vcF9mcm9udF9uZWFyXQ==
        >
        <x 945 0 0 0 1 [coop_v_near]
          /wFbY29vcF92X25lYXJd
        >
        <x 975 0 0 0 1 [coop_gv_near]
          /wFbY29vcF9ndl9uZWFyXQ==
        >
        <x 3345 0 0 0 1 [coop_v_near]
          /wFbY29vcF92X25lYXJd
        >
        <x 960 0 0 0 1 [coop_front_near]
          /wFbY29vcF9mcm9udF9uZWFyXQ==
        >
        <x 960 0 0 0 1 [coop_d_near]
          /wFbY29vcF9kX25lYXJd
        >
        <x 1935 0 0 0 1 [coop_gv_behind]
          /wFbY29vcF9ndl9iZWhpbmRd
        >
        <x 2385 0 0 0 1 [coop_bv_near]
          /wFbY29vcF9idl9uZWFyXQ==
        >
        <x 960 0 0 0 1 [coop_kv_behind]
          /wFbY29vcF9rdl9iZWhpbmRd
        >
        <x 1440 0 0 0 1 [coop_v_closeup]
          /wFbY29vcF92X2Nsb3NldXBd
        >
        <x 1455 0 0 0 1 [coop_v_near]
          /wFbY29vcF92X25lYXJd
        >
        <x 2895 0 0 0 1 [coop_g_behind]
          /wFbY29vcF9nX2JlaGluZF0=
        >
        <x 1905 0 0 0 1 [coop_v_closeup]
          /wFbY29vcF92X2Nsb3NldXBd
        >
        <x 1935 0 0 0 1 [coop_bv_behind]
          /wFbY29vcF9idl9iZWhpbmRd
        >
        <x 2400 0 0 0 1 [coop_kv_behind]
          /wFbY29vcF9rdl9iZWhpbmRd
        >
        <x 2370 0 0 0 1 [coop_front_near]
          /wFbY29vcF9mcm9udF9uZWFyXQ==
        >
        <x 1470 0 0 0 1 [coop_all_behind]
          /wFbY29vcF9hbGxfYmVoaW5kXQ==
        >
        <x 2370 0 0 0 1 [coop_kv_behind]
          /wFbY29vcF9rdl9iZWhpbmRd
        >
        <x 2415 0 0 0 1 [coop_kv_near]
          /wFbY29vcF9rdl9uZWFyXQ==
        >
        <x 1440 0 0 0 1 [coop_v_closeup]
          /wFbY29vcF92X2Nsb3NldXBd
        >
        <x 2385 0 0 0 1 [coop_front_behind]
          /wFbY29vcF9mcm9udF9iZWhpbmRd
        >
        <x 1455 0 0 0 1 [coop_v_near]
          /wFbY29vcF92X25lYXJd
        >
        <x 1905 0 0 0 1 [coop_all_behind]
          /wFbY29vcF9hbGxfYmVoaW5kXQ==
        >
        <x 3855 0 0 0 1 [coop_kv_near]
          /wFbY29vcF9rdl9uZWFyXQ==
        >
        <x 1455 0 0 0 1 [coop_b_near]
          /wFbY29vcF9iX25lYXJd
        >
        <x 1890 0 0 0 1 [coop_k_near]
          /wFbY29vcF9rX25lYXJd
        >
        E 7505 b0 7b 00
        CCINTERP 32
        GUID {AA154737-68BA-42EB-8C43-150867E355C0}
        IGNTEMPO 0 120 4 4
        SRCCOLOR 61
        VELLANE 132 128 60
        CFGEDITVIEW -2805.029381 9.78815 0 12 0 -1 0 0 0 0.5
        KEYSNAP 0
        TRACKSEL 0
        EVTFILTER 0 -1 -1 -1 -1 0 0 0 0 -1 -1 -1 -1 0 -1 0 -1 -1
        CFGEDIT 1 1 0 0 0 1 1 1 1 1 1 0.25 100 100 1200 800 0 2 2 2 0 0 0 0 0 0.5 1 0 1 64
      >
    >
  >
  <TRACK {40A7959D-F436-4B77-8631-EB9AB6988E3F}
    NAME BEAT
    PEAKCOL 16576
    BEAT -1
    AUTOMODE 0
    VOLPAN 1 0 -1 -1 1
    MUTESOLO 0 0 0
    IPHASE 0
    PLAYOFFS 0 1
    ISBUS 0 0
    BUSCOMP 0 0 0 0 0
    SHOWINMIX 1 0.6667 0.5 1 0.5 -1 -1 -1
    SEL 0
    REC 0 0 1 0 0 0 0 0
    TRACKHEIGHT 0 0 0 0 0 0
    INQ 0 0 0 0.5 100 0 0 100
    NCHAN 2
    FX 0
    TRACKID {40A7959D-F436-4B77-8631-EB9AB6988E3F}
    PERF 0
    MIDIOUT -1
    <MIDINOTENAMES
      0 12 Downbeat 0 12
      0 13 "Up Beats" 0 13
    >
    MAINSEND 1 0
    <FXCHAIN
      SHOW 0
      LASTSEL 0
      DOCKED 0
    >
    <ITEM
      POSITION 0
      SNAPOFFS 0
      LENGTH 165.05873578958332
      LOOP 0
      ALLTAKES 0
      FADEIN 1 0 0 1 0 0 0
      FADEOUT 1 0 0 1 0 0 0
      MUTE 0 0
      SEL 0
      IGUID {96FB1E97-83F8-43A9-94A4-18736B2DF9C0}
      IID 13
      NAME BEAT
      VOLPAN 1 0 1 -1
      SOFFS 0 0
      PLAYRATE 1 1 0 -1 0 0.0025
      CHANMODE 0
      GUID {3D6B648A-474E-470D-92D8-A5591232C635}
      <SOURCE MIDI
        HASDATA 1 480 QN
        CCINTERP 32
        POOLEDEVTS {761E7089-14E0-424F-BD30-6D595FF131DE}
        <X 0 0 0 0 3 BEAT
          /wNCRUFU
        >
        E 0 96 0c 64
        E 120 86 0c 60
        E 360 96 0d 64
        E 120 86 0d 60
        E 360 96 0d 64
        E 120 86 0d 60
        E 360 96 0d 64
        E 120 86 0d 60
        E 360 96 0c 64
        E 120 86 0c 60
        E 360 96 0d 64
        E 120 86 0d 60
        E 360 96 0d 64
        E 120 86 0d 60
        E 360 96 0d 64
        E 120 86 0d 60
        E 360 96 0c 64
        E 120 86 0c 60
        E 360 96 0d 64
        E 120 86 0d 60
        E 360 96 0d 64
        E 120 86 0d 60
        E 360 96 0d 64
        E 120 86 0d 60
        E 360 96 0c 64
        E 120 86 0c 60
        E 360 96 0d 64
        E 120 86 0d 60
        E 360 96 0d 64
        E 120 86 0d 60
        E 360 96 0d 64
        E 120 86 0d 60
        E 360 96 0c 64
        E 120 86 0c 60
        E 360 96 0d 64
        E 120 86 0d 60
        E 360 96 0d 64
        E 120 86 0d 60
        E 360 96 0d 64
        E 120 86 0d 60
        E 360 96 0c 64
        E 120 86 0c 60
        E 360 96 0d 64
        E 120 86 0d 60
        E 360 96 0d 64
        E 120 86 0d 60
        E 360 96 0d 64
        E 120 86 0d 60
        E 360 96 0c 64
        E 120 86 0c 60
        E 360 96 0d 64
        E 120 86 0d 60
        E 360 96 0d 64
        E 120 86 0d 60
        E 360 96 0d 64
        E 120 86 0d 60
        E 360 96 0c 64
        E 120 86 0c 60
        E 360 96 0d 64
        E 120 86 0d 60
        E 360 96 0d 64
        E 120 86 0d 60
        E 360 96 0d 64
        E 120 86 0d 60
        E 360 96 0c 64
        E 120 86 0c 60
        E 360 96 0d 64
        E 120 86 0d 60
        E 360 96 0d 64
        E 120 86 0d 60
        E 360 96 0d 64
        E 120 86 0d 60
        E 360 96 0c 64
        E 120 86 0c 60
        E 360 96 0d 64
        E 120 86 0d 60
        E 360 96 0d 64
        E 120 86 0d 60
        E 360 96 0d 64
        E 120 86 0d 60
        E 360 96 0c 64
        E 120 86 0c 60
        E 360 96 0d 64
        E 120 86 0d 60
        E 360 96 0d 64
        E 120 86 0d 60
        E 360 96 0d 64
        E 120 86 0d 60
        E 360 96 0c 64
        E 120 86 0c 60
        E 360 96 0d 64
        E 120 86 0d 60
        E 360 96 0d 64
        E 120 86 0d 60
        E 360 96 0d 64
        E 120 86 0d 60
        E 360 96 0c 64
        E 120 86 0c 60
        E 360 96 0d 64
        E 120 86 0d 60
        E 360 96 0d 64
        E 120 86 0d 60
        E 360 96 0d 64
        E 120 86 0d 60
        E 360 96 0c 64
        E 120 86 0c 60
        E 360 96 0d 64
        E 120 86 0d 60
        E 360 96 0d 64
        E 120 86 0d 60
        E 360 96 0d 64
        E 120 86 0d 60
        E 360 96 0c 64
        E 120 86 0c 60
        E 360 96 0d 64
        E 120 86 0d 60
        E 360 96 0d 64
        E 120 86 0d 60
        E 360 96 0d 64
        E 120 86 0d 60
        E 360 96 0c 64
        E 120 86 0c 60
        E 360 96 0d 64
        E 120 86 0d 60
        E 360 96 0d 64
        E 120 86 0d 60
        E 360 96 0d 64
        E 120 86 0d 60
        E 360 96 0c 64
        E 120 86 0c 60
        E 360 96 0d 64
        E 120 86 0d 60
        E 360 96 0d 64
        E 120 86 0d 60
        E 360 96 0d 64
        E 120 86 0d 60
        E 360 96 0c 64
        E 120 86 0c 60
        E 360 96 0d 64
        E 120 86 0d 60
        E 360 96 0d 64
        E 120 86 0d 60
        E 360 96 0d 64
        E 120 86 0d 60
        E 360 96 0c 64
        E 120 86 0c 60
        E 360 96 0d 64
        E 120 86 0d 60
        E 360 96 0d 64
        E 120 86 0d 60
        E 360 96 0d 64
        E 120 86 0d 60
        E 360 96 0c 64
        E 120 86 0c 60
        E 360 96 0d 64
        E 120 86 0d 60
        E 360 96 0d 64
        E 120 86 0d 60
        E 360 96 0d 64
        E 120 86 0d 60
        E 360 96 0c 64
        E 120 86 0c 60
        E 360 96 0d 64
        E 120 86 0d 60
        E 360 96 0d 64
        E 120 86 0d 60
        E 360 96 0d 64
        E 120 86 0d 60
        E 360 96 0c 64
        E 120 86 0c 60
        E 360 96 0d 64
        E 120 86 0d 60
        E 360 96 0d 64
        E 120 86 0d 60
        E 360 96 0d 64
        E 120 86 0d 60
        E 360 96 0c 64
        E 120 86 0c 60
        E 360 96 0d 64
        E 120 86 0d 60
        E 360 96 0d 64
        E 120 86 0d 60
        E 360 96 0d 64
        E 120 86 0d 60
        E 360 96 0c 64
        E 120 86 0c 60
        E 360 96 0d 64
        E 120 86 0d 60
        E 360 96 0d 64
        E 120 86 0d 60
        E 360 96 0d 64
        E 120 86 0d 60
        E 360 96 0c 64
        E 120 86 0c 60
        E 360 96 0d 64
        E 120 86 0d 60
        E 360 96 0d 64
        E 120 86 0d 60
        E 360 96 0d 64
        E 120 86 0d 60
        E 360 96 0c 64
        E 120 86 0c 60
        E 360 96 0d 64
        E 120 86 0d 60
        E 360 96 0d 64
        E 120 86 0d 60
        E 360 96 0d 64
        E 120 86 0d 60
        E 360 96 0c 64
        E 120 86 0c 60
        E 360 96 0d 64
        E 120 86 0d 60
        E 360 96 0d 64
        E 120 86 0d 60
        E 360 96 0d 64
        E 120 86 0d 60
        E 360 96 0c 64
        E 120 86 0c 60
        E 360 96 0d 64
        E 120 86 0d 60
        E 360 96 0d 64
        E 120 86 0d 60
        E 360 96 0d 64
        E 120 86 0d 60
        E 360 96 0c 64
        E 120 86 0c 60
        E 360 96 0d 64
        E 120 86 0d 60
        E 360 96 0d 64
        E 120 86 0d 60
        E 360 96 0d 64
        E 120 86 0d 60
        E 360 96 0c 64
        E 120 86 0c 60
        E 360 96 0d 64
        E 120 86 0d 60
        E 360 96 0d 64
        E 120 86 0d 60
        E 360 96 0d 64
        E 120 86 0d 60
        E 360 96 0c 64
        E 120 86 0c 60
        E 360 96 0d 64
        E 120 86 0d 60
        E 360 96 0d 64
        E 120 86 0d 60
        E 360 96 0d 64
        E 120 86 0d 60
        E 360 96 0c 64
        E 120 86 0c 60
        E 360 96 0d 64
        E 120 86 0d 60
        E 360 96 0d 64
        E 120 86 0d 60
        E 360 96 0d 64
        E 120 86 0d 60
        E 360 96 0c 64
        E 120 86 0c 60
        E 360 96 0d 64
        E 120 86 0d 60
        E 360 96 0d 64
        E 120 86 0d 60
        E 360 96 0d 64
        E 120 86 0d 60
        E 360 96 0c 64
        E 120 86 0c 60
        E 360 96 0d 64
        E 120 86 0d 60
        E 360 96 0d 64
        E 120 86 0d 60
        E 360 96 0d 64
        E 120 86 0d 60
        E 360 96 0c 64
        E 120 86 0c 60
        E 360 96 0d 64
        E 120 86 0d 60
        E 360 96 0d 64
        E 120 86 0d 60
        E 360 96 0d 64
        E 120 86 0d 60
        E 360 96 0c 64
        E 120 86 0c 60
        E 360 96 0d 64
        E 120 86 0d 60
        E 360 96 0d 64
        E 120 86 0d 60
        E 360 96 0d 64
        E 120 86 0d 60
        E 360 96 0c 64
        E 120 86 0c 60
        E 360 96 0d 64
        E 120 86 0d 60
        E 360 96 0d 64
        E 120 86 0d 60
        E 360 96 0d 64
        E 120 86 0d 60
        E 360 96 0c 64
        E 120 86 0c 60
        E 360 96 0d 64
        E 120 86 0d 60
        E 360 96 0d 64
        E 120 86 0d 60
        E 360 96 0d 64
        E 120 86 0d 60
        E 360 96 0c 64
        E 120 86 0c 60
        E 360 96 0d 64
        E 120 86 0d 60
        E 360 96 0d 64
        E 120 86 0d 60
        E 360 96 0d 64
        E 120 86 0d 60
        E 360 96 0c 64
        E 120 86 0c 60
        E 360 96 0d 64
        E 120 86 0d 60
        E 360 96 0d 64
        E 120 86 0d 60
        E 360 96 0d 64
        E 120 86 0d 60
        E 360 96 0c 64
        E 120 86 0c 60
        E 360 96 0d 64
        E 120 86 0d 60
        E 360 96 0d 64
        E 120 86 0d 60
        E 360 96 0d 64
        E 120 86 0d 60
        E 360 96 0c 64
        E 120 86 0c 60
        E 360 96 0d 64
        E 120 86 0d 60
        E 360 96 0d 64
        E 120 86 0d 60
        E 360 96 0d 64
        E 120 86 0d 60
        E 360 96 0c 64
        E 120 86 0c 60
        E 360 96 0d 64
        E 120 86 0d 60
        E 360 96 0d 64
        E 120 86 0d 60
        E 360 96 0d 64
        E 120 86 0d 60
        E 360 96 0c 64
        E 120 86 0c 60
        E 360 96 0d 64
        E 120 86 0d 60
        E 360 96 0d 64
        E 120 86 0d 60
        E 360 96 0d 64
        E 120 86 0d 60
        E 360 96 0c 64
        E 120 86 0c 60
        E 360 96 0d 64
        E 120 86 0d 60
        E 360 96 0d 64
        E 120 86 0d 60
        E 360 96 0d 64
        E 120 86 0d 60
        E 360 96 0c 64
        E 120 86 0c 60
        E 360 96 0d 64
        E 120 86 0d 60
        E 360 96 0d 64
        E 120 86 0d 60
        E 360 96 0d 64
        E 120 86 0d 60
        E 360 96 0c 64
        E 120 86 0c 60
        E 360 96 0d 64
        E 120 86 0d 60
        E 360 96 0d 64
        E 120 86 0d 60
        E 360 96 0d 64
        E 120 86 0d 60
        E 360 96 0c 64
        E 120 86 0c 60
        E 360 96 0d 64
        E 120 86 0d 60
        E 360 96 0d 64
        E 120 86 0d 60
        E 360 96 0d 64
        E 120 86 0d 60
        E 360 96 0c 64
        E 120 86 0c 60
        E 360 96 0d 64
        E 120 86 0d 60
        E 360 96 0d 64
        E 120 86 0d 60
        E 360 96 0d 64
        E 120 86 0d 60
        E 360 96 0c 64
        E 120 86 0c 60
        E 360 96 0d 64
        E 120 86 0d 60
        E 360 96 0d 64
        E 120 86 0d 60
        E 360 96 0d 64
        E 120 86 0d 60
        E 360 96 0c 64
        E 120 86 0c 60
        E 360 96 0d 64
        E 120 86 0d 60
        E 360 96 0d 64
        E 120 86 0d 60
        E 360 96 0d 64
        E 120 86 0d 60
        E 360 96 0c 64
        E 120 86 0c 60
        E 360 96 0d 64
        E 120 86 0d 60
        E 360 96 0d 64
        E 120 86 0d 60
        E 360 96 0d 64
        E 120 86 0d 60
        E 360 96 0c 64
        E 120 86 0c 60
        E 360 96 0d 64
        E 120 86 0d 60
        E 360 96 0d 64
        E 120 86 0d 60
        E 360 96 0d 64
        E 120 86 0d 60
        E 360 96 0c 64
        E 120 86 0c 60
        E 360 96 0d 64
        E 120 86 0d 60
        E 360 96 0d 64
        E 120 86 0d 60
        E 360 96 0d 64
        E 120 86 0d 60
        E 360 96 0c 64
        E 120 86 0c 60
        E 360 96 0d 64
        E 120 86 0d 60
        E 360 96 0d 64
        E 120 86 0d 60
        E 360 96 0d 64
        E 120 86 0d 60
        E 360 96 0c 64
        E 120 86 0c 60
        E 360 96 0d 64
        E 120 86 0d 60
        E 360 96 0d 64
        E 120 86 0d 60
        E 360 96 0d 64
        E 120 86 0d 60
        E 360 96 0c 64
        E 120 86 0c 60
        E 360 96 0d 64
        E 120 86 0d 60
        E 360 96 0d 64
        E 120 86 0d 60
        E 360 96 0d 64
        E 120 86 0d 60
        E 360 96 0c 64
        E 120 86 0c 60
        E 360 96 0d 64
        E 120 86 0d 60
        E 360 96 0d 64
        E 120 86 0d 60
        E 360 96 0d 64
        E 120 86 0d 60
        E 3995 b0 7b 00
        CCINTERP 32
        GUID {B98411F2-3BCA-4179-B20B-5B3E4069B2A8}
        IGNTEMPO 0 120 4 4
        SRCCOLOR 62
        VELLANE 132 128 60
        CFGEDITVIEW 0 0 -1 12 0 0 0 0 0 0.5
        KEYSNAP 0
        TRACKSEL 0
        EVTFILTER 0 -1 -1 -1 -1 0 0 0 0 -1 -1 -1 -1 0 -1 0 -1 -1
        CFGEDIT 1 1 0 0 0 1 1 1 1 1 1 0.25 100 100 1200 800 0 2 2 2 0 0 0 0 0 0.5 1 0 1 64
      >
    >
  >
>
